<?xml version="1.0" encoding="UTF-8" standalone="no"?>
<svg
   xmlns:dc="http://purl.org/dc/elements/1.1/"
   xmlns:cc="http://creativecommons.org/ns#"
   xmlns:rdf="http://www.w3.org/1999/02/22-rdf-syntax-ns#"
   xmlns:svg="http://www.w3.org/2000/svg"
   xmlns="http://www.w3.org/2000/svg"
   xmlns:xlink="http://www.w3.org/1999/xlink"
   version="1.1"
   id="svg5689"
   viewBox="0 0 230.62501 79.687504"
   height="22.489584mm"
   width="65.087502mm">
  <defs
     id="defs5691">
    <linearGradient
       id="linearGradient5187">
      <stop
         style="stop-color:#76b900;stop-opacity:1"
         offset="0"
         id="stop5183" />
      <stop
         style="stop-color:#3f51b5;stop-opacity:1"
         offset="1"
         id="stop5185" />
    </linearGradient>
    <linearGradient
       id="linearGradient5002">
      <stop
         id="stop4998"
         offset="0"
         style="stop-color:#2e7d32;stop-opacity:1" />
      <stop
         id="stop5000"
         offset="1"
         style="stop-color:#3f51b5;stop-opacity:1" />
    </linearGradient>
    <linearGradient
       gradientTransform="matrix(1.5353273,0.07191361,0.24400281,0.82059406,-539.46145,439.85781)"
       gradientUnits="userSpaceOnUse"
       y2="6.3033557"
       x2="538.19653"
       y1="105.44524"
       x1="500.66077"
       id="linearGradient5004"
       xlink:href="#linearGradient5187" />
    <linearGradient
       y2="48.290001"
       x2="0.023258213"
       y1="1.3300538"
       x1="47.555984"
       gradientUnits="userSpaceOnUse"
       id="linearGradient5038"
       xlink:href="#linearGradient5002" />
    <linearGradient
       y2="48.290001"
       x2="0.023258213"
       y1="1.3300538"
       x1="47.555984"
       gradientUnits="userSpaceOnUse"
       id="linearGradient5040"
       xlink:href="#linearGradient5002" />
    <linearGradient
       y2="48.290001"
       x2="0.023258213"
       y1="1.3300538"
       x1="47.555984"
       gradientUnits="userSpaceOnUse"
       id="linearGradient5042"
       xlink:href="#linearGradient5002" />
    <linearGradient
       y2="48.290001"
       x2="0.023258213"
       y1="1.3300538"
       x1="47.555984"
       gradientUnits="userSpaceOnUse"
       id="linearGradient5044"
       xlink:href="#linearGradient5002" />
    <linearGradient
       y2="48.290001"
       x2="0.023258213"
       y1="1.3300538"
       x1="47.555984"
       gradientUnits="userSpaceOnUse"
       id="linearGradient5046"
       xlink:href="#linearGradient5002" />
    <linearGradient
       y2="48.290001"
       x2="0.023258213"
       y1="1.3300538"
       x1="47.555984"
       gradientUnits="userSpaceOnUse"
       id="linearGradient5048"
       xlink:href="#linearGradient5002" />
  </defs>
  <metadata
     id="metadata5694">
    <rdf:RDF>
      <cc:Work
         rdf:about="">
        <dc:format>image/svg+xml</dc:format>
        <dc:type
           rdf:resource="http://purl.org/dc/dcmitype/StillImage" />
        <dc:title></dc:title>
      </cc:Work>
    </rdf:RDF>
  </metadata>
  <g
     transform="translate(-197.58089,-483.30425)"
     id="layer1"
     style="display:inline">
    <g
       id="g1062">
      <path
         d="m 360.3864,492.79228 c 4.9e-4,7e-4 -4.6e-4,10e-4 6.9e-4,10e-4 h 7e-4 v -7e-4 c 7e-4,-10e-4 0.004,-10e-4 0.004,-10e-4 -0.003,0 -0.004,0 -0.0124,0 z m 0.0791,0.0329 c -4.5e-4,2.4e-4 -7e-4,0.001 -7e-4,0.001 4.9e-4,-4.5e-4 7e-4,-5.3e-4 0.003,-6.9e-4 7e-4,-4.2e-4 0.003,-5.4e-4 0.004,-7e-4 7e-4,-8e-5 7e-4,-7e-4 0.001,-7e-4 -0.001,-4e-5 -0.004,0 -0.004,0 z m -0.5404,0.044 c -7e-4,7e-4 -0.003,0.001 -0.004,0.001 7e-4,-4e-5 0.003,1.2e-4 0.004,0 7e-4,-4.5e-4 0.003,-4.5e-4 0.003,-7e-4 -4.6e-4,-5e-4 -7e-4,-7e-4 -10e-4,-0.001 z m -1.14706,0.0645 a 19.331817,19.215906 0 0 0 -4.5937,0.34555 l -7e-4,7e-4 c -5e-4,5.3e-4 -7e-4,7e-4 -0.003,0.001 -3.7e-4,4.5e-4 4.6e-4,7e-4 -6.9e-4,10e-4 l -7e-4,-7e-4 -7e-4,7e-4 c -7e-4,4.1e-4 4.5e-4,6.9e-4 -7e-4,0.001 -2.5e-4,5.4e-4 -5e-4,7e-4 -7e-4,10e-4 0.17808,0.68047 0.55911,1.31704 1.09389,1.89331 0.003,4e-5 0.004,4.5e-4 0.008,7e-4 0.003,4.9e-4 0.004,6.9e-4 0.004,0.001 1.26096,-0.8686 2.6091,-1.61362 4.04396,-2.20225 a 19.331817,19.215906 0 0 0 -0.55057,-0.0476 z m -4.59836,0.34925 c 3.7e-4,-4.9e-4 10e-4,-4.5e-4 10e-4,-7e-4 -3.8e-4,-5.3e-4 -7e-4,-4.5e-4 -10e-4,-6.9e-4 l -7e-4,6.9e-4 z m 0,-0.001 7e-4,-7e-4 a 19.331817,19.215906 0 0 0 -0.003,0 z m 6.42003,-0.17299 v 7e-4 c 10e-4,-3.3e-4 0.004,-4.9e-4 0.004,-7e-4 -10e-4,0 -0.004,0 -0.004,0 z m 0.0165,0.0411 c -5e-4,4.9e-4 -7e-4,7e-4 -0.004,0.001 -7e-4,1.7e-4 -0.004,-5.3e-4 -0.004,-6.9e-4 l 7e-4,6.9e-4 c -10e-4,10e-4 -0.004,7e-4 -0.004,7e-4 -7e-4,7e-4 -7e-4,5e-4 -0.001,7e-4 -0.004,0.004 -10e-4,0.003 -0.0124,0.008 -0.003,7e-4 -0.004,0.001 -0.0124,0.001 -7e-4,-3.3e-4 -0.001,-5.8e-4 -0.004,-6.9e-4 -1.73576,0.60674 -3.35326,1.44687 -4.84621,2.46722 1.249,1.10898 3.07006,1.94539 5.01204,2.36703 0.004,-0.004 0.004,-0.008 0.004,-0.008 l 7e-4,-7e-4 1.13866,-4.62081 c -7e-4,-0.001 -0.004,-7e-4 -0.004,-0.004 a 19.331817,19.215906 0 0 0 -1.26161,-0.21242 z m -4.88999,2.47944 -7e-4,-7e-4 c -9e-5,4.9e-4 0,7e-4 0,10e-4 z m -1.56354,-2.383 c -4.9e-4,6.9e-4 -7e-4,10e-4 -0.001,10e-4 v 7e-4 l 7e-4,6.9e-4 c 4.9e-4,-2.5e-4 7e-4,-5.3e-4 0.001,-6.9e-4 -4.2e-4,-7e-4 -5.4e-4,-10e-4 -7e-4,-0.004 z m 0.0124,0.0329 -7e-4,7e-4 c 5e-4,3.2e-4 7e-4,4.4e-4 0.001,6.9e-4 -2e-4,-5.3e-4 -4.9e-4,-6.9e-4 -7e-4,-0.001 z m 7.82137,0.0411 c 7e-4,3.3e-4 0.004,6.9e-4 0.004,0.001 l 7e-4,-7e-4 z m -8.37581,0.0735 -7e-4,6.9e-4 a 19.331817,19.215906 0 0 1 0.003,0 z m -0.0371,0.004 c 1.7e-4,4.9e-4 7e-4,7e-4 7e-4,10e-4 a 19.331817,19.215906 0 0 1 10e-4,0 c -5e-4,-6.9e-4 -7e-4,-4.9e-4 -0.003,-10e-4 z m 7e-4,10e-4 a 19.331817,19.215906 0 0 0 -13.50439,11.18926 c 4.1e-4,6.9e-4 7e-4,0.003 10e-4,0.004 v 6.9e-4 a 0.30335758,0.30483975 0 0 1 0.1381,0.0842 c 1.57157,1.62553 3.32804,3.06108 5.21705,4.30713 1.68478,-5.3869 4.91811,-10.2107 9.33369,-13.43925 -0.57271,-0.63729 -0.98795,-1.35539 -1.18619,-2.14704 z m 1.18614,2.14709 c 5.4e-4,4.8e-4 7e-4,6.9e-4 0.001,0.001 v -0.001 c -5e-4,3.7e-4 -7e-4,4.8e-4 -0.001,6.9e-4 z m -9.33364,13.43921 v 7e-4 h 6.9e-4 v -7e-4 z m 17.09636,-15.49546 -1.13961,4.62924 v 6.9e-4 c 4.5e-4,7e-4 -4.6e-4,10e-4 7e-4,0.004 v 7e-4 7e-4 l 7e-4,6.9e-4 0.001,-0.004 c 1.6267,0.27078 3.27553,0.24202 4.67472,-0.11957 h 7e-4 v -7e-4 -6.9e-4 c -0.89405,-1.56547 -1.96367,-3.04088 -3.21464,-4.38763 l -7e-4,-6.9e-4 -7e-4,-7e-4 h -7e-4 c -4.6e-4,-4.9e-4 4.5e-4,-7e-4 -7e-4,-10e-4 l 7e-4,-7e-4 c -0.001,-5.4e-4 -0.004,-8e-5 -0.004,-0.001 0.004,6.9e-4 0.0124,0.004 0.004,0.001 -0.003,-0.004 -0.004,-0.004 -0.0124,-0.008 h -7e-4 v -7e-4 c 0,1.2e-4 -7e-4,-6.9e-4 -0.003,-10e-4 l -7e-4,-7e-4 v -6.9e-4 c -0.003,-0.003 -0.004,-0.008 -0.004,-0.008 l -7e-4,-6.9e-4 c -7e-4,-5.4e-4 4.5e-4,4.4e-4 -0.004,-10e-4 0.004,0.003 -10e-4,-6.9e-4 -10e-4,-6.9e-4 -0.001,-7e-4 -0.003,-10e-4 -0.004,-0.004 10e-4,-7e-4 0.004,-0.004 0.004,-0.004 -0.001,-2.1e-4 -0.004,1.6e-4 -0.004,0 -4.9e-4,1.2e-4 -7e-4,-2.1e-4 -0.001,0 -4.9e-4,-4e-5 -7e-4,0 -10e-4,0 -7e-4,-10e-4 -0.004,-0.004 -0.004,-0.004 0,-9e-5 -10e-4,2.8e-4 -10e-4,0 l 7e-4,-7e-4 c -7e-4,-4.1e-4 5e-4,-0.003 -10e-4,-0.003 a 19.331817,19.215906 0 0 0 -0.26999,-0.0727 z m 0.84232,0.037 v 7e-4 c 7e-4,-5e-5 10e-4,-5e-5 0.003,0 0,-3.4e-4 -7e-4,-5e-4 -0.001,-7e-4 z m -0.25721,0.0674 v 7e-4 c 6.9e-4,-2.5e-4 0.001,2e-4 0.003,0 -7e-4,-2.1e-4 -0.001,-5.4e-4 -0.003,-7e-4 z m -0.0936,0.0329 v 6.9e-4 a 19.331817,19.215906 0 0 1 10e-4,7e-4 c 2e-4,-4.9e-4 -7e-4,-7e-4 -7e-4,-0.001 z m 0.36603,0.11793 a 19.331817,19.215906 0 0 1 0.003,6.9e-4 v -6.9e-4 c -7e-4,0 -0.001,0 -0.003,0 z m 0.54699,0.17297 -7e-4,7e-4 c -7e-4,7e-4 -0.003,10e-4 -0.003,10e-4 1.03918,1.21308 1.93774,2.5194 2.71242,3.88768 5e-4,3.3e-4 7e-4,-4.9e-4 0.001,7e-4 0.003,10e-4 0.004,0.004 0.008,0.008 10e-4,10e-4 0.003,0.004 0.003,0.003 0.90061,-0.31309 1.66556,-0.78417 2.21112,-1.42511 -4e-5,-2.5e-4 -7e-4,-7e-4 -7e-4,-10e-4 a 19.331817,19.215906 0 0 0 -4.93113,-2.47662 z m -8.73546,2.07403 c -4.37331,3.18346 -7.58164,7.99274 -9.22652,13.34742 3.30728,2.08858 7.00798,3.59037 10.86739,4.46727 l 3.75413,-15.22758 -7e-4,-7e-4 c -0.001,-4.1e-4 -0.004,-7e-4 -0.004,-0.001 8e-5,6.9e-4 2.1e-4,0.001 0,0.004 -8e-5,6.9e-4 5e-4,-10e-4 -7e-4,-0.004 -2.06156,-0.4503 -4.03302,-1.33506 -5.38012,-2.58242 0.008,-2.9e-4 -0.004,0 -0.004,0 -0.003,0 4.5e-4,-7e-4 -7e-4,-0.001 z m 1.64087,17.81469 v 10e-4 l 7e-4,-6.9e-4 z m -10.86739,-4.46727 c -5.4e-4,-3.2e-4 4.5e-4,-6.9e-4 -7e-4,-0.001 h -7e-4 -7e-4 v 7e-4 l 7e-4,6.9e-4 c 4.9e-4,3e-4 -5e-4,7e-4 7e-4,0.001 1.6e-4,-4.9e-4 4.9e-4,-7e-4 7e-4,-0.001 z m 23.37283,-12.6282 c -7e-4,6.9e-4 -0.003,10e-4 -0.004,0.003 4.6e-4,3.3e-4 7e-4,-2.5e-4 0.003,0 7e-4,-6.9e-4 0.003,-10e-4 0.003,-0.003 z m 0.004,0.0411 a 19.331817,19.215906 0 0 1 10e-4,0.001 l 7e-4,-7e-4 c -7e-4,-1.7e-4 -10e-4,-7e-4 -0.003,-7e-4 z m 10e-4,0.001 c -0.61051,0.73409 -1.43492,1.26183 -2.38724,1.61231 -0.003,0.004 -0.004,0.004 -0.004,0.008 2.60229,4.88268 3.57153,10.54334 2.98729,15.9683 2.43064,-0.35706 4.82296,-0.97408 7.12071,-1.86516 a 0.30362838,0.30511183 0 0 1 0.08,-0.0206 c 4.1e-4,-4.9e-4 -5e-4,-6.9e-4 7e-4,-10e-4 a 19.331817,19.215906 0 0 0 -7.79536,-15.70328 z m -7.96944,1.36981 c -8e-5,5.3e-4 0,7e-4 0,0.001 l 7e-4,-7e-4 v -7e-4 z m -0.15746,0.23708 c -4.5e-4,7e-4 5e-4,7e-4 -6.9e-4,0.001 h 6.9e-4 c 9e-5,-4.8e-4 -8e-5,-6.9e-4 0,-0.001 z m 5.13975,0.19558 c 4.9e-4,7e-4 7e-4,0.001 10e-4,0.003 -1.54625,0.43043 -3.35426,0.44982 -5.11646,0.14791 -6.9e-4,5e-4 -6.9e-4,7e-4 -0.001,10e-4 h -10e-4 v 6.9e-4 l -3.75418,15.24258 c 4.5e-4,3.3e-4 7e-4,-4.9e-4 0.003,7e-4 3.87173,0.80452 7.88764,0.97574 11.81684,0.47289 0.61035,-5.38928 -0.34295,-11.029 -2.9416,-15.86722 l 7e-4,-7e-4 c -0.003,-7e-4 -0.003,-7e-4 -0.004,-10e-4 z m 0.004,0.001 c 7e-4,-4.8e-4 10e-4,-4.8e-4 0.003,-6.9e-4 -0.001,4.1e-4 4.9e-4,-3.8e-4 -0.003,0 z m -5.76026,0.0165 c -8e-5,6.9e-4 -1.2e-4,0.001 0,0.003 l 7e-4,7e-4 c 0,-7e-4 -4e-5,-0.001 0,-0.003 z m 0.62988,0.12737 c -4.1e-4,5.5e-4 -0.003,-4.8e-4 -0.003,7e-4 7e-4,3.3e-4 0.003,7e-4 0.004,10e-4 l 7e-4,-6.9e-4 -7e-4,-7e-4 z m -21.21517,5.9762 c 1.2e-4,7e-4 -1.3e-4,10e-4 0,0.003 l 7e-4,-7e-4 c 2.4e-4,-2e-4 6.9e-4,-6.9e-4 6.9e-4,-0.001 -4.5e-4,-3.7e-4 -6.9e-4,-4.1e-4 -10e-4,0 z m 0.003,0.0165 c 8e-5,5.3e-4 -1.6e-4,6.9e-4 0,0.001 a 19.331817,19.215906 0 0 1 7e-4,-7e-4 z m -0.19168,0.46447 c -7e-4,4.8e-4 -7e-4,6.9e-4 -0.003,0.001 h -7e-4 l -6.9e-4,7e-4 a 19.331817,19.215906 0 0 0 -1.19921,4.66667 19.331817,19.215906 0 0 0 0.11749,5.22287 c 4.9e-4,2.1e-4 4.9e-4,10e-4 6.9e-4,0.004 0.004,0.008 0.001,0.004 0.004,0.0123 5.4e-4,10e-4 7e-4,0.004 10e-4,0.004 v 7e-4 c 1.38938,2.59739 3.34836,4.80693 5.67645,6.59079 -0.62736,-4.03037 -0.31203,-8.1824 0.81157,-12.07122 v -7e-4 h -7e-4 c -1.95591,-1.27785 -3.77737,-2.75757 -5.40811,-4.43532 z m 4.59837,16.50757 c 9e-5,5e-4 -7e-5,7e-4 0,0.001 5e-4,-5e-5 7e-4,3e-5 0.001,0 -5.3e-4,-5.5e-4 -7e-4,-7e-4 -0.001,-0.001 z m 1.35951,-11.72386 c -5e-4,1.3e-4 -7e-4,-4.9e-4 -0.003,7e-4 h -7e-4 v 6.9e-4 7e-4 l 7e-4,7e-4 c -5.3e-4,-7e-4 1.3e-4,-0.001 0.003,-0.003 z m 0.004,0.004 c 7e-4,5e-4 -0.003,7e-4 -0.003,7e-4 h -7e-4 c -1.11767,3.95153 -1.38654,8.17241 -0.65691,12.23968 v 7e-4 h 7e-4 c 2.56676,1.81551 5.53791,3.12963 8.67305,3.89794 L 356.6912,514.4 c -3.86259,-0.87902 -7.56714,-2.37693 -10.89255,-4.45499 z m 10.89254,4.45511 c 4.5e-4,1.2e-4 6.9e-4,-2e-4 0.001,0 -3.7e-4,-7e-4 5e-4,-10e-4 -7e-4,-0.004 z m 20.43957,-1.34364 c 7e-4,10e-4 0.003,0.004 0.004,0.004 -6.9e-4,-10e-4 -0.003,-0.003 -0.003,-0.004 -4.5e-4,-4e-5 -7e-4,0 -0.003,0 z m -0.0206,0.046 a 19.331817,19.215906 0 0 1 0,0.004 c -2.33845,0.89121 -4.76827,1.51037 -7.23532,1.86237 h -0.003 c -0.53432,4.09542 -1.96585,8.02833 -4.2554,11.3652 l 7e-4,7e-4 c 2.84627,-0.59208 5.59283,-1.67624 8.06734,-3.29682 -1.3e-4,-4.9e-4 -7e-4,-6.9e-4 -7e-4,-10e-4 -1.3e-4,-7e-4 7e-4,-7e-4 10e-4,-7e-4 7e-4,-3.2e-4 0.003,-4.8e-4 0.003,-6.9e-4 0.003,-7e-4 0.004,-10e-4 0.008,-0.003 5e-4,-2.5e-4 7e-4,-5e-4 0.003,-7e-4 h 6.9e-4 c 7e-4,-6.9e-4 10e-4,-10e-4 0.003,-0.004 5e-4,-6.9e-4 -4.5e-4,-10e-4 7e-4,-10e-4 7e-4,-10e-4 0.003,-0.004 0.004,-0.004 -7e-4,6.9e-4 -0.003,10e-4 -0.004,0.004 -4.6e-4,3.7e-4 -7e-4,-4.5e-4 -10e-4,7e-4 7e-4,-7e-4 7e-4,-0.004 10e-4,-0.004 5e-4,-6.9e-4 -4.6e-4,-0.003 7e-4,-0.004 7e-4,-10e-4 0.004,-0.004 0.004,-0.004 7e-4,-6.9e-4 10e-4,-10e-4 0.003,-0.004 l 7e-4,7e-4 c 2.8e-4,-4.1e-4 -4.6e-4,-7e-4 0,-0.001 l 7e-4,-7e-4 h 7e-4 l 6.9e-4,-7e-4 c 7e-4,-10e-4 0.004,-0.004 0.004,-0.004 0.003,-0.004 0.004,-0.004 0.004,-0.001 5e-4,0.001 0.004,0.004 0.004,0.004 7e-4,-0.004 0.004,-0.004 0.004,-0.004 a 19.331817,19.215906 0 0 0 3.28232,-8.58052 19.331817,19.215906 0 0 0 0.0886,-1.30899 l 7e-4,-6.9e-4 c -4.5e-4,-7e-4 -7e-4,-7e-4 -0.001,-10e-4 z m -7.25766,1.24531 c 7e-4,4.5e-4 10e-4,-5e-4 0.003,6.9e-4 v -6.9e-4 c -7e-4,1.2e-4 -10e-4,-1.3e-4 -0.003,0 z m -0.54418,0.0867 c -7e-5,5e-4 9e-5,7e-4 0,10e-4 4.6e-4,3.3e-4 7e-4,5e-4 0.003,7e-4 -3.3e-4,-7e-4 -7e-4,-10e-4 -0.003,-0.003 z m -11.99858,0.10312 c -7e-4,5e-4 -0.001,7e-4 -0.003,10e-4 7e-4,2.1e-4 0.001,-1.6e-4 0.003,0 1.6e-4,-5.3e-4 -4e-5,-7e-4 0,-10e-4 z m 0.033,0.0123 c 2.1e-4,6.9e-4 0.003,0.004 -7e-4,0.003 h -7e-4 l -2.87639,11.68638 v 7e-4 h 7e-4 c 3.35855,0.73581 6.88316,0.8413 10.2915,0.25475 2.40493,-3.31452 3.91412,-7.28855 4.48097,-11.44203 v -6.9e-4 c -7e-4,-7e-4 -0.003,-10e-4 -0.004,-0.003 -3.95793,0.49126 -7.99663,0.3131 -11.89142,-0.49905 z m 7.41417,11.94572 c -4.1e-4,5e-4 4.9e-4,7e-4 -7e-4,10e-4 5e-4,-2.1e-4 7e-4,-6.9e-4 10e-4,-6.9e-4 l 7e-4,-7e-4 c -5e-4,8e-5 -7e-4,-1.2e-4 -0.001,0 z m 5.11644,-11.53098 c -2e-4,10e-4 -10e-4,0.003 -0.003,0.003 l -7e-4,6.9e-4 -7e-4,7e-4 c 7e-4,-1.2e-4 10e-4,2.1e-4 0.003,0 2.1e-4,-10e-4 -4.8e-4,-0.003 7e-4,-0.004 z m -31.2986,1.00284 c 0.003,0.004 0.004,0.0123 0.004,0.0123 -10e-4,-0.004 -0.004,-0.0123 -0.004,-0.0123 z m 0.55067,0.88855 v 7e-4 c 5e-4,5.3e-4 7e-4,6.9e-4 10e-4,0.001 a 19.331817,19.215906 0 0 1 -7e-4,-0.003 z m 10e-4,0.003 a 19.331817,19.215906 0 0 0 6.84301,10.39797 c -0.61949,-1.52813 -1.072,-3.10552 -1.37813,-4.70603 -3.8e-4,-6.9e-4 -5e-4,-10e-4 -7e-4,-0.004 -7e-4,0 -0.003,5e-4 -0.003,0 v -6.9e-4 c -4.9e-4,-5e-4 -6.9e-4,-7e-4 -10e-4,-10e-4 -5e-4,-4.9e-4 -7e-4,-6.9e-4 -0.003,-0.001 -2.14665,-1.558 -4.00883,-3.46359 -5.45836,-5.68446 z m 5.31394,4.82492 c -7e-4,3e-4 -7e-4,5e-5 -0.003,7e-4 8e-5,5.4e-4 -8e-5,7e-4 0,10e-4 8e-5,-6.9e-4 7e-4,-10e-4 0.003,-0.004 z m 0.69326,0.50281 c 7e-4,6.9e-4 7e-4,10e-4 0.001,0.004 -2.1e-4,-5e-4 7e-4,-0.001 0,-0.001 -5.4e-4,-4.9e-4 -7e-4,-6.9e-4 -0.001,-10e-4 z m 0.17683,0.86047 c -4.1e-4,4.9e-4 -7e-4,7e-4 -0.003,7e-4 0.36151,1.67554 0.89097,3.32052 1.61195,4.90264 7e-4,7e-4 0.003,0.001 0.004,0.004 0.003,10e-4 -4.9e-4,0.003 7e-4,0.004 v 7e-4 c 2.5e-4,4.9e-4 -1.2e-4,7e-4 0,10e-4 5e-4,-2.8e-4 7e-4,-6.9e-4 10e-4,-6.9e-4 v -7e-4 h 7e-4 c 1.2e-4,4.9e-4 5.3e-4,7e-4 7e-4,10e-4 7e-4,10e-4 0.003,0.004 0.003,0.004 a 19.331817,19.215906 0 0 0 5.75559,2.66197 19.331817,19.215906 0 0 0 7e-4,0 l 7e-4,-7e-4 c 2.5e-4,-4.9e-4 5.4e-4,-10e-4 0.001,-0.004 l 0.96909,-3.93262 c -3.00271,-0.7329 -5.84439,-1.96564 -8.35077,-3.6469 z m 8.35064,3.64702 h 7e-4 v -0.003 z m 19.13604,-2.44476 a 19.331817,19.215906 0 0 1 -0.001,10e-4 c 7e-4,-3.7e-4 0.001,-5.3e-4 0.003,-6.9e-4 z m -0.0466,0.0587 c -2.3705,1.34342 -4.94075,2.24219 -7.58377,2.73411 -0.0206,0.004 -0.0424,0.0123 -0.0635,0.0123 l 7e-4,7e-4 c 7e-4,-10e-4 5e-4,-4.6e-4 -0.001,6.9e-4 h -7e-4 c -1.07677,1.44739 -2.31975,2.77302 -3.73641,3.92979 a 19.331817,19.215906 0 0 0 11.38714,-6.67836 c -5e-4,-2.8e-4 -7e-4,-5e-4 -10e-4,-7e-4 z m -11.38543,6.67889 a 19.331817,19.215906 0 0 1 -0.004,6.9e-4 c 7e-4,5e-4 10e-4,-4.9e-4 0.003,7e-4 7e-4,-5e-4 0.001,-7e-4 0.003,-10e-4 z m 3.73835,-3.93168 c 4.1e-4,-6.9e-4 7e-4,-10e-4 10e-4,-0.003 -7e-4,4.2e-4 -10e-4,7e-4 -0.004,10e-4 5e-4,1.7e-4 7e-4,-5e-4 0.003,7e-4 z m -11.41623,-0.3706 v 6.9e-4 h 7e-4 v -6.9e-4 z m 0.18549,0.0563 -7e-4,7e-4 c -7e-4,4.9e-4 0.004,-7e-4 0.003,-7e-4 -7e-4,2.5e-4 -0.001,-1.7e-4 -0.003,0 z m 0.44071,0.10559 -0.97279,3.94943 c 7e-4,4.1e-4 4.9e-4,5.3e-4 0.003,0.001 0.003,7e-4 7e-4,0.003 0.003,0.004 a 19.331817,19.215906 0 0 0 6.78333,0.36239 19.331817,19.215906 0 0 0 7e-4,0 19.331817,19.215906 0 0 0 0.004,-6.9e-4 c 0.004,-7e-4 0.008,-10e-4 0.0124,-0.003 h 7e-4 c 4.5e-4,0 7e-4,-4.9e-4 0.001,-7e-4 6.9e-4,-4.9e-4 6.9e-4,-10e-4 0.003,-0.004 4.6e-4,-4.5e-4 7e-4,4.1e-4 10e-4,0 -7e-4,4.1e-4 -10e-4,10e-4 -0.004,0.004 6.9e-4,-4.1e-4 0.003,-6.9e-4 0.004,-10e-4 0.003,-7e-4 0.004,-0.003 0.004,-0.004 -2.5e-4,-5e-4 -7e-4,-7e-4 -7e-4,-10e-4 -4e-5,-7e-4 0.004,-0.001 0.004,-0.004 1.53832,-1.13355 2.88629,-2.46497 4.04952,-3.94006 l -7e-4,-7e-4 c -3.2958,0.48875 -6.67513,0.34886 -9.90486,-0.36033 z m 10.71645,0.10108 c -0.003,10e-4 -0.004,0.004 -0.0124,0.004 -4.6e-4,4.6e-4 4.9e-4,7e-4 -7e-4,10e-4 4.9e-4,-2e-4 7e-4,2.5e-4 0.001,0 0.003,-10e-4 0.004,-0.004 0.004,-0.004 2.9e-4,-7e-4 7e-4,-10e-4 0.001,-0.004 z m -0.31409,0.0945 c -7e-4,7e-4 -0.003,7e-4 -0.004,0.003 7e-4,-2.1e-4 0.003,2e-4 0.004,0 8e-5,-7e-4 -9e-5,-7e-4 0,-0.003 z m -0.37552,0.0748 c 0.003,-4.5e-4 0.0124,-10e-4 -0.003,10e-4 6.9e-4,-4.5e-4 0.003,-7e-4 0.004,-10e-4 -4.9e-4,0 -7e-4,-8e-5 -0.001,0 z m -17.84458,0.52909 c -6.9e-4,1.7e-4 -10e-4,5.4e-4 -0.003,7e-4 0.001,0 0.003,-1.3e-4 0.004,0 a 19.331817,19.215906 0 0 1 -0.001,-7e-4 z m 0.14633,0.10889 v 7e-4 c 4.9e-4,2.5e-4 7e-4,-1.2e-4 10e-4,0 a 19.331817,19.215906 0 0 1 -10e-4,-7e-4 z m 0.054,0.058 c -7e-4,6.9e-4 -7e-4,0.001 -10e-4,0.003 4.9e-4,-4.1e-4 6.9e-4,-4.9e-4 10e-4,-6.9e-4 1.6e-4,-4.1e-4 -3.3e-4,-7e-4 0,-0.001 z m -0.082,0.0123 c -7e-4,7e-4 4.9e-4,0.001 -7e-4,0.003 h 7e-4 c -8e-5,-7e-4 1.2e-4,-10e-4 0,-0.003 z m -0.0247,0.004 c -7e-4,8e-5 -10e-4,5.4e-4 -0.003,7e-4 4.9e-4,0 0.003,-1.3e-4 0.003,0 z m 0.31286,0.11628 c 0,5.3e-4 0,6.9e-4 0,10e-4 5e-5,-3.8e-4 10e-4,-4.9e-4 10e-4,-7e-4 a 19.331817,19.215906 0 0 1 -10e-4,-6.9e-4 z m 0.033,0.037 c 4.1e-4,7e-4 -2.5e-4,7e-4 0,0.001 h 7e-4 c -2.5e-4,-5.4e-4 -4.9e-4,-7e-4 -7e-4,-0.001 z m -0.11748,0.17627 c 4e-5,4.9e-4 7e-4,0.004 7e-4,10e-4 -4e-5,-4.8e-4 1.2e-4,-6.9e-4 0,-10e-4 z m 0.0124,0 c -2e-4,7e-4 -7e-4,7e-4 -0.001,0.004 l 0.001,-7e-4 c 4e-5,-6.9e-4 0,-6.9e-4 0,-10e-4 z m 14.20315,3.01408 c -4.6e-4,1.3e-4 -7e-4,7e-4 -0.001,7e-4 4.5e-4,-2.4e-4 7e-4,1.7e-4 0.001,0 z m -0.95136,0.0431 -7e-4,7e-4 7e-4,7e-4 7e-4,-7e-4 z"
         style="display:inline;opacity:1;fill:#2e7d32;fill-opacity:1;stroke:none;stroke-width:0.1679766;stroke-miterlimit:0;stroke-opacity:1"
         id="path2392-1-6-1-8-8-0-5-3-1-9-1-6-4" />
      <g
         aria-label="Agora"
         style="font-style:normal;font-variant:normal;font-weight:normal;font-stretch:normal;font-size:80px;line-height:1.25;font-family:Roboto;-inkscape-font-specification:Roboto;letter-spacing:0px;word-spacing:0px;fill:#2e7d32;fill-opacity:1;stroke:none;stroke-width:0.9375"
         id="text4814"
         transform="matrix(0.82445036,0,0,0.82173043,-155.07181,438.88537)">
        <path
           id="path5050"
           transform="scale(0.9375)"
           style="font-style:normal;font-variant:normal;font-weight:bold;font-stretch:normal;font-size:75px;font-family:Roboto;-inkscape-font-specification:'Roboto Bold';fill:#2e7d32;fill-opacity:1;stroke-width:1"
           d="m 573.74023,58.216797 -5.12304,14.890625 c 0.003,0.0018 0.005,0.004 0.008,0.0059 l 0.17578,-0.521484 6.6582,21.289062 h -13.81054 l 0.0156,-0.04297 c -0.0201,-0.0016 -0.0344,0.0082 -0.0566,0.002 -0.0494,-0.01389 -0.0671,-0.03331 -0.10742,-0.04883 l -3.2168,9.34765 c 0.007,0.005 0.0146,0.009 0.0215,0.0137 0.007,0.006 0.0307,0.0184 0.0215,0.0215 -0.0112,0.004 -0.0412,-0.0242 -0.0312,-0.0176 0.21322,0.14223 0.23855,0.1741 0.28906,0.2168 h 20.03907 l 3.94531,11.71875 h 12.46094 z m -17.42187,50.632813 c -0.007,0.006 -0.006,0.0186 -0.008,0.0215 z m -1.875,5.43945 -0.0352,0.10352 c 0,0 0.002,0.002 0.002,0.002 l 0.0351,-0.10547 c 0,0 -0.002,0 -0.002,0 z m -0.22656,0.66211 -0.0469,0.14063 0.0488,-0.14063 c 0,0 -0.002,0 -0.002,0 z" />
        <path
           d="m 560.66064,87.793259 q 0,-9.118653 4.32129,-14.685059 4.35791,-5.566406 11.71875,-5.566406 6.51856,0 10.14405,4.467773 l 0.43945,-3.735351 h 9.59473 v 38.305664 q 0,5.2002 -2.38037,9.04541 -2.34375,3.84521 -6.62842,5.85937 -4.28467,2.01417 -10.03418,2.01417 -4.35791,0 -8.4961,-1.75782 -4.13818,-1.72119 -6.2622,-4.46777 l 4.6875,-6.44531 q 3.95507,4.43115 9.59472,4.43115 4.21143,0 6.55518,-2.27051 2.34375,-2.23389 2.34375,-6.37207 v -2.12402 q -3.66211,4.13818 -9.63135,4.13818 -7.14111,0 -11.57226,-5.56641 -4.39454,-5.603023 -4.39454,-14.831538 z m 10.5835,0.769043 q 0,5.3833 2.16065,8.459472 2.16064,3.039556 5.93261,3.039556 4.83399,0 6.92139,-3.625493 V 79.773239 q -2.12402,-3.625488 -6.84815,-3.625488 -3.80859,0 -6.00585,3.112793 -2.16065,3.112793 -2.16065,9.301758 z"
           style="font-style:normal;font-variant:normal;font-weight:bold;font-stretch:normal;font-size:75px;font-family:Roboto;-inkscape-font-specification:'Roboto Bold';fill:#2e7d32;fill-opacity:1;stroke-width:0.9375"
           id="path5052" />
        <path
           d="m 669.71826,78.198532 q -2.16064,-0.292969 -3.80859,-0.292969 -6.00586,0 -7.87354,4.064942 V 107.89824 H 647.45264 V 68.274216 h 9.99756 l 0.29296,4.724121 q 3.18604,-5.456543 8.82569,-5.456543 1.75781,0 3.2959,0.476074 z"
           style="font-style:normal;font-variant:normal;font-weight:bold;font-stretch:normal;font-size:75px;font-family:Roboto;-inkscape-font-specification:'Roboto Bold';fill:#2e7d32;fill-opacity:1;stroke-width:0.9375"
           id="path5056" />
        <path
           d="m 696.78125,107.89824 q -0.73242,-1.42822 -1.06201,-3.55225 -3.84522,4.28467 -9.99756,4.28467 -5.82275,0 -9.66797,-3.36914 -3.80859,-3.36914 -3.80859,-8.496093 0,-6.298828 4.65088,-9.667969 4.6875,-3.369141 13.51318,-3.405762 h 4.87061 v -2.270508 q 0,-2.746582 -1.42823,-4.394531 -1.3916,-1.647949 -4.43115,-1.647949 -2.67334,0 -4.21143,1.281738 -1.50146,1.281738 -1.50146,3.515625 h -10.5835 q 0,-3.442383 2.12403,-6.37207 2.12402,-2.929688 6.00586,-4.577637 3.88183,-1.68457 8.71582,-1.68457 7.32422,0 11.60888,3.69873 4.32129,3.66211 4.32129,10.327149 v 17.175293 q 0.0366,5.639644 1.57471,8.532714 v 0.62256 z m -8.75244,-7.36084 q 2.34375,0 4.32129,-1.025391 1.97754,-1.062012 2.92969,-2.819825 v -6.811523 h -3.95508 q -7.94678,0 -8.45948,5.493164 l -0.0366,0.622559 q 0,1.977539 1.3916,3.259277 1.39161,1.281739 3.8086,1.281739 z"
           style="font-style:normal;font-variant:normal;font-weight:bold;font-stretch:normal;font-size:75px;font-family:Roboto;-inkscape-font-specification:'Roboto Bold';fill:#2e7d32;fill-opacity:1;stroke-width:0.9375"
           id="path5058" />
      </g>
      <g
         aria-label="Live"
         style="font-style:normal;font-variant:normal;font-weight:normal;font-stretch:normal;font-size:80px;line-height:1.25;font-family:Roboto;-inkscape-font-specification:Roboto;letter-spacing:0px;word-spacing:0px;fill:#616161;fill-opacity:1;stroke:none;stroke-width:0.9375"
         id="text4818"
         transform="matrix(0.82445036,0,0,0.82173043,-247.95216,408.10717)">
        <path
           d="m 551.38641,178.92776 h 23.32764 v 8.82569 h -34.31396 v -53.32031 h 10.98632 z"
           style="font-style:normal;font-variant:normal;font-weight:bold;font-stretch:normal;font-size:75px;font-family:Roboto;-inkscape-font-specification:'Roboto Bold';fill:#616161;fill-opacity:1;stroke-width:0.9375"
           id="path5161" />
        <path
           id="path5163"
           transform="scale(0.9375)"
           style="font-style:normal;font-variant:normal;font-weight:bold;font-stretch:normal;font-size:75px;font-family:Roboto;-inkscape-font-specification:'Roboto Bold';fill:#616161;fill-opacity:1;stroke-width:1"
           d="m 619.55078,158.00391 v 42.26562 h 11.32813 v -42.26562 z" />
        <path
           d="m 615.03387,174.8262 7.36084,-26.69677 v 0 l -10.91732,39.62402 h -1.49723 l -13.3667,-39.62402 h 11.05957 z"
           style="font-style:normal;font-variant:normal;font-weight:bold;font-stretch:normal;font-size:75px;font-family:Roboto;-inkscape-font-specification:'Roboto Bold';fill:#616161;fill-opacity:1;stroke-width:0.9375"
           id="path5165" />
        <path
           d="m 655.93964,188.48587 q -8.71582,0 -14.20899,-5.34668 -5.45654,-5.34668 -5.45654,-14.2456 v -1.0254 q 0,-5.96923 2.30713,-10.65673 2.30713,-4.72412 6.51855,-7.25098 4.24805,-2.56348 9.66797,-2.56348 8.12988,0 12.78076,5.12696 4.6875,5.12695 4.6875,14.53857 v 4.32129 h -25.23193 q 0.51269,3.88184 3.07617,6.22559 2.6001,2.34375 6.55518,2.34375 6.11572,0 9.5581,-4.43116 l 5.2002,5.82276 q -2.38037,3.36914 -6.44531,5.27343 -4.06495,1.86768 -9.00879,1.86768 z m -1.2085,-32.51953 q -3.14941,0 -5.12695,2.12402 -1.94092,2.12403 -2.49024,6.0791 h 14.72168 v -0.84228 q -0.0732,-3.51563 -1.90429,-5.41992 -1.83106,-1.94092 -5.2002,-1.94092 z"
           style="font-style:normal;font-variant:normal;font-weight:bold;font-stretch:normal;font-size:75px;font-family:Roboto;-inkscape-font-specification:'Roboto Bold';fill:#616161;fill-opacity:1;stroke-width:0.9375"
           id="path5167" />
      </g>
      <path
         d="m 279.20699,483.30425 -24.26078,79.08564 7.70324,0.36071 25.73531,-79.01663 z"
         style="fill:url(#linearGradient5004);fill-opacity:1;stroke:none;stroke-width:0.99731624px;stroke-linecap:butt;stroke-linejoin:miter;stroke-opacity:1"
         id="path4847-9-3" />
      <g
         style="display:inline;fill:url(#linearGradient5038);fill-opacity:1"
         transform="matrix(-0.61438923,0,0,0.6123623,250.21919,498.15817)"
         id="g4865-6-1-5-6-3">
        <path
           style="fill:url(#linearGradient5040);fill-opacity:1"
           d="M 24,0 C 10.746,0 0,10.745 0,24 0,37.255 10.745,48 24,48 37.255,48 48,37.255 48,24 48,10.745 37.256,0 24,0 Z m 0.029,42.701901 c -11.023,0 -17.6748029,-7.957058 -17.6748029,-18.980058 0,-11.023 6.6518029,-18.9800583 17.6748029,-18.9800583 11.023,0 18.32743,8.1202153 18.32743,19.1432153 0,11.023 -7.30343,18.816901 -18.32743,18.816901 z"
           id="path4855-0-29-0-3-6" />
        <g
           style="fill:url(#linearGradient5048);fill-opacity:1"
           id="g4863-1-3-3-2-7">
          <circle
             style="fill:url(#linearGradient5042);fill-opacity:1"
             cx="16.301001"
             cy="32.130001"
             r="2.3870001"
             id="circle4857-9-19-6-0-5" />
          <circle
             style="fill:url(#linearGradient5044);fill-opacity:1"
             cx="28.646"
             cy="32.130001"
             r="2.3870001"
             id="circle4859-2-4-1-6-3" />
          <path
             style="fill:url(#linearGradient5046);fill-opacity:1"
             d="m 34.98,13.484 h -2.156 c -1.557,0 -1.736,1.238 -1.738,1.249 l -0.047,0.427 v -0.002 l -0.514,2.26 c -0.113,0.34 -0.455,0.885 -1.514,0.885 H 11.27 l 3.128,10.041 H 31.354 L 32.857,20 33.291,17.961 v 0 l 0.029,-0.135 c 0.086,-0.358 0.463,-1.363 2.02,-1.389 h 0.191 c 0.385,-0.02 1.223,-0.189 1.199,-1.313 v -0.188 c 0,-1.498 -1.75,-1.452 -1.75,-1.452 z"
             id="path4861-4-78-0-1-5" />
        </g>
      </g>
    </g>
  </g>
</svg>
