<?xml version="1.0" encoding="UTF-8" standalone="no"?>
<svg
   xmlns:dc="http://purl.org/dc/elements/1.1/"
   xmlns:cc="http://creativecommons.org/ns#"
   xmlns:rdf="http://www.w3.org/1999/02/22-rdf-syntax-ns#"
   xmlns:svg="http://www.w3.org/2000/svg"
   xmlns="http://www.w3.org/2000/svg"
   version="1.1"
   id="svg3954"
   height="300"
   width="300">
  <defs
     id="defs3956" />
  <metadata
     id="metadata3959">
    <rdf:RDF>
      <cc:Work
         rdf:about="">
        <dc:format>image/svg+xml</dc:format>
        <dc:type
           rdf:resource="http://purl.org/dc/dcmitype/StillImage" />
        <dc:title></dc:title>
      </cc:Work>
    </rdf:RDF>
  </metadata>
  <g
     transform="translate(0,-822.51962)"
     id="layer1">
    <g
       transform="matrix(1.0074894,0,0,1.0062342,5.4035837e-8,-6.9980419)"
       id="g1713">
      <g
         id="g3975"
         style="fill:none;fill-opacity:1;stroke:#6875ff;stroke-width:5;stroke-miterlimit:4;stroke-dasharray:none;stroke-opacity:1"
         transform="matrix(0.30626584,0,0,0.30626584,-14.118565,792.8195)">
        <path
           id="path5774"
           d="M 541.54256,542.28842 298.47557,579.34106 169.07469,366.40644"
           style="color:#000000;display:inline;overflow:visible;visibility:visible;fill:none;fill-opacity:1;stroke:#6875ff;stroke-width:5.33333349;stroke-linecap:square;stroke-linejoin:miter;stroke-miterlimit:4;stroke-dasharray:none;stroke-dashoffset:0;stroke-opacity:1;marker:none;enable-background:accumulate" />
        <path
           id="path5776"
           d="M 550.23186,544.99215 757.85291,665.09604 947.65862,631.65313"
           style="color:#000000;display:inline;overflow:visible;visibility:visible;fill:none;fill-opacity:1;stroke:#6875ff;stroke-width:5.33333349;stroke-linecap:square;stroke-linejoin:miter;stroke-miterlimit:4;stroke-dasharray:none;stroke-dashoffset:0;stroke-opacity:1;marker:none;enable-background:accumulate" />
        <path
           style="color:#000000;display:inline;overflow:visible;visibility:visible;fill:none;fill-opacity:1;stroke:#6875ff;stroke-width:5.33333349;stroke-linecap:square;stroke-linejoin:miter;stroke-miterlimit:4;stroke-dasharray:none;stroke-dashoffset:0;stroke-opacity:1;marker:none;enable-background:accumulate"
           d="M 765.91702,678.81763 742.14501,902.95655 602.25712,757.95746"
           id="path5782" />
        <path
           style="color:#000000;display:inline;overflow:visible;visibility:visible;fill:none;fill-opacity:1;stroke:#6875ff;stroke-width:5.33333349;stroke-linecap:square;stroke-linejoin:miter;stroke-miterlimit:4;stroke-dasharray:none;stroke-dashoffset:0;stroke-opacity:1;marker:none;enable-background:accumulate"
           d="M 766.1671,674.4105 904.72672,803.85954"
           id="path5784" />
        <path
           style="color:#000000;display:inline;overflow:visible;visibility:visible;fill:none;fill-opacity:1;stroke:#6875ff;stroke-width:5.33333349;stroke-linecap:square;stroke-linejoin:miter;stroke-miterlimit:4;stroke-dasharray:none;stroke-dashoffset:0;stroke-opacity:1;marker:none;enable-background:accumulate"
           d="M 529.39925,561.49534 409.34172,729.32531 180.04356,718.52461 295.69392,550.44457"
           id="path5786" />
        <path
           style="color:#000000;display:inline;overflow:visible;visibility:visible;fill:none;fill-opacity:1;stroke:#6875ff;stroke-width:5.33333349;stroke-linecap:square;stroke-linejoin:miter;stroke-miterlimit:4;stroke-dasharray:none;stroke-dashoffset:0;stroke-opacity:1;marker:none;enable-background:accumulate"
           d="m 409.5918,724.91817 -95.89598,131.61968 -136.58639,70.5454"
           id="path5788" />
        <path
           style="color:#000000;display:inline;overflow:visible;visibility:visible;fill:none;fill-opacity:1;stroke:#6875ff;stroke-width:5.33333349;stroke-linecap:square;stroke-linejoin:miter;stroke-miterlimit:4;stroke-dasharray:none;stroke-dashoffset:0;stroke-opacity:1;marker:none;enable-background:accumulate"
           d="M 288.83309,554.47659 C 109.01419,528.79823 108.76411,533.20538 108.76411,533.20538"
           id="path5790" />
        <path
           style="color:#000000;display:inline;overflow:visible;visibility:visible;fill:none;fill-opacity:1;stroke:#6875ff;stroke-width:5.33333349;stroke-linecap:square;stroke-linejoin:miter;stroke-miterlimit:4;stroke-dasharray:none;stroke-dashoffset:0;stroke-opacity:1;marker:none;enable-background:accumulate"
           d="M 536.51019,553.05617 602.63223,751.34675 491.18609,884.29473 380.61525,1001.8177"
           id="path5792" />
        <path
           style="color:#000000;display:inline;overflow:visible;visibility:visible;fill:none;fill-opacity:1;stroke:#6875ff;stroke-width:5.33333349;stroke-linecap:square;stroke-linejoin:miter;stroke-miterlimit:4;stroke-dasharray:none;stroke-dashoffset:0;stroke-opacity:1;marker:none;enable-background:accumulate"
           d="M 545.32453,553.55634 369.47613,379.98875 186.82843,365.2032"
           id="path5796" />
        <path
           style="color:#000000;display:inline;overflow:visible;visibility:visible;fill:none;fill-opacity:1;stroke:#6875ff;stroke-width:5.33333349;stroke-linecap:square;stroke-linejoin:miter;stroke-miterlimit:4;stroke-dasharray:none;stroke-dashoffset:0;stroke-opacity:1;marker:none;enable-background:accumulate"
           d="M 373.38314,389.05309 297.94658,199.07664"
           id="path5798" />
        <path
           style="color:#000000;display:inline;overflow:visible;visibility:visible;fill:none;fill-opacity:1;stroke:#6875ff;stroke-width:5.33333349;stroke-linecap:square;stroke-linejoin:miter;stroke-miterlimit:4;stroke-dasharray:none;stroke-dashoffset:0;stroke-opacity:1;marker:none;enable-background:accumulate"
           d="m 538.71377,553.18122 150.3297,-194.85084 -50.494,-162.03313"
           id="path5800" />
        <path
           style="color:#000000;display:inline;overflow:visible;visibility:visible;fill:none;fill-opacity:1;stroke:#6875ff;stroke-width:5.33333349;stroke-linecap:square;stroke-linejoin:miter;stroke-miterlimit:4;stroke-dasharray:none;stroke-dashoffset:0;stroke-opacity:1;marker:none;enable-background:accumulate"
           d="m 536.35435,477.88474 -1.1869,-134.91792 -71.9518,-134.5121"
           id="path5802" />
        <path
           style="color:#000000;display:inline;overflow:visible;visibility:visible;fill:none;fill-opacity:1;stroke:#6875ff;stroke-width:5.33333349;stroke-linecap:square;stroke-linejoin:miter;stroke-miterlimit:4;stroke-dasharray:none;stroke-dashoffset:0;stroke-opacity:1;marker:none;enable-background:accumulate"
           d="M 372.30492,369.09593 458.5584,212.61178"
           id="path5804" />
        <path
           style="color:#000000;display:inline;overflow:visible;visibility:visible;fill:none;fill-opacity:1;stroke:#6875ff;stroke-width:5.33333349;stroke-linecap:square;stroke-linejoin:miter;stroke-miterlimit:4;stroke-dasharray:none;stroke-dashoffset:0;stroke-opacity:1;marker:none;enable-background:accumulate"
           d="M 548.77852,531.6457 747.27358,500.90651 708.75071,361.65933 897.16182,439.86789"
           id="path5806" />
        <path
           style="color:#000000;display:inline;overflow:visible;visibility:visible;fill:none;fill-opacity:1;stroke:#6875ff;stroke-width:5.33333349;stroke-linecap:square;stroke-linejoin:miter;stroke-miterlimit:4;stroke-dasharray:none;stroke-dashoffset:0;stroke-opacity:1;marker:none;enable-background:accumulate"
           d="M 693.07553,365.19117 860.93965,250.91926"
           id="path5814" />
        <path
           style="color:#000000;display:inline;overflow:visible;visibility:visible;fill:none;fill-opacity:1;stroke:#6875ff;stroke-width:5.33333349;stroke-linecap:square;stroke-linejoin:miter;stroke-miterlimit:4;stroke-dasharray:none;stroke-dashoffset:0;stroke-opacity:1;marker:none;enable-background:accumulate"
           d="m 323.26041,843.8166 181.52233,34.61767 84.22014,113.10158"
           id="path5818" />
      </g>
      <g
         id="g1591">
        <ellipse
           ry="26.609116"
           rx="26.60931"
           transform="matrix(0.9852959,-0.17085664,0.17086014,0.98529529,0,0)"
           cy="1082.2606"
           cx="27.653999"
           id="path4144-1-6-2"
           style="color:#000000;display:inline;overflow:visible;visibility:visible;fill:#6875ff;fill-opacity:1;fill-rule:nonzero;stroke:none;stroke-width:3.44187117;marker:none;enable-background:accumulate" />
        <path
           d="m 213.00755,1045.6908 c -0.90517,-0.049 -1.69348,0.3712 -1.75438,0.9606 -0.0609,0.5895 0.62987,1.1129 1.5351,1.1622 l 5.38068,0.2927 c 0.90524,0.049 1.66428,-0.3953 1.72517,-0.9847 0.0609,-0.5894 -0.60055,-1.0888 -1.50582,-1.1382 z m 0.17716,0.7511 c 0.19341,0.01 0.4102,0.027 0.60135,0.033 1.44915,0.077 2.88775,0.1542 4.33626,0.2359 0.2525,-0.01 0.53382,0.034 0.68013,0.1942 0.22029,0.1989 -0.11037,0.479 -0.42829,0.4487 -1.66204,-0.052 -3.34261,-0.1579 -5.00325,-0.2497 -0.33567,-0.043 -0.78442,0.01 -0.99437,-0.2339 -0.16164,-0.1649 -0.0111,-0.377 0.23607,-0.4366 0.18968,-0.016 0.37872,-1e-4 0.57205,0.01 z m 0.58008,0.034 c -0.38231,-0.012 -0.7748,-0.056 -1.15415,-0.026 -0.24708,0.059 -0.41329,0.2725 -0.25165,0.4373 0.20994,0.2407 0.67062,0.174 1.00634,0.217 1.66054,0.093 3.3222,0.2067 4.98411,0.2581 0.31793,0.03 0.65009,-0.2559 0.42976,-0.4548 -0.14629,-0.16 -0.41639,-0.1926 -0.66892,-0.1866 -1.44851,-0.082 -2.89662,-0.1679 -4.34564,-0.2456 z m -1.00374,7.9511 3.71462,0.2021 c 0.90519,0.049 1.58485,0.5634 1.52398,1.1528 -0.0609,0.5893 -0.83865,1.0244 -1.74385,0.9751 l -3.71459,-0.2022 c -0.9052,-0.049 -1.58495,-0.5633 -1.52403,-1.1528 0.0609,-0.5894 0.83867,-1.0242 1.74387,-0.975 z m -0.92224,-4.5802 6.55788,0.3567 c 0.90524,0.049 1.58494,0.5634 1.52401,1.1529 -0.0609,0.5894 -0.83863,1.0243 -1.74386,0.9751 l -6.55787,-0.3568 c -0.90521,-0.049 -1.58489,-0.5635 -1.52399,-1.1529 0.0609,-0.5893 0.83867,-1.0243 1.74383,-0.975 z m -3.67099,23.5248 c -0.9052,-0.049 -1.66418,0.3952 -1.72508,0.9847 -0.0609,0.5894 0.60048,1.0889 1.50575,1.138 l 7.94459,0.4323 c 0.90522,0.049 1.69347,-0.3713 1.75437,-0.9607 0.0609,-0.5894 -0.62983,-1.1129 -1.53508,-1.1621 z m -0.17106,0.7321 c 2.35566,0.137 4.69786,0.2932 7.0537,0.4288 0.43841,0.078 1.03229,-0.068 1.38572,0.1427 0.27068,0.1643 0.0582,0.4221 -0.21135,0.5053 -2.2325,-0.1139 -4.44822,-0.228 -6.68083,-0.341 -0.613,-0.083 -1.34988,0.047 -1.88985,-0.1926 -0.30419,-0.1394 -0.10638,-0.4352 0.20903,-0.483 l 0.0656,-0.018 0.0679,-0.042 z m -0.12984,0.041 c -0.31566,0.048 -0.48944,0.3449 -0.18526,0.4843 0.53987,0.2394 1.25284,0.1118 1.86594,0.1945 2.23259,0.1129 4.46503,0.2271 6.69736,0.3413 0.26926,-0.083 0.46856,-0.3245 0.19783,-0.4888 -0.35341,-0.2107 -0.92859,-0.084 -1.36698,-0.162 -2.35578,-0.1356 -4.71137,-0.2725 -7.06708,-0.4094 l -0.0714,0.02 -0.0703,0.02 z m 0.52606,3.8307 6.17932,0.2817 c 0.90598,0.041 1.58493,0.5634 1.52402,1.1529 -0.0609,0.5893 -0.8379,1.0163 -1.74384,0.975 l -6.17934,-0.2816 c -0.90596,-0.041 -1.58486,-0.5634 -1.52399,-1.1528 0.0609,-0.5894 0.8379,-1.0164 1.74383,-0.9752 z m 1.45385,-8.8154 5.37739,0.2925 c 0.90523,0.049 1.58491,0.5633 1.52399,1.1528 -0.0609,0.5895 -0.83863,1.0243 -1.74386,0.9751 l -5.37737,-0.2925 c -0.90523,-0.049 -1.5849,-0.5635 -1.52398,-1.153 0.0609,-0.5893 0.83862,-1.0243 1.74383,-0.9749 z m -1.04813,-25.8067 c -1.23402,-0.094 -2.63479,0.4146 -3.44082,1.8801 -1.4872,2.7619 -2.06323,6.531 -0.88288,10.0863 1.42419,4.2893 4.96343,8.2292 6.67063,9.3732 1.70723,1.1443 6.05212,4.291 6.91997,6.9602 0.64088,1.9713 -0.0957,3.8716 -1.39156,7.9239 -1.60942,3.803 3.82479,5.8984 5.47236,1.8705 1.57963,-3.5071 2.65994,-7.2866 1.54668,-10.6569 -1.25932,-3.8128 -6.66468,-8.3484 -8.45403,-9.6725 -1.78934,-1.3242 -4.2709,-4.0169 -5.14446,-7.2007 -0.79512,-2.8981 -0.10346,-6.2932 1.14065,-7.9597 0.49467,-1.3778 -0.84977,-2.4836 -2.4364,-2.6042 z m -0.23905,0.7735 c 0.61714,-0.01 1.12682,0.2864 1.39592,0.6601 0.68273,0.8944 -0.51342,1.7359 -0.65218,2.616 -0.68359,2.5403 -0.93853,5.2396 0.0899,7.7569 0.97916,2.8637 3.52708,5.2639 6.19989,7.4604 3.31114,2.8595 6.7554,6.027 7.35952,9.7927 0.27057,2.7876 -0.43938,5.6029 -1.64776,8.247 -0.3574,0.8182 -0.77292,2.0518 -2.22729,2.1484 -1.14141,-0.1592 -1.60976,-1.1862 -1.55156,-1.927 0.42577,-2.8069 2.04998,-5.5465 1.79282,-8.419 -0.50457,-3.2684 -4.01318,-5.7058 -6.93577,-8.0395 -2.28179,-1.6607 -3.89881,-3.6749 -5.12938,-5.8067 -2.57108,-3.8786 -2.93721,-8.3807 -1.16512,-12.4447 0.42606,-0.8156 1.01956,-1.9964 2.47122,-2.0451 z m 14.86752,-0.071 c -1.59673,-0.044 -3.19688,0.9171 -3.07321,2.327 0.78657,1.7721 0.56791,5.1921 -0.98233,7.9684 -1.30064,2.3292 -3.06362,4.1325 -4.95176,5.4185 1.34427,1.1563 2.71549,2.2175 3.80095,3.2144 2.14865,-1.6251 4.55813,-3.8736 6.29512,-6.6679 2.10378,-3.3845 2.53984,-7.1811 1.80307,-10.0584 -0.40757,-1.5286 -1.64978,-2.1676 -2.89173,-2.2023 z m -14.56654,19.1201 c -2.74184,1.766 -5.87522,3.9571 -7.39078,6.4027 -1.98878,3.2093 -1.8926,7.0504 -1.26176,10.6725 0.56073,4.1424 6.47501,2.6419 5.89275,-1.2748 -0.2069,-4.1302 -0.45781,-6.0836 0.69526,-7.9616 1.12436,-1.8313 3.25801,-3.5986 5.5717,-4.8681 -1.39054,-0.9948 -2.51213,-1.7974 -3.50735,-2.9703 z"
           style="fill:#2a3aff;fill-opacity:1;stroke-width:0.30055708"
           id="path4161" />
      </g>
      <g
         id="g1539">
        <ellipse
           ry="20.645699"
           rx="20.645849"
           transform="matrix(0.9852959,-0.17085664,0.17086015,0.98529529,0,0)"
           cy="956.58282"
           cx="97.553665"
           id="path4144-1-6-19"
           style="color:#000000;display:inline;overflow:visible;visibility:visible;fill:#6875ff;fill-opacity:1;fill-rule:nonzero;stroke:none;stroke-width:2.67050719;marker:none;enable-background:accumulate" />
        <path
           style="fill:#2a3aff;fill-opacity:1;fill-rule:evenodd;stroke-width:0.29672301"
           d="m 257.56664,911.75982 c -0.84923,0.18094 -1.92088,0.85641 -2.488,2.96383 -3.38298,-2.09525 -5.18793,1.35102 -5.19276,1.36655 -0.82034,2.63519 2.16956,5.7575 6.13469,7.55862 -4.53625,-0.66977 -8.32134,0.41297 -8.96737,3.16829 -0.03,0.12765 -0.65233,2.76294 3.15447,3.53727 -1.89074,3.49994 1.6619,5.0859 1.67774,5.0898 2.61099,0.63726 5.46469,-2.34689 7.05557,-6.24844 -0.73976,4.44116 0.2572,8.1699 2.96772,8.87555 0.12717,0.0331 2.74679,0.71983 3.622,-3.05975 3.45498,1.97481 5.13566,-1.52947 5.13998,-1.54519 0.72982,-2.67383 -2.39931,-5.70845 -6.45099,-7.36396 4.46204,0.78973 8.23048,-0.16636 8.96514,-2.8758 0.0343,-0.12669 0.74518,-2.73647 -3.03246,-3.64113 2.01048,-3.43284 -1.48376,-5.14243 -1.49944,-5.14685 -2.48199,-0.69722 -5.30397,1.92741 -7.05192,5.53598 0.64184,-4.06348 -0.27337,-7.42855 -2.79485,-8.18054 -0.0551,-0.0164 -0.57918,-0.17497 -1.23969,-0.0342 z"
           id="path14007" />
      </g>
      <g
         id="g1599">
        <ellipse
           ry="17.831697"
           rx="17.831835"
           transform="matrix(0.97903298,0.20370181,-0.20370414,0.97903249,0,0)"
           cy="1059.3478"
           cx="328.49744"
           style="color:#000000;display:inline;overflow:visible;visibility:visible;fill:#6875ff;fill-opacity:1;fill-rule:nonzero;stroke:none;stroke-width:2.30651832;marker:none;enable-background:accumulate"
           id="path4144-1-6-50" />
        <path
           id="path4028"
           d="m 116.3517,1095.5372 c -0.13174,-0.024 -0.25088,-0.01 -0.34107,0.052 -0.36074,0.2411 -0.17968,1.1096 0.40437,1.9379 0.58406,0.8284 1.3508,1.3069 1.71156,1.0658 0.36074,-0.2411 0.17969,-1.1097 -0.40437,-1.9379 -0.43807,-0.6211 -0.97524,-1.0463 -1.37049,-1.1172 z m -0.83166,0.1451 c -0.0295,0.013 -0.0565,0.032 -0.0838,0.05 l -12.72713,8.5051 c -0.29554,0.1975 -0.33238,0.6398 -0.084,0.992 l 1.45014,2.0575 c 0.24832,0.3522 0.69259,0.4766 0.98814,0.2791 l 12.72003,-8.5005 c 0.0266,-0.018 0.0521,-0.043 0.0745,-0.064 -0.42433,0.1684 -1.21458,-0.3503 -1.82667,-1.2183 -0.61326,-0.8696 -0.82774,-1.7774 -0.51119,-2.1008 z m 1.43117,1.4725 c 0.0477,0.068 0.0956,0.1371 0.14763,0.202 -0.051,-0.064 -0.10082,-0.1352 -0.14763,-0.202 z m -1.93704,-0.011 c 0.0926,0.2203 0.2022,0.4365 0.32512,0.6427 -0.12292,-0.2062 -0.23262,-0.4224 -0.32512,-0.6427 z m 2.5991,0.6815 c 0.004,0.026 0.005,0.054 0.003,0.074 -0.002,0 -0.002,-0.01 -0.004,-0.01 0.002,-0.02 0.006,-0.041 0.001,-0.067 z m -1.11453,1.3282 c 0.001,0 0.004,1e-4 0.006,0 -0.97865,0.6481 -1.95782,1.2992 -2.93316,1.9532 0.9753,-0.6541 1.94861,-1.3063 2.9273,-1.9545 z m -14.17339,5.341 -1.84094,1.2321 c -0.29558,0.1975 -0.27845,0.6052 -0.0899,0.9908 0.37276,0.7622 0.82617,1.4685 1.456,2.0588 0.31594,0.2962 0.68672,0.4753 0.98228,0.2778 l 1.83972,-1.2263 c -0.29557,0.1975 -0.73271,0.069 -0.98105,-0.2836 l -1.456,-2.0588 c -0.24831,-0.3522 -0.20566,-0.7933 0.0899,-0.9908 z m 0.90415,0.5063 c 0.0412,0.074 0.087,0.1444 0.13224,0.2171 -0.046,-0.074 -0.0904,-0.1417 -0.13224,-0.2171 z m -1.58429,0.7043 c 0.0269,0.01 0.0518,0.025 0.076,0.046 -0.0242,-0.022 -0.049,-0.04 -0.076,-0.046 z m -0.087,0.01 c 0.002,-6e-4 0.004,0 0.006,0 -0.0209,0.024 -0.0485,0.049 -0.0757,0.07 0.0272,-0.021 0.0489,-0.047 0.0699,-0.071 z m -0.44876,0.3044 c -0.0894,0.062 -0.16197,0.1342 -0.18734,0.224 0.0254,-0.09 0.0977,-0.1621 0.18734,-0.224 z m -0.07,0.5421 c 0.0868,0.2103 0.19452,0.4141 0.31364,0.6098 -0.12005,-0.1968 -0.22628,-0.3983 -0.31364,-0.6098 z m -1.117818,-0.067 c -0.0075,0.01 -0.01556,0.014 -0.02244,0.019 l -2.13763,1.9228 c -0.220941,0.1987 -0.276954,0.5347 -0.06869,0.8301 l 0.745965,1.0606 c 0.208278,0.2954 0.550721,0.3613 0.82052,0.232 l 2.609363,-1.2497 c 0.008,-0.01 0.0192,-0.01 0.0271,-0.013 -0.13587,-0.062 -0.22851,-0.1968 -0.35827,-0.307 -0.66617,-0.5662 -1.11131,-1.278 -1.456,-2.0589 -0.0677,-0.1533 -0.148657,-0.2919 -0.159906,-0.4371 z m 0.900548,2.6407 c -0.54425,0.2388 -1.082259,0.5544 -1.637549,0.7544 0.554033,-0.1994 1.094369,-0.5158 1.637549,-0.7544 z m -2.437912,0.043 c 0.175209,0.2707 0.37446,0.5295 0.557758,0.789 -0.183289,-0.2595 -0.383053,-0.5182 -0.557758,-0.789 z m -0.991648,0.3259 -1.910573,1.2727 c -0.525378,0.3525 1.632383,0.3985 1.793939,0.2877 l 0.83009,-0.5493 z"
           style="fill:#2a3aff;fill-opacity:1;stroke-width:0.19167301" />
      </g>
      <g
         id="g1506">
        <ellipse
           ry="19.613459"
           rx="19.613602"
           transform="matrix(0.9852959,-0.17085665,0.17086016,0.98529529,0,0)"
           id="path4144-1-6-11"
           style="color:#000000;display:inline;overflow:visible;visibility:visible;fill:#6875ff;fill-opacity:1;fill-rule:nonzero;stroke:none;stroke-width:2.53698754;marker:none;enable-background:accumulate"
           cx="-53.512127"
           cy="912.98419" />
        <path
           style="fill:#2a3aff;fill-opacity:1;stroke-width:0.2818875"
           d="m 102.89699,894.65641 c -2.13862,-0.14783 -4.375994,0.9022 -6.17701,3.90189 0.07476,-0.59276 -2.216604,-2.30424 -3.226829,0.62499 -5.210127,1.35 -4.065559,6.92816 -2.62109,9.18433 -1.81385,6.53444 2.510694,8.70399 5.564058,7.4182 1.031759,1.79798 2.110247,4.26403 2.03144,6.47933 -0.133227,3.76207 -1.380589,6.69923 -0.626708,6.76169 l 4.748519,0.39322 c 0.13618,-5.69752 0.98981,-10.42805 1.40666,-12.83652 0.71527,-0.37007 1.48318,-0.77498 2.37553,-1.09377 4.62031,1.13264 6.14296,-0.0845 5.73085,-2.69188 2.12569,0.61392 4.39302,-2.20626 3.35995,-6.64875 -0.31857,-1.36993 -1.25784,-3.29569 -2.79453,-4.14866 0.58817,-1.45962 -0.37709,-5.74224 -4.18679,-4.05072 -1.40542,-1.7986 -3.44432,-3.14555 -5.58321,-3.29335 z m -3.846804,21.72278 c 0.988804,0.50983 1.826284,0.60794 2.620314,0.4716 -0.44753,1.64035 -1.740958,5.16835 -2.620314,-0.4716 z"
           id="path3279" />
      </g>
      <g
         id="g1510">
        <ellipse
           ry="18.956165"
           rx="18.956305"
           transform="matrix(0.9852959,-0.17085662,0.17086014,0.98529529,0,0)"
           cy="910.41907"
           cx="-3.3794601"
           id="path4144-1-6-38"
           style="color:#000000;display:inline;overflow:visible;visibility:visible;fill:#6875ff;fill-opacity:1;fill-rule:nonzero;stroke:none;stroke-width:2.451967;marker:none;enable-background:accumulate" />
        <path
           style="fill:#2a3aff;fill-opacity:1;fill-rule:evenodd;stroke-width:0.27244079"
           d="m 155.39239,883.69271 -0.4958,1.93167 -0.8717,-0.98322 -0.64014,0.60852 c 0.52983,0.59517 0.96511,1.16013 1.07271,1.24767 l -0.61958,2.26692 -1.01033,-1.21702 0.4511,-0.90553 -1.15574,-0.55702 -0.19481,0.38851 -0.33676,-0.40566 -1.00019,0.79453 0.26797,0.32716 -0.27909,0.0395 0.16169,1.26163 1.08568,-0.14857 1.61819,1.95993 -0.504,1.97815 -0.25157,-0.31006 -1.01658,0.77742 0.87176,1.09332 -0.5419,2.1106 -1.23608,-1.14947 0.39744,-1.59396 -1.24495,-0.29917 -0.22739,0.90462 -1.4537,-1.34859 0.8082,-3.07091 1.27125,-0.45728 -0.44181,-1.18885 -0.44531,0.1552 0.22949,-0.86126 -1.24798,-0.30927 -0.24892,0.9441 -0.3429,-0.31576 -0.88208,0.92437 0.85005,0.80259 -0.6249,2.38858 -2.78214,-2.5805 0.26681,-2.20445 -1.2664,-0.14964 -0.15438,1.29011 -1.32542,-1.22186 c -0.29403,0.30812 -0.58806,0.61623 -0.88208,0.92437 l 1.46704,1.3556 -1.30311,0.27967 0.27456,1.2279 2.16606,-0.46071 2.35719,2.1792 -1.57101,0.28272 -0.59149,-0.83588 -1.05564,0.72304 0.25672,0.36356 -0.53148,0.0932 0.22321,1.24325 0.42584,-0.0723 -0.10968,0.26399 1.18545,0.47108 0.41002,-1.00332 2.52836,-0.44797 1.4999,1.38977 -0.39506,0.0631 0.20253,1.24942 1.37911,-0.21433 1.70421,1.5819 -1.75043,0.50152 -1.19915,-1.1385 -0.89853,0.90725 0.66526,0.63767 -1.91156,0.56073 -2.28123,-2.22399 0.24671,-1.31777 -1.26746,-0.22639 -0.085,0.45474 -0.63858,-0.62363 -0.91184,0.90024 0.71455,0.68898 -0.46171,0.13809 0.35969,1.2134 1.142,-0.33056 1.77403,1.73714 -2.80695,0.76981 -1.79646,-1.33412 -0.77946,1.00369 1.04404,0.77756 -1.73714,0.50856 0.35972,1.2134 1.94232,-0.56994 -0.42428,1.24975 1.21827,0.39523 0.69991,-2.06983 2.23955,-0.61109 -0.55656,1.4765 -1.0292,0.0766 0.094,1.25993 0.43814,-0.032 -0.18446,0.49552 1.19981,0.44477 0.14759,-0.3964 0.17967,0.22145 1.02688,-0.78047 -0.67258,-0.84467 0.89885,-2.37149 1.98646,-0.57211 -0.14657,0.36308 1.19571,0.46803 0.51355,-1.28745 1.60374,-0.46867 -0.43833,1.93648 -1.60066,0.47874 0.37,1.21036 0.90295,-0.27006 -0.44142,1.92636 -3.09769,0.89337 -1.04196,-0.84429 -0.82256,0.97257 0.36034,0.29955 -0.86494,0.24778 0.35973,1.2134 0.95728,-0.27541 -0.10548,0.46088 1.24901,0.27594 0.26524,-1.14717 2.42051,-0.69083 -0.77745,2.6178 -2.0776,0.89659 0.52081,1.15428 1.20557,-0.52572 -0.39529,1.74751 1.249,0.27595 0.44859,-1.93953 0.88608,0.95693 0.94781,-0.85595 -1.49693,-1.59984 0.64119,-2.03762 1.04518,1.18455 -0.43468,0.92257 1.167,0.52062 0.18145,-0.39553 0.36037,0.40961 0.97763,-0.83179 -0.27828,-0.3241 0.27912,-0.0394 -0.19246,-1.25244 -1.08257,0.15863 -1.6674,-1.90114 0.45369,-1.99613 0.26182,0.30698 0.99711,-0.80462 -0.89634,-1.06388 0.46806,-2.02245 1.4506,1.33856 -0.33899,1.45543 1.24903,0.27596 0.17821,-0.73584 1.46701,1.35561 -0.71804,2.88986 -1.26511,0.47744 0.44898,1.17578 0.45245,-0.16844 -0.22327,0.88142 1.25209,0.28601 0.23559,-0.95109 0.35315,0.31268 0.8688,-0.93128 -0.87059,-0.79645 0.54391,-2.17724 2.8386,2.6187 -0.21051,1.9124 1.28379,0.13341 0.1073,-0.96784 0.95273,0.88199 0.87899,-0.9344 -1.37469,-1.27318 1.58326,-0.35245 -0.27763,-1.23802 -2.36513,0.54228 c -0.0214,0.003 -0.041,0.0122 -0.0616,0.0184 l -2.36738,-2.17617 1.81005,-0.34321 0.59146,0.83589 1.04946,-0.74322 -0.25363,-0.35346 0.52843,-0.10301 -0.23348,-1.24013 -0.43304,0.0855 0.1066,-0.27406 -1.2029,-0.45486 -0.39667,1.01032 -2.72018,0.51637 -1.49679,-1.37973 0.57565,-0.0952 -0.21304,-1.24627 -1.54637,0.25332 -1.40444,-1.29729 1.81408,-0.58661 1.23088,1.09599 0.86879,-0.93138 -0.69606,-0.62846 1.90636,-0.61421 2.35095,2.15905 -0.21282,1.31861 1.26847,0.19305 0.0685,-0.47182 0.66939,0.61442 0.88207,-0.92436 -0.73202,-0.67278 0.44841,-0.14503 -0.39048,-1.20421 -1.1328,0.36065 -1.82332,-1.67842 2.60384,-1.02532 1.83854,1.28857 0.7497,-1.02783 -1.07169,-0.75832 1.72173,-0.55899 -0.40076,-1.20117 -1.90635,0.61422 0.38321,-1.23752 -1.23979,-0.35574 -0.6291,2.08165 -2.06314,0.85259 0.51964,-1.4874 1.03027,-0.11001 -0.13808,-1.25766 -0.44534,0.0451 0.1814,-0.5056 -1.22137,-0.40529 -0.14449,0.4065 -0.17969,-0.22147 -0.9971,0.80461 0.70027,0.82535 -0.82193,2.40349 -1.97514,0.64578 0.1404,-0.38326 -1.20696,-0.43161 -0.48378,1.31158 -2.11878,0.68874 0.63813,-2.49166 1.59968,-0.44544 -0.33922,-1.21955 -0.8988,0.24681 0.4917,-1.90838 3.11205,-0.80969 1.01423,0.86353 0.84922,-0.95854 -0.35007,-0.30261 0.87113,-0.22754 -0.32896,-1.22267 -0.97375,0.25823 0.11882,-0.45387 -1.24076,-0.32221 -0.28887,1.14322 -2.42869,0.62732 0.67957,-2.50831 2.06309,-0.76328 -0.30531,-0.9631 -1.5192,0.6459 0.50593,-1.89079 -1.01418,-0.29536 v 0 0 0 z"
           id="path1074" />
      </g>
      <g
         id="g1543">
        <ellipse
           ry="18.790745"
           rx="18.79088"
           transform="matrix(0.9852959,-0.17085666,0.17086015,0.98529529,0,0)"
           cy="969.30823"
           cx="49.270485"
           id="path4144-1-6-33"
           style="color:#000000;display:inline;overflow:visible;visibility:visible;fill:#6875ff;fill-opacity:1;fill-rule:nonzero;stroke:none;stroke-width:2.43056989;marker:none;enable-background:accumulate" />
        <path
           d="m 227.97615,946.9114 -5.68003,6.26386 c 0,0 -0.3701,-3.23353 -1.73118,-8.64752 1.21048,1.88225 2.7229,2.04622 2.7229,2.04622 5.36373,-7.56062 -4.54683,-14.84601 -7.8157,-4.34129 0.0678,-1.87197 0.0917,-2.91531 0.0917,-2.91531 0,0 0.54761,-0.22292 -2.05536,0.77959 7.40752,-11.646 17.89408,-0.62075 12.1208,7.27438 l 2.34702,-0.46005 z m -18.49041,12.18846 -2.98338,-5.3591 6.81202,1.36742 c 0,0 -2.02739,0.3455 -2.58752,0.85533 1.03151,1.62843 2.30168,2.42608 3.54336,3.84344 1.29877,-2.47643 2.90784,-4.24604 4.04657,-8.48406 0.15992,2.47645 0.0779,3.69433 0.0779,3.69433 0,0 2.1174,-0.66822 3.03838,-1.09606 -2.45111,2.19235 -4.97856,5.56068 -7.22662,8.64696 -1.49901,-2.22655 -2.45802,-2.97207 -4.29553,-5.46774 l -0.42527,1.9993 z m -1.18808,-23.31512 0.36348,-2.0355 c 2.59769,2.52579 3.25641,3.39891 4.6993,5.41066 l -6.72215,1.74948 c 1.39535,-2.14233 2.75428,-3.08464 2.75428,-3.08464 -2.51545,-1.8874 -12.39489,3.32431 -1.61285,13.58703 -0.99365,-0.19286 -1.90311,-0.37293 -2.38942,-0.52561 0.0533,0.80512 0.27173,1.21962 0.41041,2.38433 -13.15882,-13.67659 0.76027,-18.49536 2.49669,-17.48554 z"
           style="fill:#2a3aff;fill-opacity:1;stroke-width:0.27006334"
           id="path2909-1" />
      </g>
      <g
         id="g1567">
        <ellipse
           ry="22.596188"
           rx="22.596291"
           transform="matrix(0.85822923,0.51326659,-0.51327227,0.85822583,0,0)"
           cy="701.87085"
           cx="740.39008"
           id="path4144-1"
           style="color:#000000;display:inline;overflow:visible;visibility:visible;fill:#6875ff;fill-opacity:1;fill-rule:nonzero;stroke:none;stroke-width:2.92279744;marker:none;enable-background:accumulate" />
        <path
           style="fill:#2a3aff;fill-opacity:1;stroke-width:0.26200765"
           d="m 274.81978,966.82785 c -0.32931,-0.12665 -0.7244,0.25046 -0.9096,0.45943 -0.22793,0.2572 -0.52037,1.05951 -0.0332,1.45511 l -0.12275,1.18983 -0.45676,0.58521 -4.3221,4.8179 c -0.61725,-0.96522 -1.50254,-1.77521 -2.6127,-2.30505 -3.16838,-1.51217 -6.96452,-0.16887 -8.47677,2.99956 -1.51225,3.16845 -0.16779,6.96192 3.00058,8.47409 3.16837,1.51216 6.96062,0.17019 8.47283,-2.9982 0.76055,-1.5935 0.79995,-3.34473 0.24771,-4.88505 l 0.83453,-0.93071 4.24139,7.33407 c -0.29935,0.24392 -0.54919,0.55588 -0.72654,0.92745 -0.64127,1.3436 -0.0719,2.95287 1.27169,3.59411 0.16795,0.0802 0.34132,0.14139 0.51513,0.18456 l 0.0491,0.47179 -0.1445,-0.069 -0.62325,1.30581 0.72516,0.3461 c -0.1122,0.46339 0.68077,0.84018 1.06665,0.50909 l 0.60429,0.28839 0.60067,-1.25851 -0.9432,-0.45016 0.0917,-1.17885 c 0.54234,-0.16416 1.03219,-0.49852 1.3833,-0.97206 l 0.81309,0.38478 c -1.02864,3.01066 0.34093,6.37893 3.28214,7.78274 3.16837,1.51216 6.96062,0.17015 8.47284,-2.99823 1.51224,-3.16845 0.17167,-6.96334 -2.99664,-8.47548 -0.76614,-0.36566 -1.56964,-0.56132 -2.36807,-0.6076 l -0.16177,-4.49337 -0.27349,-0.42729 0.7325,-0.60202 c 2.9627,1.06135 3.2872,-0.41163 4.06105,-1.65536 l -6.02703,-2.87653 c -1.41811,-0.77253 -2.07342,0.70329 -1.55457,1.57423 l 2.36509,2.0804 -0.81276,0.77018 -10.34071,-5.05143 0.83462,-0.99846 c 0.0799,-0.0956 0.33841,-0.36393 0.52889,-0.79852 0.19051,-0.43461 0.25058,-1.03497 0.35977,-1.01609 0.19706,0.034 1.58781,0.73522 1.58781,0.73522 l 0.71496,-1.55883 -2.73835,-1.48758 c -0.0656,-0.0912 -0.13688,-0.14655 -0.2129,-0.17577 z m -2.0842,6.42149 10.17981,4.94882 -5.00812,4.68733 c -0.11198,-0.0762 -0.23068,-0.14563 -0.35667,-0.20567 -0.14237,-0.0679 -0.28842,-0.12132 -0.4353,-0.16259 l 0.0823,-0.90915 0.26589,0.2269 0.61193,-1.28213 -0.9668,-0.46143 c -0.0189,-0.47207 -0.6044,-0.70824 -0.954,-0.42754 l -0.53334,-0.25455 -0.58937,1.23484 0.73749,0.38102 -0.0512,1.0466 -4.31287,-7.46814 z m 11.52494,5.73921 0.1286,3.8872 c -1.80355,0.28808 -3.45725,1.34677 -4.44927,2.99592 l -0.87756,-0.41882 c 0.07,-0.55008 -0.0312,-1.10432 -0.28173,-1.58606 z m -18.66569,-4.35045 c 0.9583,0.45736 1.68368,1.20544 2.12301,2.08745 l -1.16283,1.06436 c -0.51306,0.24472 -0.85214,0.3701 -1.25152,0.38283 -0.93425,0.0297 -0.76355,-0.44191 -1.12387,-0.50727 -1.24726,-0.22634 -1.14951,1.11049 -0.59698,1.4994 1.06127,0.65453 1.72126,0.44402 2.85671,0.10724 0.49372,-0.15004 1.03297,-0.41451 1.70764,-1.01922 l 0.0103,-0.0112 0.0103,-0.0112 c 0.0991,0.83066 -0.0266,1.6981 -0.41367,2.50903 -1.08879,2.28124 -3.82018,3.24781 -6.10142,2.15906 -2.28117,-1.08875 -3.25025,-3.82136 -2.16144,-6.10265 1.0888,-2.28123 3.82284,-3.24654 6.10402,-2.1578 z m 21.76213,10.38637 c 2.28119,1.08874 3.24767,3.82011 2.15885,6.10141 -1.08879,2.28123 -3.82017,3.24784 -6.10141,2.15904 -2.0545,-0.98053 -3.04624,-3.29349 -2.42742,-5.4102 l 3.74489,1.7712 c 0.71365,0.45731 1.12304,0.13874 1.33411,-0.67293 l -0.2207,-4.36991 c 0.51032,0.0518 1.02231,0.18791 1.51172,0.4215 z m -2.9076,-0.34894 0.11184,3.40177 -3.003,-1.43324 c 0.67987,-1.03794 1.73196,-1.7264 2.89116,-1.96853 z"
           id="path3775-7" />
      </g>
      <g
         id="g1551">
        <ellipse
           ry="26.09413"
           rx="26.09432"
           transform="matrix(0.9852959,-0.17085663,0.17086015,0.98529529,0,0)"
           cy="964.29333"
           cx="-88.071198"
           id="path4144-1-6-6"
           style="color:#000000;display:inline;overflow:visible;visibility:visible;fill:#6875ff;fill-opacity:1;fill-rule:nonzero;stroke:none;stroke-width:3.37525797;marker:none;enable-background:accumulate" />
        <path
           d="m 97.888523,966.26247 c 0.330867,2.70909 -1.473245,5.15915 -4.029898,5.47209 -2.556442,0.31302 -4.897362,-1.62949 -5.228295,-4.33878 -0.330899,-2.70911 1.473207,-5.15918 4.029889,-5.47213 2.556449,-0.31299 4.897367,1.62952 5.228304,4.33882 z m -31.361294,3.7734 c 0.330898,2.70906 -1.473207,5.15914 -4.029868,5.47209 -2.556454,0.313 -4.897354,-1.6295 -5.228292,-4.33881 -0.330902,-2.70909 1.473224,-5.15915 4.029859,-5.47211 2.556474,-0.31301 4.897376,1.62952 5.228301,4.33883 z m 5.854367,-19.00154 c -6.979678,0.93251 -13.591912,5.26351 -13.943482,11.91429 -2.415304,1.37226 -3.856749,4.21283 -3.481871,7.28177 0.412604,1.77516 1.491761,0.81454 2.310232,0.92664 -0.324742,-2.70464 1.480703,-5.14781 4.033752,-5.46035 2.556513,-0.31288 4.896903,1.62876 5.22785,4.33794 0.06329,0.51846 0.04609,1.02785 -0.03733,1.51414 0.02918,-0.0986 0.0583,-0.19808 0.08162,-0.29902 6.449079,-0.74929 10.981744,-1.30291 22.344115,-2.67339 -0.137807,-0.37252 -0.237116,-0.76628 -0.287616,-1.17977 -0.330896,-2.70909 1.475901,-5.15852 4.032419,-5.47147 2.556487,-0.3129 4.896905,1.62873 5.227852,4.33794 0.03415,0.28025 0.04649,0.55623 0.03652,0.82887 0.055,-0.36693 0.0704,-0.74511 0.04475,-1.13065 0.03633,0.24204 0.06763,0.49249 0.08648,0.75264 l 0.334473,0.0208 c 0.198754,-0.8647 0.891977,-3.02175 0.592829,-4.63504 -0.299141,-1.61331 -1.510388,-2.86415 -2.978435,-3.54133 -2.301595,-0.89724 -4.706901,-0.97812 -7.124327,-1.04766 -0.760478,-0.0721 -0.988954,-0.0855 -1.221989,-0.26884 -2.672513,-5.20849 -9.119127,-7.03138 -15.277585,-6.20752 z m -1.953399,4.95271 c 2.095662,-0.25648 3.333203,-0.40802 4.678586,-0.5727 1.730462,0.18883 2.733127,0.99363 3.206984,1.79608 l 3.852641,-0.37898 c 0.405261,-0.0496 0.755458,0.10466 0.784748,0.34446 l 0.4998,4.09165 c 0.029,0.23985 -0.273433,0.47402 -0.678687,0.52363 l -3.83069,0.55872 c -0.266687,0.89311 -1.045722,1.9188 -2.679859,2.51945 -1.34534,0.1648 -2.582911,0.31621 -4.678577,0.57271 l -0.158022,-1.29384 -3.949618,0.48348 c -0.405282,0.0496 -0.755452,-0.10468 -0.784745,-0.34447 -0.02903,-0.23984 0.273764,-0.47125 0.679034,-0.52086 l 3.949636,-0.48347 -0.627463,-5.13666 -3.949624,0.48347 c -0.405276,0.0496 -0.755117,-0.10193 -0.784394,-0.34171 -0.02903,-0.23983 0.273429,-0.47402 0.678688,-0.52362 l 3.949627,-0.48348 -0.158028,-1.29385 z"
           style="fill:#4553ff;fill-opacity:1;stroke:#2a3aff;stroke-width:1.27099478;stroke-opacity:1"
           id="path3766" />
      </g>
      <g
         id="g1583">
        <ellipse
           ry="19.777967"
           rx="19.778112"
           transform="matrix(0.9852959,-0.17085666,0.17086015,0.98529529,0,0)"
           cy="1049.2112"
           cx="-98.5979"
           id="path4144-1-6-9"
           style="color:#000000;display:inline;overflow:visible;visibility:visible;fill:#6875ff;fill-opacity:1;fill-rule:nonzero;stroke:none;stroke-width:2.55826664;marker:none;enable-background:accumulate" />
        <path
           id="rect3874"
           d="m 93.535666,1053.941 -3.379068,-12.3908 c 0,0 -2.689486,-1.0899 -4.373037,-1.2107 -1.68359,-0.1208 -1.653788,0.021 -6.852587,1.2909 -5.198774,1.27 -7.323466,0.3634 -7.755908,-0.2756 -0.01927,0.05 3.436489,12.6674 3.436489,12.6674 2.877602,0.6252 3.780035,0.3861 7.040244,-0.5015 7.794303,-2.122 8.689904,0.2267 11.883288,0.4206 z m -23.212484,-12.5338 c 0.06153,-0.1256 0.137532,-0.1763 0.244654,-0.066 0.02763,0.028 0.05679,0.027 0.06997,0.076 l 5.667221,21.0472 c 0.02959,0.2887 -0.131109,0.3768 -0.334774,0.09 l -5.666693,-21.0471 c -0.01322,-0.049 0.0054,-0.07 0.02012,-0.1002 z"
           style="fill:#4353ff;fill-opacity:1;stroke:#2a3aff;stroke-width:1.87990367;stroke-opacity:1" />
      </g>
      <g
         id="g1547">
        <ellipse
           ry="35.080173"
           rx="35.080429"
           transform="matrix(0.9852959,-0.17085663,0.17086017,0.98529529,0,0)"
           cy="973.03979"
           cx="-15.036576"
           id="path4144-1-6-27"
           style="color:#000000;display:inline;overflow:visible;visibility:visible;fill:#6875ff;fill-opacity:1;fill-rule:nonzero;stroke:none;stroke-width:4.5375967;marker:none;enable-background:accumulate" />
        <path
           style="fill:#2a3aff;fill-opacity:1;stroke-width:0.50417739"
           d="m 148.56132,940.57262 c -11.47564,1.19084 -19.80986,11.4564 -18.61897,22.93144 1.19091,11.47591 11.45633,19.81048 22.9311,18.61974 1.33708,-0.1388 2.6223,-0.40152 3.86293,-0.77535 l 0.94838,3.28893 4.08099,-4.16834 4.02185,-4.21894 -5.64337,-1.42871 -5.65675,-1.39318 1.07536,3.829 c -1.00028,0.30404 -2.0494,0.51623 -3.12926,0.62828 -9.13593,0.94805 -17.30837,-5.68526 -18.25642,-14.82072 -0.94812,-9.1362 5.6877,-17.30907 14.82368,-18.25711 9.60184,-0.0718 16.60973,5.43465 17.16868,12.063 0.43049,4.85868 -1.10697,8.06323 -6.20058,8.79542 l -1.59694,-15.38745 -3.87602,0.40221 0.27441,2.64403 c -1.33267,-1.89701 -4.44254,-2.65216 -6.40622,-2.46447 -2.62518,0.27244 -4.67079,1.44438 -6.12959,3.53555 -1.45894,2.09108 -2.03924,4.68001 -1.7205,7.75049 0.31857,3.07049 1.4336,5.48348 3.27536,7.23207 1.8555,1.73163 4.07981,2.43071 6.72032,2.1567 2.02212,-0.23889 5.19585,-1.86371 5.71349,-3.41855 l 0.38431,2.91061 c 11.95251,-0.8554 14.98664,-7.97453 14.38857,-14.51612 -1.21885,-10.83482 -12.43657,-17.00885 -22.43508,-15.93953 z m 1.06101,14.46078 c 1.3816,-0.14327 2.51873,0.29369 3.44553,1.29929 0.94052,0.98863 1.53462,2.43135 1.72742,4.28904 0.19415,1.87307 -0.0645,3.40031 -0.76336,4.59011 -0.70058,1.17446 -1.73932,1.83448 -3.10563,1.97627 -1.38168,0.14346 -2.51849,-0.29086 -3.44528,-1.29648 -0.91146,-1.00717 -1.49655,-2.44685 -1.69254,-4.33526 -0.19255,-1.85762 0.0838,-3.39068 0.77065,-4.54827 0.70048,-1.17445 1.71222,-1.8345 3.06321,-1.9747 z"
           id="path5587-2" />
      </g>
      <g
         id="g1595">
        <ellipse
           ry="18.33942"
           rx="18.339552"
           transform="matrix(0.9852959,-0.17085666,0.17086016,0.98529529,0,0)"
           cy="1117.0809"
           cx="-20.634792"
           id="path4144-1-6-3"
           style="color:#000000;display:inline;overflow:visible;visibility:visible;fill:#6875ff;fill-opacity:1;fill-rule:nonzero;stroke:none;stroke-width:2.37219143;marker:none;enable-background:accumulate" />
        <path
           d="m 160.12139,1101.476 c 0.3037,0.56 0.23539,1.2178 -0.15255,1.4692 -0.38794,0.2514 -0.94866,0 -1.25237,-0.5588 -0.30371,-0.5601 -0.23541,-1.2179 0.15254,-1.4693 0.38795,-0.2514 0.94867,0 1.25238,0.5589 z m 0.77184,-2.9962 c 0.40421,0.7454 0.32803,1.6113 -0.17015,1.9341 -0.49818,0.3229 -1.22972,-0.02 -1.63393,-0.765 -0.40421,-0.7453 -0.32802,-1.6113 0.17015,-1.9341 0.49819,-0.3228 1.22972,0.02 1.63393,0.765 z m 1.62953,-3.0886 c 0.43563,0.8032 0.31013,1.7645 -0.28003,2.147 -0.59034,0.3825 -1.42199,0.041 -1.85763,-0.7618 -0.43563,-0.8033 -0.31025,-1.7646 0.28005,-2.1471 0.59031,-0.3825 1.42196,-0.041 1.85761,0.7619 z m 2.09917,-2.1919 c 0.49846,0.9191 0.48487,1.9348 -0.0303,2.2687 -0.51525,0.3339 -1.33697,-0.1405 -1.83542,-1.0596 -0.49845,-0.9191 -0.48483,-1.9349 0.0304,-2.2688 0.51523,-0.3338 1.33695,0.1406 1.83537,1.0597 z m 3.87262,-2.225 c 0.8189,1.4197 0.82374,2.9535 0.0108,3.4258 -0.81295,0.4723 -2.13581,-0.2956 -2.95471,-1.7153 -0.81893,-1.4197 -0.82374,-2.9534 -0.0108,-3.4258 0.81294,-0.4724 2.13582,0.2956 2.9547,1.7153 z m -5.99754,13.5522 c -1.78353,-2.784 -0.0884,-5.8196 1.8763,-7.6209 2.00634,-1.8392 4.80648,-1.9175 7.13582,0.2948 2.57733,2.4481 0.15503,5.9972 2.05348,9.1495 1.4207,2.359 6.6589,3.6331 7.44009,6.2707 0.35996,1.2149 -0.41832,2.4942 -1.22127,3.1419 -0.71501,0.5767 -1.81439,0.6298 -2.75546,0.3021 -2.13262,-0.7426 -3.6302,-3.3591 -5.56889,-4.7982 -2.76864,-2.0551 -7.15038,-3.9146 -8.96024,-6.7399 z"
           style="fill:#2a3aff;fill-opacity:1;stroke-width:0.26357684"
           id="path4800" />
      </g>
      <g
         id="g1571">
        <ellipse
           ry="25.835791"
           rx="25.835979"
           transform="matrix(0.9852959,-0.17085664,0.17086016,0.98529529,0,0)"
           cy="1019.3554"
           cx="46.248016"
           id="path4144-1-6-5"
           style="color:#000000;display:inline;overflow:visible;visibility:visible;fill:#6875ff;fill-opacity:1;fill-rule:nonzero;stroke:none;stroke-width:3.34184194;marker:none;enable-background:accumulate" />
        <path
           d="m 225.78205,993.81802 c -2.23222,-3.39855 -1.86572,-0.79837 -2.16162,-4.67855 -0.0542,-0.38539 0.829,-0.31321 1.19065,-0.96506 0.26842,-0.4838 -0.49683,-0.87626 -0.52646,-1.01574 -0.0232,-0.10913 -0.0249,-0.22832 -0.002,-0.26524 0.0225,-0.0369 0.0721,-0.28148 0.11137,-0.54418 0.0394,-0.26271 0.47643,-0.8903 0.61848,-1.42591 0.17721,-0.6681 0.93539,-0.26432 0.91903,-0.69706 -0.0213,-0.56084 -0.49535,0.29512 0.36417,-1.8459 0.24131,-2.60097 2.47344,-2.80812 2.93269,-0.61462 0.0725,0.40126 -0.73372,1.8587 -1.18557,3.45098 -0.45188,1.59228 -0.54967,3.31948 -0.82211,3.62319 -0.24361,0.27158 -0.51495,0.82062 -0.45896,1.10449 0.0463,0.23499 0.24354,0.38643 -0.0255,1.24658 -0.1966,0.6286 -0.34392,1.18877 -0.32809,1.2452 0.0337,0.12054 -0.2757,0.7604 -0.62568,1.38168 z m -1.27674,-0.82341 c -0.0688,0.4793 1.20315,0.14751 1.11207,0.41491 -0.12412,0.36457 0.1453,0.17126 0.14885,0.22109 0.0144,1.06153 -0.26551,1.83191 -0.33514,2.23494 -0.20342,0.5372 0.26142,0.70519 0.26531,0.75998 0.004,0.0547 -0.0985,0.21841 -0.2247,0.36393 -0.20805,0.23997 -0.21925,0.3141 -0.14101,0.7944 0.0473,0.29133 0.20431,0.7322 0.34995,0.98056 0.25156,0.42911 0.42939,0.69758 1.4334,2.15958 0.30592,0.4455 0.40406,0.6619 0.34224,0.7482 -0.0596,0.083 -0.0262,0.3041 0.1059,0.7002 0.10602,0.3178 0.17585,0.6978 0.15447,0.844 -0.0214,0.1464 0.002,0.2624 0.0509,0.2589 0.0493,0 0.26382,0.1288 0.47519,0.2964 0.47736,0.3787 0.97959,0.4875 1.83574,0.3971 0.30134,-0.032 0.42022,-0.263 0.16834,-0.3275 -0.21836,-0.056 0.98677,-1.2562 1.51708,-1.5115 0.53417,-0.2572 1.14787,-0.3481 1.32486,-0.1946 0.16307,0.1414 -0.0921,0.7042 -0.5736,1.2616 -0.22692,0.2628 -0.54024,0.7095 -0.69593,0.9932 -0.22985,0.4186 -0.33078,0.5189 -0.54285,0.534 -0.14362,0.011 -0.30435,-0.048 -0.35704,-0.1279 -0.0713,-0.1088 -0.10302,-0.026 -0.12432,0.3244 -0.0346,0.5683 -0.40486,1.5246 -0.7196,1.8617 -0.1259,0.1347 -0.22388,0.2927 -0.2199,0.3489 0.0113,0.1591 -1.56316,2.0623 -1.82171,2.2025 -0.12702,0.068 -0.39143,0.2423 -0.58891,0.384 -0.19749,0.1419 -0.44326,0.2682 -0.54616,0.2808 -0.10291,0.012 -0.29991,0.078 -0.43777,0.1461 -0.17995,0.089 -0.32547,0.101 -0.51593,0.043 -0.51088,-0.1572 -1.25492,-0.037 -2.02893,0.3272 -0.87444,0.4117 -1.3065,0.5437 -2.35487,0.719 -1.10596,0.1851 -1.42444,0.1637 -1.78403,-0.1265 -0.15335,-0.1238 -0.21352,-0.2458 -0.18284,-0.3733 0.0562,-0.2335 -0.13859,-0.4501 -0.38756,-0.4324 -0.10247,0.011 -0.33101,0.1447 -0.50886,0.3075 -0.41005,0.3752 -1.65204,1.1627 -2.13288,1.352 -0.9561,0.3765 -1.39603,0.2432 -3.0688,-0.9432 -0.89459,-0.6346 -1.78617,-1.9035 -2.16541,-3.0806 -0.35201,-1.0927 -0.54769,-1.5802 -0.82097,-2.0469 -0.42578,-0.7272 -0.58233,-1.2018 -0.4743,-1.4435 0.0603,-0.1349 0.0175,-0.7437 -0.14161,-2.0304 -0.21382,-1.7293 -0.2226,-2.0931 -0.0975,-3.3988 0.0258,-0.26965 0.0669,-0.30912 0.37266,-0.35678 0.48077,-0.0751 0.62387,-0.39079 0.43104,-0.94475 -0.0769,-0.22087 -0.24781,-0.48755 -0.37831,-0.5923 -0.13103,-0.10513 -0.23024,-0.2717 -0.22121,-0.37349 0.0178,-0.20148 -0.26659,-0.68281 -0.39883,-0.67339 -0.0453,0.003 -0.0688,-0.21072 -0.0514,-0.47401 0.0455,-0.69331 -0.13984,-1.02213 -0.55718,-0.99242 -0.24473,0.0174 -0.42579,-0.063 -0.77632,-0.34283 -0.56946,-0.45456 -1.73306,-1.78698 -1.83622,-2.10138 -0.0423,-0.1289 -0.24309,-0.47218 -0.44366,-0.76457 -0.22609,-0.32966 -0.34862,-0.60037 -0.32191,-0.7113 0.0237,-0.0984 -0.0581,-0.37307 -0.1851,-0.61194 -0.24192,-0.45499 -0.48354,-1.75611 -0.40664,-2.1914 0.0232,-0.13118 0.18061,-0.36216 0.34985,-0.51143 0.28646,-0.25261 0.3373,-0.26476 0.7582,-0.20142 0.51569,0.0776 1.59656,0.82646 1.88897,1.31033 0.0943,0.15607 0.32515,0.43375 0.51264,0.61516 0.32219,0.31178 0.3447,0.36864 0.39163,1.02783 0.0409,0.57285 0.10458,0.80005 0.36475,1.27144 0.40798,0.73908 0.81748,1.39027 0.78109,1.79445 -0.0178,0.19632 -0.17969,0.36587 -0.0953,0.46552 0.0897,0.10602 0.11107,0.20189 0.058,0.27603 -0.045,0.0627 -0.0702,0.1493 -0.0571,0.19275 0.0384,0.12665 -0.0966,0.45444 -0.24635,0.59841 -0.14189,0.13647 -0.0898,0.12926 0.48407,-0.0759 0.18038,-0.0644 0.23053,0.0903 0.0679,0.20745 -0.0697,0.0502 -0.0345,0.0968 0.10413,0.13708 0.13716,0.04 0.21648,0.1417 0.22729,0.29343 0.01,0.13975 0.0839,0.24774 0.18748,0.27268 0.0942,0.0228 0.38445,0.21676 0.64699,0.43163 0.26253,0.21486 0.56432,0.38441 0.66963,0.37693 0.10535,-0.007 0.29331,-0.15379 0.41916,-0.32471 0.12587,-0.17093 0.27112,-0.34997 0.31966,-0.39724 0.0485,-0.0473 0.23351,-0.22667 0.41101,-0.39784 0.3972,-0.38306 0.55459,-1.0828 0.35239,-1.55257 -0.0689,-0.16008 -0.16801,-0.56685 -0.2236,-0.90407 -0.0957,-0.58045 -0.0901,-0.6266 0.13725,-0.88848 0.13213,-0.1521 0.31344,-0.2818 0.40407,-0.28825 0.25443,-0.0181 0.30266,-0.48399 0.0645,-0.62676 -0.22301,-0.13366 -0.35635,-0.55747 -0.25107,-0.79303 0.0969,-0.21684 -0.0599,-0.5447 -0.41932,-0.87833 -0.55618,-0.51635 -0.74399,-0.74043 -0.82143,-0.97653 -0.0697,-0.21241 -0.40782,-0.71055 -0.65587,-0.97058 -0.22607,-0.23699 -1.22687,-2.48818 -1.24976,-2.8096 -0.0139,-0.19493 -0.12393,-0.58163 -0.24393,-0.8584 -0.18827,-0.43431 -0.21723,-0.63074 -0.21213,-1.44743 0.006,-0.83117 0.0354,-0.99885 0.25385,-1.36266 0.16931,-0.28189 0.36465,-0.46243 0.61138,-0.56544 1.06766,-0.34174 1.59184,-0.55983 1.65345,0.73488 0.51757,0.1863 0.69202,0.70365 0.63429,2.09307 0.66368,1.1808 1.16095,2.27809 0.85463,3.32426 -0.13518,0.46165 0.29604,1.24141 0.27723,1.70435 -0.018,0.4424 -0.0549,0.86966 -0.0828,0.94947 -0.0278,0.0798 -0.0529,0.18776 -0.0566,0.23993 -0.004,0.0522 -0.0279,0.24497 -0.0521,0.42831 -0.0282,0.21398 0.0158,0.46719 0.1213,0.70788 0.10191,0.23277 0.13543,0.4273 0.0895,0.51261 -0.12837,0.23879 -0.0701,0.46694 0.0984,0.38813 0.12632,-0.0591 0.14494,-0.0239 0.1152,0.20999 -0.0282,0.2216 0.0534,0.40097 0.38476,0.84836 0.45836,0.619 0.40313,0.60485 1.28113,0.30983 0.20274,-0.0681 0.52728,-0.15917 0.72257,-0.20478 0.29812,-0.0696 0.37446,-0.14116 0.47327,-0.43471 0.0832,-0.24704 0.0885,-0.47396 0.0187,-0.7739 -0.0544,-0.23347 -0.12066,-0.59173 -0.14816,-0.79737 -0.0276,-0.20563 -0.089,-0.45409 -0.13649,-0.55054 -0.0693,-0.14035 -0.0556,-0.16543 0.0736,-0.12612 0.11068,0.0336 0.16058,-4.2e-4 0.16011,-0.11165 -8.2e-4,-0.27429 -0.0642,-0.53272 -0.14131,-0.57675 -0.0763,-0.0435 -0.23134,-0.4912 -0.25592,-0.73665 -0.007,-0.0773 -0.10946,-0.33443 -0.22639,-0.57066 -0.17715,-0.35802 -0.21887,-0.59855 -0.24738,-1.44492 -0.0311,-0.92426 -0.27938,-2.29896 -0.45856,-2.5475 -0.0359,-0.0497 -0.12118,-0.72028 -0.19162,-1.49021 -0.11403,-1.24639 -0.15556,-1.44252 -0.37197,-1.78699 -0.20401,-0.32471 -0.25567,-0.53725 -0.31842,-1.32485 -0.0691,-0.86647 -0.0544,-0.99462 0.18729,-1.67642 0.18048,-0.50901 0.33275,-0.7762 0.48719,-0.86029 0.28802,-0.15681 0.91804,-0.20175 1.19114,-0.0848 0.26761,0.11465 1.33507,1.0884 1.52312,1.38952 0.24192,0.38733 0.43665,1.15875 0.53642,2.10845 0.0528,0.50237 0.15008,1.06536 0.21301,1.2528 0.11716,0.3487 0.25266,3.64311 0.15735,3.82502 -0.0273,0.0523 -0.0573,0.57732 -0.0644,1.16631 -0.008,0.69747 -0.0774,1.30622 -0.19717,1.74494 -0.19256,0.70536 -0.26917,1.58247 -0.18991,2.13658 0.0257,0.17981 0.0712,0.63588 0.10458,1.01274 0.0536,0.60557 0.038,0.70549 -0.13642,0.85894 -0.25784,0.22695 -0.11857,0.47701 0.16568,0.2978 0.14544,-0.0917 0.21993,-0.0873 0.34345,0.0196 0.16224,0.14071 0.18181,0.19044 0.22787,0.59122 0.0205,0.17785 0.0844,0.23511 0.26795,0.24337 0.19026,0.008 1.28126,0.19879 1.44239,-0.093 0.68392,-0.0889 -0.004,-0.0433 1.16509,-0.62169 z m -4.72501,5.93339 c -0.18594,-0.0111 -0.52134,0.12227 -0.692,0.30284 -0.24436,0.25855 -0.86332,0.4568 -0.96862,0.31076 -0.0367,-0.0508 -0.1923,-0.0836 -0.3472,-0.0726 -0.15488,0.0111 -0.25474,0.0571 -0.22278,0.10136 0.032,0.0443 -0.0644,0.23032 -0.21236,0.41321 -0.23906,0.29543 -0.26099,0.37543 -0.18707,0.72683 0.0703,0.334 0.052,0.4377 -0.12694,0.6607 -0.11655,0.1453 -0.23168,0.3404 -0.2549,0.4369 -0.0232,0.096 -0.17752,0.2332 -0.34415,0.3017 -0.43431,0.1784 -0.5283,0.4919 -0.24054,0.8044 0.20378,0.2213 0.2198,0.2943 0.16916,0.7606 -0.0444,0.4088 -0.0127,0.642 0.15188,1.1391 0.45352,1.3697 1.09408,2.4993 1.40881,2.4769 0.0719,-0.011 0.19316,0.062 0.26737,0.152 0.0742,0.09 0.33168,0.1997 0.57451,0.2422 0.24285,0.042 0.50696,0.096 0.58652,0.1203 0.0813,0.024 0.16504,-0.02 0.1903,-0.1021 0.0246,-0.081 0.19125,-0.2224 0.36991,-0.3123 0.17866,-0.09 0.38751,-0.2973 0.46552,-0.4607 0.078,-0.1635 0.20583,-0.3226 0.2815,-0.3532 0.10047,-0.04 0.13268,-0.2254 0.11916,-0.6867 -0.0153,-0.5223 0.0218,-0.6901 0.21396,-0.9707 0.26731,-0.3899 0.30814,-0.4712 0.4088,-0.8015 0.29241,-0.9595 0.4544,-1.8772 0.44775,-2.5325 -0.004,-0.4149 0.0638,-1.0354 0.14951,-1.3788 0.13023,-0.52211 0.13275,-0.68072 0.0253,-0.96895 -0.0873,-0.23414 -0.18244,-0.34084 -0.29789,-0.33265 -0.23405,0.0167 -0.76345,0.24583 -0.92401,0.39897 -0.28651,0.27336 -0.50128,0.27988 -0.67958,0.0219 -0.094,-0.13597 -0.18559,-0.2877 -0.20674,-0.33618 -0.0169,-0.0386 -0.0633,-0.0583 -0.12531,-0.0618 z m 18.4091,-1.64338 c 0.10502,0.0158 0.15464,0.0701 0.23675,0.17777 0.0946,0.12423 0.25417,0.2452 0.35534,0.26957 0.23946,0.0576 0.34676,0.47242 0.21606,0.83975 -0.1431,0.40215 -1.49839,1.96879 -1.99967,2.31259 -0.22687,0.1556 -0.40765,0.3207 -0.40429,0.3679 0.0196,0.2745 -0.74568,0.9692 -1.24079,1.1262 -0.24961,0.079 -0.66327,0.091 -1.3537,0.037 -0.31491,-0.025 -0.44343,-0.079 -0.45279,-0.1889 -0.007,-0.084 -0.0989,-0.2488 -0.20298,-0.366 -0.1661,-0.1869 -0.17638,-0.2439 -0.0806,-0.466 0.0602,-0.1392 0.25304,-0.6333 0.42899,-1.0979 0.29864,-0.78885 0.36686,-0.88552 1.00865,-1.44587 1.20244,-1.04983 1.6949,-1.30401 2.92086,-1.50829 0.30151,-0.0503 0.46284,-0.0739 0.56789,-0.0581 z"
           style="fill:#2a3aff;fill-opacity:1;stroke-width:0.30655751"
           id="path3055" />
      </g>
      <g
         id="g1587">
        <ellipse
           ry="24.614668"
           rx="24.614847"
           transform="matrix(0.9852959,-0.17085665,0.17086015,0.98529529,0,0)"
           cy="1070.6694"
           cx="-47.934544"
           id="path4144-1-6-12"
           style="color:#000000;display:inline;overflow:visible;visibility:visible;fill:#6875ff;fill-opacity:1;fill-rule:nonzero;stroke:none;stroke-width:3.18389058;marker:none;enable-background:accumulate" />
        <path
           id="path3822"
           d="m 123.90551,1057.624 c -0.61197,0.1441 -4.71162,0.1465 -5.33887,0 -0.40248,-0.099 -1.95158,-0.6405 -1.76337,0.7846 0.97561,7.3885 1.68842,13.5703 5.33572,20.8947 0.33496,0.705 0.16877,0.5244 0.83557,1.7117 0.20467,0.3644 0.44135,1.1682 2.71541,0.598 9.74079,-1.3467 12.87273,-1.1423 20.22754,-1.5795 4.9646,0.9654 3.08494,-9.5306 3.84404,-13.2952 0.16628,-0.3792 1.7423,-8.1964 0.44952,-11.2732 -0.15931,-0.3792 -0.13525,-0.7858 -0.95885,-0.8366 -2.27433,-0.11 -3.23139,0.1553 -6.18015,0.8155 -4.28735,-19.3115 -20.69058,-12.9425 -19.16742,2.1769 z m 17.48573,-1.8766 c -3.53807,0.3123 -10.91644,1.4538 -15.81462,1.8148 -2.78728,-16.0636 15.19299,-17.0376 15.81462,-1.8148 z"
           style="fill:#2a3aff;fill-opacity:1;stroke-width:0.35376561" />
      </g>
      <g
         id="g1555">
        <ellipse
           ry="17.759575"
           rx="17.759705"
           transform="matrix(0.9852959,-0.17085663,0.17086017,0.98529529,0,0)"
           cy="949.75134"
           cx="-146.67165"
           id="path4144"
           style="color:#000000;display:inline;overflow:visible;visibility:visible;fill:#6875ff;fill-opacity:1;fill-rule:nonzero;stroke:none;stroke-width:2.297189;marker:none;enable-background:accumulate" />
        <path
           style="fill:#2a3aff;fill-opacity:1;stroke-width:0.17336807"
           d="m 12.423286,975.7493 7.095581,-8.49437 c 0,0 -2.601372,-1.06364 -2.62775,-1.30947 -0.02638,-0.24582 6.656556,-7.02993 6.301556,-7.09132 -0.354702,-0.0614 -3.671636,-0.84941 -3.392495,-1.02854 0.279155,-0.17914 7.636558,-8.30247 7.636558,-8.30247 l -13.101115,1.40552 -4.242135,10.33358 c 0,0 5.907278,0.5513 5.687828,0.8235 -0.219445,0.2722 -4.446459,6.20459 -4.446459,6.20459 0,0 3.655581,0.79286 3.529196,1.00531 -0.126397,0.21248 -2.440579,6.45344 -2.440579,6.45344 z"
           id="path6183" />
      </g>
      <g
         id="g1559">
        <ellipse
           ry="32.155273"
           rx="32.15551"
           transform="matrix(0.9852959,-0.17085665,0.17086015,0.98529529,0,0)"
           cy="1007.485"
           cx="-141.15933"
           id="path4144-2"
           style="color:#000000;display:inline;overflow:visible;visibility:visible;fill:#6875ff;fill-opacity:1;fill-rule:nonzero;stroke:none;stroke-width:4.15926313;marker:none;enable-background:accumulate" />
        <path
           d="m 47.941015,993.87547 c -0.325135,0.0331 -0.648039,0.15878 -0.918819,0.38477 l -5.177917,4.3279 c -4.149424,-2.57537 -8.317394,-3.15473 -10.804547,-1.0791 -3.743507,3.12396 -2.259163,11.07036 3.307354,17.74286 5.566485,6.6726 13.109095,9.542 16.852614,6.4178 2.487283,-2.0756 2.671617,-6.2738 0.881557,-10.818 l 5.18277,-4.3285 c 0.722169,-0.6027 0.815054,-1.662 0.212463,-2.3844 -0.602563,-0.7222 -1.662845,-0.8148 -2.384982,-0.2122 l -4.537638,3.7825 c -0.740054,-1.2751 -1.622589,-2.543 -2.646312,-3.7701 -1.023562,-1.227 -2.122045,-2.33 -3.243636,-3.2865 l 4.537645,-3.78253 c 0.722139,-0.60263 0.815057,-1.66198 0.212447,-2.38429 -0.381389,-0.45117 -0.929964,-0.66606 -1.475152,-0.61022 z m 0.109694,0.7435 c 0.294117,-0.0299 0.596849,0.0878 0.80052,0.33189 0.325879,0.39065 0.27602,0.96552 -0.114515,1.29143 -0.390535,0.32593 -0.965903,0.27626 -1.29182,-0.11435 -0.325881,-0.39065 -0.276022,-0.9655 0.114511,-1.29145 0.146462,-0.12223 0.314798,-0.19962 0.491246,-0.21753 z m -13.767269,3.25841 c 1.811204,-0.27042 4.074461,0.34941 6.392178,1.68893 l -3.637182,3.03529 c -0.722137,0.6027 -0.82705,1.6777 -0.224496,2.3999 0.602545,0.7224 1.676664,0.8132 2.398769,0.2104 l 4.334505,-3.6161 c 1.152151,0.9564 2.27662,2.0641 3.333641,3.331 1.002636,1.2019 1.867578,2.4562 2.580418,3.6946 l -4.373416,3.6348 c -0.722144,0.6026 -0.813276,1.6758 -0.210683,2.3981 0.602557,0.7223 1.662843,0.8148 2.384977,0.2122 l 3.700865,-3.0856 c 1.403663,3.7598 1.260499,7.1165 -0.711126,8.7615 -3.147269,2.6241 -9.746085,-0.1122 -14.75294,-6.1124 -5.006939,-6.0007 -6.512909,-12.9933 -3.370008,-15.61628 0.604314,-0.50378 1.327924,-0.81334 2.151884,-0.93635 z m -5.687218,2.35912 c -0.773028,0.2013 -1.480912,0.552 -2.08181,1.0535 -1.088751,0.9086 -1.734939,2.2147 -1.968453,3.7887 -4.735579,4.293 -5.99173,11.0568 -3.426601,16.5608 -4.855706,4.6681 -7.353961,9.8582 -3.445045,19.5796 0.671782,1.6705 2.719086,2.2415 3.837395,1.793 1.213047,-0.4864 2.531839,-2.1413 2.238648,-3.5428 -0.570578,-2.7208 -1.834997,-4.5623 -1.787595,-6.5742 0.04002,-1.6888 1.218715,-3.7494 3.639485,-5.8418 4.963498,3.569 11.879034,3.5664 16.980109,-0.3466 1.58904,0.052 3.002497,-0.3478 4.090694,-1.2558 0.600896,-0.5015 1.067377,-1.1256 1.403881,-1.8503 -4.042906,1.0534 -9.934121,-2.0171 -14.607208,-7.6185 -4.672644,-5.6014 -6.635441,-11.9561 -4.87312,-15.7456 z m -1.617845,2.3688 c -0.165431,1.2007 -0.04918,3.7065 0.08782,4.2817 0.720212,2.8582 2.10632,5.5101 3.7833,7.9171 1.753402,2.4509 3.80712,4.7148 6.228129,6.5218 2.220693,1.7865 5.155944,3.3089 9.039639,3.3965 -0.241283,0.099 -1.883905,0.453 -2.138988,0.4997 -0.731201,0.2053 -1.543123,-0.03 -2.206675,0.4101 -1.346664,0.9644 -2.836253,1.7444 -4.432596,2.1977 -1.271777,0.2982 -2.586275,0.5094 -3.896642,0.4733 -2.515849,-0.094 -5.000583,-0.8906 -7.042061,-2.3769 -0.523388,-0.1 -1.077704,0.074 -1.617374,0.082 -0.364634,0.2188 -0.670779,0.5815 -0.996531,0.8718 -1.426983,1.4584 -2.786709,3.1928 -3.097422,5.2669 -0.318019,1.8185 0.434517,3.5598 1.011459,5.2432 -0.31149,-0.051 -0.619717,-0.052 -0.932363,-0.035 -0.996362,-0.012 -1.969041,0.4621 -2.576688,1.2438 -0.428767,-1.3222 -0.787782,-2.6848 -0.931192,-4.0751 -0.260824,-1.7407 -0.165337,-3.5362 0.352449,-5.2221 0.734363,-2.4982 2.374732,-4.6039 4.184348,-6.4169 0.507929,-0.3907 0.780486,-1.0321 0.586217,-1.6608 -0.38469,-1.1001 -0.829951,-2.1769 -1.004615,-3.3361 -0.689602,-3.7772 0.508388,-7.8201 3.015855,-10.6999 0.434922,-0.5731 1.141847,-0.9499 1.402961,-1.6395 0.01358,-0.3466 0.192716,-1.7418 1.179012,-2.9436 z m 28.96046,1.7035 c 0.343373,-0.1045 0.733786,0 0.978253,0.2949 0.32588,0.3907 0.277813,0.9794 -0.112738,1.3053 -0.390561,0.3259 -0.98152,0.2642 -1.307375,-0.1264 -0.325877,-0.3906 -0.276024,-0.9655 0.114516,-1.2915 0.09763,-0.082 0.212908,-0.1476 0.327367,-0.1824 z m -35.469848,34.4184 c 0.756796,-0.117 1.841892,0.054 1.994723,0.6693 0.25795,0.7941 -0.114295,1.9336 -1.255406,2.3502 -1.141048,0.4165 -2.063614,-0.2058 -2.282282,-0.9409 -0.274558,-0.9233 0.438761,-1.6971 1.242809,-2.0118 0.09087,-0.028 0.192032,-0.05 0.300156,-0.067 z"
           style="fill:#2a3aff;fill-opacity:1;stroke-width:0.38072583"
           id="path3850" />
      </g>
      <g
         id="g1502">
        <ellipse
           ry="28.378311"
           rx="28.378519"
           transform="matrix(0.9852959,-0.17085661,0.17086017,0.98529529,0,0)"
           id="path4144-1-6-8"
           style="color:#000000;display:inline;overflow:visible;visibility:visible;fill:#6875ff;fill-opacity:1;fill-rule:nonzero;stroke:none;stroke-width:3.67071533;stroke-opacity:1;marker:none;enable-background:accumulate"
           cx="-114.80713"
           cy="900.62817" />
        <path
           d="m 49.342261,905.72057 c -0.556034,-0.019 -1.014327,0.33528 -1.029997,0.79359 l -0.109527,3.20259 c -0.01566,0.45833 0.417352,0.84318 0.973392,0.86221 l 3.32628,0.11382 c 0.556017,0.019 1.017258,-0.33523 1.032937,-0.79357 l 0.109515,-3.20259 c 0.01567,-0.45829 -0.420296,-0.84323 -0.976351,-0.86226 z m 0.326245,0.46536 2.642715,0.0904 c 0.441865,0.0151 0.788226,0.32614 0.775467,0.69907 l -0.08916,2.60744 c -0.01275,0.37295 -0.379507,0.65955 -0.821351,0.64444 l -2.642735,-0.0905 c -0.441865,-0.0151 -0.785262,-0.32597 -0.772539,-0.69895 l 0.08918,-2.60742 c 0.01272,-0.37295 0.376556,-0.65964 0.818426,-0.64456 z m -0.51886,5.168 c -0.556033,-0.019 -1.014309,0.33529 -1.029991,0.79363 l -0.109515,3.2026 c -0.01567,0.45831 0.417357,0.84316 0.973396,0.86215 l 3.326241,0.11383 c 0.556048,0.019 1.017292,-0.33521 1.032967,-0.79355 l 0.109504,-3.20256 c 0.01568,-0.45834 -0.420287,-0.84325 -0.976353,-0.86226 z m 0.326274,0.46541 2.642727,0.0904 c 0.441848,0.0151 0.788172,0.32611 0.775433,0.69908 l -0.08916,2.6074 c -0.01272,0.37295 -0.379514,0.65956 -0.821382,0.64448 l -2.642716,-0.0905 c -0.441867,-0.0151 -0.785266,-0.326 -0.772505,-0.69897 l 0.08915,-2.6074 c 0.01273,-0.37294 0.376558,-0.65966 0.818449,-0.64454 z m -5.311409,5.1952 c -0.556024,-0.019 -1.014308,0.33533 -1.030014,0.79363 l -0.109479,3.20261 c -0.01566,0.4583 0.417355,0.84313 0.9734,0.86213 l 8.333579,0.28507 c 0.556069,0.019 1.017282,-0.3352 1.032959,-0.79352 l 0.109515,-3.2026 c 0.01569,-0.45833 -0.420315,-0.84325 -0.976374,-0.86225 z m 0.326265,0.46542 7.650064,0.26168 c 0.441871,0.0151 0.788223,0.32608 0.775483,0.69904 l -0.08917,2.60743 c -0.01276,0.37294 -0.379475,0.65954 -0.821419,0.64439 l -7.650041,-0.26165 c -0.441884,-0.0151 -0.785245,-0.326 -0.772489,-0.69893 l 0.08912,-2.60744 c 0.01278,-0.37295 0.376573,-0.65967 0.818455,-0.64452 z m -6.80117,-0.84462 c -0.556086,-0.019 -1.014365,0.33529 -1.030026,0.79363 l -0.109479,3.20256 c -0.01568,0.45837 0.417317,0.8432 0.973372,0.86222 l 3.326253,0.11382 c 0.55605,0.019 1.017246,-0.33525 1.032912,-0.79356 l 0.109527,-3.20259 c 0.01567,-0.45831 -0.420281,-0.84322 -0.976346,-0.86225 z m 0.32624,0.46544 2.642709,0.0904 c 0.441893,0.0151 0.788204,0.32612 0.775462,0.69904 l -0.08912,2.60746 c -0.0128,0.37295 -0.37953,0.65954 -0.82144,0.64443 l -2.64271,-0.0904 c -0.441892,-0.0151 -0.785277,-0.32603 -0.772492,-0.69896 l 0.08912,-2.60744 c 0.01279,-0.37295 0.376583,-0.65967 0.818466,-0.64452 z m -6.564549,-0.67883 c -0.55605,-0.019 -1.014344,0.33529 -1.030013,0.79364 l -0.10948,3.20255 c -0.01569,0.45838 0.417324,0.84322 0.973334,0.86225 l 3.326258,0.1137 c 0.556083,0.019 1.017313,-0.33522 1.032976,-0.79356 l 0.109491,-3.20259 c 0.01565,-0.4583 -0.420294,-0.84327 -0.97637,-0.86225 z m 0.326254,0.46543 2.642709,0.0904 c 0.441869,0.0151 0.788231,0.32609 0.775468,0.69904 l -0.08913,2.60744 c -0.01281,0.37295 -0.379535,0.65957 -0.821415,0.64445 l -2.642731,-0.0904 c -0.441877,-0.0151 -0.785283,-0.326 -0.772518,-0.69896 l 0.08913,-2.60744 c 0.01277,-0.37293 0.376601,-0.65964 0.81848,-0.64453 z m -6.563554,-0.67878 c -0.556063,-0.019 -1.014283,0.3353 -1.029979,0.79365 l -0.109503,3.20257 c -0.01564,0.45835 0.41732,0.84317 0.973417,0.8622 l 3.326184,0.11382 c 0.556086,0.019 1.017328,-0.33521 1.032969,-0.79356 l 0.109503,-3.20259 c 0.01567,-0.4583 -0.420284,-0.84323 -0.976347,-0.86224 z m 0.326249,0.46546 2.642721,0.0904 c 0.441873,0.0151 0.788242,0.32611 0.775474,0.69905 l -0.08914,2.60743 c -0.01277,0.373 -0.379507,0.65957 -0.82138,0.64445 l -2.642736,-0.0904 c -0.441892,-0.0151 -0.78524,-0.32599 -0.77251,-0.69895 l 0.08916,-2.60743 c 0.01275,-0.37293 0.376539,-0.65963 0.81841,-0.6445 z m 12.343101,-5.70549 c -0.556073,-0.019 -1.014333,0.33528 -1.030014,0.79363 l -0.109527,3.20261 c -0.01566,0.4583 0.417381,0.84315 0.973425,0.86212 l 3.326211,0.11382 c 0.55605,0.019 1.017291,-0.33523 1.032946,-0.79356 l 0.109491,-3.20257 c 0.01569,-0.45832 -0.420284,-0.84324 -0.976303,-0.86227 z m 0.326232,0.4654 2.642743,0.0904 c 0.441859,0.0151 0.788213,0.32611 0.775446,0.69905 l -0.08914,2.60744 c -0.01275,0.37292 -0.379519,0.65957 -0.821412,0.64444 l -2.642722,-0.0904 c -0.44188,-0.0151 -0.785225,-0.32604 -0.7725,-0.69898 l 0.08916,-2.60739 c 0.01277,-0.37298 0.376567,-0.65972 0.818429,-0.64458 z m -6.564546,-0.67879 c -0.556047,-0.019 -1.014308,0.33532 -1.030006,0.79364 l -0.109491,3.2026 c -0.01569,0.45829 0.417313,0.84313 0.973409,0.86214 l 3.326219,0.11382 c 0.556042,0.019 1.017268,-0.33521 1.032958,-0.7935 l 0.109491,-3.20262 c 0.01569,-0.45831 -0.420288,-0.84322 -0.976329,-0.86226 z m 0.326253,0.4654 2.642731,0.0904 c 0.441845,0.0151 0.788215,0.3261 0.775467,0.69908 l -0.08916,2.60739 c -0.01275,0.37295 -0.379527,0.65957 -0.821402,0.64444 l -2.642706,-0.0904 c -0.441916,-0.0151 -0.785285,-0.32603 -0.772535,-0.699 l 0.08916,-2.60741 c 0.01275,-0.37295 0.376587,-0.65967 0.818445,-0.64455 z m -6.563507,-0.67872 c -0.556056,-0.019 -1.014343,0.3353 -1.030017,0.79363 l -0.10948,3.20258 c -0.0157,0.45831 0.417295,0.84311 0.973377,0.86214 l 3.326238,0.11383 c 0.556033,0.019 1.017247,-0.33521 1.032947,-0.79353 l 0.109479,-3.20259 c 0.01567,-0.4583 -0.42029,-0.84322 -0.976339,-0.86225 z m 0.326197,0.46539 2.642741,0.0904 c 0.441901,0.0151 0.788218,0.3261 0.775494,0.69905 l -0.08918,2.60743 c -0.01272,0.37294 -0.379491,0.65958 -0.821381,0.64442 l -2.642722,-0.0904 c -0.441862,-0.0151 -0.78525,-0.32604 -0.772486,-0.69897 l 0.08914,-2.60742 c 0.01276,-0.37299 0.376574,-0.65968 0.818394,-0.64454 z m 12.338234,-5.56257 c -0.55604,-0.019 -1.014372,0.33536 -1.030011,0.79366 l -0.109516,3.20258 c -0.01567,0.45833 0.417365,0.84315 0.973414,0.86218 l 3.326247,0.11383 c 0.556021,0.019 1.017236,-0.33522 1.032928,-0.79352 l 0.109504,-3.20258 c 0.01563,-0.45837 -0.420277,-0.84328 -0.976327,-0.86229 z m 0.326251,0.46545 2.642701,0.0904 c 0.441906,0.0151 0.78823,0.32609 0.775487,0.69903 l -0.08917,2.60747 c -0.01273,0.37293 -0.3795,0.6595 -0.821372,0.64438 l -2.642745,-0.0904 c -0.441873,-0.0151 -0.785266,-0.32606 -0.772522,-0.69896 l 0.08919,-2.60748 c 0.01275,-0.37291 0.37656,-0.65963 0.818423,-0.6445 z M 31.8339,905.23134 c -0.556024,-0.019 -1.014353,0.33533 -1.030012,0.79361 l -0.109503,3.20262 c -0.01566,0.45833 0.417329,0.84314 0.97339,0.86213 l 3.326253,0.11382 c 0.556065,0.019 1.017276,-0.33524 1.03296,-0.79355 l 0.109479,-3.20258 c 0.01567,-0.45834 -0.420289,-0.84326 -0.976338,-0.86227 z m 0.326266,0.46541 2.642703,0.0904 c 0.441866,0.0151 0.78821,0.3261 0.775473,0.69903 l -0.08917,2.60746 c -0.01275,0.37295 -0.379531,0.65953 -0.821376,0.64443 l -2.642733,-0.0904 c -0.441865,-0.0151 -0.785268,-0.32599 -0.772547,-0.69892 l 0.08918,-2.60744 c 0.0128,-0.37295 0.376595,-0.65964 0.818469,-0.64453 z m -6.563534,-0.67877 c -0.556077,-0.019 -1.01432,0.33531 -1.030006,0.79363 l -0.109504,3.20259 c -0.01567,0.45833 0.41732,0.84314 0.9734,0.86215 l 3.326211,0.11383 c 0.556081,0.019 1.017291,-0.33523 1.03295,-0.79355 l 0.109503,-3.20259 c 0.01569,-0.45832 -0.42027,-0.84325 -0.976343,-0.86227 z m 0.326244,0.46542 2.642736,0.0904 c 0.441862,0.0151 0.788233,0.32613 0.775467,0.69909 l -0.08916,2.60744 c -0.01275,0.37295 -0.379536,0.65952 -0.821408,0.64442 l -2.64274,-0.0904 c -0.441868,-0.0151 -0.785223,-0.32603 -0.772469,-0.69893 l 0.08912,-2.60747 c 0.01278,-0.37294 0.376594,-0.65961 0.818443,-0.64451 z m 0.406388,-14.34834 c -1.281569,-0.0463 -1.767821,0.85691 -1.784352,1.34081 l -0.342347,10.01222 c -0.02917,0.85266 0.773938,1.48104 1.634156,1.51048 l 27.730239,0.94851 c 1.281664,0.0439 1.769426,-0.90959 1.783253,-1.39358 l 0.278272,-9.6448 c 0.01385,-0.48389 -0.235276,-1.72384 -1.516841,-1.77017 z m 0.722111,1.09409 26.263467,0.89834 c 1.182688,0.0405 1.216149,0.82058 1.198226,1.26267 l -0.342056,8.46197 c -0.01794,0.44204 -0.67149,0.99028 -1.327245,0.96527 L 26.42637,902.80825 c -1.182532,-0.0452 -1.001589,-0.76048 -0.986488,-1.20269 l 0.296583,-8.67449 c 0.01512,-0.44218 0.238003,-0.73874 1.315352,-0.70186 z m -1.857023,-3.24298 c -1.45954,-0.0499 -2.677459,1.08437 -2.727357,2.54391 l -1.032589,30.20125 c -0.04993,1.45955 1.087795,2.67444 2.547202,2.72435 l 30.197399,1.03293 c 1.459536,0.0499 2.674254,-1.08451 2.724148,-2.54404 l 1.032577,-30.20128 c 0.04993,-1.45955 -1.084423,-2.67431 -2.543966,-2.72424 z m 1.113398,1.51335 27.866934,0.95319 c 1.34674,0.0461 2.395097,1.15863 2.349493,2.49241 l -0.943549,27.59632 c -0.04561,1.33374 -1.167589,2.37207 -2.514256,2.32602 l -27.866904,-0.9532 c -1.346759,-0.0461 -2.391882,-1.15851 -2.346293,-2.49229 l 0.943557,-27.59631 c 0.04558,-1.33374 1.16426,-2.37222 2.511018,-2.32614 z"
           style="fill:#2a3aff;fill-opacity:1;stroke:none;stroke-width:0.35023955;stroke-opacity:1"
           id="path5371" />
      </g>
      <g
         id="g1494">
        <ellipse
           ry="21.493996"
           rx="21.494154"
           transform="matrix(0.9852959,-0.17085665,0.17086015,0.98529529,0,0)"
           cy="868.2724"
           cx="32.206917"
           id="path4144-1-6-4"
           style="color:#000000;display:inline;overflow:visible;visibility:visible;fill:#6875ff;fill-opacity:1;fill-rule:nonzero;stroke:none;stroke-width:2.78023386;marker:none;enable-background:accumulate" />
        <path
           d="m 184.61341,846.76827 c -1.9918,3.86963 -4.53812,5.26071 -4.56749,8.6107 -0.0224,2.49733 2.13234,4.50613 4.69917,4.48034 2.56684,-0.0258 4.62767,-2.07638 4.60259,-4.57379 -0.0251,-2.49725 -2.54021,-4.81578 -4.73427,-8.51725 z m 6.48526,6.82527 c -0.94322,1.83251 -2.14816,2.49466 -2.16211,4.0811 -0.0106,1.18258 1.00892,2.13241 2.22446,2.12022 1.21555,-0.0122 2.18774,-0.98186 2.17584,-2.16443 -0.0119,-1.18257 -1.19916,-2.28394 -2.23819,-4.03689 z m -19.87416,-19.91536 c -4.00463,7.78025 -9.11888,10.57505 -9.17816,17.31003 -0.0451,5.02107 4.28197,9.05611 9.44279,9.00425 5.16081,-0.0519 9.31028,-4.17106 9.2598,-9.19212 -0.0505,-5.02106 -5.1127,-9.68023 -9.52443,-17.12216 z"
           style="color:#000000;fill:#2a3aff;fill-opacity:1;fill-rule:evenodd;stroke-width:0.30891487"
           id="path5663" />
      </g>
      <g
         id="g1579">
        <ellipse
           ry="16.237402"
           rx="16.23752"
           transform="matrix(0.9852959,-0.17085664,0.17086017,0.98529529,0,0)"
           cy="1067.3997"
           cx="-145.84955"
           id="path4144-1-6-793"
           style="color:#000000;display:inline;overflow:visible;visibility:visible;fill:#6875ff;fill-opacity:1;fill-rule:nonzero;stroke:none;stroke-width:2.10029697;marker:none;enable-background:accumulate" />
        <path
           d="m 34.049444,1084.2127 c 2.29815,1.4599 4.60205,1.5486 6.968014,0.5808 0.617117,0.2306 0.430849,0.8579 -0.08576,1.0289 -2.315042,0.8582 -4.634361,0.6661 -6.967998,-0.5808 -0.527593,-0.5545 -0.438531,-1.2191 0.08575,-1.0289 z m 0.09325,1.6589 c 2.139857,1.4467 4.292463,1.5228 6.508653,0.5425 0.575519,0.2272 0.398029,0.8552 -0.08573,1.0289 -2.168226,0.8704 -4.33476,0.691 -6.508671,-0.5424 -0.490047,-0.5514 -0.403149,-1.2162 0.08574,-1.029 z m 0.593848,1.9014 c -0.379527,-0.017 0.717722,1.8596 1.705019,2.3925 -0.02976,0.839 1.095386,0.9467 1.17455,0.098 1.12214,-0.217 2.874964,-2.0847 2.000406,-2.078 -1.776757,0.6961 -3.228772,0.5347 -4.827735,-0.4024 -0.0195,-0.01 -0.03755,-0.01 -0.05242,-0.01 z m 4.223537,-22.7384 c -4.296008,-0.358 -8.05203,2.6548 -8.391541,6.729 -0.05443,5.6027 4.08979,7.951 3.114923,11.1545 1.106132,1.7996 6.163805,2.3782 7.618384,0.635 -0.900139,-3.1144 4.522397,-6.3182 4.822735,-10.4929 0.339501,-4.0744 -2.86849,-7.6674 -7.164465,-8.0256 z m 0.0018,0.9914 c 1.515606,0.1026 2.961789,0.7663 4.089701,1.7921 1.675935,1.4489 2.487547,3.8269 1.969077,5.9975 -0.608527,2.0383 -2.11258,3.6224 -3.269181,5.3554 -0.844889,1.1449 -1.550457,2.4885 -1.452951,3.959 -0.462954,0.3473 -1.095489,0.4475 -1.672337,0.4859 -0.613344,0 -1.262067,-0.016 -1.887048,-0.1172 0.04708,-0.1569 0.0927,-0.356 0.135941,-0.5903 0.264745,-1.4342 0.19676,-2.9332 -0.22521,-4.8942 -0.07741,-0.3599 -0.295363,-1.2612 -0.345215,-1.4282 -0.02085,-0.07 -0.08665,-0.273 -0.147632,-0.4512 -0.14314,-0.4185 -0.191867,-0.5762 -0.239618,-0.7822 -0.148459,-0.6403 -0.04715,-1.0199 0.327042,-1.2234 0.123957,-0.067 0.243198,-0.076 0.330071,-0.022 0.05565,0.035 0.146683,0.15 0.205739,0.2603 0.12653,0.2361 0.144289,0.2668 0.197566,0.3303 0.0594,0.071 0.102782,0.098 0.157891,0.1028 0.05771,0.01 0.144687,-0.019 0.187102,-0.051 0.02176,-0.017 0.08839,-0.097 0.148736,-0.1811 0.133286,-0.1861 0.203636,-0.2685 0.290847,-0.3392 0.107515,-0.087 0.149644,-0.1055 0.221668,-0.099 0.145892,0.012 0.223671,0.1047 0.337226,0.3986 0.05006,0.1296 0.105255,0.2082 0.163441,0.2331 0.05812,0.024 0.183203,0.027 0.255368,0 0.07527,-0.025 0.160139,-0.1045 0.198222,-0.1841 0.01581,-0.033 0.05321,-0.1263 0.08296,-0.2078 0.06652,-0.1823 0.102668,-0.245 0.21267,-0.3575 0.192145,-0.1966 0.39283,-0.2929 0.583446,-0.277 0.07235,0.01 0.08684,0.011 0.127684,0.043 0.04501,0.036 0.09786,0.1079 0.145018,0.2008 0.02738,0.054 0.04039,0.061 0.0749,0.03 0.04375,-0.04 0.07763,-0.1159 0.08412,-0.1936 0.007,-0.084 -0.0085,-0.15 -0.06486,-0.2909 -0.06272,-0.157 -0.158026,-0.2528 -0.315931,-0.3167 -0.09268,-0.037 -0.375893,-0.059 -0.549887,-0.041 -0.167449,0.017 -0.228193,0.04 -0.312674,0.1226 -0.191679,0.1875 -0.244152,0.2246 -0.333299,0.2295 -0.0421,0 -0.05608,-0.01 -0.10244,-0.037 -0.07338,-0.051 -0.220779,-0.1115 -0.326309,-0.1357 -0.122547,-0.029 -0.331374,-0.036 -0.446464,-0.016 -0.05051,0.01 -0.138033,0.032 -0.194476,0.054 -0.08905,0.035 -0.121283,0.055 -0.240124,0.1523 -0.138949,0.1136 -0.230386,0.1623 -0.265125,0.1431 -0.0091,-0.01 -0.06779,-0.039 -0.131923,-0.077 -0.206619,-0.1241 -0.313578,-0.1604 -0.518217,-0.1683 -0.158343,-0.01 -0.272503,0.014 -0.418777,0.073 -0.215641,0.088 -0.388813,0.2216 -0.563743,0.4344 -0.118753,0.1445 -0.163079,0.2176 -0.209757,0.3507 -0.0295,0.084 -0.03316,0.1165 -0.04946,0.312 -0.01474,0.177 -0.0163,0.2447 -0.0064,0.3582 0.02257,0.2584 0.04055,0.3449 0.118457,0.5762 0.48378,1.4363 0.847201,3.0735 0.986874,4.4478 0.05708,0.5616 0.08504,1.2296 0.07432,1.809 -0.0018,0.091 -0.0212,0.4369 -0.04289,0.7681 -0.02757,0.4207 -0.04089,0.67 -0.0443,0.8411 -0.588061,-0.1428 -1.14054,-0.3835 -1.610553,-0.7903 0.22846,-1.4374 -0.334368,-2.8234 -0.992912,-4.066 -1.146888,-2.1785 -2.407261,-4.5192 -2.117971,-7.053 0.387556,-3.3565 3.827141,-5.8184 7.088062,-5.4881 0.101579,0 0.202633,0.01 0.303677,0.014 z m 0.186572,5.0204 c -0.04102,0 -0.07339,0 -0.08715,0.01 -0.02428,0.01 -0.01262,0.02 0.176132,0.1374 0.427592,0.2671 0.741006,0.5322 1.00761,0.8509 0.206681,0.2472 0.451043,0.6643 0.587074,1.0023 0.156215,0.3882 0.217783,0.7228 0.246653,1.3444 0.01825,0.3921 -0.125253,0.934 -0.372514,1.4037 -0.213018,0.4045 -0.472319,0.7592 -1.111529,1.5215 -0.209269,0.2495 -0.454613,0.5597 -0.544851,0.6861 -0.162039,0.2269 -0.263376,0.4352 -0.346353,0.7239 -0.07214,0.2508 -0.09125,0.3608 -0.09964,0.5485 -0.01742,0.3915 0.08926,0.7147 0.325666,0.9876 0.04202,0.048 0.09858,0.1097 0.124891,0.1332 0.05674,0.051 0.09943,0.058 0.154826,0.027 0.08197,-0.046 0.134373,-0.2616 0.138267,-0.5619 0.0012,-0.093 0.0099,-0.26 0.0192,-0.3712 l 0.01447,-0.2018 0.05343,-0.1347 c 0.130213,-0.3377 0.329951,-0.6778 0.631017,-1.073 0.05912,-0.077 0.234744,-0.2945 0.389505,-0.4819 0.499246,-0.6049 0.691032,-0.8632 0.863357,-1.1599 0.26743,-0.4603 0.420498,-0.9494 0.465895,-1.4832 0.0264,-0.3167 0.02027,-0.5537 -0.03017,-0.8757 -0.04874,-0.3104 -0.172904,-0.7685 -0.270189,-1.0065 -0.360116,-0.881 -1.09757,-1.6471 -1.840847,-1.9091 -0.153229,-0.054 -0.371718,-0.1021 -0.494753,-0.112 z"
           style="fill:#2a3aff;fill-opacity:1;stroke-width:0.1844838"
           id="path5542" />
      </g>
      <ellipse
         style="color:#000000;display:inline;overflow:visible;visibility:visible;fill:#6875ff;fill-opacity:1;fill-rule:nonzero;stroke:none;stroke-width:2.60540175;marker:none;enable-background:accumulate"
         id="path4144-1-6"
         cx="-301.43323"
         cy="1030.8002"
         transform="matrix(0.86059577,-0.50928864,0.50929507,0.86059196,0,0)"
         rx="20.142473"
         ry="20.142412" />
      <path
         style="fill:#2a3aff;fill-opacity:1;stroke-width:0.23094106"
         d="m 264.65677,1054.9331 c -2.13144,0.159 -4.90841,0.1225 -5.17013,-0.068 -0.18935,-0.1379 -0.22751,-0.3974 -0.24945,-1.6971 -0.0284,-1.6808 -0.35082,-6.8826 -0.57461,-9.2687 l -0.14152,-1.5093 0.0211,-1.8427 -0.61951,-2.309 0.37741,2.3802 -0.19428,1.6971 -0.98723,0.2221 c -1.44053,0.3241 -2.99764,-0.063 -3.75425,-0.536 -0.33919,-0.2117 -0.34393,-0.2323 -0.26087,-1.1377 0.069,-0.7523 1.1017,-6.6728 1.5218,-8.7249 0.0859,-0.4198 0.201,-0.5553 0.59943,-0.7058 0.96539,-0.3647 4.40033,-2.4243 4.61304,-2.766 0.34123,-0.5483 1.18164,-0.8786 3.28153,-1.2901 2.18708,-0.4284 3.48181,-0.4628 4.09699,-0.1088 0.53134,0.3059 1.32581,0.5185 3.74685,1.0028 1.11818,0.2238 2.17928,0.4526 2.35809,0.5088 0.2554,0.08 0.83427,1.0429 2.70055,4.4917 2.73917,5.0619 2.65323,4.572 0.98312,5.6021 -0.82929,0.5115 -1.24571,0.67 -2.38511,0.908 l -1.11688,0.2452 -0.55454,-2.2238 -0.47772,-2.3905 0.19438,2.5133 0.57439,2.144 0.33069,1.4796 c 0.6,2.6844 1.51909,6.3112 2.13222,8.4138 0.4968,1.7035 0.57628,2.108 0.44881,2.2833 -0.1998,0.2749 -2.781,1.1232 -5.16213,1.6968 -2.10729,0.5074 -4.14919,0.8264 -6.33215,0.9892 z m 0.87676,-25.5984 c 0.9313,-0.6707 1.36012,-1.5751 0.80306,-1.6939 -0.89291,-0.1903 -4.98061,0.5828 -5.2838,0.9995 -0.24287,0.3337 1.04816,1.1317 2.10906,1.3034 0.55551,0.09 1.86955,-0.2474 2.37169,-0.609 z"
         id="path2985" />
      <g
         id="g1563">
        <ellipse
           ry="22.484735"
           rx="22.484898"
           transform="matrix(0.9852959,-0.17085666,0.17086017,0.98529529,0,0)"
           cy="1016.9261"
           cx="-62.995087"
           id="path4144-1-6-54"
           style="color:#000000;display:inline;overflow:visible;visibility:visible;fill:#6875ff;fill-opacity:1;fill-rule:nonzero;stroke:none;stroke-width:2.90838528;marker:none;enable-background:accumulate" />
        <path
           style="fill:#2a3aff;fill-opacity:1;stroke-width:0.32315391"
           d="m 108.73237,997.47687 -0.51397,2.81323 c -0.49967,0.1384 -0.98369,0.3131 -1.45588,0.5075 l -2.14492,-1.91632 -3.12125,2.11672 0.96846,2.6868 c -0.35616,0.3633 -0.69347,0.7524 -1.00461,1.155 l -2.816729,-0.564 -1.657906,3.384 2.191189,1.859 c -0.125812,0.4894 -0.234326,0.9865 -0.302084,1.4949 l -2.709734,0.9159 0.26148,3.7553 2.809617,0.5187 c 0.138147,0.4963 0.313832,0.9831 0.507265,1.452 l -1.913222,2.133 2.111686,3.1334 2.710258,-0.9643 c 0.36148,0.3532 0.73744,0.6951 1.13754,1.0039 l -0.56786,2.817 3.38301,1.6426 1.84242,-2.1784 c 0.48904,0.1264 0.98858,0.2335 1.49677,0.3019 l 0.93158,2.7126 3.75909,-0.2617 0.54668,-2.8155 c 0.47279,-0.133 0.93983,-0.3003 1.38793,-0.4835 l 2.17908,1.8791 3.12274,-2.0955 -0.95505,-2.7438 c 0.33937,-0.3486 0.65794,-0.717 0.95617,-1.1014 l 2.85135,0.5616 1.6571,-3.3957 -2.17733,-1.8812 c 0.11771,-0.4627 0.18898,-0.9423 0.25493,-1.422 l 2.74378,-0.9551 -0.26149,-3.7553 -2.83207,-0.563 c -0.13242,-0.471 -0.2848,-0.9291 -0.46712,-1.3755 l 1.8948,-2.1764 -2.11087,-3.1217 -2.72986,0.9328 c -0.3474,-0.3387 -0.71639,-0.6586 -1.09944,-0.9563 l 0.55019,-2.82722 -3.38498,-1.66376 -1.89605,2.18238 c -0.47437,-0.1206 -0.96494,-0.22294 -1.45721,-0.28923 l -0.0176,-2.4e-4 -0.89895,-2.71518 -3.75904,0.26165 z m 2.2651,5.89233 c 2.595,-0.1805 5.00804,0.7217 6.81297,2.3187 l -0.59458,2.074 c -1.47556,-1.6737 -3.68819,-2.6639 -6.08645,-2.497 -4.08789,0.2847 -7.17038,3.8283 -6.88573,7.9166 0.28464,4.088 3.82826,7.1706 7.91639,6.8859 4.08789,-0.2846 7.17038,-3.8282 6.88572,-7.9165 -0.0337,-0.4831 -0.11086,-0.9549 -0.23131,-1.4055 l -1.72489,0.4218 0.70585,-2.5016 0.72371,-2.4952 1.81974,1.8577 1.79831,1.8825 -1.48258,0.374 c 0.14788,0.5588 0.24543,1.1359 0.2871,1.7343 0.35753,5.1349 -3.51472,9.585 -8.64969,9.9425 -5.1348,0.3574 -9.58471,-3.513 -9.94226,-8.6482 -0.35754,-5.1349 3.51268,-9.5867 8.64771,-9.9442 z m 0.30127,3.8823 c 3.03007,-0.2111 5.6566,2.0737 5.86758,5.1038 0.21098,3.0302 -2.07378,5.6548 -5.1038,5.8658 -3.03008,0.211 -5.65074,-2.0722 -5.86173,-5.1024 -0.21097,-3.0301 2.06786,-5.6563 5.09795,-5.8672 z"
           id="path3353" />
      </g>
      <g
         id="g1486">
        <ellipse
           ry="25.057978"
           rx="25.058159"
           transform="matrix(0.9852959,-0.17085662,0.17086011,0.9852953,0,0)"
           cy="849.35724"
           cx="-73.561867"
           id="path4144-1-6-1"
           style="color:#000000;display:inline;overflow:visible;visibility:visible;fill:#6875ff;fill-opacity:1;fill-rule:nonzero;stroke:none;stroke-width:3.2412324;marker:none;enable-background:accumulate" />
        <path
           d="m 57.110879,847.37412 c -1.181379,0.64414 -2.734092,4.16896 -3.666173,3.51256 -0.932315,-0.65716 1.879597,-2.78313 3.666173,-3.51256 z m 0.09142,6.65496 c -1.176583,0.93966 -3.156618,6.40063 -3.896124,5.30325 -0.739493,-1.09735 2.156576,-4.26897 3.896124,-5.30325 z m 0.972876,6.36558 c -0.66202,1.53311 0.373398,7.49808 -0.978012,6.98897 -1.351453,-0.50909 -0.197556,-5.032 0.978012,-6.98897 z M 74.125629,830.5578 c 3.639515,-2.44528 10.405022,-3.33346 14.573973,5.01338 1.206037,2.41458 0.943283,4.34697 0.855657,5.60537 -0.01492,0.17508 -0.372541,1.59469 -0.368543,1.8605 0.0042,0.27678 2.555213,4.13211 2.87009,4.62383 0.619018,1.01473 0.306483,1.26047 0.0059,1.54679 l -10.760302,7.90888 c -0.541899,0.39829 -0.926109,-0.11193 -1.21294,-0.55866 l -3.047442,-4.99371 c -0.216643,-0.25502 -0.844019,-0.45224 -1.152622,-0.63964 -3.65717,-1.22117 -5.880836,-1.78807 -12.454701,-3.8311 l -2.92978,2.94364 c -0.37804,0.39074 -2.984843,-4.51264 -1.323686,-6.40019 l 4.162735,1.54762 6.065339,1.23133 2.898053,-2.15046 -1.81822,-2.92916 c -0.885873,-5.24153 0.867691,-8.81259 3.637552,-10.77849 z m 0.804123,0.98034 c -3.055865,2.49731 -3.036679,4.26343 -3.259284,7.39894 0.12642,0.46996 0.07886,1.07923 1.190958,0.17972 l 8.530971,-6.40481 c 0.460684,-0.34573 1.0292,-0.24793 1.726675,0.84098 l 3.899741,6.08662 c 0.545844,-0.42082 1.768127,-0.2615 0.456191,-3.61176 -3.007876,-6.98631 -9.488841,-6.98764 -12.544989,-4.49013 z"
           style="fill:#2a3ae9;fill-opacity:1;stroke:#6875ff;stroke-width:0.12844382px;stroke-opacity:1"
           id="path3220-9" />
      </g>
      <g
         id="g1575">
        <ellipse
           ry="21.493996"
           rx="21.494154"
           transform="matrix(0.9852959,-0.17085665,0.17086015,0.98529529,0,0)"
           cy="1036.0225"
           cx="-7.4270792"
           id="path4144-1-6-79"
           style="color:#000000;display:inline;overflow:visible;visibility:visible;fill:#6875ff;fill-opacity:1;fill-rule:nonzero;stroke:none;stroke-width:2.78023386;marker:none;enable-background:accumulate" />
        <path
           d="m 167.3502,1030.2955 6.73664,-1.0149 0.14759,0.9799 -6.73666,1.0148 z m 0.24187,1.6059 4.94003,-0.7442 0.14756,0.9799 -4.94002,0.7442 z m 0.24193,1.6059 8.4515,-1.2731 0.14756,0.9799 -8.45152,1.2731 z m -0.72576,-4.8178 8.4515,-1.2731 0.14764,0.9799 -8.4515,1.2731 z m -3.86158,-14.5057 1.02687,6.8167 12.87247,-1.9391 -1.02692,-6.8167 z m 1.01312,0.7343 11.10702,-1.6731 0.76327,5.0667 -11.10704,1.6732 -0.38046,-2.5258 -0.38281,-2.5411 z m -4.86639,3.3318 0.59366,3.9409 0.69908,4.6408 0.59369,3.941 3.68213,-0.5547 -0.59365,-3.9409 14.2416,-2.1453 0.59365,3.9409 3.69739,-0.557 -0.59366,-3.9409 -0.69913,-4.6408 -0.59365,-3.9409 -3.69737,0.5569 0.59366,3.9409 -14.2416,2.1454 -0.59365,-3.9409 z m 5.73984,8.4566 1.62975,10.8186 12.87248,-1.9391 -1.62972,-10.8186 z m 0.94392,0.7915 11.09194,-1.6709 1.36384,9.0536 -11.09193,1.6708 -0.68306,-4.5343 -0.68076,-4.5191 z m 15.91419,-5.6928 c 4.70608,-2.3366 2.60054,-11.5643 -3.62903,-9.8884 -1.54293,-4.9075 -5.28838,-6.4337 -8.8955,-5.9053 -3.98324,0.5835 -7.31845,3.3404 -7.35139,6.3877 -5.77026,0.5182 -8.73061,4.9207 -8.13498,8.2631 0.46182,3.741 3.49879,6.2302 6.73842,6.0638 -2.28045,-0.6029 -4.64955,-2.7516 -5.32304,-6.0565 -0.55413,-2.719 2.05035,-6.2474 7.95771,-7.0004 -0.58677,-2.3517 2.438,-5.6983 6.28785,-6.1921 3.26845,-0.4193 6.64836,1.3046 8.06883,6.1528 2.16582,-0.6951 3.73481,-0.5627 4.73666,0.6983 1.40767,1.7716 1.64193,5.4741 -0.45551,7.4771 z"
           style="fill:#2a3aff;fill-opacity:1;stroke-width:0.30891487"
           id="path4902" />
      </g>
      <g
         id="g1498">
        <ellipse
           ry="23.784904"
           rx="23.785078"
           transform="matrix(0.9852959,-0.17085664,0.17086017,0.98529529,0,0)"
           cy="894.38623"
           cx="103.78492"
           id="path4144-1-6-74"
           style="color:#000000;display:inline;overflow:visible;visibility:visible;fill:#6875ff;fill-opacity:1;fill-rule:nonzero;stroke:none;stroke-width:3.07656121;marker:none;enable-background:accumulate" />
        <path
           d="m 259.22622,854.97991 c 0.0416,0.26166 0.28533,2.43536 -2.55911,4.98356 -1.35339,1.53143 -5.65223,6.24512 -3.00778,8.58568 -0.20362,0.4672 -0.44419,0.94683 -0.46011,2.66464 -0.43399,-1.33255 -1.01118,-1.6815 -1.2266,-1.93537 1.03373,-2.90738 -0.87853,-4.0203 -2.59176,-5.57968 -2.03834,-1.34482 -1.87938,-3.22397 -1.87938,-3.22397 0,0 -0.94948,8.44151 2.62228,9.47949 3.57176,1.038 1.21094,0.0594 1.75487,-0.45461 1.17537,1.38745 1.33814,2.78762 1.33814,2.78762 l 0.34034,-0.0514 c -0.27938,-0.92508 0.34022,-3.39799 0.34022,-3.39799 0.91764,0.37543 2.3763,-0.61306 2.3763,-0.61306 5.40291,-3.05655 3.02052,-12.96736 2.95251,-13.24524 z m 2.02407,-8.88187 -1.31261,-0.12237 -0.27461,4.07875 -3.99042,-3.28137 -0.14755,2.27259 12.80491,10.44213 c 0.69319,0.0785 1.4163,-0.004 1.12847,-1.38526 l -8.54227,-7.01954 0.33439,-4.98422 z m -5.97731,0.61022 -15.68259,8.4744 c -0.52882,1.18692 0.24784,1.53967 0.83575,1.57923 l 14.6546,-7.73454 0.19254,-2.31929 z m -10.79889,8.52466 -1.77747,1.1016 -1.60559,16.26103 1.5982,0.15783 1.78489,-17.52094 z m 20.17832,1.99272 -1.67616,17.53168 1.59817,0.15783 1.60562,-16.26104 -1.52766,-1.428 z m -24.50075,15.58477 c -0.25076,0.25336 -0.38424,0.51829 -0.0815,0.82629 l 25.30264,2.49877 c 0.2074,-0.19491 0.40196,-0.39555 0.0815,-0.82628 z"
           style="fill:#2a3aff;fill-opacity:1;stroke-width:0.26567066"
           id="path5464-5" />
      </g>
      <g
         id="g1535">
        <ellipse
           ry="24.415665"
           rx="24.41584"
           transform="matrix(0.9852959,-0.17085662,0.17086013,0.98529529,0,0)"
           cy="920.36816"
           cx="44.03096"
           id="path4144-1-6-86"
           style="color:#000000;display:inline;overflow:visible;visibility:visible;fill:#6875ff;fill-opacity:1;fill-rule:nonzero;stroke:none;stroke-width:3.15814948;marker:none;enable-background:accumulate" />
        <g
           style="fill:#2a3aff;fill-opacity:1"
           transform="matrix(1.7602139,0,0,1.7602139,184.60899,883.67101)"
           id="g1303">
          <g
             style="fill:#2a3aff;fill-opacity:1"
             id="g1243">
            <g
               style="fill:#2a3aff;fill-opacity:1"
               id="g1241">
              <path
                 style="fill:#2a3aff;fill-opacity:1"
                 d="M 0.831,7.242 1.069,6.616 C 0.923,6.784 0.831,7 0.831,7.242 Z"
                 id="path1233" />
              <path
                 style="fill:#2a3aff;fill-opacity:1"
                 d="m 15.671,6.561 0.284,0.681 C 15.956,6.976 15.847,6.734 15.671,6.561 Z"
                 id="path1235" />
              <path
                 style="fill:#2a3aff;fill-opacity:1"
                 d="m 14.952,6.285 c 0.288,0 0.544,0.13 0.72,0.331 L 15.641,6.537 c 0.011,0.009 0.021,0.015 0.031,0.024 L 15.443,6.014 13.515,0.958 C 13.515,0.429 13.087,0 12.558,0 H 9.004 7.735 4.182 C 3.653,0 3.224,0.429 3.224,0.958 L 1.298,6.014 1.069,6.561 C 1.079,6.551 1.09,6.545 1.1,6.537 L 1.069,6.616 C 1.245,6.415 1.501,6.285 1.788,6.285 c 0,0 13.164,0 13.164,0 z M 6.368,0.836 6.914,0.536 C 7.04,0.481 7.207,0.506 7.287,0.595 l 1.046,1.16 v 0 C 8.409,1.841 8.382,1.958 8.248,2.018 V 2.019 L 7.635,2.245 C 7.385,2.376 7.529,2.634 7.706,2.888 L 8.6,3.877 C 9.03,4.261 9.27,4.443 9.53,4.356 L 10.062,4.041 C 10.189,3.985 10.356,4.01 10.437,4.1 l 1.045,1.16 v 0 c 0.077,0.086 0.049,0.204 -0.085,0.263 V 5.524 L 10.77,5.732 C 10.365,5.874 8.75,5.92 6.974,3.895 5.26,1.943 6.046,1.033 6.368,0.836 Z"
                 id="path1237" />
              <path
                 style="fill:#2a3aff;fill-opacity:1"
                 d="M 14.999,7.218 H 1.788 C 1.259,7.218 0.83,7.647 0.83,8.175 v 2.795 c 0,0.528 0.429,0.957 0.958,0.957 h 5.903 v 2.353 h -0.85 c -0.442,0 -0.829,0.229 -1.052,0.574 H 0.983 v 1.358 H 5.79 c 0.224,0.345 0.61,0.574 1.052,0.574 h 3.057 c 0.441,0 0.828,-0.229 1.052,-0.574 h 4.807 V 14.854 H 10.951 C 10.727,14.509 10.341,14.28 9.899,14.28 h -0.85 v -2.353 h 5.949 c 0.528,0 0.957,-0.429 0.957,-0.957 V 8.175 C 15.956,7.647 15.527,7.218 14.999,7.218 Z M 14.156,9.932 H 11.523 V 9.214 h 2.633 z"
                 id="path1239" />
            </g>
          </g>
          <g
             style="fill:#2a3aff;fill-opacity:1"
             id="g1245" />
          <g
             style="fill:#2a3aff;fill-opacity:1"
             id="g1247" />
          <g
             style="fill:#2a3aff;fill-opacity:1"
             id="g1249" />
          <g
             style="fill:#2a3aff;fill-opacity:1"
             id="g1251" />
          <g
             style="fill:#2a3aff;fill-opacity:1"
             id="g1253" />
          <g
             style="fill:#2a3aff;fill-opacity:1"
             id="g1255" />
          <g
             style="fill:#2a3aff;fill-opacity:1"
             id="g1257" />
          <g
             style="fill:#2a3aff;fill-opacity:1"
             id="g1259" />
          <g
             style="fill:#2a3aff;fill-opacity:1"
             id="g1261" />
          <g
             style="fill:#2a3aff;fill-opacity:1"
             id="g1263" />
          <g
             style="fill:#2a3aff;fill-opacity:1"
             id="g1265" />
          <g
             style="fill:#2a3aff;fill-opacity:1"
             id="g1267" />
          <g
             style="fill:#2a3aff;fill-opacity:1"
             id="g1269" />
          <g
             style="fill:#2a3aff;fill-opacity:1"
             id="g1271" />
          <g
             style="fill:#2a3aff;fill-opacity:1"
             id="g1273" />
        </g>
      </g>
      <g
         id="g1490">
        <ellipse
           ry="22.426241"
           rx="22.426403"
           transform="matrix(0.9852959,-0.17085665,0.17086016,0.98529529,0,0)"
           cy="859.96759"
           cx="-18.893293"
           id="path4144-1-6-7"
           style="color:#000000;display:inline;overflow:visible;visibility:visible;fill:#6875ff;fill-opacity:1;fill-rule:nonzero;stroke:none;stroke-width:2.90081882;marker:none;enable-background:accumulate" />
        <path
           id="path4236"
           d="m 115.85743,838.43016 v 0.41302 24.78472 0.41313 h 0.41308 24.78474 0.41308 v -0.41313 -24.78472 -0.41302 h -0.41308 -24.78474 z m 0.82616,0.82616 h 23.95858 v 3.30463 h -10.37861 c -0.18338,-0.71277 -0.83072,-1.2393 -1.60068,-1.2393 -0.91255,0 -1.65232,0.73973 -1.65232,1.65232 0,0.91259 0.73977,1.65231 1.65232,1.65231 0.76394,0 1.41157,-0.53491 1.60068,-1.23918 h 10.37861 v 3.30463 h -15.92936 l -2.89155,-2.8916 c 0.14584,-0.24628 0.23236,-0.51917 0.23236,-0.82616 0,-0.91259 -0.73977,-1.65232 -1.65233,-1.65232 -0.91254,0 -1.65231,0.73973 -1.65231,1.65232 0,0.91259 0.73977,1.65231 1.65231,1.65231 0.30952,0 0.60436,-0.0838 0.85199,-0.23234 l 2.99482,2.99481 0.10331,0.12914 h 0.18072 16.11007 v 3.30463 h -2.11702 c -0.18337,-0.71276 -0.83073,-1.23929 -1.60068,-1.23929 -0.91255,0 -1.65232,0.73983 -1.65232,1.65231 0,0.91259 0.73977,1.65231 1.65232,1.65231 0.76395,0 1.41157,-0.53491 1.60068,-1.23917 h 2.11702 v 3.30462 h -3.56279 l -3.14973,-2.53012 c 0.31459,-0.30088 0.51634,-0.71798 0.51634,-1.18764 0,-0.91248 -0.73977,-1.65231 -1.65231,-1.65231 -0.91255,0 -1.65231,0.73983 -1.65231,1.65231 0,0.91259 0.73976,1.65231 1.65231,1.65231 0.11406,0 0.22806,-0.0294 0.33563,-0.0521 l 3.53699,2.83995 0.10331,0.10308 h 0.1549 3.71771 v 7.43542 h -3.30463 v -2.14282 c 0.71195,-0.18397 1.23924,-0.80554 1.23924,-1.57495 0,-0.91247 -0.73977,-1.65231 -1.65232,-1.65231 -0.91254,0 -1.65231,0.73984 -1.65231,1.65231 0,0.76941 0.5273,1.39098 1.23923,1.57495 v 2.14282 h -3.30463 v -2.14282 c 0.71194,-0.18397 1.23924,-0.80554 1.23924,-1.57495 0,-0.91247 -0.73977,-1.65231 -1.65231,-1.65231 -0.91256,0 -1.65232,0.73984 -1.65232,1.65231 0,0.76941 0.52729,1.39098 1.23924,1.57495 v 2.14282 h -15.697 v -3.30463 h 10.37861 c 0.1891,0.70427 0.83672,1.23918 1.60068,1.23918 0.91254,0 1.65231,-0.73973 1.65231,-1.65232 0,-0.91247 -0.73977,-1.65231 -1.65231,-1.65231 -0.76997,0 -1.41731,0.52653 -1.60068,1.23929 h -10.37861 v -3.30463 h 10.37861 c 0.1891,0.70427 0.83672,1.23918 1.60068,1.23918 0.91254,0 1.65231,-0.73972 1.65231,-1.65231 0,-0.91248 -0.73977,-1.65232 -1.65231,-1.65232 -0.76997,0 -1.41731,0.52653 -1.60068,1.23929 H 116.68368 V 851.648 h 10.37861 c 0.1891,0.70426 0.83672,1.23918 1.60068,1.23918 0.91254,0 1.65231,-0.73973 1.65231,-1.65232 0,-0.91248 -0.73977,-1.65231 -1.65231,-1.65231 -0.76997,0 -1.41731,0.52653 -1.60068,1.23929 h -10.37861 v -3.30463 h 2.11702 c 0.18912,0.70427 0.83674,1.23918 1.60069,1.23918 0.91254,0 1.65231,-0.73972 1.65231,-1.65232 0,-0.91247 -0.73977,-1.65231 -1.65231,-1.65231 -0.76996,0 -1.41731,0.52653 -1.60069,1.23929 h -2.11702 z"
           style="color:#000000;font-style:normal;font-variant:normal;font-weight:normal;font-stretch:normal;font-size:medium;line-height:normal;font-family:Sans;-inkscape-font-specification:Sans;text-indent:0;text-align:start;text-decoration:none;text-decoration-line:none;letter-spacing:normal;word-spacing:normal;text-transform:none;writing-mode:lr-tb;direction:ltr;baseline-shift:baseline;text-anchor:start;display:inline;overflow:visible;visibility:visible;fill:#2a3aff;fill-opacity:1;stroke:none;stroke-width:0.14160106px;marker:none;enable-background:accumulate" />
      </g>
    </g>
  </g>
</svg>
