<?xml version="1.0" encoding="UTF-8" standalone="no"?>
<svg
   xmlns:dc="http://purl.org/dc/elements/1.1/"
   xmlns:cc="http://creativecommons.org/ns#"
   xmlns:rdf="http://www.w3.org/1999/02/22-rdf-syntax-ns#"
   xmlns:svg="http://www.w3.org/2000/svg"
   xmlns="http://www.w3.org/2000/svg"
   height="215"
   width="300"
   version="1.1"
   viewBox="0 0 300 215"
   id="Layer_1"
   data-name="Layer 1">
  <metadata
     id="metadata11">
    <rdf:RDF>
      <cc:Work
         rdf:about="">
        <dc:format>image/svg+xml</dc:format>
        <dc:type
           rdf:resource="http://purl.org/dc/dcmitype/StillImage" />
        <dc:title></dc:title>
      </cc:Work>
    </rdf:RDF>
  </metadata>
  <defs
     id="defs9" />
  <path
     style="stroke-width:3.85479712;fill:#6875ff;fill-opacity:1"
     id="path4"
     d="M 299.52659,6.7392 A 3.8547971,3.8547971 0 0 0 296.21146,1.0341 C 198.14542,1.30393 100.11793,6.19952 2.707205,14.44879 c -0.809507,-0.61677 -2.42852207,0 -2.31287817,1.07934 v 0 a 2.3899742,2.3899742 0 0 0 0.3469322,3.04529 C 7.448606,80.25018 15.273844,143.00628 25.913084,204.22045 a 2.0430425,2.0430425 0 0 0 1.272083,1.58047 v 0.30838 0 c 89.392753,-2.08159 178.130183,-0.57821 267.098893,8.86604 a 3.4307694,3.4307694 0 0 0 2.23579,-0.50113 3.8547971,3.8547971 0 0 0 3.16093,-3.85479 C 300.1819,142.81354 299.52659,74.77637 299.52659,6.7392 Z M 285.10965,9.01353 C 243.13091,50.52969 200.68959,91.12071 157.90134,131.75027 132.45968,110.39469 105.24481,90.88942 79.417668,70.07351 57.32968,52.11016 34.817665,33.1831 10.03132,18.88181 101.50566,13.3309 193.17274,10.40125 284.95546,9.01353 Z M 78.453968,80.05744 c 4.317373,3.8548 8.634746,7.43976 12.990667,11.21746 A 848.05537,848.05537 0 0 0 29.189661,190.15044 C 22.55941,133.0609 13.539185,75.62442 3.670904,19.07455 H 4.094932 C 28.45725,39.81336 54.053103,59.20299 78.453968,80.05744 Z m -47.953676,121.5803 -0.19274,-1.69611 c 22.897495,-33.84512 46.257566,-69.38635 63.989633,-106.16111 18.580125,16.1516 37.545725,32.53448 58.284535,45.17822 a 4.5872086,4.5872086 0 0 0 6.59171,-3.04529 c 16.26724,-11.91132 32.41884,-24.70925 47.83803,-38.16249 q 40.43682,54.54538 81.5675,108.51254 A 1415.3273,1415.3273 0 0 0 30.500292,201.63774 Z M 291.81699,200.4042 Q 251.45727,147.3622 210.48077,94.78276 a 836.49097,836.49097 0 0 0 84.11168,-84.57425 c -1.07935,63.41142 -2.23578,126.78428 -2.77546,190.19569 z" />
</svg>
