<?xml version="1.0" encoding="UTF-8" standalone="no"?>
<svg
   xmlns:dc="http://purl.org/dc/elements/1.1/"
   xmlns:cc="http://creativecommons.org/ns#"
   xmlns:rdf="http://www.w3.org/1999/02/22-rdf-syntax-ns#"
   xmlns:svg="http://www.w3.org/2000/svg"
   xmlns="http://www.w3.org/2000/svg"
   width="93.176483"
   height="30"
   viewBox="0 0 24.652946 7.9375002"
   version="1.1"
   id="svg1741">
  <defs
     id="defs1735" />
  <metadata
     id="metadata1738">
    <rdf:RDF>
      <cc:Work
         rdf:about="">
        <dc:format>image/svg+xml</dc:format>
        <dc:type
           rdf:resource="http://purl.org/dc/dcmitype/StillImage" />
        <dc:title></dc:title>
      </cc:Work>
    </rdf:RDF>
  </metadata>
  <g
     id="layer1"
     transform="matrix(0.35294104,0,0,0.35294104,-20.744725,-44.274949)">
    <g
       transform="matrix(0.00836227,0,0,0.00835113,-16.232817,-79.674719)"
       style="clip-rule:evenodd;fill-rule:evenodd;image-rendering:optimizeQuality;shape-rendering:geometricPrecision;text-rendering:geometricPrecision"
       id="g587">
      <path
         style="fill:#0f3063"
         id="path559"
         d="m 16556,27255 c 418,0 758,-344 767,-761 v 0 -18 -600 -2 0 c -1,-719 -586,-1306 -1306,-1312 -3,0 -7,0 -10,0 0,0 0,0 0,0 v 0 c -1,0 -2,0 -2,0 H 9737 c -417,0 -758,344 -767,762 v 0 18 601 c 0,720 586,1307 1306,1312 2,0 4,0 6,0 0,0 0,0 0,0 h 4 v 0 z"
         class="fil26" />
      <path
         style="fill:#fefefe"
         id="path561"
         d="m 16545,26085 c 215,0 389,175 389,389 0,214 -174,389 -389,389 -214,0 -389,-175 -389,-389 0,-214 175,-389 389,-389 z m 0,90 c 116,0 210,134 210,299 0,165 -94,299 -210,299 -115,0 -209,-134 -209,-299 0,-165 94,-299 209,-299 z"
         class="fil0" />
      <path
         style="fill:#fefefe"
         id="path563"
         d="m 15947,26085 c 88,0 169,30 234,79 l -5,6 -14,18 -13,19 -13,19 -11,20 -11,21 -7,15 c -38,-65 -96,-107 -160,-107 -115,0 -210,134 -210,299 0,165 95,299 210,299 64,0 122,-41 160,-106 l 7,15 11,20 11,20 13,20 13,19 14,18 5,5 c -65,50 -146,79 -234,79 -214,0 -389,-175 -389,-389 0,-214 175,-389 389,-389 z"
         class="fil0" />
      <path
         style="fill:#fefefe"
         id="path565"
         d="m 10286,25307 c 138,0 264,75 359,199 96,-124 222,-199 360,-199 296,0 537,348 538,775 0,1 0,2 0,3 v 778 h -359 v -778 c 0,-2 0,-3 0,-5 -1,-327 -81,-593 -179,-593 -99,0 -179,265 -180,591 0,2 0,5 0,7 v 778 h -359 v -778 c 0,-2 0,-3 0,-5 -1,-327 -81,-593 -180,-593 -98,0 -178,265 -179,591 0,2 0,5 0,7 v 778 h -359 v -778 c 0,-3 0,-6 0,-9 3,-424 244,-769 538,-769 z"
         class="fil0" />
      <path
         style="fill:#fefefe"
         id="path567"
         d="m 12022,26085 h 838 c 0,-330 -188,-598 -419,-598 -231,0 -419,268 -419,598 z m 1134,180 h -1115 c 54,242 213,419 400,419 154,0 290,-121 363,-300 h 355 c -118,281 -395,479 -718,479 -429,0 -778,-349 -778,-778 0,-428 349,-778 778,-778 429,0 778,350 778,778 0,62 -7,122 -21,180 z"
         class="fil0" />
      <path
         style="fill:#fefefe"
         id="path569"
         d="m 13339,26096 c 5,403 321,734 718,765 v -184 c -203,-41 -359,-291 -359,-592 v -598 h 359 v -180 h -359 v -359 h -359 v 359 h -120 v 180 h 120 z"
         class="fil0" />
      <path
         style="fill:#fefefe"
         id="path571"
         d="m 14660,25307 c 429,0 778,350 778,778 0,20 -1,40 -2,60 h 2 v 718 h -359 v -123 c -121,78 -265,123 -419,123 -428,0 -778,-349 -778,-778 0,-428 350,-778 778,-778 z m 0,180 c 231,0 419,268 419,598 0,330 -188,599 -419,599 -231,0 -419,-269 -419,-599 0,-330 188,-598 419,-598 z"
         class="fil0" />
      <g
         id="g585">
        <path
           style="fill:#0f3063"
           id="path573"
           d="m 15403,26811 c 10,0 18,8 18,18 0,9 -8,17 -18,17 -9,0 -17,-8 -17,-17 0,-10 8,-18 17,-18 z m 0,4 c 6,0 10,6 10,14 0,7 -4,13 -10,13 -5,0 -9,-6 -9,-13 0,-8 4,-14 9,-14 z"
           class="fil26" />
        <path
           style="fill:#0f3063"
           id="path575"
           d="m 15377,26811 c 3,0 7,2 10,4 v 0 l -1,1 v 1 l -1,1 v 0 l -1,1 v 1 c -2,-3 -5,-5 -7,-5 -6,0 -10,6 -10,14 0,7 4,13 10,13 2,0 5,-2 7,-5 v 1 l 1,1 v 1 l 1,1 v 1 h 1 v 1 c -3,2 -7,3 -10,3 -10,0 -18,-8 -18,-17 0,-10 8,-18 18,-18 z"
           class="fil26" />
        <path
           style="fill:#0f3063"
           id="path577"
           d="m 15122,26776 c 6,0 12,4 16,9 4,-5 10,-9 16,-9 13,0 24,16 24,35 0,0 0,0 0,0 v 35 h -16 v -35 c 0,0 0,0 0,0 0,-15 -3,-27 -8,-27 -4,0 -8,12 -8,27 0,0 0,0 0,0 v 35 h -16 v -35 c 0,0 0,0 0,0 0,-15 -4,-27 -8,-27 -5,0 -8,12 -8,27 0,0 0,0 0,0 v 35 h -16 v -35 c 0,0 0,0 0,0 0,-19 11,-35 24,-35 z"
           class="fil26" />
        <path
           style="fill:#0f3063"
           id="path579"
           d="m 15200,26811 h 38 c 0,-15 -9,-27 -19,-27 -11,0 -19,12 -19,27 z m 51,8 h -50 c 2,11 9,19 18,19 7,0 13,-5 16,-13 h 16 c -5,12 -18,21 -32,21 -19,0 -35,-15 -35,-35 0,-19 16,-35 35,-35 19,0 35,16 35,35 0,3 -1,6 -1,8 z"
           class="fil26" />
        <path
           style="fill:#0f3063"
           id="path581"
           d="m 15259,26812 c 0,18 15,33 32,34 v -8 c -9,-2 -16,-13 -16,-27 v -27 h 16 v -8 h -16 v -16 h -16 v 16 h -5 v 8 h 5 z"
           class="fil26" />
        <path
           style="fill:#0f3063"
           id="path583"
           d="m 15319,26776 c 19,0 35,16 35,35 0,1 0,2 0,3 v 0 32 h -17 v -5 c -5,3 -11,5 -18,5 -20,0 -35,-15 -35,-35 0,-19 15,-35 35,-35 z m 0,8 c 10,0 18,12 18,27 0,15 -8,27 -18,27 -11,0 -19,-12 -19,-27 0,-15 8,-27 19,-27 z"
           class="fil26" />
      </g>
    </g>
  </g>
</svg>
