<?xml version="1.0" encoding="UTF-8" standalone="no"?>
<svg
   xmlns:dc="http://purl.org/dc/elements/1.1/"
   xmlns:cc="http://creativecommons.org/ns#"
   xmlns:rdf="http://www.w3.org/1999/02/22-rdf-syntax-ns#"
   xmlns:svg="http://www.w3.org/2000/svg"
   xmlns="http://www.w3.org/2000/svg"
   height="300"
   width="300"
   xml:space="preserve"
   viewBox="0 0 300 300"
   y="0px"
   x="0px"
   id="Capa_1"
   version="1.1"><metadata
     id="metadata61"><rdf:RDF><cc:Work
         rdf:about=""><dc:format>image/svg+xml</dc:format><dc:type
           rdf:resource="http://purl.org/dc/dcmitype/StillImage" /><dc:title></dc:title></cc:Work></rdf:RDF></metadata><defs
     id="defs59" /><g
     style="fill:#6875ff;fill-opacity:1"
     transform="matrix(0.61284398,0,0,0.6122449,-0.14646971,0)"
     id="g24"><path
       style="fill:#6875ff;fill-opacity:1"
       id="path2"
       d="M 388.996,270.801 V 116.915 h -34.632 c 0.151,-2.358 0.359,-4.701 0.359,-7.096 C 354.722,49.265 305.502,0 245,0 184.498,0 135.278,49.265 135.278,109.819 c 0,2.395 0.207,4.738 0.359,7.096 H 101.012 V 270.8 C 44.69,275.384 0.239,322.635 0.239,380.173 0.239,440.735 49.459,490 109.961,490 c 60.502,0 109.722,-49.265 109.722,-109.827 0,-58.412 -45.824,-106.177 -103.359,-109.504 V 132.227 h 21.264 c 10.366,49.849 54.58,87.419 107.411,87.419 52.831,0 97.045,-37.57 107.411,-87.419 h 21.272 v 138.441 c -57.533,3.324 -103.359,51.09 -103.359,109.504 0,60.562 49.22,109.827 109.715,109.827 60.502,0 109.722,-49.265 109.722,-109.827 0.001,-57.535 -44.446,-104.784 -100.764,-109.371 z M 204.371,380.173 c 0,52.113 -42.349,94.514 -94.41,94.514 -52.061,0 -94.41,-42.401 -94.41,-94.514 0,-52.113 42.349,-94.514 94.41,-94.514 52.061,0 94.41,42.401 94.41,94.514 z M 245,204.334 c -52.061,0 -94.41,-42.401 -94.41,-94.514 0,-52.113 42.349,-94.507 94.41,-94.507 52.061,0 94.41,42.394 94.41,94.507 0,52.113 -42.349,94.514 -94.41,94.514 z m 135.039,270.354 c -52.053,0 -94.402,-42.401 -94.402,-94.514 0,-52.113 42.349,-94.514 94.402,-94.514 52.061,0 94.41,42.401 94.41,94.514 -0.001,52.112 -42.349,94.514 -94.41,94.514 z" /><ellipse
       style="fill:#6875ff;fill-opacity:1"
       id="ellipse4"
       ry="27.474001"
       rx="27.447001"
       cy="339.97601"
       cx="380.04199" /><path
       style="fill:#6875ff;fill-opacity:1"
       id="path6"
       d="m 324.407,399.752 c 0,25.618 0,31.559 0,31.559 0,0 54.522,0 54.337,0 l -26.52,-57.548 c 0,0 -27.817,0.371 -27.817,25.989 z" /><path
       style="fill:#6875ff;fill-opacity:1"
       id="path8"
       d="m 407.86,373.763 -26.519,57.548 c -0.186,0 54.337,0 54.337,0 0,0 0,-5.94 0,-31.559 -10e-4,-25.618 -27.818,-25.989 -27.818,-25.989 z" /><polygon
       style="fill:#6875ff;fill-opacity:1"
       id="polygon10"
       points="360.941,373.763 380.042,416.088 399.144,373.763 380.042,373.763 " /><ellipse
       style="fill:#6875ff;fill-opacity:1"
       id="ellipse12"
       ry="27.474001"
       rx="27.447001"
       cy="339.97699"
       cx="109.963" /><path
       style="fill:#6875ff;fill-opacity:1"
       id="path14"
       d="m 54.327,399.752 c 0,25.618 0,31.559 0,31.559 0,0 54.523,0 54.337,0 L 82.145,373.763 c 0,0 -27.818,0.371 -27.818,25.989 z" /><path
       style="fill:#6875ff;fill-opacity:1"
       id="path16"
       d="m 165.598,431.31 c 0,0 0,-5.94 0,-31.559 0,-25.618 -27.818,-25.989 -27.818,-25.989 l -26.519,57.548 c -0.186,0 54.337,0 54.337,0 z" /><polygon
       style="fill:#6875ff;fill-opacity:1"
       id="polygon18"
       points="90.861,373.763 109.963,416.088 129.064,373.763 109.963,373.763 " /><ellipse
       style="fill:#6875ff;fill-opacity:1"
       id="ellipse20"
       ry="17.841"
       rx="17.822001"
       cy="109.821"
       cx="245.002" /><path
       style="fill:#6875ff;fill-opacity:1"
       id="path22"
       d="M 288.952,84.119 302.976,66.961 287.864,51.834 270.036,66.436 c -3.729,-1.965 -7.735,-3.476 -11.955,-4.428 l -2.347,-23.497 h -10.686 -0.09 -10.686 l -2.348,23.497 c -4.22,0.952 -8.225,2.463 -11.955,4.428 L 202.14,51.834 187.028,66.961 201.052,84.119 c -2.433,3.944 -4.338,8.247 -5.582,12.829 l -21.752,2.177 v 21.394 l 21.783,2.18 c 1.252,4.567 3.132,8.875 5.561,12.812 l -14.035,17.171 15.112,15.127 17.826,-14.599 c 3.731,1.964 7.737,3.473 11.958,4.425 l 2.348,23.497 h 10.686 0.09 10.686 l 2.347,-23.497 c 4.221,-0.952 8.228,-2.461 11.958,-4.425 l 17.826,14.599 15.112,-15.127 -14.035,-17.171 c 2.429,-3.937 4.309,-8.245 5.561,-12.812 l 21.783,-2.18 V 99.125 l -21.752,-2.177 c -1.243,-4.582 -3.148,-8.886 -5.581,-12.829 z M 245.002,142 c -17.754,0 -32.146,-14.407 -32.146,-32.179 0,-17.772 14.392,-32.179 32.146,-32.179 17.754,0 32.147,14.407 32.147,32.179 0,17.772 -14.392,32.179 -32.147,32.179 z" /></g><g
     transform="translate(-0.239,-190)"
     id="g26" /><g
     transform="translate(-0.239,-190)"
     id="g28" /><g
     transform="translate(-0.239,-190)"
     id="g30" /><g
     transform="translate(-0.239,-190)"
     id="g32" /><g
     transform="translate(-0.239,-190)"
     id="g34" /><g
     transform="translate(-0.239,-190)"
     id="g36" /><g
     transform="translate(-0.239,-190)"
     id="g38" /><g
     transform="translate(-0.239,-190)"
     id="g40" /><g
     transform="translate(-0.239,-190)"
     id="g42" /><g
     transform="translate(-0.239,-190)"
     id="g44" /><g
     transform="translate(-0.239,-190)"
     id="g46" /><g
     transform="translate(-0.239,-190)"
     id="g48" /><g
     transform="translate(-0.239,-190)"
     id="g50" /><g
     transform="translate(-0.239,-190)"
     id="g52" /><g
     transform="translate(-0.239,-190)"
     id="g54" /></svg>