<?xml version="1.0" encoding="UTF-8" standalone="no"?>
<svg
   xmlns:dc="http://purl.org/dc/elements/1.1/"
   xmlns:cc="http://creativecommons.org/ns#"
   xmlns:rdf="http://www.w3.org/1999/02/22-rdf-syntax-ns#"
   xmlns:svg="http://www.w3.org/2000/svg"
   xmlns="http://www.w3.org/2000/svg"
   xmlns:xlink="http://www.w3.org/1999/xlink"
   version="1.1"
   id="svg5689"
   viewBox="0 0 28.125 28.125001"
   height="7.9375mm"
   width="7.9375mm">
  <defs
     id="defs5691">
    <linearGradient
       id="linearGradient5002">
      <stop
         id="stop4998"
         offset="0"
         style="stop-color:#2e7d32;stop-opacity:1" />
      <stop
         id="stop5000"
         offset="1"
         style="stop-color:#3f51b5;stop-opacity:1" />
    </linearGradient>
    <linearGradient
       y2="48.290001"
       x2="0.023258213"
       y1="1.3300538"
       x1="47.555984"
       gradientUnits="userSpaceOnUse"
       id="linearGradient5038"
       xlink:href="#linearGradient5002" />
    <linearGradient
       y2="48.290001"
       x2="0.023258213"
       y1="1.3300538"
       x1="47.555984"
       gradientUnits="userSpaceOnUse"
       id="linearGradient5040"
       xlink:href="#linearGradient5002" />
    <linearGradient
       y2="48.290001"
       x2="0.023258213"
       y1="1.3300538"
       x1="47.555984"
       gradientUnits="userSpaceOnUse"
       id="linearGradient5042"
       xlink:href="#linearGradient5002" />
    <linearGradient
       y2="48.290001"
       x2="0.023258213"
       y1="1.3300538"
       x1="47.555984"
       gradientUnits="userSpaceOnUse"
       id="linearGradient5044"
       xlink:href="#linearGradient5002" />
    <linearGradient
       y2="48.290001"
       x2="0.023258213"
       y1="1.3300538"
       x1="47.555984"
       gradientUnits="userSpaceOnUse"
       id="linearGradient5046"
       xlink:href="#linearGradient5002" />
    <linearGradient
       y2="48.290001"
       x2="0.023258213"
       y1="1.3300538"
       x1="47.555984"
       gradientUnits="userSpaceOnUse"
       id="linearGradient5048"
       xlink:href="#linearGradient5002" />
  </defs>
  <metadata
     id="metadata5694">
    <rdf:RDF>
      <cc:Work
         rdf:about="">
        <dc:format>image/svg+xml</dc:format>
        <dc:type
           rdf:resource="http://purl.org/dc/dcmitype/StillImage" />
        <dc:title></dc:title>
      </cc:Work>
    </rdf:RDF>
  </metadata>
  <g
     transform="translate(-230.6944,-484.00046)"
     id="layer1"
     style="display:inline">
    <g
       id="g4865-6-1-5-6-3"
       transform="matrix(-0.5859375,0,0,0.5859375,258.8194,484.00046)"
       style="display:inline;fill:url(#linearGradient5038);fill-opacity:1">
      <path
         id="path4855-0-29-0-3-6"
         d="M 24,0 C 10.746,0 0,10.745 0,24 0,37.255 10.745,48 24,48 37.255,48 48,37.255 48,24 48,10.745 37.256,0 24,0 Z m 0.029,42.701901 c -11.023,0 -17.6748029,-7.957058 -17.6748029,-18.980058 0,-11.023 6.6518029,-18.9800583 17.6748029,-18.9800583 11.023,0 18.32743,8.1202153 18.32743,19.1432153 0,11.023 -7.30343,18.816901 -18.32743,18.816901 z"
         style="fill:url(#linearGradient5040);fill-opacity:1" />
      <g
         id="g4863-1-3-3-2-7"
         style="fill:url(#linearGradient5048);fill-opacity:1">
        <circle
           id="circle4857-9-19-6-0-5"
           r="2.3870001"
           cy="32.130001"
           cx="16.301001"
           style="fill:url(#linearGradient5042);fill-opacity:1" />
        <circle
           id="circle4859-2-4-1-6-3"
           r="2.3870001"
           cy="32.130001"
           cx="28.646"
           style="fill:url(#linearGradient5044);fill-opacity:1" />
        <path
           id="path4861-4-78-0-1-5"
           d="m 34.98,13.484 h -2.156 c -1.557,0 -1.736,1.238 -1.738,1.249 l -0.047,0.427 v -0.002 l -0.514,2.26 c -0.113,0.34 -0.455,0.885 -1.514,0.885 H 11.27 l 3.128,10.041 H 31.354 L 32.857,20 33.291,17.961 v 0 l 0.029,-0.135 c 0.086,-0.358 0.463,-1.363 2.02,-1.389 h 0.191 c 0.385,-0.02 1.223,-0.189 1.199,-1.313 v -0.188 c 0,-1.498 -1.75,-1.452 -1.75,-1.452 z"
           style="fill:url(#linearGradient5046);fill-opacity:1" />
      </g>
    </g>
  </g>
</svg>
