<?xml version="1.0" encoding="UTF-8" standalone="no"?>
<svg
   xmlns:dc="http://purl.org/dc/elements/1.1/"
   xmlns:cc="http://creativecommons.org/ns#"
   xmlns:rdf="http://www.w3.org/1999/02/22-rdf-syntax-ns#"
   xmlns:svg="http://www.w3.org/2000/svg"
   xmlns="http://www.w3.org/2000/svg"
   xmlns:xlink="http://www.w3.org/1999/xlink"
   height="300"
   width="300"
   xml:space="preserve"
   viewBox="0 0 299.99999 299.99999"
   y="0px"
   x="0px"
   id="Capa_1"
   version="1.1"><metadata
     id="metadata47"><rdf:RDF><cc:Work
         rdf:about=""><dc:format>image/svg+xml</dc:format><dc:type
           rdf:resource="http://purl.org/dc/dcmitype/StillImage" /><dc:title></dc:title></cc:Work></rdf:RDF></metadata><defs
     id="defs45"><linearGradient
       id="linearGradient858"><stop
         id="stop854"
         offset="0"
         style="stop-color:#3f51b5;stop-opacity:1" /><stop
         id="stop856"
         offset="1"
         style="stop-color:#76b900;stop-opacity:1" /></linearGradient><linearGradient
       gradientUnits="userSpaceOnUse"
       y2="267.829"
       x2="436.901"
       y1="267.829"
       x1="98.755"
       id="linearGradient860"
       xlink:href="#linearGradient858" /></defs><g
     style="fill-opacity:1;fill:url(#linearGradient860)"
     transform="matrix(0.88719074,0,0,0.56005884,-86.170343,-2.0019531e-5)"
     id="g10"><path
       style="fill-opacity:1;fill:url(#linearGradient860)"
       id="path2"
       d="m 295.027,91.431 c 25.202,0 45.705,-20.508 45.705,-45.716 C 340.732,20.508 320.229,0 295.027,0 269.82,0 249.313,20.508 249.313,45.715 c 0,25.208 20.507,45.716 45.714,45.716 z" /><path
       style="fill-opacity:1;fill:url(#linearGradient860)"
       id="path4"
       d="m 164.08,279.878 c 2.674,0 5.183,-1.036 7.064,-2.917 l 32.96,-32.959 c 1.881,-1.882 2.917,-4.391 2.917,-7.064 0,-2.673 -1.036,-5.183 -2.917,-7.064 l -9.64,-9.641 c 0.462,-0.395 0.915,-0.804 1.349,-1.237 4.542,-4.542 6.96,-10.641 6.847,-17.212 1.874,-1.243 3.539,-2.814 4.896,-4.664 l 15.702,-21.41 c 2.268,-3.092 7.515,-8.369 10.593,-10.655 l 1.253,-0.93 -13.608,54.243 c -0.168,0.671 -0.263,1.332 -0.317,1.985 l -11.245,47.8 c -0.972,4.129 -3.594,11.351 -5.499,15.149 l -27.289,54.338 c -2.446,4.871 -2.849,10.402 -1.135,15.576 1.714,5.174 5.341,9.371 10.212,11.816 2.723,1.368 5.638,2.098 8.665,2.169 0.159,0.004 0.318,0.006 0.477,0.006 7.771,0 14.764,-4.311 18.25,-11.252 l 27.291,-54.341 c 3.306,-6.587 7.069,-16.956 8.754,-24.12 l 10.925,-46.439 h 18.93 c 0.009,0.008 0.016,0.017 0.025,0.023 l 26.137,22.702 -12.928,51.716 c -2.728,10.916 3.933,22.017 14.849,24.746 1.631,0.407 3.3,0.613 4.962,0.613 9.373,-0.001 17.507,-6.359 19.782,-15.461 l 13.413,-53.656 c 3.238,-12.95 -1.727,-28.703 -11.805,-37.456 l -25.397,-22.061 8.708,-34.717 c 5.185,10.155 16.115,18.897 27.093,21.508 l 36.9,8.778 c 1.476,0.352 2.987,0.529 4.494,0.529 8.993,0 16.729,-6.118 18.814,-14.878 2.469,-10.382 -3.968,-20.838 -14.349,-23.308 l -36.55,-8.694 c -0.545,-0.279 -1.606,-1.151 -1.984,-1.632 l -17.931,-39.223 c -3.141,-6.872 -10.054,-11.312 -17.612,-11.312 -0.279,0 -53.171,0 -53.171,0 -4.025,0 -8.175,2.029 -10.581,3.814 l -41.607,30.886 c -6.15,4.565 -14.204,12.667 -18.734,18.845 l -15.701,21.409 c -0.418,0.57 -0.795,1.162 -1.146,1.766 -5.936,0.292 -11.422,2.689 -15.558,6.825 -0.435,0.435 -0.843,0.888 -1.238,1.35 l -9.64,-9.64 c -1.881,-1.881 -4.39,-2.917 -7.064,-2.917 -2.674,0 -5.183,1.036 -7.064,2.917 l -32.959,32.96 c -1.881,1.882 -2.918,4.391 -2.918,7.064 0,2.673 1.036,5.183 2.918,7.064 l 55.342,55.343 c 1.882,1.884 4.391,2.92 7.065,2.92 z m 3.953,-88.665 c 1.329,-1.33 2.96,-2.29 4.763,-2.841 0.011,0.082 0.013,0.163 0.025,0.244 0.786,5.109 3.515,9.607 7.684,12.665 2.95,2.163 6.375,3.423 9.979,3.69 -0.482,2.144 -1.517,4.083 -3.063,5.629 -0.437,0.436 -0.913,0.822 -1.41,1.179 l -19.156,-19.156 c 0.356,-0.495 0.74,-0.973 1.178,-1.41 z" /><path
       style="fill-opacity:1;fill:url(#linearGradient860)"
       id="path6"
       d="m 436.9,402.838 c 0,-4.763 -3.577,-8.77 -8.318,-9.321 l -10.528,-1.232 c -1.563,-5.163 -3.71,-10.115 -6.395,-14.746 l 6.565,-8.258 c 2.958,-3.743 2.652,-9.103 -0.711,-12.467 l -13.186,-13.188 c -1.77,-1.769 -4.124,-2.742 -6.629,-2.742 -2.107,0 -4.181,0.722 -5.84,2.033 l -8.798,6.967 c -4.354,-2.313 -8.922,-4.175 -13.606,-5.545 l -1.3,-11.249 c -0.548,-4.716 -4.553,-8.292 -9.323,-8.32 H 340.19 c -4.764,0 -8.771,3.577 -9.32,8.32 l -1.298,11.152 c -4.936,1.405 -9.715,3.343 -14.234,5.772 l -8.968,-7.099 c -1.658,-1.31 -3.732,-2.031 -5.839,-2.031 -2.506,0 -4.86,0.974 -6.629,2.743 l -13.189,13.188 c -3.362,3.363 -3.668,8.724 -0.708,12.47 l 6.815,8.595 c -2.708,4.772 -4.868,9.862 -6.431,15.157 l -10.764,1.254 c -4.717,0.549 -8.294,4.553 -8.321,9.322 l 0.001,18.641 c 0,4.766 3.578,8.772 8.317,9.319 l 10.578,1.253 c 1.498,5.311 3.567,10.361 6.161,15.042 l -6.337,7.985 c -2.957,3.745 -2.651,9.107 0.712,12.469 l 13.188,13.187 c 1.769,1.77 4.123,2.743 6.629,2.743 2.107,0 4.18,-0.722 5.838,-2.032 l 7.868,-6.222 c 4.589,2.591 9.531,4.676 14.716,6.21 l 1.144,9.817 c 0.546,4.716 4.548,8.292 9.318,8.32 h 18.598 c 4.765,0 8.772,-3.577 9.321,-8.321 l 1.098,-9.486 c 5.454,-1.5 10.729,-3.661 15.706,-6.433 l 7.674,6.071 c 1.658,1.309 3.732,2.031 5.839,2.031 2.507,0 4.861,-0.975 6.629,-2.744 l 13.188,-13.186 c 3.364,-3.364 3.67,-8.724 0.711,-12.467 l -6.069,-7.673 c 2.848,-5.102 5.055,-10.54 6.571,-16.193 l 9.876,-1.142 c 4.714,-0.546 8.292,-4.549 8.322,-9.321 z m -66.839,31.218 c -5.53,5.53 -12.898,8.576 -20.749,8.576 -7.85,0 -15.218,-3.046 -20.747,-8.576 -5.53,-5.53 -8.576,-12.897 -8.576,-20.747 0,-7.85 3.045,-15.218 8.576,-20.748 5.529,-5.53 12.898,-8.576 20.747,-8.576 7.85,0 15.219,3.046 20.749,8.576 5.53,5.53 8.576,12.899 8.576,20.748 0,7.849 -3.046,15.216 -8.576,20.747 z" /><path
       style="fill-opacity:1;fill:url(#linearGradient860)"
       id="path8"
       d="m 267.518,445.289 c -0.417,-4.993 -4.503,-8.862 -9.498,-9.001 l -7.76,-0.248 c -1.706,-4.22 -3.865,-8.248 -6.431,-12 l 4.25,-6.428 c 2.757,-4.152 1.968,-9.729 -1.842,-12.979 l -10.434,-8.797 c -1.781,-1.495 -4.042,-2.319 -6.366,-2.319 -2.51,0 -4.897,0.944 -6.723,2.657 l -6.023,5.65 c -3.776,-1.614 -7.766,-2.86 -11.887,-3.713 l -1.663,-8.19 c -0.99,-4.843 -5.462,-8.275 -10.474,-7.853 l -13.59,1.146 c -4.992,0.418 -8.861,4.505 -8.998,9.498 l -0.272,8.275 c -4.114,1.574 -8.002,3.548 -11.581,5.881 l -7.055,-4.683 c -1.612,-1.071 -3.49,-1.637 -5.433,-1.637 -2.912,0 -5.66,1.265 -7.547,3.477 l -8.797,10.435 c -3.216,3.83 -3.07,9.457 0.337,13.087 l 5.516,5.889 c -1.936,4.238 -3.396,8.69 -4.351,13.265 l -7.794,1.593 c -4.893,1.001 -8.268,5.502 -7.851,10.472 l 1.146,13.592 c 0.421,4.991 4.507,8.86 9.502,8.999 l 7.753,0.227 c 1.649,4.362 3.757,8.479 6.278,12.267 l -4.07,6.156 c -2.758,4.151 -1.97,9.729 1.842,12.98 l 10.435,8.796 c 1.782,1.496 4.043,2.32 6.367,2.32 2.509,0 4.896,-0.944 6.72,-2.657 l 5.283,-4.956 c 4.127,1.872 8.452,3.285 12.885,4.211 l 1.403,6.979 c 0.883,4.622 4.931,7.977 9.627,7.978 h 0.001 c 0.273,0 0.548,-0.012 0.827,-0.035 l 13.587,-1.147 c 4.991,-0.417 8.862,-4.503 9.002,-9.496 l 0.222,-6.813 c 4.482,-1.654 8.792,-3.859 12.835,-6.567 l 5.872,3.882 c 1.612,1.071 3.49,1.637 5.433,1.637 2.912,0 5.661,-1.265 7.547,-3.477 l 8.798,-10.435 c 3.214,-3.83 3.069,-9.457 -0.336,-13.087 l -4.797,-5.121 c 2.049,-4.567 3.529,-9.326 4.409,-14.177 l 7.037,-1.425 c 4.894,-0.998 8.27,-5.5 7.852,-10.478 z m -56.111,30.412 c -4.777,5.671 -11.788,8.923 -19.233,8.923 -5.93,0 -11.684,-2.106 -16.206,-5.933 -5.13,-4.32 -8.268,-10.393 -8.834,-17.097 -0.567,-6.705 1.507,-13.219 5.842,-18.343 4.776,-5.67 11.786,-8.922 19.233,-8.922 5.929,0 11.684,2.106 16.206,5.932 5.13,4.322 8.267,10.396 8.833,17.101 0.567,6.704 -1.507,13.216 -5.841,18.339 z" /></g><g
     transform="translate(0,-235.65802)"
     id="g12" /><g
     transform="translate(0,-235.65802)"
     id="g14" /><g
     transform="translate(0,-235.65802)"
     id="g16" /><g
     transform="translate(0,-235.65802)"
     id="g18" /><g
     transform="translate(0,-235.65802)"
     id="g20" /><g
     transform="translate(0,-235.65802)"
     id="g22" /><g
     transform="translate(0,-235.65802)"
     id="g24" /><g
     transform="translate(0,-235.65802)"
     id="g26" /><g
     transform="translate(0,-235.65802)"
     id="g28" /><g
     transform="translate(0,-235.65802)"
     id="g30" /><g
     transform="translate(0,-235.65802)"
     id="g32" /><g
     transform="translate(0,-235.65802)"
     id="g34" /><g
     transform="translate(0,-235.65802)"
     id="g36" /><g
     transform="translate(0,-235.65802)"
     id="g38" /><g
     transform="translate(0,-235.65802)"
     id="g40" /></svg>