<?xml version="1.0" encoding="UTF-8" standalone="no"?>
<svg
   xmlns:dc="http://purl.org/dc/elements/1.1/"
   xmlns:cc="http://creativecommons.org/ns#"
   xmlns:rdf="http://www.w3.org/1999/02/22-rdf-syntax-ns#"
   xmlns:svg="http://www.w3.org/2000/svg"
   xmlns="http://www.w3.org/2000/svg"
   xmlns:xlink="http://www.w3.org/1999/xlink"
   height="300"
   width="300"
   id="svg4"
   version="1.1"
   viewBox="0 0 300 300">
  <metadata
     id="metadata10">
    <rdf:RDF>
      <cc:Work
         rdf:about="">
        <dc:format>image/svg+xml</dc:format>
        <dc:type
           rdf:resource="http://purl.org/dc/dcmitype/StillImage" />
        <dc:title></dc:title>
      </cc:Work>
    </rdf:RDF>
  </metadata>
  <defs
     id="defs8">
    <linearGradient
       id="linearGradient821">
      <stop
         id="stop817"
         offset="0"
         style="stop-color:#3f51b5;stop-opacity:1" />
      <stop
         id="stop819"
         offset="1"
         style="stop-color:#76b900;stop-opacity:1" />
    </linearGradient>
    <linearGradient
       gradientUnits="userSpaceOnUse"
       y2="147.99225"
       x2="301.96582"
       y1="147.99225"
       x1="1.9895915"
       id="linearGradient823"
       xlink:href="#linearGradient821" />
  </defs>
  <path
     id="path2"
     overflow="visible"
     font-weight="400"
     d="m 142.94544,-2.0076121 a 6.523487,6.523487 0 0 0 -6.45913,5.3507465 l -3.56717,19.5302806 c -3.04555,0.971641 -6.01847,2.178953 -8.91795,3.618151 L 107.98713,14.91099 a 6.523487,6.523487 0 0 0 -8.408342,0.649675 L 85.666801,29.294297 a 6.523487,6.523487 0 0 0 -0.777131,8.357382 l 11.262079,16.307087 c -1.476235,2.878266 -2.71391,5.833632 -3.720051,8.866946 l -19.530287,3.134026 a 6.523487,6.523487 0 0 0 -5.490902,6.395444 l -0.127391,19.568504 a 6.523487,6.523487 0 0 0 5.350759,6.459107 L 92.227866,101.95 c 0.972157,3.02216 2.180225,5.965 3.618132,8.84151 L 84.20172,126.89476 a 6.523487,6.523487 0 0 0 0.64974,8.40832 l 13.746365,13.89925 a 6.523487,6.523487 0 0 0 8.344645,0.78985 l 16.49818,-11.38946 c 2.85761,1.45251 5.79057,2.6653 8.80328,3.65638 l 3.3506,19.77234 a 6.523487,6.523487 0 0 0 6.3827,5.43991 l 19.55575,0.11474 a 6.523487,6.523487 0 0 0 6.47187,-5.43991 l 3.33786,-19.74691 c 2.97439,-0.96035 5.87939,-2.1402 8.71409,-3.55442 l 16.39627,11.6443 a 6.523487,6.523487 0 0 0 8.35738,-0.68796 l 13.91199,-13.73363 a 6.523487,6.523487 0 0 0 0.72617,-8.42111 l -11.60606,-16.33253 c 1.44005,-2.81832 2.66584,-5.69802 3.65636,-8.66317 l 19.83604,-3.363305 a 6.523487,6.523487 0 0 0 5.4272,-6.395444 l 0.11466,-19.543065 a 6.523487,6.523487 0 0 0 -5.4272,-6.471826 l -19.68316,-3.325146 c -0.9616,-3.010744 -2.1424,-5.94889 -3.56718,-8.816002 l 11.59332,-16.319806 a 6.523487,6.523487 0 0 0 -0.67521,-8.370167 L 205.35827,16.146741 a 6.523487,6.523487 0 0 0 -8.40834,-0.726187 l -16.16694,11.478689 c -2.83682,-1.462224 -5.74692,-2.687147 -8.73959,-3.694599 L 168.89665,3.5851968 a 6.523487,6.523487 0 0 0 -6.40818,-5.4781375 z m 5.40173,13.0711741 8.54848,0.05218 2.82826,17.632005 a 6.523487,6.523487 0 0 0 4.82842,5.287084 c 4.76628,1.220357 9.38784,3.160509 13.70815,5.809367 a 6.523487,6.523487 0 0 0 7.18531,-0.241997 l 14.53624,-10.33204 6.0005,6.064214 -10.44673,14.689098 a 6.523487,6.523487 0 0 0 -0.29301,7.108846 c 2.58414,4.364755 4.45316,9.000272 5.59282,13.771856 a 6.523487,6.523487 0 0 0 5.24884,4.917631 l 17.72122,2.99385 -0.0509,8.535782 -17.88683,3.019355 a 6.523487,6.523487 0 0 0 -5.23611,4.828398 c -1.2123,4.751102 -3.11616,9.321199 -5.73295,13.618959 a 6.523487,6.523487 0 0 0 0.25478,7.17258 l 10.44672,14.6891 -6.06419,6.00055 -14.79105,-10.49772 a 6.523487,6.523487 0 0 0 -7.10886,-0.28048 c -4.32151,2.57332 -8.91807,4.41928 -13.68267,5.58009 a 6.523487,6.523487 0 0 0 -4.89213,5.26157 l -2.99387,17.75947 -8.523,-0.0522 -3.01936,-17.83591 a 6.523487,6.523487 0 0 0 -4.86665,-5.24879 c -4.73307,-1.17039 -9.36825,-3.08576 -13.6954,-5.69476 a 6.523487,6.523487 0 0 0 -7.0834,0.21656 l -14.85474,10.25559 -6.013227,-6.08965 10.472207,-14.48526 a 6.523487,6.523487 0 0 0 0.31851,-7.17258 c -2.59887,-4.35419 -4.47835,-8.98964 -5.64387,-13.784445 A 6.523487,6.523487 0 0 0 97.986296,89.73247 l -17.619298,-3.197689 0.05088,-8.57394 17.581075,-2.815582 a 6.523487,6.523487 0 0 0 5.287057,-4.841117 c 1.2123,-4.81457 3.13399,-9.443108 5.78393,-13.784576 a 6.523487,6.523487 0 0 0 -0.20376,-7.108912 l -10.128223,-14.676378 6.076933,-6.013205 14.40884,10.408487 a 6.523487,6.523487 0 0 0 7.13435,0.33136 c 4.40314,-2.601306 9.05291,-4.470555 13.87377,-5.631033 a 6.523487,6.523487 0 0 0 4.89212,-5.172412 z m 3.65635,39.340846 c -8.3883,-0.05218 -16.78939,3.089476 -23.18663,9.414799 -12.79451,12.650581 -12.9054,33.476818 -0.25479,46.271363 12.65061,12.79447 33.47686,12.91808 46.27136,0.26743 12.79449,-12.650645 12.9054,-33.476882 0.25478,-46.271357 -6.3253,-6.39727 -14.69641,-9.632661 -23.08472,-9.682365 z m -0.0639,12.969222 c 5.02236,0.03261 10.02702,1.995335 13.87376,5.885815 7.69349,7.781024 7.62814,20.117726 -0.1529,27.811214 -7.78099,7.693491 -20.13047,7.628131 -27.82396,-0.152634 -7.69349,-7.780959 -7.62809,-20.130446 0.15289,-27.823934 3.8905,-3.846777 8.92784,-5.750923 13.95021,-5.720265 z M 83.080601,167.58609 c -17.032204,0 -24.870799,4.06973 -33.327608,7.35091 a 6.523487,6.523487 0 0 0 0,0.013 C 33.525141,181.262 5.7493395,194.36572 5.7493382,194.36572 a 6.5281886,6.5281886 0 1 0 5.5673418,11.80985 c 0,0 27.963657,-13.15982 43.162818,-19.07166 9.363574,-3.63361 13.436596,-6.47215 28.601103,-6.47215 33.449309,0 32.099609,14.52335 46.220399,22.84264 a 6.523487,6.523487 0 0 0 0.64974,0.33136 c 17.50683,7.82303 36.32243,9.44017 51.48198,9.44017 6.70931,0 10.94254,1.55544 13.21129,3.29964 2.26875,1.74421 3.09579,3.54673 3.09579,6.48461 0,3.42704 -0.86355,5.06479 -3.12128,6.71396 -2.25772,1.6491 -6.58397,3.0703 -13.1858,3.0703 h -34.24488 c -14.36533,0 -39.09879,-6.30628 -39.09879,-6.30628 a 6.523487,6.523487 0 1 0 -3.33786,12.61255 c 0,0 24.55308,6.7394 42.43665,6.7394 h 34.24488 c 6.64768,0 12.44192,-1.09049 17.27532,-3.49076 a 6.523487,6.523487 0 0 0 1.79632,-0.8408 l 61.85228,-40.57666 h 0.013 c 9.27487,-5.40097 15.63524,-6.89803 19.35193,-6.82856 3.7116,0.0691 4.99483,1.19022 6.11516,2.6244 1.65324,2.1224 1.74596,2.93612 0.67521,5.42719 -1.07075,2.49114 -4.2777,6.32669 -10.00083,10.3066 a 6.523487,6.523487 0 0 0 -0.013,0 c -7.10489,4.94653 -86.3036,56.56139 -95.46015,61.76309 -6.91632,3.93249 -12.39353,8.06007 -18.62575,9.79704 -6.23223,1.7369 -13.60368,1.7416 -25.78558,-4.07677 -8.13993,-3.89061 -42.719445,-21.61231 -53.940788,-27.30165 -6.234115,-3.1611 -11.559722,-4.93811 -17.007783,-4.63735 -5.448061,0.30071 -10.050644,2.63392 -14.829257,5.63104 a 6.523487,6.523487 0 0 0 -0.05094,0.0391 L 36.66912,264.02816 a 6.523487,6.523487 0 1 0 7.032431,10.98178 L 59.77932,264.71612 c 4.144623,-2.59954 6.482035,-3.55083 8.624923,-3.66909 2.142888,-0.11807 5.078248,0.559 10.383029,3.24863 11.112842,5.63429 45.192888,23.12664 54.221058,27.44176 14.20296,6.78375 25.68567,7.43316 34.89462,4.86669 9.20896,-2.56654 15.75211,-7.70562 21.58141,-11.02007 12.59059,-7.15255 87.38183,-56.07511 96.46662,-62.40005 6.91159,-4.80635 11.96367,-9.83376 14.54897,-15.84846 2.5853,-6.01471 1.72375,-13.34533 -2.36962,-18.60026 a 6.523487,6.523487 0 0 0 0,-0.013 c -3.22902,-4.13913 -8.97728,-7.50961 -16.16695,-7.64398 -4.10234,-0.077 -8.67462,0.85951 -13.74636,2.71363 -0.95386,-1.26119 -2.36206,-2.8694 -4.31884,-4.31884 -3.80415,-2.81851 -9.84297,-5.36412 -18.05247,-5.36412 -4.19832,0 -7.63343,0.96741 -10.39577,2.11484 -3.91585,-3.73517 -10.87252,-8.51028 -20.98263,-8.51028 -8.21108,0 -15.9051,2.75283 -21.26291,5.91132 -1.00461,0.59358 -3.37677,2.09279 -7.46559,4.63734 -4.08883,2.54456 -9.39555,5.84518 -14.6509,9.1218 -8.37676,5.2227 -13.59343,8.48092 -16.6001,10.35754 -6.39099,-1.2621 -12.77032,-3.07871 -18.80411,-5.73298 -5.15984,-3.30382 -15.06799,-24.42241 -52.603099,-24.42241 z m 131.386709,13.17306 c 4.12123,0 7.06838,1.0325 9.17273,2.26773 l -30.19358,18.71492 c -3.58775,-1.0246 -7.60248,-1.54154 -12.01374,-1.54154 -1.89307,0 -3.94131,-0.13567 -5.92406,-0.20351 1.22926,-0.7663 1.23263,-0.76115 2.48428,-1.54154 5.25375,-3.27557 10.5553,-6.58095 14.63816,-9.12179 4.07765,-2.53758 7.42025,-4.60271 7.19805,-4.47167 3.09578,-1.82502 9.77747,-4.10227 14.63816,-4.10227 z m 31.3784,6.39544 c 5.28991,0 8.1423,1.34397 9.88617,2.54795 a 6.523487,6.523487 0 0 0 -0.28028,0.16568 l -45.0738,29.56932 c -0.62339,-3.65175 -2.11424,-7.13677 -4.52267,-10.03904 l 31.53128,-19.54306 0.0385,-0.0391 c 0.23087,-0.148 5.68965,-2.66171 8.42082,-2.66171 z"
     style="font-weight:400;line-height:normal;font-family:sans-serif;text-indent:0;text-align:start;text-decoration:none;text-decoration-line:none;text-decoration-style:solid;text-decoration-color:#000000;text-transform:none;white-space:normal;overflow:visible;isolation:auto;mix-blend-mode:normal;stroke-width:6.52283478;fill-opacity:1;fill:url(#linearGradient823)" />
</svg>
