<?xml version="1.0" encoding="UTF-8" standalone="no"?>
<svg
   xmlns:dc="http://purl.org/dc/elements/1.1/"
   xmlns:cc="http://creativecommons.org/ns#"
   xmlns:rdf="http://www.w3.org/1999/02/22-rdf-syntax-ns#"
   xmlns:svg="http://www.w3.org/2000/svg"
   xmlns="http://www.w3.org/2000/svg"
   xmlns:xlink="http://www.w3.org/1999/xlink"
   height="300"
   width="300"
   xml:space="preserve"
   style="opacity:1"
   viewBox="0 0 300 300"
   y="0px"
   x="0px"
   id="_x31_0"
   version="1.1"><metadata
     id="metadata17"><rdf:RDF><cc:Work
         rdf:about=""><dc:format>image/svg+xml</dc:format><dc:type
           rdf:resource="http://purl.org/dc/dcmitype/StillImage" /><dc:title></dc:title></cc:Work></rdf:RDF></metadata><defs
     id="defs15"><linearGradient
       id="linearGradient1083"><stop
         id="stop1079"
         offset="0"
         style="stop-color:#3f51b5;stop-opacity:1" /><stop
         id="stop1081"
         offset="1"
         style="stop-color:#76b900;stop-opacity:1" /></linearGradient><linearGradient
       gradientUnits="userSpaceOnUse"
       y2="256.001"
       x2="512"
       y1="256.001"
       x1="0"
       id="linearGradient1085"
       xlink:href="#linearGradient1083" /><linearGradient
       gradientUnits="userSpaceOnUse"
       y2="66.486977"
       x2="300.56854"
       y1="66.486977"
       x1="0.87468141"
       id="linearGradient1093"
       xlink:href="#linearGradient1083" /></defs><style
     id="style2"
     type="text/css">
	.st0{fill:#374149;}
</style><g
     style="fill-opacity:1;fill:url(#linearGradient1085)"
     transform="matrix(0.5859375,0,0,0.42809354,0,112.25358)"
     id="g10"><path
       id="path4"
       style="fill:url(#linearGradient1085);fill-opacity:1"
       d="m 371.187,73.438 h -230.37 c -5.438,0 -9.844,4.406 -9.844,9.844 v 63.183 30.981 29.297 30.98 29.344 30.981 29.343 30.977 40.363 8.852 30.73 0.094 0 0.156 h 95.058 0.289 v 0 h 0.161 v -30.98 -8.852 -27.305 h 58.839 0.199 v 27.305 8.852 30.98 h 95.508 v -30.98 -8.852 -40.363 -30.978 -29.343 -30.981 -29.344 -30.98 -29.297 -30.981 -63.182 c 0,-5.438 -4.402,-9.844 -9.84,-9.844 z m -25.566,44.257 v 28.77 H 166.379 v -28.77 z m 0,59.751 v 29.297 H 166.379 v -29.297 h 178.855 z m 0,60.276 v 29.344 H 166.379 V 237.722 Z M 166.379,327.39 v -29.343 h 178.855 0.386 V 327.39 H 166.766 Z"
       class="st0" /><path
       id="path6"
       style="fill:url(#linearGradient1085);fill-opacity:1"
       d="m 0,137.981 v 299.507 0.918 0 0.156 H 101.883 V 344.031 H 30.156 30.098 v -24.918 h 71.406 0.218 v 0 h 0.161 V 292.781 H 30.156 30.098 V 267.82 h 71.786 V 241.484 H 30.156 30.098 v -24.918 h 71.406 l 0.218,0.004 v -0.004 h 0.161 V 190.234 H 30.098 v -24.43 h 71.786 V 128.14 H 9.84 C 4.406,128.141 0,132.547 0,137.981 Z"
       class="st0" /><path
       id="path8"
       style="fill:url(#linearGradient1085);fill-opacity:1"
       d="m 502.16,128.141 h -92.039 v 37.39 0.114 0 0.16 h 71.786 v 24.43 h -71.786 v 26.094 0.078 0 0.16 h 71.727 0.058 v 24.918 H 410.5 410.282 v 0 h -0.161 v 26.094 0.078 0 0.165 h 71.786 v 24.961 H 410.5 410.282 v 0 h -0.161 v 26.094 0.078 0 0.16 h 71.727 0.058 v 24.918 H 410.5 410.282 v 0 h -0.161 v 94.086 0.289 0 0.156 H 512 V 137.981 c 0,-5.434 -4.402,-9.84 -9.84,-9.84 z"
       class="st0" /></g><g
     style="fill-opacity:1.0;fill:url(#linearGradient1093)"
     id="g1077"><g
       id="Icons new Arranged Names"
       style="fill:url(#linearGradient1093);fill-rule:evenodd;stroke:none;stroke-width:0.13471392;stroke-miterlimit:4;stroke-dasharray:none;stroke-opacity:1;fill-opacity:1.0"
       transform="matrix(9.3654328,0,0,6.4123631,0.87468142,-29.698472)"><g
         id="27 Cloud"
         style="fill:url(#linearGradient1093);stroke:none;stroke-width:0.13471392;stroke-miterlimit:4;stroke-dasharray:none;stroke-opacity:1;fill-opacity:1.0"><path
           id="Rectangle 1 copy 2"
           d="M 0,19 C 0,16.782838 1.2075399,14.841641 3.0021135,13.802995 3.1069062,8.9234028 7.0952729,5 12,5 15.233498,5 18.068721,6.7052115 19.65547,9.265433 20.240206,9.092705 20.859277,9 21.5,9 c 2.784553,0 5.16015,1.750949 6.085843,4.211897 C 30.129704,13.907454 32,16.235367 32,19 c 0,3.306966 -2.68637,6 -6.000176,6 H 6.0001757 C 2.686978,25 0,22.313708 0,19 Z M 25.972536,15 C 25.723803,12.750016 23.816271,11 21.5,11 20.442753,11 19.470664,11.364599 18.702606,11.974922 17.834068,9.0963276 15.161846,7 12,7 8.1340066,7 5,10.134007 5,14 5,14.375791 5.029612,14.744666 5.086631,15.104418 3.3177882,15.517576 2,17.108083 2,19 c 0,2.209139 1.7941203,4 3.9968389,4 H 26.003161 C 28.210554,23 30,21.204644 30,19 30,16.790861 28.20588,15 26.003161,15 Z m 0,0"
           style="stroke:none;stroke-width:0.13471392;stroke-miterlimit:4;stroke-dasharray:none;stroke-opacity:1;fill-opacity:1.0;fill:url(#linearGradient1093)" /></g></g><path
       id="path939"
       d="m 79.922465,43.472474 v -3.475 l 5.8375,-5.772917 c 0.85209,0.283334 1.68542,0.610417 2.49375,0.98125 z m 14.76874,-4.020834 -14.76874,14.704168 v 1.777083 h 1.82708 l 14.675,-14.741667 c -0.54792,-0.608333 -1.12708,-1.1875 -1.73334,-1.739584 z m -14.76874,-3.058333 2.99375,-2.929166 c -0.95834,-0.195834 -2,-0.339584 -2.99375,-0.422917 z m 22.477085,16.587501 -2.8875,2.952083 h 3.30208 c -0.0834,-0.979166 -0.22082,-2.008334 -0.41458,-2.952083 z m -0.75625,-2.845834 c -0.28125,-0.854167 -0.60833,-1.6875 -0.97708,-2.497916 l -8.231255,8.295833 h 3.475 z m -2.21459,-4.868749 c -0.42708,-0.720834 -0.8875,-1.420834 -1.38332,-2.091668 L 85.351625,55.932891 h 3.47501 z m -6.718745,-7.437501 c -0.67084,-0.495833 -1.36875,-0.95625 -2.08958,-1.385416 L 79.922465,47.07664 v 3.475001 z M 75.730795,60.124557 V 33.041224 c -12.835417,1.081251 -22.916667,11.839583 -22.916667,24.954167 0,13.83125 11.212501,25.045833 25.04375,25.045833 13.116667,0 23.875002,-10.081249 24.956252,-22.916667 z"
       style="stroke-width:2.08333325;fill-opacity:1.0;fill:url(#linearGradient1093)" /><g
       style="clip-rule:evenodd;fill-rule:evenodd;fill-opacity:1.0;fill:url(#linearGradient1093)"
       id="g1009"
       transform="matrix(2.2727273,0,0,2.2727273,111.87552,54.984642)"><path
         style="fill-opacity:1.0;fill:url(#linearGradient1093)"
         id="path998"
         d="M 24,8.2 C 24,7.882 23.874,7.577 23.649,7.351 23.423,7.126 23.118,7 22.8,7 H 16.2 C 15.882,7 15.577,7.126 15.351,7.351 15.126,7.577 15,7.882 15,8.2 v 13.6 c 0,0.318 0.126,0.623 0.351,0.849 C 15.577,22.874 15.882,23 16.2,23 h 6.6 c 0.318,0 0.623,-0.126 0.849,-0.351 C 23.874,22.423 24,22.118 24,21.8 Z M 13,23 H 5 L 7.599,20 H 13 Z m 6.5,-1 c -0.553,0 -1,-0.448 -1,-1 0,-0.552 0.447,-1 1,-1 0.552,0 0.999,0.448 0.999,1 0,0.552 -0.447,1 -0.999,1 z M 23,19 V 9.976 H 16 V 19 Z M 21,5 H 19 V 3 H 2 v 13 h 11 v 2 H 0 V 1 H 21 Z M 20.5,9 C 20.776,9 21,8.776 21,8.5 21,8.224 20.776,8 20.5,8 h -2 C 18.224,8 18,8.224 18,8.5 18,8.776 18.224,9 18.5,9 Z" /></g><path
       id="path1059"
       d="m 204.44427,97.674108 h -13.5325 l -11.5375,-27.500001 h 37.5 l -1.41,4.999999 h -28.57 l 7.345,17.5 h 6.695 z m 18.85999,-13.597503 4.39,-13.902498 h 4.82251 l 1.8575,-5 h -10.48751 l -6.22249,19.947499 z m -25.18,16.097505 c -2.06998,0 -3.74999,1.67999 -3.74999,3.74999 0,2.0725 1.68001,3.75001 3.74999,3.75001 2.07,0 3.75001,-1.67751 3.75001,-3.75001 0,-2.07 -1.68001,-3.74999 -3.75001,-3.74999 z m 35.02751,-8.635004 c 3.6,5.045 2.6025,8.597494 6.2225,13.677504 l -13.9625,9.9575 c -7.53751,-5.61501 -14.0425,-7.415 -16.14501,-8.12 -2.0025,-0.675 -3.29249,-1.9575 -2.84999,-3.57 0.45249,-1.63001 2.155,-2.115 3.56,-2.0525 2.12,0.0974 3.84,0.73249 3.84,0.73249 l -9.74001,-13.652494 c -0.86999,-1.22 -0.585,-2.912501 0.635,-3.78 1.21501,-0.87 2.90751,-0.585 3.77751,0.6325 l 6.5975,9.232498 c 0.3175,0.445 0.935,0.550001 1.3825,0.232501 0.4475,-0.317499 0.55,-0.9375 0.2325,-1.3825 l -1.625,-2.28 2.61749,-0.6525 c 0.68501,-0.167499 1.40501,0.100004 1.81501,0.675 l 1.32999,1.865 c 0.3175,0.4475 0.935,0.55 1.3825,0.232501 0.4475,-0.317501 0.55,-0.937501 0.2325,-1.385 l -1.53499,-2.152501 2.5675,-0.574999 c 0.67499,-0.145001 1.37,0.125006 1.77,0.684999 l 1.12999,1.585 c 0.3175,0.445 0.9375,0.5475 1.38251,0.232501 0.44749,-0.317501 0.54999,-0.937501 0.23249,-1.382501 l -1.26749,-1.775 0.7575,-0.135 c 2.63,-0.464999 4.05749,0.9075 5.66,3.155001 z m -30.015,-8.992501 c 1.69,-1.204999 3.875,-1.244999 5.50249,0.005 -0.9275,-3.105 -4.64,-4.385 -7.28249,-2.5 -2.6475,1.89 -2.635,5.815 -0.008,7.697499 -0.6525,-1.944999 0.0976,-3.997499 1.7875,-5.2025 z"
       style="stroke-width:2.49999976;fill-opacity:1.0;fill:url(#linearGradient1093)" /></g></svg>