<?xml version="1.0" encoding="UTF-8" standalone="no"?>
<svg
   xmlns:dc="http://purl.org/dc/elements/1.1/"
   xmlns:cc="http://creativecommons.org/ns#"
   xmlns:rdf="http://www.w3.org/1999/02/22-rdf-syntax-ns#"
   xmlns:svg="http://www.w3.org/2000/svg"
   xmlns="http://www.w3.org/2000/svg"
   xmlns:xlink="http://www.w3.org/1999/xlink"
   height="300"
   width="300"
   xml:space="preserve"
   viewBox="0 0 300 300"
   y="0px"
   x="0px"
   id="Capa_1"
   version="1.1"><metadata
     id="metadata61"><rdf:RDF><cc:Work
         rdf:about=""><dc:format>image/svg+xml</dc:format><dc:type
           rdf:resource="http://purl.org/dc/dcmitype/StillImage" /><dc:title></dc:title></cc:Work></rdf:RDF></metadata><defs
     id="defs59"><linearGradient
       id="linearGradient875"><stop
         id="stop871"
         offset="0"
         style="stop-color:#3f51b5;stop-opacity:1" /><stop
         id="stop873"
         offset="1"
         style="stop-color:#76b900;stop-opacity:1" /></linearGradient><linearGradient
       gradientUnits="userSpaceOnUse"
       y2="30"
       x2="60"
       y1="30"
       x1="0"
       id="linearGradient877"
       xlink:href="#linearGradient875" /></defs><g
     style="fill-opacity:1;fill:url(#linearGradient877)"
     transform="scale(5)"
     id="g24"><g
       style="fill-opacity:1;fill:url(#linearGradient877)"
       id="g22"><path
         style="fill-opacity:1;fill:url(#linearGradient877)"
         id="path2"
         d="m 42.3,31.1 c 0,-0.3 -0.1,-0.5 -0.3,-0.7 l -4.2,-4.2 c -0.4,-0.4 -1,-0.4 -1.4,0 l -1.9,1.9 C 34.3,28 34.2,28 34.1,27.9 V 25 c 0,-0.6 -0.4,-1 -1,-1 h -6 c -0.6,0 -1,0.4 -1,1 v 2.7 c -0.1,0.1 -0.3,0.1 -0.4,0.2 L 23.8,26 c -0.2,-0.2 -0.4,-0.3 -0.7,-0.3 -0.3,0 -0.5,0.1 -0.7,0.3 l -4.2,4.2 c -0.2,0.2 -0.3,0.4 -0.3,0.7 0,0.3 0.1,0.5 0.3,0.7 l 1.9,1.9 C 20,33.7 20,33.8 19.9,33.9 H 17 c -0.6,0 -1,0.4 -1,1 v 6 c 0,0.6 0.4,1 1,1 h 2.8 c 0.1,0.1 0.1,0.3 0.2,0.4 l -1.9,1.9 c -0.2,0.2 -0.3,0.4 -0.3,0.7 0,0.3 0.1,0.5 0.3,0.7 l 4.2,4.2 c 0.4,0.4 1,0.4 1.4,0 l 1.9,-1.9 C 25.8,48 25.9,48 26,48.1 V 51 c 0,0.6 0.4,1 1,1 h 6 c 0.6,0 1,-0.4 1,-1 v -2.8 c 0.1,-0.1 0.3,-0.1 0.4,-0.2 l 1.9,1.9 c 0.4,0.4 1,0.4 1.4,0 l 4.2,-4.2 c 0.2,-0.2 0.3,-0.4 0.3,-0.7 0,-0.3 -0.1,-0.5 -0.3,-0.7 L 40,42.4 c 0.1,-0.1 0.1,-0.3 0.2,-0.4 H 43 c 0.6,0 1,-0.4 1,-1 v -6 c 0,-0.6 -0.4,-1 -1,-1 H 40.2 C 40.1,33.9 40.1,33.7 40,33.6 l 2,-1.8 c 0.2,-0.2 0.3,-0.4 0.3,-0.7 z M 42,36 v 4 h -2.5 c -0.5,0 -0.9,0.4 -1,0.8 0,0.2 -0.4,1 -0.5,1.2 -0.1,0.2 -0.2,0.4 -0.2,0.6 0,0.3 0.1,0.5 0.3,0.7 L 39.8,45 37,47.8 35.3,46.1 c -0.2,-0.2 -0.4,-0.3 -0.7,-0.3 -0.2,0 -0.4,0.1 -0.6,0.2 -0.2,0.1 -1,0.4 -1.2,0.5 -0.5,0.1 -0.8,0.5 -0.8,1 V 50 h -4 v -2.5 c 0,-0.3 -0.1,-0.5 -0.3,-0.7 -0.2,-0.3 -1.9,-1 -2.3,-1 -0.3,0 -0.5,0.1 -0.7,0.3 L 23,47.8 20.2,45 21.9,43.3 c 0.2,-0.2 0.3,-0.4 0.3,-0.7 C 22.2,42.4 22.1,42.2 22,42 21.9,41.8 21.6,41 21.5,40.8 21.4,40.3 21,40 20.5,40 H 18 v -4 h 2.5 c 0.3,0 0.5,-0.1 0.7,-0.3 0.3,-0.2 1,-1.9 1,-2.3 0,-0.3 -0.1,-0.5 -0.3,-0.7 L 20.2,31 23,28.2 l 1.7,1.7 c 0.2,0.2 0.4,0.3 0.7,0.3 0.2,0 0.4,-0.1 0.6,-0.2 0.2,-0.1 1,-0.4 1.2,-0.5 0.5,-0.1 0.8,-0.5 0.8,-1 V 26 h 4 v 2.5 c 0,0.3 0.1,0.5 0.3,0.7 0.2,0.3 1.9,1 2.3,1 0.3,0 0.5,-0.1 0.7,-0.3 l 1.7,-1.7 2.8,2.8 -1.7,1.7 c -0.2,0.2 -0.3,0.4 -0.3,0.7 0,0.2 0.1,0.4 0.2,0.6 0.1,0.2 0.4,1 0.5,1.2 0.1,0.5 0.5,0.8 1,0.8 z" /><path
         style="fill-opacity:1;fill:url(#linearGradient877)"
         id="path4"
         d="m 30,34 c -2.2,0 -4,1.8 -4,4 0,2.2 1.8,4 4,4 2.2,0 4,-1.8 4,-4 0,-2.2 -1.8,-4 -4,-4 z m 0,6 c -1.1,0 -2,-0.9 -2,-2 0,-1.1 0.9,-2 2,-2 1.1,0 2,0.9 2,2 0,1.1 -0.9,2 -2,2 z" /><path
         style="fill-opacity:1;fill:url(#linearGradient877)"
         id="path6"
         d="M 47.1,27.5 C 49,30.6 50,34.2 50,38 50,49 41,58 30,58 25.9,58 21.9,56.7 18.6,54.4 L 17.4,56 c 3.7,2.6 8.1,4 12.6,4 12.1,0 22,-9.9 22,-22 0,-4.1 -1.1,-8.1 -3.2,-11.6 z" /><path
         style="fill-opacity:1;fill:url(#linearGradient877)"
         id="path8"
         d="M 11.9,46.6 C 10.7,44 10,41 10,38 10,28.5 16.8,20.2 26.2,18.4 26.7,18.3 27,17.9 27,17.4 V 6 h 6 v 11.4 c 0,0.5 0.3,0.9 0.8,1 2.5,0.5 4.7,1.4 6.7,2.6 l 1,-1.7 C 39.6,18.1 37.4,17.2 35,16.6 V 6 h 3 c 0.6,0 1,-0.4 1,-1 V 1 C 39,0.4 38.6,0 38,0 H 22 c -0.6,0 -1,0.4 -1,1 v 4 c 0,0.6 0.4,1 1,1 h 3 V 16.6 C 15.1,18.9 8,27.8 8,38 c 0,3.3 0.7,6.6 2.1,9.4 z M 23,2 h 14 v 2 h -3 -8 -3 z" /><path
         style="fill-opacity:1;fill:url(#linearGradient877)"
         id="path10"
         d="m 59.7,23.3 -3,-3 -1.4,1.4 1.3,1.3 H 41 v 2 h 15.6 l -1.3,1.3 1.4,1.4 3,-3 c 0.4,-0.4 0.4,-1 0,-1.4 z" /><path
         style="fill-opacity:1;fill:url(#linearGradient877)"
         id="path12"
         d="M 19,52 V 50 H 3.4 l 1.3,-1.3 -1.4,-1.4 -3,3 c -0.4,0.4 -0.4,1 0,1.4 l 3,3 L 4.7,53.3 3.4,52 Z" /><rect
         style="fill-opacity:1;fill:url(#linearGradient877)"
         id="rect14"
         height="2"
         width="2"
         y="20"
         x="29" /><rect
         style="fill-opacity:1;fill:url(#linearGradient877)"
         id="rect16"
         height="2"
         width="2"
         y="54"
         x="29" /><rect
         style="fill-opacity:1;fill:url(#linearGradient877)"
         id="rect18"
         height="2"
         width="2"
         y="37"
         x="46" /><rect
         style="fill-opacity:1;fill:url(#linearGradient877)"
         id="rect20"
         height="2"
         width="2"
         y="37"
         x="12" /></g></g><g
     transform="translate(0,240)"
     id="g26" /><g
     transform="translate(0,240)"
     id="g28" /><g
     transform="translate(0,240)"
     id="g30" /><g
     transform="translate(0,240)"
     id="g32" /><g
     transform="translate(0,240)"
     id="g34" /><g
     transform="translate(0,240)"
     id="g36" /><g
     transform="translate(0,240)"
     id="g38" /><g
     transform="translate(0,240)"
     id="g40" /><g
     transform="translate(0,240)"
     id="g42" /><g
     transform="translate(0,240)"
     id="g44" /><g
     transform="translate(0,240)"
     id="g46" /><g
     transform="translate(0,240)"
     id="g48" /><g
     transform="translate(0,240)"
     id="g50" /><g
     transform="translate(0,240)"
     id="g52" /><g
     transform="translate(0,240)"
     id="g54" /></svg>