<?xml version="1.0" encoding="UTF-8" standalone="no"?>
<svg
   xmlns:dc="http://purl.org/dc/elements/1.1/"
   xmlns:cc="http://creativecommons.org/ns#"
   xmlns:rdf="http://www.w3.org/1999/02/22-rdf-syntax-ns#"
   xmlns:svg="http://www.w3.org/2000/svg"
   xmlns="http://www.w3.org/2000/svg"
   xmlns:xlink="http://www.w3.org/1999/xlink"
   id="svg108"
   version="1.1"
   viewBox="0 0 7.9374997 7.9374995"
   height="7.9374995mm"
   width="7.9375mm">
  <defs
     id="defs102">
    <linearGradient
       id="linearGradient4505">
      <stop
         id="stop4501"
         offset="0"
         style="stop-color:#3f51b5;stop-opacity:1" />
      <stop
         id="stop4503"
         offset="1"
         style="stop-color:#76b900;stop-opacity:1" />
    </linearGradient>
    <linearGradient
       gradientUnits="userSpaceOnUse"
       y2="101.28423"
       x2="89.036804"
       y1="93.893646"
       x1="81.542999"
       id="linearGradient4724"
       xlink:href="#linearGradient4505" />
    <linearGradient
       y2="101.28423"
       x2="89.036804"
       y1="93.893646"
       x1="81.542999"
       gradientUnits="userSpaceOnUse"
       id="linearGradient4593"
       xlink:href="#linearGradient4505" />
  </defs>
  <metadata
     id="metadata105">
    <rdf:RDF>
      <cc:Work
         rdf:about="">
        <dc:format>image/svg+xml</dc:format>
        <dc:type
           rdf:resource="http://purl.org/dc/dcmitype/StillImage" />
        <dc:title></dc:title>
      </cc:Work>
    </rdf:RDF>
  </metadata>
  <g
     transform="translate(-104.10923,-76.62993)"
     id="layer1">
    <g
       transform="matrix(1.0344835,0,0,1.0344951,19.871203,-20.278994)"
       style="fill:url(#linearGradient4724);fill-opacity:1"
       id="g4716">
      <path
         id="path2392-1-6-1-8-8-0-5-3-7"
         style="opacity:1;fill:url(#linearGradient4593);fill-opacity:1;stroke:none;stroke-width:0.03345882;stroke-miterlimit:0;stroke-opacity:1"
         d="m 85.453898,93.681219 c -0.305708,-0.01345 -0.611925,0.0097 -0.912129,0.06903 l -1.51e-4,1.65e-4 c -9.9e-5,1.01e-4 -1.56e-4,1.64e-4 -3.98e-4,3.3e-4 -7.1e-5,9e-5 9.2e-5,1.63e-4 -1.55e-4,3.29e-4 l -1.5e-4,-1.64e-4 -1.55e-4,1.64e-4 c -1.51e-4,8.2e-5 9.5e-5,1.64e-4 -1.51e-4,3.31e-4 -4.8e-5,1.03e-4 -9.9e-5,1.64e-4 -1.55e-4,3.3e-4 0.03537,0.135962 0.111027,0.263163 0.21721,0.378309 3.97e-4,1e-5 0.0016,9.4e-5 0.0016,1.65e-4 3.97e-4,1.01e-4 7.94e-4,1.63e-4 0.0016,3.29e-4 0.250376,-0.173565 0.518062,-0.322422 0.80297,-0.440049 -0.03823,-0.0044 -0.07717,-0.0065 -0.109937,-0.0093 z m -0.913055,0.06978 c 6.8e-5,-9.9e-5 3.06e-4,-9.5e-5 3.06e-4,-1.64e-4 -8e-5,-1.04e-4 -1.55e-4,-9.6e-5 -3.06e-4,-1.63e-4 l -1.55e-4,1.63e-4 z m 0,-3.3e-4 1.51e-4,-1.63e-4 h -3.97e-4 z m 1.278361,-0.02671 c -9.5e-5,1.02e-4 -1.54e-4,1.65e-4 -7.93e-4,3.3e-4 -1.55e-4,4.1e-5 -7.95e-4,-1.03e-4 -0.0016,-1.64e-4 l 1.55e-4,1.64e-4 c -3.97e-4,3.3e-4 -0.0016,1.64e-4 -0.0016,1.64e-4 -1.55e-4,1.64e-4 -1.55e-4,9.7e-5 -3.06e-4,1.64e-4 -7.94e-4,0.001 -3.97e-4,8.04e-4 -0.0024,0.0014 -7.95e-4,1.63e-4 -0.0012,3.29e-4 -0.002,3.29e-4 -1.51e-4,-6.5e-5 -3.05e-4,-1.05e-4 -7.94e-4,-1.64e-4 -0.344653,0.12124 -0.665823,0.289113 -0.962268,0.492993 0.248002,0.221595 0.609591,0.388719 0.995204,0.472973 0.0012,-0.001 0.0012,-0.0014 0.0012,-0.0014 l 1.5e-4,-1.64e-4 0.226092,-0.923313 c -0.0846,-0.01932 -0.175738,-0.03107 -0.251038,-0.04331 z m -0.970962,0.495427 -1.55e-4,-1.63e-4 c -1.8e-5,7.3e-5 1.03e-4,1.08e-4 1.55e-4,1.63e-4 z m -0.310459,-0.476152 c -1e-4,1.65e-4 -1.51e-4,3.32e-4 -3.06e-4,3.32e-4 v 1.64e-4 l 1.55e-4,1.64e-4 c 9.9e-5,-4.8e-5 1.51e-4,-1.03e-4 3.05e-4,-1.64e-4 -3.6e-5,-1.69e-4 -1.03e-4,-3.3e-4 -1.54e-4,-4.96e-4 z m 0.002,0.0069 -1.55e-4,1.65e-4 c 4.59e-4,3.75e-4 1e-4,-1.07e-4 1.55e-4,-1.65e-4 z m -0.110086,0.02297 -1.55e-4,1.64e-4 c 7.3e-5,1.6e-5 1.03e-4,-1.09e-4 1.55e-4,-1.64e-4 z m -0.007,0.0011 c 3.6e-5,1.02e-4 1.55e-4,1.64e-4 1.55e-4,3.3e-4 h 3.97e-4 c -9.5e-5,-1.64e-4 -1.51e-4,-1e-4 -7.95e-4,-3.3e-4 z m 1.55e-4,3.3e-4 c -1.200479,0.272103 -2.197681,1.103578 -2.681412,2.235778 0.01,0.0034 0.01922,0.01248 0.0277,0.018 0.312048,0.324806 0.660817,0.611659 1.035905,0.860633 0.334517,-1.076384 0.976536,-2.040257 1.853297,-2.685374 -0.11371,-0.127333 -0.196161,-0.270821 -0.235524,-0.429001 z m 0.235524,0.429009 c 1.03e-4,1.03e-4 1.51e-4,1.63e-4 3.06e-4,3.29e-4 v -3.29e-4 c -1.04e-4,7.9e-5 -1.51e-4,9.9e-5 -3.06e-4,1.63e-4 z m -1.853273,2.685365 v 1.7e-4 h 1.5e-4 v -1.7e-4 z m 3.394662,-3.096229 -0.226274,0.924997 v 1.64e-4 c 9.6e-5,1.64e-4 -9.1e-5,3.29e-4 1.51e-4,8.03e-4 v 1.64e-4 1.64e-4 l 1.55e-4,1.64e-4 3.1e-4,-0.0011 c 0.322991,0.05407 0.650387,0.04839 0.928216,-0.02395 h 1.59e-4 v -1.61e-4 -1.64e-4 c -0.177506,-0.312805 -0.389888,-0.607621 -0.638279,-0.876726 l -1.51e-4,-1.65e-4 -1.55e-4,-1.64e-4 h -1.51e-4 c -9.1e-5,-9.8e-5 9.1e-5,-1.63e-4 -1.55e-4,-3.29e-4 l 1.55e-4,-1.64e-4 c -3.05e-4,-1.04e-4 -0.0012,-1.6e-5 -0.0016,-3.31e-4 0.0012,1.66e-4 0.0016,8.04e-4 0.0016,3.31e-4 -3.97e-4,-10e-4 -0.0016,-0.0011 -0.0028,-0.0014 h -1.55e-4 v -1.64e-4 c 0,3.1e-5 -1.51e-4,-1.64e-4 -3.97e-4,-3.29e-4 l -1.58e-4,-1.65e-4 c -8.7e-5,-7.19e-4 -8.5e-4,-0.0012 -0.0012,-0.0018 l -1.51e-4,-1.65e-4 c -1.55e-4,-1e-4 9.2e-5,9.7e-5 -0.0012,-3.3e-4 0.0012,8.03e-4 -3.97e-4,-1.63e-4 -3.97e-4,-1.63e-4 -3.02e-4,-1.64e-4 -3.97e-4,-3.3e-4 -0.0012,-0.001 3.06e-4,-1.64e-4 0.0012,-8.04e-4 0.0012,-10e-4 -3.02e-4,-3.7e-5 -0.0012,3.7e-5 -0.0012,0 -9.1e-5,2.9e-5 -1.51e-4,-3.7e-5 -3.98e-4,0 -9.9e-5,-5e-6 -1.51e-4,5e-6 -3.05e-4,0 -1.51e-4,-3.3e-4 -0.0012,-0.001 -0.0012,-0.0011 0,-1.7e-5 -3.06e-4,6.1e-5 -3.06e-4,0 l 1.55e-4,-1.65e-4 c -1.55e-4,-8e-5 9.9e-5,-4.82e-4 -3.05e-4,-4.82e-4 -0.01793,-0.005 -0.03588,-0.0098 -0.05388,-0.01459 z m 0.279016,0.08554 -1.5e-4,1.64e-4 c -1.55e-4,1.64e-4 -3.97e-4,3.29e-4 -3.97e-4,3.29e-4 0.206344,0.242391 0.384759,0.50341 0.538578,0.776817 1e-4,6.7e-5 1.51e-4,-9.6e-5 3.1e-4,1.65e-4 3.97e-4,3.29e-4 0.0012,0.001 0.0016,0.0014 3.96e-4,3.31e-4 3.96e-4,0.001 3.96e-4,8.04e-4 0.178828,-0.06254 0.330718,-0.15669 0.439046,-0.284757 -8e-6,-5.5e-5 -1.56e-4,-1.65e-4 -1.56e-4,-3.31e-4 -0.301015,-0.210986 -0.630763,-0.377632 -0.979148,-0.494833 z m -1.734543,0.414413 c -0.868369,0.636113 -1.505417,1.597082 -1.832026,2.66703 0.656688,0.417328 1.391507,0.717409 2.157836,0.892627 l 0.745432,-3.042711 -1.55e-4,-1.64e-4 c -3.98e-4,-8.3e-5 -7.95e-4,-1.65e-4 -0.0012,-3.3e-4 1.5e-5,1.64e-4 3.5e-5,3.3e-4 0,8.03e-4 -2e-5,1.64e-4 9.5e-5,-3.31e-4 -1.55e-4,-8.03e-4 -0.409345,-0.08997 -0.800798,-0.266761 -1.068277,-0.516006 0.0016,-5.6e-5 -0.0012,3e-6 -0.0012,0 -7.94e-4,0 8.8e-5,-1.64e-4 -1.54e-4,-3.29e-4 z m 0.32581,3.559657 v 3.25e-4 l 1.51e-4,-1.7e-4 z m -2.157836,-0.892627 c -1.03e-4,-6.7e-5 9.1e-5,-1.7e-4 -1.55e-4,-3.24e-4 h -1.55e-4 -1.51e-4 v 1.7e-4 l 1.51e-4,1.7e-4 c 9.9e-5,5.7e-5 -9.1e-5,1.71e-4 1.55e-4,3.26e-4 3.6e-5,-1.03e-4 9.9e-5,-1.71e-4 1.55e-4,-3.26e-4 z m 4.642113,-2.515309 3.01e-4,3.3e-4 1.55e-4,-1.64e-4 c -1.55e-4,-2.6e-5 -3.05e-4,-1.64e-4 -3.97e-4,-1.64e-4 z m 3.01e-4,3.3e-4 c -0.121222,0.146684 -0.284911,0.252138 -0.474009,0.322173 -3.97e-4,10e-4 -0.0012,0.0011 -0.0012,0.0014 0.516716,0.975631 0.70917,2.106721 0.593168,3.190709 0.482625,-0.07137 0.95765,-0.194641 1.413887,-0.372692 0.0051,-0.0019 0.01046,-0.0032 0.01591,-0.0037 8e-5,-9.5e-5 -9.9e-5,-1.71e-4 1.51e-4,-3.25e-4 0.01815,-1.233957 -0.557752,-2.401431 -1.54782,-3.137764 z m -1.582435,0.273715 c -1.6e-5,1.04e-4 0,1.64e-4 0,3.31e-4 l 1.5e-4,-1.65e-4 V 94.7184 Z m 0.989312,0.08644 c 9.2e-5,1.66e-4 1.51e-4,3.31e-4 3.06e-4,8.03e-4 -0.307025,0.08602 -0.666038,0.08989 -1.015928,0.02956 -1.59e-4,1.01e-4 -1.59e-4,1.64e-4 -3.06e-4,3.3e-4 h -3.97e-4 v 1.63e-4 l -0.745506,3.045714 c 9.2e-5,6.3e-5 1.51e-4,-9.8e-5 3.97e-4,1.7e-4 0.768779,0.160756 1.566178,0.194959 2.346367,0.09448 0.12119,-1.076856 -0.06808,-2.203754 -0.584091,-3.170505 l 1.58e-4,-1.64e-4 c -3.97e-4,-1.63e-4 -3.97e-4,-1.63e-4 -0.0012,-3.3e-4 z m 0.0012,3.31e-4 c 1.51e-4,-9.7e-5 3.97e-4,-1.05e-4 3.97e-4,-1.64e-4 -3.06e-4,8.2e-5 9.5e-5,-7.3e-5 -3.97e-4,0 z m -1.143775,0.0035 c -1.2e-5,1.65e-4 -2.4e-5,3.31e-4 0,8.03e-4 l 1.55e-4,1.63e-4 c 0,-1.63e-4 -1.6e-5,-3.28e-4 0,-8.01e-4 z m 0.125073,0.02545 c -8.4e-5,1.04e-4 -3.97e-4,-9.9e-5 -3.97e-4,1.64e-4 1.55e-4,6.7e-5 3.97e-4,1.65e-4 0.0012,3.3e-4 l 1.54e-4,-1.64e-4 -1.54e-4,-1.64e-4 z m -4.249822,1.290277 c -1.55e-4,10e-5 -1.55e-4,1.7e-4 -7.95e-4,3.25e-4 h -1.51e-4 l -1.54e-4,1.7e-4 c -0.118155,0.299606 -0.198156,0.612891 -0.238117,0.932476 -0.03976,0.347311 -0.03192,0.698426 0.02331,1.043613 1.07e-4,4e-5 1.07e-4,3.26e-4 1.54e-4,8.03e-4 7.95e-4,0.0014 3.97e-4,0.001 0.0016,0.0028 1.03e-4,3.25e-4 1.51e-4,0.0011 3.05e-4,0.0011 v 1.71e-4 c 0.275872,0.519017 0.664855,0.960512 1.127118,1.316951 -0.124581,-0.805324 -0.06196,-1.634967 0.161136,-2.41201 v -1.71e-4 h -1.5e-4 c -0.388214,-0.255343 -0.749878,-0.551018 -1.07368,-0.886259 z m 0.913043,3.298472 c 2.4e-5,1.03e-4 -1.2e-5,1.7e-4 0,3.24e-4 1.03e-4,-4e-6 1.55e-4,1.2e-5 3.06e-4,0 -1.03e-4,-1.01e-4 -1.51e-4,-1.69e-4 -3.06e-4,-3.24e-4 z m 0.269944,-2.342608 c -1.03e-4,2.1e-5 -1.55e-4,-9.8e-5 -3.97e-4,1.71e-4 h -1.55e-4 v 1.7e-4 1.7e-4 l 1.55e-4,1.7e-4 c -1.03e-4,-1.7e-4 2.4e-5,-3.24e-4 3.97e-4,-8.02e-4 z m 7.95e-4,0.0011 c 1.51e-4,9.7e-5 -7.95e-4,1.69e-4 -7.95e-4,1.69e-4 h -1.51e-4 c -0.221922,0.789582 -0.275307,1.632982 -0.130436,2.445685 v 1.7e-4 h 1.5e-4 c 0.509662,0.362771 1.099617,0.625346 1.722131,0.778866 l 0.571863,-2.334751 c -0.767044,-0.17549 -1.502623,-0.474798 -2.16292,-0.890034 z m 2.16283,0.890195 c 9.5e-5,2.6e-5 1.55e-4,-4.5e-5 3.06e-4,0 -6.8e-5,-1.7e-4 9.9e-5,-3.26e-4 -1.51e-4,-8.04e-4 z m 4.054508,-0.259257 v 8.02e-4 c -0.464315,0.178077 -0.946781,0.301808 -1.43664,0.372139 h -3.96e-4 c -0.106105,0.818327 -0.390349,1.604178 -0.844973,2.270951 l 1.51e-4,1.7e-4 c 1.543891,-0.378789 2.041326,-0.692722 2.264469,-2.381757 0.0088,-0.08696 0.0147,-0.174196 0.01759,-0.261556 l 1.55e-4,-1.71e-4 c -2.94e-4,-1.77e-4 -1.83e-4,-3.59e-4 -3.02e-4,-5.94e-4 z m -1.549143,0.26622 c -8e-6,1.04e-4 1.9e-5,1.7e-4 0,3.25e-4 9.9e-5,6.7e-5 1.58e-4,1.02e-4 3.96e-4,1.7e-4 -6.7e-5,-1.7e-4 -1.54e-4,-3.25e-4 -3.96e-4,-8.03e-4 z m -2.382443,0.02057 c -1.51e-4,1.04e-4 -3.98e-4,1.7e-4 -7.95e-4,3.25e-4 5.29e-4,2.65e-4 7.27e-4,-2.97e-4 7.95e-4,-3.25e-4 z m 0.0063,0.0018 c 4e-5,1.7e-4 3.97e-4,10e-4 -1.5e-4,8.04e-4 h -1.55e-4 l -0.571142,2.335118 v 1.6e-4 h 1.51e-4 c 0.666876,0.14704 1.366734,0.16812 2.043494,0.0509 0.477524,-0.662287 0.777181,-1.456359 0.889743,-2.28628 v -1.71e-4 c -1.5e-4,-1.69e-4 -3.97e-4,-3.25e-4 -0.0012,-8.03e-4 -0.785866,0.09816 -1.587804,0.06254 -2.361147,-0.09972 z m 1.472171,2.386942 c -8.8e-5,1.1e-4 8.7e-5,1.7e-4 -1.55e-4,3.3e-4 9.5e-5,-3e-5 1.55e-4,-1.8e-4 3.06e-4,-1.8e-4 l 1.54e-4,-1.7e-4 c -9.9e-5,2e-5 -1.54e-4,-1e-5 -3.05e-4,0 z m 1.01592,-2.304058 c -3.6e-5,3.26e-4 -3.1e-4,8.02e-4 -3.97e-4,8.02e-4 l -1.59e-4,1.7e-4 -1.48e-4,1.71e-4 c 1.48e-4,-2.9e-5 3.98e-4,3.4e-5 3.98e-4,0 4.8e-5,-3.25e-4 -9.5e-5,-8.03e-4 1.51e-4,-0.0011 z m -6.105335,0.377937 v 1.71e-4 c 9.9e-5,1.01e-4 1.55e-4,1.7e-4 3.97e-4,3.24e-4 l -1.55e-4,-8.02e-4 z m 3.97e-4,8.03e-4 c 0.210401,0.823964 0.688316,1.554748 1.358758,2.077678 -0.123012,-0.30534 -0.212855,-0.620527 -0.273636,-0.940331 -8e-5,-1.71e-4 -1.03e-4,-3.26e-4 -1.55e-4,-8.03e-4 -1.55e-4,0 -3.97e-4,1.02e-4 -3.97e-4,0 v -1.7e-4 c -9.9e-5,-1.02e-4 -1.51e-4,-1.7e-4 -3.05e-4,-3.25e-4 -1e-4,-1.03e-4 -1.51e-4,-1.71e-4 -3.97e-4,-3.26e-4 -0.426243,-0.311309 -0.796003,-0.692079 -1.083821,-1.135844 z m 1.055144,0.9641 c -1.51e-4,5.7e-5 -1.51e-4,6e-6 -3.97e-4,1.7e-4 1.6e-5,1.05e-4 -2e-5,1.71e-4 0,3.25e-4 2.4e-5,-1.7e-4 1.51e-4,-3.25e-4 3.97e-4,-8.02e-4 z m 0.137654,0.100468 c 1.5e-4,1.7e-4 1.5e-4,3.26e-4 3.05e-4,8.03e-4 -3.5e-5,-9.9e-5 1.51e-4,-3.25e-4 0,-3.25e-4 -1.03e-4,-1e-4 -1.51e-4,-1.7e-4 -3.05e-4,-3.25e-4 z m 0.03513,0.171937 c -8.3e-5,1.03e-4 -1.51e-4,1.71e-4 -3.97e-4,1.71e-4 0.07176,0.334802 0.176918,0.663492 0.320078,0.979622 1.51e-4,1.7e-4 7.95e-4,3.2e-4 7.95e-4,8.1e-4 3.97e-4,3.2e-4 -10e-5,8e-4 1.5e-4,0.001 v 1.7e-4 c 5.2e-5,1e-4 -2.3e-5,1.7e-4 0,3.2e-4 1e-4,-5e-5 1.55e-4,-1.6e-4 3.1e-4,-1.6e-4 v -1.7e-4 h 1.51e-4 c 2.4e-5,1e-4 1.03e-4,1.7e-4 1.51e-4,4.7e-4 1.54e-4,3.3e-4 3.97e-4,10e-4 7.93e-4,10e-4 0.349042,0.23909 0.735194,0.41881 1.142839,0.5319 h 1.55e-4 l 1.5e-4,-1.6e-4 c 4.8e-5,-10e-5 1.04e-4,-3.2e-4 3.97e-4,-8.1e-4 l 0.192418,-0.78579 c -0.596216,-0.14645 -1.160466,-0.39278 -1.658133,-0.728723 z m 1.658109,0.728733 h 1.54e-4 v -8.1e-4 z m 3.799668,-0.4885 -3.05e-4,3.25e-4 c 3.6e-4,1.03e-4 3e-4,-3.2e-4 3.05e-4,-3.25e-4 z m -0.0092,0.01178 c -0.470687,0.26844 -0.981043,0.44802 -1.505841,0.54633 -0.004,0.001 -0.0083,0.002 -0.01254,0.003 l 1.59e-4,1.7e-4 c 1.5e-4,-3.2e-4 9.1e-5,-1e-4 -3.98e-4,1.7e-4 H 86.7109 c -0.213811,0.2892 -0.460622,0.55408 -0.741913,0.78524 0.887046,-0.16518 1.687574,-0.63764 2.261038,-1.334446 -9.5e-5,-6.3e-5 -1.5e-4,-9.8e-5 -3.97e-4,-1.7e-4 z m -2.260709,1.33455 -0.0012,1.7e-4 c 1.55e-4,1e-4 3.06e-4,-9e-5 3.97e-4,1.8e-4 1.59e-4,-1.1e-4 3.1e-4,-1.8e-4 3.97e-4,-3.3e-4 z m -1.400202,-0.82726 -0.193164,0.78917 c 1.55e-4,7e-5 9.5e-5,1e-4 7.94e-4,4.8e-4 7.94e-4,1.7e-4 1.55e-4,8e-4 7.94e-4,0.001 0.44118,0.10346 0.897188,0.12796 1.346908,0.0724 h 1.54e-4 l 0.0016,-1.7e-4 c 7.95e-4,-1.6e-4 0.0016,-3.3e-4 0.0024,-8e-4 h 1.55e-4 c 9.1e-5,0 1.51e-4,-1e-4 3.05e-4,-1.8e-4 1.51e-4,-9e-5 1.51e-4,-3.2e-4 3.98e-4,-8e-4 6.46e-4,-8e-5 -3.66e-4,6e-4 -4.89e-4,8e-4 1.55e-4,-7e-5 7.95e-4,-1.7e-4 7.95e-4,-3.2e-4 0.3045,-0.24789 0.597021,-0.52494 0.806323,-0.78942 l -1.59e-4,-1.7e-4 c -0.654306,0.0977 -1.325315,0.0697 -1.966611,-0.0719 z m -1.471816,0.21923 c -4e-6,1e-4 -8e-6,1.8e-4 0,3.3e-4 4e-6,-8e-5 3.97e-4,-1e-4 3.97e-4,-1.8e-4 -9.8e-5,-6e-5 -3.41e-4,-1.3e-4 -3.97e-4,-1.5e-4 z" />
    </g>
  </g>
</svg>
