<?xml version="1.0" encoding="UTF-8" standalone="no"?>
<svg
   xmlns:dc="http://purl.org/dc/elements/1.1/"
   xmlns:cc="http://creativecommons.org/ns#"
   xmlns:rdf="http://www.w3.org/1999/02/22-rdf-syntax-ns#"
   xmlns:svg="http://www.w3.org/2000/svg"
   xmlns="http://www.w3.org/2000/svg"
   xmlns:xlink="http://www.w3.org/1999/xlink"
   version="1.1"
   id="svg2"
   height="300"
   width="300">
  <defs
     id="defs4">
    <linearGradient
       id="linearGradient1270">
      <stop
         id="stop1266"
         offset="0"
         style="stop-color:#3f51b5;stop-opacity:1" />
      <stop
         id="stop1268"
         offset="1"
         style="stop-color:#76b900;stop-opacity:1" />
    </linearGradient>
    <linearGradient
       gradientUnits="userSpaceOnUse"
       y2="756.41927"
       x2="226.55246"
       y1="756.41927"
       x1="-73.447539"
       id="linearGradient1272"
       xlink:href="#linearGradient1270" />
  </defs>
  <metadata
     id="metadata7">
    <rdf:RDF>
      <cc:Work
         rdf:about="">
        <dc:format>image/svg+xml</dc:format>
        <dc:type
           rdf:resource="http://purl.org/dc/dcmitype/StillImage" />
        <dc:title></dc:title>
      </cc:Work>
    </rdf:RDF>
  </metadata>
  <g
     transform="translate(73.447539,-600.81017)"
     id="layer1">
    <g
       style="fill-opacity:1;fill:url(#linearGradient1272)"
       transform="matrix(1,0,0,1.0367288,0,-33.085654)"
       id="g1264">
      <path
         id="path3050"
         style="fill:url(#linearGradient1272);stroke-width:0.2353038;fill-opacity:1"
         d="m 159.79775,899.72662 c -0.75202,-1.80796 -0.58539,-34.0533 0.18172,-35.16814 0.51777,-0.75248 7.8,-0.91741 33.61698,-0.76137 l 32.95601,0.1992 v 18.27269 18.27269 l -33.1251,0.1989 c -29.66949,0.17814 -33.17775,0.0724 -33.62961,-1.01397 z M 217.88719,882.269 v -15.60792 h -24.75801 -24.758 v 15.60792 15.60792 h 24.758 24.75801 z m -53.64234,0.38068 c 0,-0.41875 -0.37138,-0.76136 -0.82528,-0.76136 -0.45388,0 -0.82526,0.34261 -0.82526,0.76136 0,0.41876 0.37138,0.76137 0.82526,0.76137 0.4539,0 0.82528,-0.34261 0.82528,-0.76137 z m -235.200926,16.20153 c -2.846127,-1.0145 -3.408538,-5.02835 -0.879519,-6.27704 1.064496,-0.52558 25.001283,-0.78813 71.85242945,-0.78813 46.85114855,0 70.78793655,0.26255 71.85242955,0.78813 1.698432,0.8386 2.081646,3.41533 0.788616,5.30275 -0.684325,0.99891 -9.65544,1.15918 -71.5792136,1.27878 -38.9382664,0.0752 -71.3538954,-0.0618 -72.0347424,-0.30449 z m 10.820664,-8.8661 c -0.672491,-0.74755 -0.874728,-10.31761 -0.719997,-34.07095 l 0.215164,-33.03138 H 0.01683445 60.673916 l 0.215162,33.03138 c 0.154731,23.75334 -0.04753,33.3234 -0.719997,34.07095 -0.774377,0.86083 -11.116434,1.03956 -60.15224655,1.03956 -49.03581045,0 -59.37786645,-0.17873 -60.15224645,-1.03956 z M 56.134953,856.38269 V 827.07027 H 0.01683445 -56.101279 v 29.31242 29.31244 H 0.01683445 56.134953 Z m 69.781797,32.94984 c -1.11082,-1.46315 -1.28468,-5.81914 -1.28468,-32.18847 0,-26.36933 0.17386,-30.72533 1.28468,-32.18846 1.28193,-1.68849 1.34148,-1.69213 27.61741,-1.69213 h 26.33269 l 1.0606,1.71305 c 0.75361,1.21717 1.13991,6.72711 1.33451,19.03404 l 0.27384,17.321 h -3.36861 -3.36861 V 844.96227 828.59298 H 153.51639 131.2342 v 28.55108 28.55107 h 12.79161 12.79164 v 2.66477 2.66477 h -14.808 c -14.36663,0 -14.84628,-0.0504 -16.0927,-1.69214 z m 28.42491,-1.35331 c 0,-0.8375 -0.34946,-1.52274 -0.77655,-1.52274 -1.10782,0 -1.88841,1.38578 -1.28663,2.2841 0.86251,1.2875 2.06318,0.84441 2.06318,-0.76136 z M 64.387617,871.60993 v -3.42612 h 28.471692 28.471681 v 3.42612 3.42613 H 92.859309 64.387617 Z M 184.9075,856.45616 c -0.0239,-4.04721 0.43668,-6.16807 2.00239,-9.22144 5.13438,-10.01277 4.95658,-22.69055 -0.45548,-32.4776 -3.76159,-6.80235 -12.5623,-13.76792 -21.65511,-17.13957 -7.5234,-2.7897 -7.48257,-2.72152 -7.54968,-12.60384 -0.0512,-7.54869 -0.31259,-9.07891 -2.18548,-12.79623 -3.95915,-7.85816 -10.74398,-13.13496 -20.06817,-15.60774 -8.3574,-2.21637 -16.20406,-0.88851 -24.93482,4.21962 -4.01655,2.34997 -7.4723,2.86556 -10.195275,1.52111 -0.852619,-0.42098 -2.777813,-2.90492 -4.278212,-5.51987 C 94.0245,754.10623 90.216758,749.59765 86.67,746.27156 76.831426,737.04515 67.268578,733.41343 52.866811,733.43402 c -15.118151,0.0216 -24.467637,3.50691 -34.794328,12.97063 -6.853966,6.28121 -11.3176678,13.52187 -13.0240227,21.12653 -1.0362873,4.61843 -1.1117963,14.05051 -0.1554205,19.41518 1.0091333,5.66069 -0.6475396,7.92455 -7.7124115,10.53906 -10.7472073,3.97725 -19.0568803,10.77299 -22.9092813,18.73545 -1.502827,3.10616 -1.712751,3.23578 -5.240613,3.23578 -2.021303,0 -3.675085,-0.3142 -3.675085,-0.69824 0,-1.28543 3.220962,-7.64856 5.331913,-10.53341 4.220411,-5.76762 11.427851,-11.62893 18.077428,-14.70105 3.5702484,-1.64948 6.9125789,-2.99904 7.4273977,-2.99904 0.6579165,0 0.9381703,-3.56274 0.9432694,-11.99145 0.00661,-11.08408 0.1740236,-12.41401 2.21106978,-17.57574 3.15370622,-7.99128 6.85372432,-13.32737 13.50945512,-19.48314 11.060285,-10.22945 21.031216,-14.13605 37.552658,-14.7131 8.8782,-0.31009 11.301865,-0.12536 16.880765,1.28668 13.337156,3.37565 24.018539,10.45157 31.63413,20.95614 2.237995,3.08698 4.221175,6.03361 4.407045,6.54806 0.23157,0.6409 1.38145,0.29828 3.65273,-1.08839 17.61626,-10.75515 42.48399,-5.23991 53.02562,11.76017 3.3283,5.36744 5.42722,14.00708 4.78342,19.68965 l -0.49048,4.3293 3.93631,1.30586 c 9.19448,3.05027 19.57131,11.31059 24.28986,19.33559 3.0589,5.20236 5.55533,14.52298 5.54034,20.68535 -0.0233,9.59183 -4.17965,20.53314 -10.29343,27.09689 l -2.83666,3.04545 -0.031,-5.25607 z" />
      <path
         id="path864"
         d="m 67.67742,624.30601 v -4.0901 l 6.870768,-6.79475 c 1.002907,0.33348 1.983744,0.71846 2.935157,1.15494 z m 17.382896,-4.73255 -17.382896,17.30689 v 2.09163 h 2.150487 l 17.272551,-17.35102 c -0.644901,-0.71601 -1.326583,-1.39769 -2.040142,-2.0475 z m -17.382896,-3.59967 3.523659,-3.44764 c -1.127963,-0.2305 -2.35401,-0.3997 -3.523659,-0.49778 z m 26.455646,19.52357 -3.3986,3.47462 h 3.88657 c -0.0981,-1.15248 -0.25993,-2.36382 -0.48797,-3.47462 z m -0.89011,-3.34956 c -0.33103,-1.00536 -0.71601,-1.98619 -1.15003,-2.94006 l -9.688228,9.76424 h 4.090093 z m -2.60658,-5.73054 c -0.50268,-0.84843 -1.04459,-1.67233 -1.62819,-2.4619 l -14.940608,15.01662 h 4.090093 z m -7.908002,-8.75398 c -0.789574,-0.5836 -1.611026,-1.12551 -2.45945,-1.63064 L 67.67742,628.54813 v 4.09009 z M 62.743806,643.9056 v -31.87723 c -15.107353,1.27264 -26.973037,13.93525 -26.973037,29.37119 0,16.27945 13.197171,29.47907 29.476625,29.47907 15.438386,0 28.101002,-11.86568 29.373642,-26.97303 z"
         style="stroke-width:2.45209432;fill-opacity:1;fill:url(#linearGradient1272)" />
      <path
         style="fill:url(#linearGradient1272);fill-opacity:1;stroke:none;stroke-width:0.42685604"
         d="m 145.96161,642.08105 c -2.75088,0 -4.9809,2.23 -4.9809,4.9809 0,2.7509 2.23002,4.9809 4.9809,4.9809 2.30292,0 4.25518,-1.6127 4.82525,-3.7357 h 18.83403 v 23.6593 1.2452 h 1.24523 7.627 c 0.57006,2.123 2.52233,3.7357 4.82525,3.7357 2.75088,0 4.9809,-2.23 4.9809,-4.9809 0,-2.7509 -2.23002,-4.9809 -4.9809,-4.9809 -2.32105,0 -4.27247,1.5872 -4.82525,3.7357 h -6.38178 v -23.6593 -1.2452 h -1.24522 -20.07926 c -0.55278,-2.1485 -2.5042,-3.7357 -4.82525,-3.7357 z m 62.26126,0 c -2.32104,0 -4.27246,1.5872 -4.82524,3.7357 h -20.07926 -1.24523 v 1.2452 7.627 c -2.14851,0.5528 -3.73567,2.5042 -3.73567,4.8252 0,2.7509 2.23002,4.9809 4.9809,4.9809 2.75088,0 4.9809,-2.23 4.9809,-4.9809 0,-2.321 -1.58716,-4.2724 -3.73567,-4.8252 v -6.3818 h 18.83403 c 0.57006,2.123 2.52233,3.7357 4.82524,3.7357 2.75088,0 4.98091,-2.23 4.98091,-4.9809 0,-2.7509 -2.23003,-4.9809 -4.98091,-4.9809 z m -62.26126,12.4522 c -2.75088,0 -4.9809,2.2301 -4.9809,4.9809 0,2.7509 2.23002,4.9809 4.9809,4.9809 2.30292,0 4.25518,-1.6126 4.82525,-3.7356 h 6.38178 v 23.6593 1.2452 h 1.24523 20.07925 c 0.57006,2.123 2.52233,3.7357 4.82525,3.7357 2.75088,0 4.9809,-2.2301 4.9809,-4.9809 0,-2.7509 -2.23002,-4.981 -4.9809,-4.981 -2.32105,0 -4.27247,1.5872 -4.82525,3.7357 h -18.83403 v -23.6593 -1.2452 h -1.24522 -7.62701 c -0.55278,-2.1485 -2.5042,-3.7357 -4.82525,-3.7357 z m 49.80901,0 c -2.75087,0 -4.9809,2.2301 -4.9809,4.9809 0,2.3194 1.58953,4.193 3.73568,4.7475 v 43.8163 h -31.28629 c -0.55278,-2.1485 -2.50419,-3.7356 -4.82524,-3.7356 -2.75088,0 -4.98091,2.23 -4.98091,4.9809 0,2.7508 2.23003,4.9809 4.98091,4.9809 2.30291,0 4.25518,-1.6127 4.82524,-3.7357 h 32.53151 1.24523 v -1.2452 -45.0616 c 2.14614,-0.5545 3.73567,-2.4281 3.73567,-4.7475 0,-2.7508 -2.23002,-4.9809 -4.9809,-4.9809 z m 12.45225,0 c -2.75087,0 -4.98089,2.2301 -4.98089,4.9809 0,2.3194 1.58953,4.193 3.73567,4.7475 v 40.2363 c -2.14851,0.5528 -3.73567,2.5042 -3.73567,4.8253 0,2.7508 2.23002,4.9809 4.98089,4.9809 2.75088,0 4.98091,-2.2301 4.98091,-4.9809 0,-2.3211 -1.58717,-4.2725 -3.73568,-4.8253 v -40.2363 c 2.14614,-0.5545 3.73568,-2.4281 3.73568,-4.7475 0,-2.7508 -2.23003,-4.9809 -4.98091,-4.9809 z m -62.26126,12.4523 c -2.75088,0 -4.9809,2.23 -4.9809,4.9809 0,2.3194 1.58953,4.193 3.73568,4.7474 v 27.7841 c -2.14851,0.5528 -3.73568,2.5042 -3.73568,4.8253 0,2.7508 2.23002,4.9809 4.9809,4.9809 2.75088,0 4.9809,-2.2301 4.9809,-4.9809 0,-2.3211 -1.58716,-4.2725 -3.73567,-4.8253 v -27.7841 c 2.14614,-0.5544 3.73567,-2.428 3.73567,-4.7474 0,-2.7509 -2.23002,-4.9809 -4.9809,-4.9809 z m 12.45226,24.9045 c -2.75088,0 -4.98091,2.23 -4.98091,4.9809 0,2.7509 2.23003,4.9809 4.98091,4.9809 2.30291,0 4.25518,-1.6127 4.82524,-3.7357 h 15.25401 c 0.57006,2.123 2.52233,3.7357 4.82525,3.7357 2.75088,0 4.9809,-2.23 4.9809,-4.9809 0,-2.7509 -2.23002,-4.9809 -4.9809,-4.9809 -2.32105,0 -4.27247,1.5872 -4.82525,3.7357 h -15.25401 c -0.55278,-2.1485 -2.50419,-3.7357 -4.82524,-3.7357 z"
         id="path2999-83" />
      <g
         id="g1167"
         transform="matrix(0.30804551,0,0,0.30804551,-66.24581,662.41926)"
         style="fill:url(#linearGradient1272);fill-opacity:1">
        <g
           id="g1157"
           style="fill:url(#linearGradient1272);fill-opacity:1">
          <path
             id="path1151"
             d="M 178.836,0 H 21.162 c -5.116,0 -9.301,4.185 -9.301,9.303 v 27.906 c 0,5.116 4.185,9.303 9.301,9.303 h 157.674 c 5.116,0 9.304,-4.187 9.304,-9.303 V 9.303 C 188.14,4.185 183.952,0 178.836,0 Z m -45.538,25.526 h -23.83 c -1.245,0 -2.27,-1.023 -2.27,-2.268 0,-1.25 1.024,-2.272 2.27,-2.272 h 23.83 c 1.247,0 2.271,1.023 2.271,2.272 -10e-4,1.245 -1.024,2.268 -2.271,2.268 z m 14.376,2.835 c -2.822,0 -5.109,-2.287 -5.109,-5.103 0,-2.824 2.287,-5.109 5.109,-5.109 2.818,0 5.104,2.285 5.104,5.109 -0.001,2.816 -2.286,5.103 -5.104,5.103 z m 17.208,0 c -2.82,0 -5.107,-2.287 -5.107,-5.103 0,-2.824 2.287,-5.109 5.107,-5.109 2.822,0 5.107,2.285 5.107,5.109 0,2.816 -2.285,5.103 -5.107,5.103 z"
             style="fill:url(#linearGradient1272);fill-opacity:1" />
          <path
             id="path1153"
             d="M 178.836,55.815 H 21.162 c -5.116,0 -9.301,4.186 -9.301,9.299 v 27.91 c 0,5.116 4.185,9.299 9.301,9.299 h 157.674 c 5.116,0 9.304,-4.183 9.304,-9.299 v -27.91 c 0,-5.113 -4.188,-9.299 -9.304,-9.299 z m -45.538,25.523 h -23.83 c -1.245,0 -2.27,-1.019 -2.27,-2.268 0,-1.248 1.024,-2.268 2.27,-2.268 h 23.83 c 1.247,0 2.271,1.021 2.271,2.268 -10e-4,1.249 -1.024,2.268 -2.271,2.268 z m 14.376,2.837 c -2.822,0 -5.109,-2.285 -5.109,-5.105 0,-2.82 2.287,-5.105 5.109,-5.105 2.818,0 5.104,2.285 5.104,5.105 -0.001,2.82 -2.286,5.105 -5.104,5.105 z m 17.208,0 c -2.82,0 -5.107,-2.285 -5.107,-5.105 0,-2.82 2.287,-5.105 5.107,-5.105 2.822,0 5.107,2.285 5.107,5.105 0,2.82 -2.285,5.105 -5.107,5.105 z"
             style="fill:url(#linearGradient1272);fill-opacity:1" />
          <path
             id="path1155"
             d="M 178.836,111.627 H 21.162 c -5.116,0 -9.301,4.189 -9.301,9.304 v 27.909 c 0,5.114 4.185,9.3 9.301,9.3 h 157.674 c 5.116,0 9.304,-4.186 9.304,-9.3 v -27.909 c 0,-5.115 -4.188,-9.304 -9.304,-9.304 z m -45.538,25.526 h -23.83 c -1.245,0 -2.27,-1.021 -2.27,-2.268 0,-1.248 1.024,-2.272 2.27,-2.272 h 23.83 c 1.247,0 2.271,1.024 2.271,2.272 -10e-4,1.248 -1.024,2.268 -2.271,2.268 z m 14.376,2.837 c -2.822,0 -5.109,-2.285 -5.109,-5.104 0,-2.82 2.287,-5.107 5.109,-5.107 2.818,0 5.104,2.287 5.104,5.107 -0.001,2.819 -2.286,5.104 -5.104,5.104 z m 17.208,0 c -2.82,0 -5.107,-2.285 -5.107,-5.104 0,-2.82 2.287,-5.107 5.107,-5.107 2.822,0 5.107,2.287 5.107,5.107 0,2.819 -2.285,5.104 -5.107,5.104 z"
             style="fill:url(#linearGradient1272);fill-opacity:1" />
        </g>
        <g
           id="g1165"
           style="fill:url(#linearGradient1272);fill-opacity:1">
          <path
             id="path1159"
             d="m 79.07,190.232 c 0,1.536 -1.256,2.792 -2.792,2.792 h -40.93 c -1.534,0 -2.791,-1.256 -2.791,-2.792 v -3.721 c 0,-1.532 1.256,-2.79 2.791,-2.79 h 40.93 c 1.536,0 2.792,1.258 2.792,2.79 z"
             style="fill:url(#linearGradient1272);fill-opacity:1" />
          <path
             id="path1161"
             d="m 167.442,190.232 c 0,1.536 -1.258,2.792 -2.792,2.792 h -40.93 c -1.536,0 -2.79,-1.256 -2.79,-2.792 v -3.721 c 0,-1.532 1.254,-2.79 2.79,-2.79 h 40.93 c 1.534,0 2.792,1.258 2.792,2.79 z"
             style="fill:url(#linearGradient1272);fill-opacity:1" />
          <path
             id="path1163"
             d="m 110.812,177.563 c -0.548,-0.548 -1.262,-0.819 -1.977,-0.819 h -4.186 v -6.512 c 0,-0.714 -0.27,-1.425 -0.815,-1.973 -0.543,-0.545 -1.26,-0.817 -1.973,-0.817 H 98.14 c -0.715,0 -1.429,0.272 -1.975,0.817 -0.545,0.548 -0.819,1.259 -0.819,1.973 v 6.512 h -4.185 c -0.71,0 -1.425,0.271 -1.973,0.819 -0.543,0.543 -0.819,1.258 -0.819,1.973 v 17.674 c 0,0.715 0.276,1.429 0.819,1.975 0.548,0.544 1.263,0.815 1.973,0.815 h 17.674 c 0.715,0 1.429,-0.271 1.977,-0.815 0.544,-0.546 0.817,-1.26 0.817,-1.975 v -17.674 c 0,-0.715 -0.274,-1.43 -0.817,-1.973 z"
             style="fill:url(#linearGradient1272);fill-opacity:1" />
        </g>
      </g>
    </g>
  </g>
</svg>
