<?xml version="1.0" encoding="UTF-8" standalone="no"?>
<svg
   xmlns:dc="http://purl.org/dc/elements/1.1/"
   xmlns:cc="http://creativecommons.org/ns#"
   xmlns:rdf="http://www.w3.org/1999/02/22-rdf-syntax-ns#"
   xmlns:svg="http://www.w3.org/2000/svg"
   xmlns="http://www.w3.org/2000/svg"
   xmlns:xlink="http://www.w3.org/1999/xlink"
   id="svg108"
   version="1.1"
   viewBox="0 0 79.374997 22.489582"
   height="22.489582mm"
   width="79.375mm">
  <defs
     id="defs102">
    <linearGradient
       id="linearGradient4513">
      <stop
         id="stop4509"
         offset="0"
         style="stop-color:#3f51b5;stop-opacity:1" />
      <stop
         id="stop4511"
         offset="1"
         style="stop-color:#76b900;stop-opacity:1" />
    </linearGradient>
    <linearGradient
       id="linearGradient4505">
      <stop
         id="stop4501"
         offset="0"
         style="stop-color:#3f51b5;stop-opacity:1" />
      <stop
         id="stop4503"
         offset="1"
         style="stop-color:#76b900;stop-opacity:1" />
    </linearGradient>
    <linearGradient
       gradientTransform="matrix(0.39640825,0,0,0.39640825,36.640677,70.571263)"
       gradientUnits="userSpaceOnUse"
       y2="116.72414"
       x2="182.29265"
       y1="109.2972"
       x1="60.910892"
       id="linearGradient4515"
       xlink:href="#linearGradient4505" />
    <linearGradient
       y2="105.30754"
       x2="178.48631"
       y1="82.057335"
       x1="61.938911"
       gradientTransform="matrix(0.39802405,0,0,0.39566893,37.396922,70.088666)"
       gradientUnits="userSpaceOnUse"
       id="linearGradient4613"
       xlink:href="#linearGradient4505" />
    <linearGradient
       y2="105.30754"
       x2="178.48631"
       y1="82.057335"
       x1="61.938911"
       gradientTransform="matrix(0.39802405,0,0,0.39566893,37.396922,70.088666)"
       gradientUnits="userSpaceOnUse"
       id="linearGradient4615"
       xlink:href="#linearGradient4505" />
    <linearGradient
       y2="105.30754"
       x2="178.48631"
       y1="82.057335"
       x1="61.938911"
       gradientTransform="matrix(0.39802405,0,0,0.39566893,37.396922,70.088666)"
       gradientUnits="userSpaceOnUse"
       id="linearGradient4617"
       xlink:href="#linearGradient4505" />
    <linearGradient
       y2="105.30754"
       x2="178.48631"
       y1="82.057335"
       x1="61.938911"
       gradientTransform="matrix(0.39802405,0,0,0.39566893,37.396922,70.088666)"
       gradientUnits="userSpaceOnUse"
       id="linearGradient4619"
       xlink:href="#linearGradient4505" />
    <linearGradient
       y2="105.30754"
       x2="178.48631"
       y1="82.057335"
       x1="61.938911"
       gradientTransform="matrix(0.39802405,0,0,0.39566893,37.396922,70.088666)"
       gradientUnits="userSpaceOnUse"
       id="linearGradient4621"
       xlink:href="#linearGradient4505" />
    <linearGradient
       y2="105.30754"
       x2="178.48631"
       y1="82.057335"
       x1="61.938911"
       gradientTransform="matrix(0.39802405,0,0,0.39566893,37.396922,70.088666)"
       gradientUnits="userSpaceOnUse"
       id="linearGradient4623"
       xlink:href="#linearGradient4505" />
    <linearGradient
       y2="105.30754"
       x2="178.48631"
       y1="82.057335"
       x1="61.938911"
       gradientTransform="matrix(0.39802405,0,0,0.39566893,39.101827,70.088666)"
       gradientUnits="userSpaceOnUse"
       id="linearGradient4627"
       xlink:href="#linearGradient4505" />
    <linearGradient
       y2="116.72414"
       x2="182.29265"
       y1="109.2972"
       x1="60.910892"
       gradientTransform="matrix(0.39640825,0,0,0.39640825,36.640677,70.571263)"
       gradientUnits="userSpaceOnUse"
       id="linearGradient4629"
       xlink:href="#linearGradient4513" />
    <linearGradient
       y2="116.72414"
       x2="182.29265"
       y1="109.2972"
       x1="60.910892"
       gradientTransform="matrix(0.39640825,0,0,0.39640825,36.640677,70.571263)"
       gradientUnits="userSpaceOnUse"
       id="linearGradient4631"
       xlink:href="#linearGradient4513" />
    <linearGradient
       y2="116.72414"
       x2="182.29265"
       y1="109.2972"
       x1="60.910892"
       gradientTransform="matrix(0.39640825,0,0,0.39640825,36.640677,70.571263)"
       gradientUnits="userSpaceOnUse"
       id="linearGradient4633"
       xlink:href="#linearGradient4513" />
    <linearGradient
       y2="116.72414"
       x2="182.29265"
       y1="109.2972"
       x1="60.910892"
       gradientTransform="matrix(0.39640825,0,0,0.39640825,36.640677,70.571263)"
       gradientUnits="userSpaceOnUse"
       id="linearGradient4635"
       xlink:href="#linearGradient4513" />
    <linearGradient
       y2="116.72414"
       x2="182.29265"
       y1="109.2972"
       x1="60.910892"
       gradientTransform="matrix(0.39640825,0,0,0.39640825,36.640677,70.571263)"
       gradientUnits="userSpaceOnUse"
       id="linearGradient4637"
       xlink:href="#linearGradient4513" />
    <linearGradient
       y2="116.72414"
       x2="182.29265"
       y1="109.2972"
       x1="60.910892"
       gradientTransform="matrix(0.39640825,0,0,0.39640825,36.640677,70.571263)"
       gradientUnits="userSpaceOnUse"
       id="linearGradient4639"
       xlink:href="#linearGradient4513" />
    <linearGradient
       y2="116.72414"
       x2="182.29265"
       y1="109.2972"
       x1="60.910892"
       gradientTransform="matrix(0.39640825,0,0,0.39640825,36.640677,70.571263)"
       gradientUnits="userSpaceOnUse"
       id="linearGradient4641"
       xlink:href="#linearGradient4513" />
    <linearGradient
       y2="116.72414"
       x2="182.29265"
       y1="109.2972"
       x1="60.910892"
       gradientTransform="matrix(0.39640825,0,0,0.39640825,36.640677,70.571263)"
       gradientUnits="userSpaceOnUse"
       id="linearGradient4643"
       xlink:href="#linearGradient4513" />
    <linearGradient
       y2="116.72414"
       x2="182.29265"
       y1="109.2972"
       x1="60.910892"
       gradientTransform="matrix(0.39640825,0,0,0.39640825,36.640677,70.571263)"
       gradientUnits="userSpaceOnUse"
       id="linearGradient4645"
       xlink:href="#linearGradient4513" />
    <linearGradient
       y2="116.72414"
       x2="182.29265"
       y1="109.2972"
       x1="60.910892"
       gradientTransform="matrix(0.39640825,0,0,0.39640825,36.640677,70.571263)"
       gradientUnits="userSpaceOnUse"
       id="linearGradient4647"
       xlink:href="#linearGradient4513" />
    <linearGradient
       y2="116.72414"
       x2="182.29265"
       y1="109.2972"
       x1="60.910892"
       gradientTransform="matrix(0.39640825,0,0,0.39640825,36.640677,70.571263)"
       gradientUnits="userSpaceOnUse"
       id="linearGradient4649"
       xlink:href="#linearGradient4513" />
    <linearGradient
       y2="116.72414"
       x2="182.29265"
       y1="109.2972"
       x1="60.910892"
       gradientTransform="matrix(0.39640825,0,0,0.39640825,36.640677,70.571263)"
       gradientUnits="userSpaceOnUse"
       id="linearGradient4651"
       xlink:href="#linearGradient4513" />
    <linearGradient
       y2="116.72414"
       x2="182.29265"
       y1="109.2972"
       x1="60.910892"
       gradientTransform="matrix(0.39640825,0,0,0.39640825,36.640677,70.571263)"
       gradientUnits="userSpaceOnUse"
       id="linearGradient4653"
       xlink:href="#linearGradient4513" />
    <linearGradient
       y2="116.72414"
       x2="182.29265"
       y1="109.2972"
       x1="60.910892"
       gradientTransform="matrix(0.39640825,0,0,0.39640825,36.640677,70.571263)"
       gradientUnits="userSpaceOnUse"
       id="linearGradient4655"
       xlink:href="#linearGradient4513" />
    <linearGradient
       y2="116.72414"
       x2="182.29265"
       y1="109.2972"
       x1="60.910892"
       gradientTransform="matrix(0.39640825,0,0,0.39640825,36.640677,70.571263)"
       gradientUnits="userSpaceOnUse"
       id="linearGradient4657"
       xlink:href="#linearGradient4513" />
    <linearGradient
       y2="116.72414"
       x2="182.29265"
       y1="109.2972"
       x1="60.910892"
       gradientTransform="matrix(0.39640825,0,0,0.39640825,36.640677,70.571263)"
       gradientUnits="userSpaceOnUse"
       id="linearGradient4659"
       xlink:href="#linearGradient4513" />
    <linearGradient
       y2="116.72414"
       x2="182.29265"
       y1="109.2972"
       x1="60.910892"
       gradientTransform="matrix(0.39640825,0,0,0.39640825,36.640677,70.571263)"
       gradientUnits="userSpaceOnUse"
       id="linearGradient4661"
       xlink:href="#linearGradient4513" />
    <linearGradient
       y2="116.72414"
       x2="182.29265"
       y1="109.2972"
       x1="60.910892"
       gradientTransform="matrix(0.39640825,0,0,0.39640825,36.640677,70.571263)"
       gradientUnits="userSpaceOnUse"
       id="linearGradient4663"
       xlink:href="#linearGradient4513" />
    <linearGradient
       y2="116.72414"
       x2="182.29265"
       y1="109.2972"
       x1="60.910892"
       gradientTransform="matrix(0.39640825,0,0,0.39640825,36.640677,70.571263)"
       gradientUnits="userSpaceOnUse"
       id="linearGradient4665"
       xlink:href="#linearGradient4513" />
    <linearGradient
       y2="116.72414"
       x2="182.29265"
       y1="109.2972"
       x1="60.910892"
       gradientTransform="matrix(0.39640825,0,0,0.39640825,36.640677,70.571263)"
       gradientUnits="userSpaceOnUse"
       id="linearGradient4667"
       xlink:href="#linearGradient4513" />
    <linearGradient
       y2="116.72414"
       x2="182.29265"
       y1="109.2972"
       x1="60.910892"
       gradientTransform="matrix(0.39640825,0,0,0.39640825,36.640677,70.571263)"
       gradientUnits="userSpaceOnUse"
       id="linearGradient4669"
       xlink:href="#linearGradient4513" />
    <linearGradient
       y2="116.72414"
       x2="182.29265"
       y1="109.2972"
       x1="60.910892"
       gradientTransform="matrix(0.39640825,0,0,0.39640825,36.640677,70.571263)"
       gradientUnits="userSpaceOnUse"
       id="linearGradient4671"
       xlink:href="#linearGradient4513" />
    <linearGradient
       y2="116.72414"
       x2="182.29265"
       y1="109.2972"
       x1="60.910892"
       gradientTransform="matrix(0.39640825,0,0,0.39640825,36.640677,70.571263)"
       gradientUnits="userSpaceOnUse"
       id="linearGradient4673"
       xlink:href="#linearGradient4513" />
    <linearGradient
       y2="116.72414"
       x2="182.29265"
       y1="109.2972"
       x1="60.910892"
       gradientTransform="matrix(0.39640825,0,0,0.39640825,36.640677,70.571263)"
       gradientUnits="userSpaceOnUse"
       id="linearGradient4675"
       xlink:href="#linearGradient4513" />
    <linearGradient
       y2="116.72414"
       x2="182.29265"
       y1="109.2972"
       x1="60.910892"
       gradientTransform="matrix(0.39640825,0,0,0.39640825,36.640677,70.571263)"
       gradientUnits="userSpaceOnUse"
       id="linearGradient4677"
       xlink:href="#linearGradient4513" />
    <linearGradient
       y2="116.72414"
       x2="182.29265"
       y1="109.2972"
       x1="60.910892"
       gradientTransform="matrix(0.39640825,0,0,0.39640825,36.640677,70.571263)"
       gradientUnits="userSpaceOnUse"
       id="linearGradient4679"
       xlink:href="#linearGradient4513" />
    <linearGradient
       y2="116.72414"
       x2="182.29265"
       y1="109.2972"
       x1="60.910892"
       gradientTransform="matrix(0.39640825,0,0,0.39640825,36.640677,70.571263)"
       gradientUnits="userSpaceOnUse"
       id="linearGradient4681"
       xlink:href="#linearGradient4513" />
    <linearGradient
       y2="116.72414"
       x2="182.29265"
       y1="109.2972"
       x1="60.910892"
       gradientTransform="matrix(0.39640825,0,0,0.39640825,36.640677,70.571263)"
       gradientUnits="userSpaceOnUse"
       id="linearGradient4683"
       xlink:href="#linearGradient4513" />
    <linearGradient
       y2="116.72414"
       x2="182.29265"
       y1="109.2972"
       x1="60.910892"
       gradientTransform="matrix(0.39640825,0,0,0.39640825,36.640677,70.571263)"
       gradientUnits="userSpaceOnUse"
       id="linearGradient4685"
       xlink:href="#linearGradient4513" />
    <linearGradient
       y2="116.72414"
       x2="182.29265"
       y1="109.2972"
       x1="60.910892"
       gradientTransform="matrix(0.39640825,0,0,0.39640825,36.640677,70.571263)"
       gradientUnits="userSpaceOnUse"
       id="linearGradient4687"
       xlink:href="#linearGradient4513" />
    <linearGradient
       y2="116.72414"
       x2="182.29265"
       y1="109.2972"
       x1="60.910892"
       gradientTransform="matrix(0.39640825,0,0,0.39640825,36.640677,70.571263)"
       gradientUnits="userSpaceOnUse"
       id="linearGradient4689"
       xlink:href="#linearGradient4513" />
    <linearGradient
       y2="116.72414"
       x2="182.29265"
       y1="109.2972"
       x1="60.910892"
       gradientTransform="matrix(0.39640825,0,0,0.39640825,36.640677,70.571263)"
       gradientUnits="userSpaceOnUse"
       id="linearGradient4691"
       xlink:href="#linearGradient4513" />
    <linearGradient
       gradientUnits="userSpaceOnUse"
       y2="101.28423"
       x2="89.036804"
       y1="93.893646"
       x1="81.542999"
       id="linearGradient4724"
       xlink:href="#linearGradient4505" />
    <linearGradient
       y2="101.28423"
       x2="89.036804"
       y1="93.893646"
       x1="81.542999"
       gradientUnits="userSpaceOnUse"
       id="linearGradient4593"
       xlink:href="#linearGradient4505" />
  </defs>
  <metadata
     id="metadata105">
    <rdf:RDF>
      <cc:Work
         rdf:about="">
        <dc:format>image/svg+xml</dc:format>
        <dc:type
           rdf:resource="http://purl.org/dc/dcmitype/StillImage" />
        <dc:title></dc:title>
      </cc:Work>
    </rdf:RDF>
  </metadata>
  <g
     transform="translate(-61.368246,-93.756519)"
     id="layer1">
    <g
       transform="matrix(1.6393413,0,0,1.6362704,-39.235262,-73.963962)"
       id="g4672">
      <g
         aria-label="technologically advanced solutions"
         transform="matrix(1.0050148,0,0,0.98958085,0.3124229,0.63430655)"
         style="font-style:normal;font-variant:normal;font-weight:normal;font-stretch:condensed;font-size:1.95379794px;line-height:0%;font-family:Aka-Acid-Static;-inkscape-font-specification:'Aka-Acid-Static Condensed';letter-spacing:0px;word-spacing:0px;fill:url(#linearGradient4515);fill-opacity:1;stroke:none;stroke-width:0.16281648px;stroke-linecap:butt;stroke-linejoin:miter;stroke-opacity:1"
         id="text3348-8-5-1-6-5-5">
        <path
           d="m 61.417489,114.16826 v 0.39651 h 0.275766 v 0.31601 h -0.275766 v 0.80494 q 0,0.0894 0.03428,0.12819 0.03428,0.0388 0.131176,0.0388 0.07155,0 0.126703,-0.0104 v 0.32644 q -0.126703,0.0388 -0.26086,0.0388 -0.453152,0 -0.462095,-0.45762 v -0.86904 h -0.23552 v -0.31601 h 0.23552 v -0.39651 z"
           style="font-style:normal;font-variant:normal;font-weight:bold;font-stretch:normal;font-size:3.05280948px;line-height:1.25;font-family:Roboto;-inkscape-font-specification:'Roboto Bold';fill:url(#linearGradient4629);fill-opacity:1;stroke-width:0.16281648px"
           id="path4506" />
        <path
           d="m 62.67558,116.20744 q -0.35477,0 -0.578364,-0.21763 -0.222104,-0.21763 -0.222104,-0.57986 v -0.0417 q 0,-0.24298 0.09391,-0.43378 0.09391,-0.19229 0.265332,-0.29514 0.172913,-0.10435 0.393526,-0.10435 0.33092,0 0.52023,0.20869 0.1908,0.20869 0.1908,0.59178 v 0.1759 h -1.027044 q 0.02087,0.158 0.125213,0.2534 0.105835,0.0954 0.266823,0.0954 0.248935,0 0.389054,-0.18036 l 0.21167,0.23701 q -0.09689,0.13714 -0.262351,0.21465 -0.16546,0.076 -0.366695,0.076 z m -0.04919,-1.32368 q -0.128194,0 -0.208688,0.0865 -0.079,0.0864 -0.101363,0.24744 h 0.599233 v -0.0343 q -0.003,-0.1431 -0.07751,-0.22062 -0.07453,-0.079 -0.21167,-0.079 z"
           style="font-style:normal;font-variant:normal;font-weight:bold;font-stretch:normal;font-size:3.05280948px;line-height:1.25;font-family:Roboto;-inkscape-font-specification:'Roboto Bold';fill:url(#linearGradient4631);fill-opacity:1;stroke-width:0.16281648px"
           id="path4508" />
        <path
           d="m 64.255647,115.86012 q 0.119251,0 0.193782,-0.0656 0.07453,-0.0656 0.07751,-0.17441 H 64.9309 q -0.0015,0.16397 -0.08944,0.30111 -0.08795,0.13565 -0.241482,0.21167 -0.152044,0.0745 -0.336882,0.0745 -0.345826,0 -0.545571,-0.21912 -0.199744,-0.22062 -0.199744,-0.60818 v -0.0283 q 0,-0.37266 0.198254,-0.59476 0.198253,-0.22211 0.544079,-0.22211 0.302598,0 0.484455,0.17292 0.183347,0.17142 0.186329,0.45762 h -0.403961 q -0.003,-0.12521 -0.07751,-0.20273 -0.07453,-0.079 -0.196763,-0.079 -0.150553,0 -0.228066,0.11031 -0.07602,0.10881 -0.07602,0.35477 v 0.0447 q 0,0.24893 0.07602,0.35775 0.07602,0.10881 0.231047,0.10881 z"
           style="font-style:normal;font-variant:normal;font-weight:bold;font-stretch:normal;font-size:3.05280948px;line-height:1.25;font-family:Roboto;-inkscape-font-specification:'Roboto Bold';fill:url(#linearGradient4633);fill-opacity:1;stroke-width:0.16281648px"
           id="path4510" />
        <path
           d="m 65.597214,114.74066 q 0.171423,-0.20571 0.430792,-0.20571 0.524702,0 0.532155,0.60967 v 1.03301 h -0.430792 v -1.02108 q 0,-0.13863 -0.05962,-0.20422 -0.05962,-0.0671 -0.198254,-0.0671 -0.18931,0 -0.274276,0.14608 v 1.1463 H 65.166427 V 113.888 h 0.430792 z"
           style="font-style:normal;font-variant:normal;font-weight:bold;font-stretch:normal;font-size:3.05280948px;line-height:1.25;font-family:Roboto;-inkscape-font-specification:'Roboto Bold';fill:url(#linearGradient4635);fill-opacity:1;stroke-width:0.16281648px"
           id="path4512" />
        <path
           d="m 67.284607,114.56477 0.01342,0.18633 q 0.172913,-0.21615 0.463585,-0.21615 0.256389,0 0.381602,0.15056 0.125212,0.15055 0.128194,0.45017 v 1.04195 h -0.430792 v -1.03152 q 0,-0.13714 -0.05962,-0.19825 -0.05963,-0.0626 -0.198254,-0.0626 -0.181857,0 -0.272785,0.15503 v 1.13735 h -0.430792 v -1.61286 z"
           style="font-style:normal;font-variant:normal;font-weight:bold;font-stretch:normal;font-size:3.05280948px;line-height:1.25;font-family:Roboto;-inkscape-font-specification:'Roboto Bold';fill:url(#linearGradient4637);fill-opacity:1;stroke-width:0.16281648px"
           id="path4514" />
        <path
           d="m 68.532264,115.35629 q 0,-0.23999 0.09242,-0.42781 0.09242,-0.18782 0.265332,-0.29067 0.174404,-0.10286 0.403961,-0.10286 0.326447,0 0.532154,0.19975 0.207198,0.19974 0.231048,0.54259 l 0.003,0.1103 q 0,0.37117 -0.207197,0.59626 -0.207198,0.22359 -0.556005,0.22359 -0.348808,0 -0.557496,-0.22359 -0.207197,-0.2236 -0.207197,-0.60818 z m 0.430792,0.0313 q 0,0.22956 0.08646,0.35179 0.08646,0.12074 0.247445,0.12074 0.156516,0 0.244463,-0.11925 0.08795,-0.12074 0.08795,-0.38458 0,-0.22508 -0.08795,-0.34881 -0.08795,-0.12372 -0.247444,-0.12372 -0.158007,0 -0.244464,0.12372 -0.08646,0.12223 -0.08646,0.38011 z"
           style="font-style:normal;font-variant:normal;font-weight:bold;font-stretch:normal;font-size:3.05280948px;line-height:1.25;font-family:Roboto;-inkscape-font-specification:'Roboto Bold';fill:url(#linearGradient4639);fill-opacity:1;stroke-width:0.16281648px"
           id="path4516" />
        <path
           d="m 70.783114,116.17763 h -0.432282 v -2.28961 h 0.432282 z"
           style="font-style:normal;font-variant:normal;font-weight:bold;font-stretch:normal;font-size:3.05280948px;line-height:1.25;font-family:Roboto;-inkscape-font-specification:'Roboto Bold';fill:url(#linearGradient4641);fill-opacity:1;stroke-width:0.16281648px"
           id="path4518" />
        <path
           d="m 71.072297,115.35629 q 0,-0.23999 0.09242,-0.42781 0.09242,-0.18782 0.265332,-0.29067 0.174403,-0.10286 0.40396,-0.10286 0.326448,0 0.532155,0.19975 0.207198,0.19974 0.231048,0.54259 l 0.003,0.1103 q 0,0.37117 -0.207197,0.59626 -0.207198,0.22359 -0.556005,0.22359 -0.348808,0 -0.557496,-0.22359 -0.207197,-0.2236 -0.207197,-0.60818 z m 0.430792,0.0313 q 0,0.22956 0.08646,0.35179 0.08646,0.12074 0.247445,0.12074 0.156516,0 0.244463,-0.11925 0.08795,-0.12074 0.08795,-0.38458 0,-0.22508 -0.08795,-0.34881 -0.08795,-0.12372 -0.247445,-0.12372 -0.158006,0 -0.244463,0.12372 -0.08646,0.12223 -0.08646,0.38011 z"
           style="font-style:normal;font-variant:normal;font-weight:bold;font-stretch:normal;font-size:3.05280948px;line-height:1.25;font-family:Roboto;-inkscape-font-specification:'Roboto Bold';fill:url(#linearGradient4643);fill-opacity:1;stroke-width:0.16281648px"
           id="path4520" />
        <path
           d="m 72.805899,115.35927 q 0,-0.37116 0.175895,-0.59774 0.177385,-0.22658 0.477001,-0.22658 0.265332,0 0.412904,0.18186 l 0.01789,-0.15204 h 0.390545 v 1.55919 q 0,0.21167 -0.09689,0.36819 -0.0954,0.15652 -0.269804,0.2385 -0.174404,0.082 -0.408432,0.082 -0.177385,0 -0.345826,-0.0716 -0.168442,-0.0701 -0.254898,-0.18186 l 0.1908,-0.26235 q 0.160988,0.18036 0.390545,0.18036 0.171423,0 0.266823,-0.0924 0.0954,-0.0909 0.0954,-0.25937 v -0.0865 q -0.149063,0.16844 -0.392035,0.16844 -0.290673,0 -0.471039,-0.22658 -0.178876,-0.22806 -0.178876,-0.6037 z m 0.430792,0.0313 q 0,0.21912 0.08795,0.34433 0.08795,0.12372 0.241482,0.12372 0.196764,0 0.281729,-0.14757 v -0.67824 q -0.08646,-0.14757 -0.278747,-0.14757 -0.155026,0 -0.244464,0.12671 -0.08795,0.1267 -0.08795,0.37862 z"
           style="font-style:normal;font-variant:normal;font-weight:bold;font-stretch:normal;font-size:3.05280948px;line-height:1.25;font-family:Roboto;-inkscape-font-specification:'Roboto Bold';fill:url(#linearGradient4645);fill-opacity:1;stroke-width:0.16281648px"
           id="path4522" />
        <path
           d="m 75.064203,116.17763 h -0.432282 v -1.61286 h 0.432282 z m -0.457623,-2.03024 q 0,-0.0969 0.0641,-0.1595 0.06559,-0.0626 0.177385,-0.0626 0.110307,0 0.175894,0.0626 0.06559,0.0626 0.06559,0.1595 0,0.0984 -0.06708,0.16099 -0.06559,0.0626 -0.174404,0.0626 -0.108816,0 -0.175894,-0.0626 -0.06559,-0.0626 -0.06559,-0.16099 z"
           style="font-style:normal;font-variant:normal;font-weight:bold;font-stretch:normal;font-size:3.05280948px;line-height:1.25;font-family:Roboto;-inkscape-font-specification:'Roboto Bold';fill:url(#linearGradient4647);fill-opacity:1;stroke-width:0.16281648px"
           id="path4524" />
        <path
           d="m 76.091247,115.86012 q 0.119251,0 0.193782,-0.0656 0.07453,-0.0656 0.07751,-0.17441 h 0.40396 q -0.0015,0.16397 -0.08944,0.30111 -0.08795,0.13565 -0.241482,0.21167 -0.152045,0.0745 -0.336883,0.0745 -0.345826,0 -0.54557,-0.21912 -0.199745,-0.22062 -0.199745,-0.60818 v -0.0283 q 0,-0.37266 0.198254,-0.59476 0.198254,-0.22211 0.54408,-0.22211 0.302598,0 0.484455,0.17292 0.183347,0.17142 0.186328,0.45762 h -0.40396 q -0.003,-0.12521 -0.07751,-0.20273 -0.07453,-0.079 -0.196763,-0.079 -0.150554,0 -0.228066,0.11031 -0.07602,0.10881 -0.07602,0.35477 v 0.0447 q 0,0.24893 0.07602,0.35775 0.07602,0.10881 0.231047,0.10881 z"
           style="font-style:normal;font-variant:normal;font-weight:bold;font-stretch:normal;font-size:3.05280948px;line-height:1.25;font-family:Roboto;-inkscape-font-specification:'Roboto Bold';fill:url(#linearGradient4649);fill-opacity:1;stroke-width:0.16281648px"
           id="path4526" />
        <path
           d="m 77.947081,116.17763 q -0.02981,-0.0581 -0.04323,-0.14459 -0.156516,0.1744 -0.406942,0.1744 -0.23701,0 -0.393526,-0.13714 -0.155026,-0.13714 -0.155026,-0.34582 0,-0.25639 0.18931,-0.39353 0.190801,-0.13714 0.550042,-0.13863 h 0.198254 v -0.0924 q 0,-0.11179 -0.05813,-0.17887 -0.05664,-0.0671 -0.180367,-0.0671 -0.108816,0 -0.171422,0.0522 -0.06112,0.0522 -0.06112,0.1431 h -0.430792 q 0,-0.14012 0.08646,-0.25937 0.08646,-0.11925 0.244463,-0.18633 0.158007,-0.0686 0.35477,-0.0686 0.298126,0 0.472529,0.15056 0.175895,0.14906 0.175895,0.42035 v 0.69911 q 0.0015,0.22956 0.0641,0.34732 v 0.0253 z m -0.356261,-0.29962 q 0.0954,0 0.175895,-0.0417 0.08049,-0.0432 0.11925,-0.11478 v -0.27725 h -0.160988 q -0.323466,0 -0.344335,0.22359 l -0.0015,0.0253 q 0,0.0805 0.05664,0.13267 0.05664,0.0522 0.155025,0.0522 z"
           style="font-style:normal;font-variant:normal;font-weight:bold;font-stretch:normal;font-size:3.05280948px;line-height:1.25;font-family:Roboto;-inkscape-font-specification:'Roboto Bold';fill:url(#linearGradient4651);fill-opacity:1;stroke-width:0.16281648px"
           id="path4528" />
        <path
           d="m 79.106791,116.17763 h -0.432283 v -2.28961 h 0.432283 z"
           style="font-style:normal;font-variant:normal;font-weight:bold;font-stretch:normal;font-size:3.05280948px;line-height:1.25;font-family:Roboto;-inkscape-font-specification:'Roboto Bold';fill:url(#linearGradient4653);fill-opacity:1;stroke-width:0.16281648px"
           id="path4530" />
        <path
           d="M 79.917692,116.17763 H 79.48541 v -2.28961 h 0.432282 z"
           style="font-style:normal;font-variant:normal;font-weight:bold;font-stretch:normal;font-size:3.05280948px;line-height:1.25;font-family:Roboto;-inkscape-font-specification:'Roboto Bold';fill:url(#linearGradient4655);fill-opacity:1;stroke-width:0.16281648px"
           id="path4532" />
        <path
           d="m 80.876168,115.56796 0.298126,-1.00319 h 0.462095 l -0.648424,1.86328 -0.03578,0.085 q -0.144591,0.31601 -0.477001,0.31601 -0.09391,0 -0.190801,-0.0283 v -0.32645 l 0.06559,10e-4 q 0.122231,0 0.181857,-0.0373 0.06112,-0.0373 0.0954,-0.12372 l 0.05068,-0.13267 -0.564948,-1.61733 h 0.463586 z"
           style="font-style:normal;font-variant:normal;font-weight:bold;font-stretch:normal;font-size:3.05280948px;line-height:1.25;font-family:Roboto;-inkscape-font-specification:'Roboto Bold';fill:url(#linearGradient4657);fill-opacity:1;stroke-width:0.16281648px"
           id="path4534" />
        <path
           d="m 83.504149,116.17763 q -0.02981,-0.0581 -0.04323,-0.14459 -0.156517,0.1744 -0.406942,0.1744 -0.23701,0 -0.393527,-0.13714 -0.155025,-0.13714 -0.155025,-0.34582 0,-0.25639 0.18931,-0.39353 0.190801,-0.13714 0.550042,-0.13863 h 0.198254 v -0.0924 q 0,-0.11179 -0.05813,-0.17887 -0.05664,-0.0671 -0.180366,-0.0671 -0.108816,0 -0.171422,0.0522 -0.06112,0.0522 -0.06112,0.1431 h -0.430792 q 0,-0.14012 0.08646,-0.25937 0.08646,-0.11925 0.244463,-0.18633 0.158007,-0.0686 0.35477,-0.0686 0.298126,0 0.472529,0.15056 0.175895,0.14906 0.175895,0.42035 v 0.69911 q 0.0015,0.22956 0.0641,0.34732 v 0.0253 z m -0.356261,-0.29962 q 0.0954,0 0.175895,-0.0417 0.08049,-0.0432 0.11925,-0.11478 v -0.27725 h -0.160988 q -0.323467,0 -0.344335,0.22359 l -0.0015,0.0253 q 0,0.0805 0.05664,0.13267 0.05664,0.0522 0.155025,0.0522 z"
           style="font-style:normal;font-variant:normal;font-weight:bold;font-stretch:normal;font-size:3.05280948px;line-height:1.25;font-family:Roboto;-inkscape-font-specification:'Roboto Bold';fill:url(#linearGradient4659);fill-opacity:1;stroke-width:0.16281648px"
           id="path4536" />
        <path
           d="m 84.142138,115.35927 q 0,-0.37713 0.168441,-0.60072 0.169932,-0.2236 0.463586,-0.2236 0.235519,0 0.389054,0.1759 v -0.82283 h 0.432283 v 2.28961 h -0.389054 l -0.02087,-0.17142 q -0.160988,0.20123 -0.414395,0.20123 -0.284711,0 -0.457624,-0.22359 -0.171422,-0.22509 -0.171421,-0.62458 z m 0.430792,0.0313 q 0,0.22657 0.079,0.34731 0.079,0.12074 0.229557,0.12074 0.199745,0 0.281729,-0.16844 v -0.6365 q -0.08049,-0.16844 -0.278747,-0.16844 -0.311542,0 -0.311542,0.50533 z"
           style="font-style:normal;font-variant:normal;font-weight:bold;font-stretch:normal;font-size:3.05280948px;line-height:1.25;font-family:Roboto;-inkscape-font-specification:'Roboto Bold';fill:url(#linearGradient4661);fill-opacity:1;stroke-width:0.16281648px"
           id="path4538" />
        <path
           d="m 86.536089,115.65144 0.299616,-1.08667 h 0.45017 l -0.544079,1.61286 h -0.411414 l -0.54408,-1.61286 h 0.45017 z"
           style="font-style:normal;font-variant:normal;font-weight:bold;font-stretch:normal;font-size:3.05280948px;line-height:1.25;font-family:Roboto;-inkscape-font-specification:'Roboto Bold';fill:url(#linearGradient4663);fill-opacity:1;stroke-width:0.16281648px"
           id="path4540" />
        <path
           d="m 88.387452,116.17763 q -0.02981,-0.0581 -0.04323,-0.14459 -0.156516,0.1744 -0.406942,0.1744 -0.23701,0 -0.393526,-0.13714 -0.155025,-0.13714 -0.155025,-0.34582 0,-0.25639 0.18931,-0.39353 0.1908,-0.13714 0.550042,-0.13863 h 0.198254 v -0.0924 q 0,-0.11179 -0.05813,-0.17887 -0.05664,-0.0671 -0.180366,-0.0671 -0.108816,0 -0.171422,0.0522 -0.06112,0.0522 -0.06112,0.1431 h -0.430792 q 0,-0.14012 0.08646,-0.25937 0.08646,-0.11925 0.244464,-0.18633 0.158006,-0.0686 0.354769,-0.0686 0.298126,0 0.47253,0.15056 0.175894,0.14906 0.175894,0.42035 v 0.69911 q 0.0015,0.22956 0.0641,0.34732 v 0.0253 z m -0.356261,-0.29962 q 0.0954,0 0.175894,-0.0417 0.08049,-0.0432 0.119251,-0.11478 v -0.27725 h -0.160988 q -0.323467,0 -0.344336,0.22359 l -0.0015,0.0253 q 0,0.0805 0.05664,0.13267 0.05664,0.0522 0.155025,0.0522 z"
           style="font-style:normal;font-variant:normal;font-weight:bold;font-stretch:normal;font-size:3.05280948px;line-height:1.25;font-family:Roboto;-inkscape-font-specification:'Roboto Bold';fill:url(#linearGradient4665);fill-opacity:1;stroke-width:0.16281648px"
           id="path4542" />
        <path
           d="m 89.489027,114.56477 0.01342,0.18633 q 0.172913,-0.21615 0.463586,-0.21615 0.256388,0 0.381601,0.15056 0.125213,0.15055 0.128194,0.45017 v 1.04195 h -0.430792 v -1.03152 q 0,-0.13714 -0.05962,-0.19825 -0.05962,-0.0626 -0.198254,-0.0626 -0.181856,0 -0.272785,0.15503 v 1.13735 h -0.430792 v -1.61286 z"
           style="font-style:normal;font-variant:normal;font-weight:bold;font-stretch:normal;font-size:3.05280948px;line-height:1.25;font-family:Roboto;-inkscape-font-specification:'Roboto Bold';fill:url(#linearGradient4667);fill-opacity:1;stroke-width:0.16281648px"
           id="path4544" />
        <path
           d="m 91.474545,115.86012 q 0.11925,0 0.193782,-0.0656 0.07453,-0.0656 0.07751,-0.17441 h 0.40396 q -0.0015,0.16397 -0.08944,0.30111 -0.08795,0.13565 -0.241482,0.21167 -0.152045,0.0745 -0.336883,0.0745 -0.345826,0 -0.54557,-0.21912 -0.199745,-0.22062 -0.199745,-0.60818 v -0.0283 q 0,-0.37266 0.198254,-0.59476 0.198254,-0.22211 0.54408,-0.22211 0.302598,0 0.484455,0.17292 0.183347,0.17142 0.186328,0.45762 h -0.40396 q -0.003,-0.12521 -0.07751,-0.20273 -0.07453,-0.079 -0.196763,-0.079 -0.150554,0 -0.228067,0.11031 -0.07602,0.10881 -0.07602,0.35477 v 0.0447 q 0,0.24893 0.07602,0.35775 0.07602,0.10881 0.231048,0.10881 z"
           style="font-style:normal;font-variant:normal;font-weight:bold;font-stretch:normal;font-size:3.05280948px;line-height:1.25;font-family:Roboto;-inkscape-font-specification:'Roboto Bold';fill:url(#linearGradient4669);fill-opacity:1;stroke-width:0.16281648px"
           id="path4546" />
        <path
           d="m 93.138087,116.20744 q -0.35477,0 -0.578365,-0.21763 -0.222103,-0.21763 -0.222103,-0.57986 v -0.0417 q 0,-0.24298 0.09391,-0.43378 0.09391,-0.19229 0.265332,-0.29514 0.172913,-0.10435 0.393527,-0.10435 0.330919,0 0.520229,0.20869 0.190801,0.20869 0.190801,0.59178 v 0.1759 h -1.027044 q 0.02087,0.158 0.125213,0.2534 0.105835,0.0954 0.266823,0.0954 0.248935,0 0.389054,-0.18036 l 0.211669,0.23701 q -0.09689,0.13714 -0.26235,0.21465 -0.16546,0.076 -0.366695,0.076 z m -0.04919,-1.32368 q -0.128194,0 -0.208688,0.0865 -0.079,0.0864 -0.101363,0.24744 h 0.599233 v -0.0343 q -0.003,-0.1431 -0.07751,-0.22062 -0.07453,-0.079 -0.211669,-0.079 z"
           style="font-style:normal;font-variant:normal;font-weight:bold;font-stretch:normal;font-size:3.05280948px;line-height:1.25;font-family:Roboto;-inkscape-font-specification:'Roboto Bold';fill:url(#linearGradient4671);fill-opacity:1;stroke-width:0.16281648px"
           id="path4548" />
        <path
           d="m 93.980294,115.35927 q 0,-0.37713 0.168441,-0.60072 0.169932,-0.2236 0.463586,-0.2236 0.235519,0 0.389054,0.1759 v -0.82283 h 0.432283 v 2.28961 h -0.389055 l -0.02087,-0.17142 q -0.160988,0.20123 -0.414396,0.20123 -0.28471,0 -0.457623,-0.22359 -0.171422,-0.22509 -0.171422,-0.62458 z m 0.430792,0.0313 q 0,0.22657 0.079,0.34731 0.079,0.12074 0.229557,0.12074 0.199744,0 0.281729,-0.16844 v -0.6365 q -0.08049,-0.16844 -0.278748,-0.16844 -0.311541,0 -0.311541,0.50533 z"
           style="font-style:normal;font-variant:normal;font-weight:bold;font-stretch:normal;font-size:3.05280948px;line-height:1.25;font-family:Roboto;-inkscape-font-specification:'Roboto Bold';fill:url(#linearGradient4673);fill-opacity:1;stroke-width:0.16281648px"
           id="path4550" />
        <path
           d="m 97.407251,115.73193 q 0,-0.079 -0.079,-0.12372 -0.07751,-0.0462 -0.250426,-0.082 -0.575383,-0.12074 -0.575383,-0.48892 0,-0.21465 0.177385,-0.35776 0.178875,-0.14459 0.466567,-0.14459 0.30707,0 0.490417,0.14459 0.184838,0.1446 0.184838,0.37564 h -0.430792 q 0,-0.0924 -0.05963,-0.15204 -0.05962,-0.0611 -0.186329,-0.0611 -0.108816,0 -0.168441,0.0492 -0.05963,0.0492 -0.05963,0.12522 0,0.0716 0.06708,0.11627 0.06857,0.0432 0.229557,0.076 0.160988,0.0313 0.271295,0.0716 0.341354,0.12521 0.341354,0.43377 0,0.22061 -0.18931,0.35775 -0.18931,0.13565 -0.488926,0.13565 -0.202726,0 -0.360733,-0.0716 -0.156516,-0.073 -0.245954,-0.19825 -0.08944,-0.12671 -0.08944,-0.27279 h 0.408432 q 0.006,0.11478 0.08497,0.1759 0.079,0.0611 0.211669,0.0611 0.123723,0 0.186329,-0.0462 0.0641,-0.0477 0.0641,-0.12372 z"
           style="font-style:normal;font-variant:normal;font-weight:bold;font-stretch:normal;font-size:3.05280948px;line-height:1.25;font-family:Roboto;-inkscape-font-specification:'Roboto Bold';fill:url(#linearGradient4675);fill-opacity:1;stroke-width:0.16281648px"
           id="path4552" />
        <path
           d="m 98.034806,115.35629 q 0,-0.23999 0.09242,-0.42781 0.09242,-0.18782 0.265332,-0.29067 0.174404,-0.10286 0.403961,-0.10286 0.326447,0 0.532154,0.19975 0.207198,0.19974 0.231048,0.54259 l 0.003,0.1103 q 0,0.37117 -0.207197,0.59626 -0.207198,0.22359 -0.556005,0.22359 -0.348808,0 -0.557496,-0.22359 -0.207197,-0.2236 -0.207197,-0.60818 z m 0.430792,0.0313 q 0,0.22956 0.08646,0.35179 0.08646,0.12074 0.247445,0.12074 0.156516,0 0.244463,-0.11925 0.08795,-0.12074 0.08795,-0.38458 0,-0.22508 -0.08795,-0.34881 -0.08795,-0.12372 -0.247444,-0.12372 -0.158007,0 -0.244464,0.12372 -0.08646,0.12223 -0.08646,0.38011 z"
           style="font-style:normal;font-variant:normal;font-weight:bold;font-stretch:normal;font-size:3.05280948px;line-height:1.25;font-family:Roboto;-inkscape-font-specification:'Roboto Bold';fill:url(#linearGradient4677);fill-opacity:1;stroke-width:0.16281648px"
           id="path4554" />
        <path
           d="m 100.28566,116.17763 h -0.432287 v -2.28961 h 0.432287 z"
           style="font-style:normal;font-variant:normal;font-weight:bold;font-stretch:normal;font-size:3.05280948px;line-height:1.25;font-family:Roboto;-inkscape-font-specification:'Roboto Bold';fill:url(#linearGradient4679);fill-opacity:1;stroke-width:0.16281648px"
           id="path4556" />
        <path
           d="m 101.60784,116.01366 q -0.15949,0.19378 -0.44122,0.19378 -0.25937,0 -0.39651,-0.14906 -0.13565,-0.14907 -0.13863,-0.43676 v -1.05685 h 0.43079 v 1.04195 q 0,0.25191 0.22956,0.25191 0.21912,0 0.30111,-0.15204 v -1.14182 h 0.43228 v 1.61286 h -0.40545 z"
           style="font-style:normal;font-variant:normal;font-weight:bold;font-stretch:normal;font-size:3.05280948px;line-height:1.25;font-family:Roboto;-inkscape-font-specification:'Roboto Bold';fill:url(#linearGradient4681);fill-opacity:1;stroke-width:0.16281648px"
           id="path4558" />
        <path
           d="m 102.86892,114.16826 v 0.39651 h 0.27576 v 0.31601 h -0.27576 v 0.80494 q 0,0.0894 0.0343,0.12819 0.0343,0.0388 0.13118,0.0388 0.0716,0 0.1267,-0.0104 v 0.32644 q -0.1267,0.0388 -0.26086,0.0388 -0.45315,0 -0.4621,-0.45762 v -0.86904 h -0.23552 v -0.31601 h 0.23552 v -0.39651 z"
           style="font-style:normal;font-variant:normal;font-weight:bold;font-stretch:normal;font-size:3.05280948px;line-height:1.25;font-family:Roboto;-inkscape-font-specification:'Roboto Bold';fill:url(#linearGradient4683);fill-opacity:1;stroke-width:0.16281648px"
           id="path4560" />
        <path
           d="m 103.83932,116.17763 h -0.43229 v -1.61286 h 0.43229 z m -0.45763,-2.03024 q 0,-0.0969 0.0641,-0.1595 0.0656,-0.0626 0.17739,-0.0626 0.1103,0 0.17589,0.0626 0.0656,0.0626 0.0656,0.1595 0,0.0984 -0.0671,0.16099 -0.0656,0.0626 -0.1744,0.0626 -0.10882,0 -0.1759,-0.0626 -0.0656,-0.0626 -0.0656,-0.16099 z"
           style="font-style:normal;font-variant:normal;font-weight:bold;font-stretch:normal;font-size:3.05280948px;line-height:1.25;font-family:Roboto;-inkscape-font-specification:'Roboto Bold';fill:url(#linearGradient4685);fill-opacity:1;stroke-width:0.16281648px"
           id="path4562" />
        <path
           d="m 104.1285,115.35629 q 0,-0.23999 0.0924,-0.42781 0.0924,-0.18782 0.26533,-0.29067 0.1744,-0.10286 0.40396,-0.10286 0.32645,0 0.53216,0.19975 0.20719,0.19974 0.23104,0.54259 l 0.003,0.1103 q 0,0.37117 -0.20719,0.59626 -0.2072,0.22359 -0.55601,0.22359 -0.34881,0 -0.55749,-0.22359 -0.2072,-0.2236 -0.2072,-0.60818 z m 0.43079,0.0313 q 0,0.22956 0.0865,0.35179 0.0864,0.12074 0.24744,0.12074 0.15652,0 0.24446,-0.11925 0.088,-0.12074 0.088,-0.38458 0,-0.22508 -0.088,-0.34881 -0.0879,-0.12372 -0.24744,-0.12372 -0.15801,0 -0.24446,0.12372 -0.0865,0.12223 -0.0865,0.38011 z"
           style="font-style:normal;font-variant:normal;font-weight:bold;font-stretch:normal;font-size:3.05280948px;line-height:1.25;font-family:Roboto;-inkscape-font-specification:'Roboto Bold';fill:url(#linearGradient4687);fill-opacity:1;stroke-width:0.16281648px"
           id="path4564" />
        <path
           d="m 106.32121,114.56477 0.0134,0.18633 q 0.17291,-0.21615 0.46359,-0.21615 0.25638,0 0.3816,0.15056 0.12521,0.15055 0.12819,0.45017 v 1.04195 h -0.43079 v -1.03152 q 0,-0.13714 -0.0596,-0.19825 -0.0596,-0.0626 -0.19825,-0.0626 -0.18186,0 -0.27279,0.15503 v 1.13735 h -0.43079 v -1.61286 z"
           style="font-style:normal;font-variant:normal;font-weight:bold;font-stretch:normal;font-size:3.05280948px;line-height:1.25;font-family:Roboto;-inkscape-font-specification:'Roboto Bold';fill:url(#linearGradient4689);fill-opacity:1;stroke-width:0.16281648px"
           id="path4566" />
        <path
           d="m 108.50946,115.73193 q 0,-0.079 -0.079,-0.12372 -0.0775,-0.0462 -0.25042,-0.082 -0.57538,-0.12074 -0.57538,-0.48892 0,-0.21465 0.17738,-0.35776 0.17888,-0.14459 0.46657,-0.14459 0.30707,0 0.49042,0.14459 0.18483,0.1446 0.18483,0.37564 h -0.43079 q 0,-0.0924 -0.0596,-0.15204 -0.0596,-0.0611 -0.18633,-0.0611 -0.10882,0 -0.16844,0.0492 -0.0596,0.0492 -0.0596,0.12522 0,0.0716 0.0671,0.11627 0.0686,0.0432 0.22956,0.076 0.16098,0.0313 0.27129,0.0716 0.34136,0.12521 0.34136,0.43377 0,0.22061 -0.18931,0.35775 -0.18931,0.13565 -0.48893,0.13565 -0.20273,0 -0.36073,-0.0716 -0.15652,-0.073 -0.24596,-0.19825 -0.0894,-0.12671 -0.0894,-0.27279 h 0.40844 q 0.006,0.11478 0.085,0.1759 0.079,0.0611 0.21167,0.0611 0.12372,0 0.18633,-0.0462 0.0641,-0.0477 0.0641,-0.12372 z"
           style="font-style:normal;font-variant:normal;font-weight:bold;font-stretch:normal;font-size:3.05280948px;line-height:1.25;font-family:Roboto;-inkscape-font-specification:'Roboto Bold';fill:url(#linearGradient4691);fill-opacity:1;stroke-width:0.16281648px"
           id="path4568" />
      </g>
      <g
         id="g4626"
         transform="translate(-0.51834601)">
        <g
           transform="translate(18.149128,10.411796)"
           style="fill:url(#linearGradient4724);fill-opacity:1"
           id="g4716">
          <path
             id="path2392-1-6-1-8-8-0-5-3-7"
             style="opacity:1;fill:url(#linearGradient4593);fill-opacity:1;stroke:none;stroke-width:0.03345882;stroke-miterlimit:0;stroke-opacity:1"
             d="m 85.453898,93.681219 c -0.305708,-0.01345 -0.611925,0.0097 -0.912129,0.06903 l -1.51e-4,1.65e-4 c -9.9e-5,1.01e-4 -1.56e-4,1.64e-4 -3.98e-4,3.3e-4 -7.1e-5,9e-5 9.2e-5,1.63e-4 -1.55e-4,3.29e-4 l -1.5e-4,-1.64e-4 -1.55e-4,1.64e-4 c -1.51e-4,8.2e-5 9.5e-5,1.64e-4 -1.51e-4,3.31e-4 -4.8e-5,1.03e-4 -9.9e-5,1.64e-4 -1.55e-4,3.3e-4 0.03537,0.135962 0.111027,0.263163 0.21721,0.378309 3.97e-4,1e-5 0.0016,9.4e-5 0.0016,1.65e-4 3.97e-4,1.01e-4 7.94e-4,1.63e-4 0.0016,3.29e-4 0.250376,-0.173565 0.518062,-0.322422 0.80297,-0.440049 -0.03823,-0.0044 -0.07717,-0.0065 -0.109937,-0.0093 z m -0.913055,0.06978 c 6.8e-5,-9.9e-5 3.06e-4,-9.5e-5 3.06e-4,-1.64e-4 -8e-5,-1.04e-4 -1.55e-4,-9.6e-5 -3.06e-4,-1.63e-4 l -1.55e-4,1.63e-4 z m 0,-3.3e-4 1.51e-4,-1.63e-4 h -3.97e-4 z m 1.278361,-0.02671 c -9.5e-5,1.02e-4 -1.54e-4,1.65e-4 -7.93e-4,3.3e-4 -1.55e-4,4.1e-5 -7.95e-4,-1.03e-4 -0.0016,-1.64e-4 l 1.55e-4,1.64e-4 c -3.97e-4,3.3e-4 -0.0016,1.64e-4 -0.0016,1.64e-4 -1.55e-4,1.64e-4 -1.55e-4,9.7e-5 -3.06e-4,1.64e-4 -7.94e-4,0.001 -3.97e-4,8.04e-4 -0.0024,0.0014 -7.95e-4,1.63e-4 -0.0012,3.29e-4 -0.002,3.29e-4 -1.51e-4,-6.5e-5 -3.05e-4,-1.05e-4 -7.94e-4,-1.64e-4 -0.344653,0.12124 -0.665823,0.289113 -0.962268,0.492993 0.248002,0.221595 0.609591,0.388719 0.995204,0.472973 0.0012,-0.001 0.0012,-0.0014 0.0012,-0.0014 l 1.5e-4,-1.64e-4 0.226092,-0.923313 c -0.0846,-0.01932 -0.175738,-0.03107 -0.251038,-0.04331 z m -0.970962,0.495427 -1.55e-4,-1.63e-4 c -1.8e-5,7.3e-5 1.03e-4,1.08e-4 1.55e-4,1.63e-4 z m -0.310459,-0.476152 c -1e-4,1.65e-4 -1.51e-4,3.32e-4 -3.06e-4,3.32e-4 v 1.64e-4 l 1.55e-4,1.64e-4 c 9.9e-5,-4.8e-5 1.51e-4,-1.03e-4 3.05e-4,-1.64e-4 -3.6e-5,-1.69e-4 -1.03e-4,-3.3e-4 -1.54e-4,-4.96e-4 z m 0.002,0.0069 -1.55e-4,1.65e-4 c 4.59e-4,3.75e-4 1e-4,-1.07e-4 1.55e-4,-1.65e-4 z m -0.110086,0.02297 -1.55e-4,1.64e-4 c 7.3e-5,1.6e-5 1.03e-4,-1.09e-4 1.55e-4,-1.64e-4 z m -0.007,0.0011 c 3.6e-5,1.02e-4 1.55e-4,1.64e-4 1.55e-4,3.3e-4 h 3.97e-4 c -9.5e-5,-1.64e-4 -1.51e-4,-1e-4 -7.95e-4,-3.3e-4 z m 1.55e-4,3.3e-4 c -1.200479,0.272103 -2.197681,1.103578 -2.681412,2.235778 0.01,0.0034 0.01922,0.01248 0.0277,0.018 0.312048,0.324806 0.660817,0.611659 1.035905,0.860633 0.334517,-1.076384 0.976536,-2.040257 1.853297,-2.685374 -0.11371,-0.127333 -0.196161,-0.270821 -0.235524,-0.429001 z m 0.235524,0.429009 c 1.03e-4,1.03e-4 1.51e-4,1.63e-4 3.06e-4,3.29e-4 v -3.29e-4 c -1.04e-4,7.9e-5 -1.51e-4,9.9e-5 -3.06e-4,1.63e-4 z m -1.853273,2.685365 v 1.7e-4 h 1.5e-4 v -1.7e-4 z m 3.394662,-3.096229 -0.226274,0.924997 v 1.64e-4 c 9.6e-5,1.64e-4 -9.1e-5,3.29e-4 1.51e-4,8.03e-4 v 1.64e-4 1.64e-4 l 1.55e-4,1.64e-4 3.1e-4,-0.0011 c 0.322991,0.05407 0.650387,0.04839 0.928216,-0.02395 h 1.59e-4 v -1.61e-4 -1.64e-4 c -0.177506,-0.312805 -0.389888,-0.607621 -0.638279,-0.876726 l -1.51e-4,-1.65e-4 -1.55e-4,-1.64e-4 h -1.51e-4 c -9.1e-5,-9.8e-5 9.1e-5,-1.63e-4 -1.55e-4,-3.29e-4 l 1.55e-4,-1.64e-4 c -3.05e-4,-1.04e-4 -0.0012,-1.6e-5 -0.0016,-3.31e-4 0.0012,1.66e-4 0.0016,8.04e-4 0.0016,3.31e-4 -3.97e-4,-10e-4 -0.0016,-0.0011 -0.0028,-0.0014 h -1.55e-4 v -1.64e-4 c 0,3.1e-5 -1.51e-4,-1.64e-4 -3.97e-4,-3.29e-4 l -1.58e-4,-1.65e-4 c -8.7e-5,-7.19e-4 -8.5e-4,-0.0012 -0.0012,-0.0018 l -1.51e-4,-1.65e-4 c -1.55e-4,-1e-4 9.2e-5,9.7e-5 -0.0012,-3.3e-4 0.0012,8.03e-4 -3.97e-4,-1.63e-4 -3.97e-4,-1.63e-4 -3.02e-4,-1.64e-4 -3.97e-4,-3.3e-4 -0.0012,-0.001 3.06e-4,-1.64e-4 0.0012,-8.04e-4 0.0012,-10e-4 -3.02e-4,-3.7e-5 -0.0012,3.7e-5 -0.0012,0 -9.1e-5,2.9e-5 -1.51e-4,-3.7e-5 -3.98e-4,0 -9.9e-5,-5e-6 -1.51e-4,5e-6 -3.05e-4,0 -1.51e-4,-3.3e-4 -0.0012,-0.001 -0.0012,-0.0011 0,-1.7e-5 -3.06e-4,6.1e-5 -3.06e-4,0 l 1.55e-4,-1.65e-4 c -1.55e-4,-8e-5 9.9e-5,-4.82e-4 -3.05e-4,-4.82e-4 -0.01793,-0.005 -0.03588,-0.0098 -0.05388,-0.01459 z m 0.279016,0.08554 -1.5e-4,1.64e-4 c -1.55e-4,1.64e-4 -3.97e-4,3.29e-4 -3.97e-4,3.29e-4 0.206344,0.242391 0.384759,0.50341 0.538578,0.776817 1e-4,6.7e-5 1.51e-4,-9.6e-5 3.1e-4,1.65e-4 3.97e-4,3.29e-4 0.0012,0.001 0.0016,0.0014 3.96e-4,3.31e-4 3.96e-4,0.001 3.96e-4,8.04e-4 0.178828,-0.06254 0.330718,-0.15669 0.439046,-0.284757 -8e-6,-5.5e-5 -1.56e-4,-1.65e-4 -1.56e-4,-3.31e-4 -0.301015,-0.210986 -0.630763,-0.377632 -0.979148,-0.494833 z m -1.734543,0.414413 c -0.868369,0.636113 -1.505417,1.597082 -1.832026,2.66703 0.656688,0.417328 1.391507,0.717409 2.157836,0.892627 l 0.745432,-3.042711 -1.55e-4,-1.64e-4 c -3.98e-4,-8.3e-5 -7.95e-4,-1.65e-4 -0.0012,-3.3e-4 1.5e-5,1.64e-4 3.5e-5,3.3e-4 0,8.03e-4 -2e-5,1.64e-4 9.5e-5,-3.31e-4 -1.55e-4,-8.03e-4 -0.409345,-0.08997 -0.800798,-0.266761 -1.068277,-0.516006 0.0016,-5.6e-5 -0.0012,3e-6 -0.0012,0 -7.94e-4,0 8.8e-5,-1.64e-4 -1.54e-4,-3.29e-4 z m 0.32581,3.559657 v 3.25e-4 l 1.51e-4,-1.7e-4 z m -2.157836,-0.892627 c -1.03e-4,-6.7e-5 9.1e-5,-1.7e-4 -1.55e-4,-3.24e-4 h -1.55e-4 -1.51e-4 v 1.7e-4 l 1.51e-4,1.7e-4 c 9.9e-5,5.7e-5 -9.1e-5,1.71e-4 1.55e-4,3.26e-4 3.6e-5,-1.03e-4 9.9e-5,-1.71e-4 1.55e-4,-3.26e-4 z m 4.642113,-2.515309 3.01e-4,3.3e-4 1.55e-4,-1.64e-4 c -1.55e-4,-2.6e-5 -3.05e-4,-1.64e-4 -3.97e-4,-1.64e-4 z m 3.01e-4,3.3e-4 c -0.121222,0.146684 -0.284911,0.252138 -0.474009,0.322173 -3.97e-4,10e-4 -0.0012,0.0011 -0.0012,0.0014 0.516716,0.975631 0.70917,2.106721 0.593168,3.190709 0.482625,-0.07137 0.95765,-0.194641 1.413887,-0.372692 0.0051,-0.0019 0.01046,-0.0032 0.01591,-0.0037 8e-5,-9.5e-5 -9.9e-5,-1.71e-4 1.51e-4,-3.25e-4 0.01815,-1.233957 -0.557752,-2.401431 -1.54782,-3.137764 z m -1.582435,0.273715 c -1.6e-5,1.04e-4 0,1.64e-4 0,3.31e-4 l 1.5e-4,-1.65e-4 V 94.7184 Z m 0.989312,0.08644 c 9.2e-5,1.66e-4 1.51e-4,3.31e-4 3.06e-4,8.03e-4 -0.307025,0.08602 -0.666038,0.08989 -1.015928,0.02956 -1.59e-4,1.01e-4 -1.59e-4,1.64e-4 -3.06e-4,3.3e-4 h -3.97e-4 v 1.63e-4 l -0.745506,3.045714 c 9.2e-5,6.3e-5 1.51e-4,-9.8e-5 3.97e-4,1.7e-4 0.768779,0.160756 1.566178,0.194959 2.346367,0.09448 0.12119,-1.076856 -0.06808,-2.203754 -0.584091,-3.170505 l 1.58e-4,-1.64e-4 c -3.97e-4,-1.63e-4 -3.97e-4,-1.63e-4 -0.0012,-3.3e-4 z m 0.0012,3.31e-4 c 1.51e-4,-9.7e-5 3.97e-4,-1.05e-4 3.97e-4,-1.64e-4 -3.06e-4,8.2e-5 9.5e-5,-7.3e-5 -3.97e-4,0 z m -1.143775,0.0035 c -1.2e-5,1.65e-4 -2.4e-5,3.31e-4 0,8.03e-4 l 1.55e-4,1.63e-4 c 0,-1.63e-4 -1.6e-5,-3.28e-4 0,-8.01e-4 z m 0.125073,0.02545 c -8.4e-5,1.04e-4 -3.97e-4,-9.9e-5 -3.97e-4,1.64e-4 1.55e-4,6.7e-5 3.97e-4,1.65e-4 0.0012,3.3e-4 l 1.54e-4,-1.64e-4 -1.54e-4,-1.64e-4 z m -4.249822,1.290277 c -1.55e-4,10e-5 -1.55e-4,1.7e-4 -7.95e-4,3.25e-4 h -1.51e-4 l -1.54e-4,1.7e-4 c -0.118155,0.299606 -0.198156,0.612891 -0.238117,0.932476 -0.03976,0.347311 -0.03192,0.698426 0.02331,1.043613 1.07e-4,4e-5 1.07e-4,3.26e-4 1.54e-4,8.03e-4 7.95e-4,0.0014 3.97e-4,0.001 0.0016,0.0028 1.03e-4,3.25e-4 1.51e-4,0.0011 3.05e-4,0.0011 v 1.71e-4 c 0.275872,0.519017 0.664855,0.960512 1.127118,1.316951 -0.124581,-0.805324 -0.06196,-1.634967 0.161136,-2.41201 v -1.71e-4 h -1.5e-4 c -0.388214,-0.255343 -0.749878,-0.551018 -1.07368,-0.886259 z m 0.913043,3.298472 c 2.4e-5,1.03e-4 -1.2e-5,1.7e-4 0,3.24e-4 1.03e-4,-4e-6 1.55e-4,1.2e-5 3.06e-4,0 -1.03e-4,-1.01e-4 -1.51e-4,-1.69e-4 -3.06e-4,-3.24e-4 z m 0.269944,-2.342608 c -1.03e-4,2.1e-5 -1.55e-4,-9.8e-5 -3.97e-4,1.71e-4 h -1.55e-4 v 1.7e-4 1.7e-4 l 1.55e-4,1.7e-4 c -1.03e-4,-1.7e-4 2.4e-5,-3.24e-4 3.97e-4,-8.02e-4 z m 7.95e-4,0.0011 c 1.51e-4,9.7e-5 -7.95e-4,1.69e-4 -7.95e-4,1.69e-4 h -1.51e-4 c -0.221922,0.789582 -0.275307,1.632982 -0.130436,2.445685 v 1.7e-4 h 1.5e-4 c 0.509662,0.362771 1.099617,0.625346 1.722131,0.778866 l 0.571863,-2.334751 c -0.767044,-0.17549 -1.502623,-0.474798 -2.16292,-0.890034 z m 2.16283,0.890195 c 9.5e-5,2.6e-5 1.55e-4,-4.5e-5 3.06e-4,0 -6.8e-5,-1.7e-4 9.9e-5,-3.26e-4 -1.51e-4,-8.04e-4 z m 4.054508,-0.259257 v 8.02e-4 c -0.464315,0.178077 -0.946781,0.301808 -1.43664,0.372139 h -3.96e-4 c -0.106105,0.818327 -0.390349,1.604178 -0.844973,2.270951 l 1.51e-4,1.7e-4 c 1.543891,-0.378789 2.041326,-0.692722 2.264469,-2.381757 0.0088,-0.08696 0.0147,-0.174196 0.01759,-0.261556 l 1.55e-4,-1.71e-4 c -2.94e-4,-1.77e-4 -1.83e-4,-3.59e-4 -3.02e-4,-5.94e-4 z m -1.549143,0.26622 c -8e-6,1.04e-4 1.9e-5,1.7e-4 0,3.25e-4 9.9e-5,6.7e-5 1.58e-4,1.02e-4 3.96e-4,1.7e-4 -6.7e-5,-1.7e-4 -1.54e-4,-3.25e-4 -3.96e-4,-8.03e-4 z m -2.382443,0.02057 c -1.51e-4,1.04e-4 -3.98e-4,1.7e-4 -7.95e-4,3.25e-4 5.29e-4,2.65e-4 7.27e-4,-2.97e-4 7.95e-4,-3.25e-4 z m 0.0063,0.0018 c 4e-5,1.7e-4 3.97e-4,10e-4 -1.5e-4,8.04e-4 h -1.55e-4 l -0.571142,2.335118 v 1.6e-4 h 1.51e-4 c 0.666876,0.14704 1.366734,0.16812 2.043494,0.0509 0.477524,-0.662287 0.777181,-1.456359 0.889743,-2.28628 v -1.71e-4 c -1.5e-4,-1.69e-4 -3.97e-4,-3.25e-4 -0.0012,-8.03e-4 -0.785866,0.09816 -1.587804,0.06254 -2.361147,-0.09972 z m 1.472171,2.386942 c -8.8e-5,1.1e-4 8.7e-5,1.7e-4 -1.55e-4,3.3e-4 9.5e-5,-3e-5 1.55e-4,-1.8e-4 3.06e-4,-1.8e-4 l 1.54e-4,-1.7e-4 c -9.9e-5,2e-5 -1.54e-4,-1e-5 -3.05e-4,0 z m 1.01592,-2.304058 c -3.6e-5,3.26e-4 -3.1e-4,8.02e-4 -3.97e-4,8.02e-4 l -1.59e-4,1.7e-4 -1.48e-4,1.71e-4 c 1.48e-4,-2.9e-5 3.98e-4,3.4e-5 3.98e-4,0 4.8e-5,-3.25e-4 -9.5e-5,-8.03e-4 1.51e-4,-0.0011 z m -6.105335,0.377937 v 1.71e-4 c 9.9e-5,1.01e-4 1.55e-4,1.7e-4 3.97e-4,3.24e-4 l -1.55e-4,-8.02e-4 z m 3.97e-4,8.03e-4 c 0.210401,0.823964 0.688316,1.554748 1.358758,2.077678 -0.123012,-0.30534 -0.212855,-0.620527 -0.273636,-0.940331 -8e-5,-1.71e-4 -1.03e-4,-3.26e-4 -1.55e-4,-8.03e-4 -1.55e-4,0 -3.97e-4,1.02e-4 -3.97e-4,0 v -1.7e-4 c -9.9e-5,-1.02e-4 -1.51e-4,-1.7e-4 -3.05e-4,-3.25e-4 -1e-4,-1.03e-4 -1.51e-4,-1.71e-4 -3.97e-4,-3.26e-4 -0.426243,-0.311309 -0.796003,-0.692079 -1.083821,-1.135844 z m 1.055144,0.9641 c -1.51e-4,5.7e-5 -1.51e-4,6e-6 -3.97e-4,1.7e-4 1.6e-5,1.05e-4 -2e-5,1.71e-4 0,3.25e-4 2.4e-5,-1.7e-4 1.51e-4,-3.25e-4 3.97e-4,-8.02e-4 z m 0.137654,0.100468 c 1.5e-4,1.7e-4 1.5e-4,3.26e-4 3.05e-4,8.03e-4 -3.5e-5,-9.9e-5 1.51e-4,-3.25e-4 0,-3.25e-4 -1.03e-4,-1e-4 -1.51e-4,-1.7e-4 -3.05e-4,-3.25e-4 z m 0.03513,0.171937 c -8.3e-5,1.03e-4 -1.51e-4,1.71e-4 -3.97e-4,1.71e-4 0.07176,0.334802 0.176918,0.663492 0.320078,0.979622 1.51e-4,1.7e-4 7.95e-4,3.2e-4 7.95e-4,8.1e-4 3.97e-4,3.2e-4 -10e-5,8e-4 1.5e-4,0.001 v 1.7e-4 c 5.2e-5,1e-4 -2.3e-5,1.7e-4 0,3.2e-4 1e-4,-5e-5 1.55e-4,-1.6e-4 3.1e-4,-1.6e-4 v -1.7e-4 h 1.51e-4 c 2.4e-5,1e-4 1.03e-4,1.7e-4 1.51e-4,4.7e-4 1.54e-4,3.3e-4 3.97e-4,10e-4 7.93e-4,10e-4 0.349042,0.23909 0.735194,0.41881 1.142839,0.5319 h 1.55e-4 l 1.5e-4,-1.6e-4 c 4.8e-5,-10e-5 1.04e-4,-3.2e-4 3.97e-4,-8.1e-4 l 0.192418,-0.78579 c -0.596216,-0.14645 -1.160466,-0.39278 -1.658133,-0.728723 z m 1.658109,0.728733 h 1.54e-4 v -8.1e-4 z m 3.799668,-0.4885 -3.05e-4,3.25e-4 c 3.6e-4,1.03e-4 3e-4,-3.2e-4 3.05e-4,-3.25e-4 z m -0.0092,0.01178 c -0.470687,0.26844 -0.981043,0.44802 -1.505841,0.54633 -0.004,0.001 -0.0083,0.002 -0.01254,0.003 l 1.59e-4,1.7e-4 c 1.5e-4,-3.2e-4 9.1e-5,-1e-4 -3.98e-4,1.7e-4 H 86.7109 c -0.213811,0.2892 -0.460622,0.55408 -0.741913,0.78524 0.887046,-0.16518 1.687574,-0.63764 2.261038,-1.334446 -9.5e-5,-6.3e-5 -1.5e-4,-9.8e-5 -3.97e-4,-1.7e-4 z m -2.260709,1.33455 -0.0012,1.7e-4 c 1.55e-4,1e-4 3.06e-4,-9e-5 3.97e-4,1.8e-4 1.59e-4,-1.1e-4 3.1e-4,-1.8e-4 3.97e-4,-3.3e-4 z m -1.400202,-0.82726 -0.193164,0.78917 c 1.55e-4,7e-5 9.5e-5,1e-4 7.94e-4,4.8e-4 7.94e-4,1.7e-4 1.55e-4,8e-4 7.94e-4,0.001 0.44118,0.10346 0.897188,0.12796 1.346908,0.0724 h 1.54e-4 l 0.0016,-1.7e-4 c 7.95e-4,-1.6e-4 0.0016,-3.3e-4 0.0024,-8e-4 h 1.55e-4 c 9.1e-5,0 1.51e-4,-1e-4 3.05e-4,-1.8e-4 1.51e-4,-9e-5 1.51e-4,-3.2e-4 3.98e-4,-8e-4 6.46e-4,-8e-5 -3.66e-4,6e-4 -4.89e-4,8e-4 1.55e-4,-7e-5 7.95e-4,-1.7e-4 7.95e-4,-3.2e-4 0.3045,-0.24789 0.597021,-0.52494 0.806323,-0.78942 l -1.59e-4,-1.7e-4 c -0.654306,0.0977 -1.325315,0.0697 -1.966611,-0.0719 z m -1.471816,0.21923 c -4e-6,1e-4 -8e-6,1.8e-4 0,3.3e-4 4e-6,-8e-5 3.97e-4,-1e-4 3.97e-4,-1.8e-4 -9.8e-5,-6e-5 -3.41e-4,-1.3e-4 -3.97e-4,-1.5e-4 z" />
        </g>
        <g
           id="g4614">
          <path
             id="path4591"
             style="font-style:normal;font-variant:normal;font-weight:bold;font-stretch:normal;font-size:12.21123791px;line-height:1.25;font-family:Roboto;-inkscape-font-specification:'Roboto Bold';letter-spacing:0px;word-spacing:0px;fill:url(#linearGradient4613);fill-opacity:1;stroke:none;stroke-width:0.16299576px;stroke-linecap:butt;stroke-linejoin:miter;stroke-opacity:1"
             d="m 64.76863,103.62055 v 1.58307 h 1.107562 v 1.2617 H 64.76863 v 3.21376 q 0,0.35708 0.137697,0.51181 0.137697,0.15474 0.526841,0.15474 0.287367,0 0.508879,-0.0416 v 1.30335 q -0.508879,0.15475 -1.047694,0.15475 -1.819994,0 -1.855915,-1.82709 v -3.46966 H 62.09252 v -1.2617 h 0.945918 v -1.58307 z" />
          <path
             id="path4593"
             style="font-style:normal;font-variant:normal;font-weight:bold;font-stretch:normal;font-size:12.21123791px;line-height:1.25;font-family:Roboto;-inkscape-font-specification:'Roboto Bold';letter-spacing:0px;word-spacing:0px;fill:url(#linearGradient4615);fill-opacity:1;stroke:none;stroke-width:0.16299576px;stroke-linecap:butt;stroke-linejoin:miter;stroke-opacity:1"
             d="m 69.821508,111.76207 q -1.424864,0 -2.322887,-0.86891 -0.892037,-0.86891 -0.892037,-2.3151 v -0.16663 q 0,-0.97008 0.37717,-1.73186 0.37717,-0.76773 1.065654,-1.17838 0.694473,-0.4166 1.580522,-0.4166 1.329074,0 2.089401,0.8332 0.766314,0.8332 0.766314,2.3627 v 0.70227 h -4.124922 q 0.08382,0.63085 0.502894,1.01174 0.425064,0.38089 1.071641,0.38089 0.999799,0 1.56256,-0.72012 l 0.85013,0.94627 q -0.389144,0.54753 -1.053682,0.857 -0.664537,0.30353 -1.472758,0.30353 z m -0.197565,-5.28485 q -0.514867,0 -0.838155,0.34519 -0.317301,0.34517 -0.407104,0.98793 h 2.406702 v -0.13688 q -0.01198,-0.57134 -0.311315,-0.88081 -0.299341,-0.31543 -0.850128,-0.31543 z" />
          <path
             id="path4595"
             style="font-style:normal;font-variant:normal;font-weight:bold;font-stretch:normal;font-size:12.21123791px;line-height:1.25;font-family:Roboto;-inkscape-font-specification:'Roboto Bold';letter-spacing:0px;word-spacing:0px;fill:url(#linearGradient4617);fill-opacity:1;stroke:none;stroke-width:0.16299576px;stroke-linecap:butt;stroke-linejoin:miter;stroke-opacity:1"
             d="m 76.16754,110.37539 q 0.478946,0 0.778287,-0.26186 0.299341,-0.26187 0.311315,-0.69631 h 1.622428 q -0.006,0.65464 -0.359209,1.20217 -0.353222,0.54158 -0.969865,0.8451 -0.610656,0.29758 -1.353022,0.29758 -1.388943,0 -2.191177,-0.87486 -0.802234,-0.88081 -0.802234,-2.42817 v -0.11308 q 0,-1.48785 0.796247,-2.3746 0.796248,-0.88677 2.18519,-0.88677 1.215325,0 1.945718,0.69036 0.736378,0.68441 0.748352,1.82709 h -1.622428 q -0.01197,-0.49992 -0.311315,-0.80939 -0.299341,-0.31543 -0.79026,-0.31543 -0.60467,0 -0.915985,0.44041 -0.305327,0.43445 -0.305327,1.41643 v 0.17854 q 0,0.99388 0.305327,1.42834 0.305329,0.43445 0.927958,0.43445 z" />
          <path
             id="path4597"
             style="font-style:normal;font-variant:normal;font-weight:bold;font-stretch:normal;font-size:12.21123791px;line-height:1.25;font-family:Roboto;-inkscape-font-specification:'Roboto Bold';letter-spacing:0px;word-spacing:0px;fill:url(#linearGradient4619);fill-opacity:1;stroke:none;stroke-width:0.16299576px;stroke-linecap:butt;stroke-linejoin:miter;stroke-opacity:1"
             d="m 81.555681,105.90589 q 0.688485,-0.8213 1.730192,-0.8213 2.107361,0 2.137295,2.43412 v 4.12433 h -1.730192 v -4.07671 q 0,-0.55348 -0.239473,-0.81534 -0.239472,-0.26782 -0.796247,-0.26782 -0.760327,0 -1.101575,0.58324 v 4.57663 h -1.730192 v -9.14135 h 1.730192 z" />
          <path
             id="path4599"
             style="font-style:normal;font-variant:normal;font-weight:bold;font-stretch:normal;font-size:12.21123791px;line-height:1.25;font-family:Roboto;-inkscape-font-specification:'Roboto Bold';letter-spacing:0px;word-spacing:0px;fill:url(#linearGradient4621);fill-opacity:1;stroke:none;stroke-width:0.16299576px;stroke-linecap:butt;stroke-linejoin:miter;stroke-opacity:1"
             d="m 90.494006,111.64304 q -0.119737,-0.23211 -0.173618,-0.57729 -0.628616,0.69632 -1.634402,0.69632 -0.951906,0 -1.580522,-0.54753 -0.622629,-0.54754 -0.622629,-1.38073 0,-1.02364 0.760326,-1.57117 0.766313,-0.54752 2.209138,-0.55348 h 0.796247 v -0.36898 q 0,-0.44636 -0.233486,-0.71418 -0.227499,-0.26781 -0.724406,-0.26781 -0.437038,0 -0.688484,0.2083 -0.24546,0.2083 -0.24546,0.57134 h -1.730191 q 0,-0.55944 0.347236,-1.03555 0.347235,-0.47611 0.981839,-0.74392 0.634603,-0.27377 1.424863,-0.27377 1.197365,0 1.897822,0.6011 0.706446,0.59514 0.706446,1.67829 v 2.79121 q 0.006,0.91652 0.257433,1.38667 v 0.10118 z m -1.43085,-1.19624 q 0.383156,0 0.706445,-0.16664 0.323288,-0.17258 0.478945,-0.45825 v -1.10696 h -0.646577 q -1.29914,0 -1.382956,0.89271 l -0.006,0.10117 q 0,0.32138 0.2275,0.52967 0.227499,0.2083 0.62263,0.2083 z" />
          <path
             id="path4601"
             style="font-style:normal;font-variant:normal;font-weight:bold;font-stretch:normal;font-size:12.21123791px;line-height:1.25;font-family:Roboto;-inkscape-font-specification:'Roboto Bold';letter-spacing:0px;word-spacing:0px;fill:url(#linearGradient4623);fill-opacity:1;stroke:none;stroke-width:0.16299576px;stroke-linecap:butt;stroke-linejoin:miter;stroke-opacity:1"
             d="m 96.834051,109.86356 q 0,-0.31542 -0.317301,-0.49395 -0.311315,-0.1845 -1.005786,-0.32733 -2.310913,-0.48207 -2.310913,-1.95207 0,-0.85699 0.712431,-1.42833 0.718419,-0.57729 1.873876,-0.57729 1.233285,0 1.969664,0.57729 0.742367,0.57729 0.742367,1.49975 h -1.730192 q 0,-0.36898 -0.239473,-0.60704 -0.239473,-0.24401 -0.748353,-0.24401 -0.437038,0 -0.676511,0.19639 -0.239473,0.19641 -0.239473,0.49993 0,0.28567 0.269407,0.4642 0.275394,0.1726 0.921971,0.30353 0.646576,0.12497 1.089601,0.28566 1.370983,0.49992 1.370983,1.73186 0,0.88081 -0.760327,1.42834 -0.760327,0.54158 -1.963678,0.54158 -0.814207,0 -1.44881,-0.28567 -0.628617,-0.29163 -0.987826,-0.79154 -0.35921,-0.50587 -0.35921,-1.08911 h 1.64039 q 0.02395,0.45827 0.341249,0.70227 0.317301,0.24401 0.850128,0.24401 0.496906,0 0.748353,-0.1845 0.257433,-0.19044 0.257433,-0.49397 z" />
          <path
             id="path4605"
             style="font-style:normal;font-variant:normal;font-weight:bold;font-stretch:normal;font-size:12.21123791px;line-height:1.25;font-family:Roboto;-inkscape-font-specification:'Roboto Bold';letter-spacing:0px;word-spacing:0px;fill:url(#linearGradient4627);fill-opacity:1;stroke:none;stroke-width:0.16299576px;stroke-linecap:butt;stroke-linejoin:miter;stroke-opacity:1"
             d="m 110.09951,111.64304 h -1.73618 v -9.14135 h 1.73618 z" />
        </g>
      </g>
    </g>
  </g>
</svg>
