<?xml version="1.0" encoding="UTF-8" standalone="no"?>
<svg
   xmlns:dc="http://purl.org/dc/elements/1.1/"
   xmlns:cc="http://creativecommons.org/ns#"
   xmlns:rdf="http://www.w3.org/1999/02/22-rdf-syntax-ns#"
   xmlns:svg="http://www.w3.org/2000/svg"
   xmlns="http://www.w3.org/2000/svg"
   id="svg2335"
   version="1.1"
   viewBox="0 0 9.2604165 7.9375008"
   height="30.000008"
   width="35">
  <defs
     id="defs2329" />
  <metadata
     id="metadata2332">
    <rdf:RDF>
      <cc:Work
         rdf:about="">
        <dc:format>image/svg+xml</dc:format>
        <dc:type
           rdf:resource="http://purl.org/dc/dcmitype/StillImage" />
        <dc:title></dc:title>
      </cc:Work>
    </rdf:RDF>
  </metadata>
  <g
     transform="translate(-37.677813,-280.13058)"
     id="layer1">
    <g
       transform="matrix(0.5331157,0,0,0.52988628,17.591179,135.42459)"
       id="g4664">
      <ellipse
         style="fill:none;fill-opacity:1;stroke:#990099;stroke-width:1.28105104;stroke-miterlimit:10;stroke-dasharray:none;stroke-opacity:1"
         cx="46.783222"
         cy="282.10483"
         id="path4763"
         rx="3.8785145"
         ry="3.8513932" />
      <ellipse
         style="fill:none;fill-opacity:1;stroke:#990099;stroke-width:0.73203593;stroke-linecap:round;stroke-linejoin:bevel;stroke-miterlimit:10;stroke-dasharray:5.8562876, 5.8562876;stroke-dashoffset:0;stroke-opacity:1"
         id="path4818"
         cx="-221.35571"
         cy="182.41064"
         transform="matrix(0.50315585,-0.86419569,0.86723955,0.49789112,0,0)"
         rx="5.5987554"
         ry="5.6183925" />
      <g
         aria-label="t"
         transform="matrix(-0.4295116,-0.81986058,0.82563396,-0.42650818,10.836198,18.210612)"
         style="font-style:normal;font-variant:normal;font-weight:normal;font-stretch:normal;font-size:7.89323807px;line-height:1.25;font-family:Roboto;-inkscape-font-specification:Roboto;letter-spacing:0px;word-spacing:0px;fill:#3f51b5;fill-opacity:1;stroke:none;stroke-width:0.19733095"
         id="text4834">
        <path
           d="m -271.23146,-108.58982 v 1.02519 h 0.71301 v 0.81708 h -0.71301 v 2.08122 q 0,0.23125 0.0886,0.33145 0.0886,0.10021 0.33916,0.10021 0.185,0 0.3276,-0.027 v 0.84406 q -0.3276,0.1002 -0.67447,0.1002 -1.17165,0 -1.19478,-1.18321 v -2.24695 h -0.60895 v -0.81708 h 0.60895 v -1.02519 z"
           style="font-style:normal;font-variant:normal;font-weight:bold;font-stretch:normal;font-family:Roboto;-inkscape-font-specification:'Roboto Bold';fill:#3f51b5;fill-opacity:1;stroke-width:0.19733095"
           id="path4747" />
      </g>
      <g
         aria-label="a"
         transform="matrix(0.93067271,0,0,0.92416479,10.836198,18.210612)"
         style="font-style:normal;font-variant:normal;font-weight:normal;font-stretch:normal;font-size:7.89323807px;line-height:1.25;font-family:Roboto;-inkscape-font-specification:Roboto;letter-spacing:0px;word-spacing:0px;fill:#3f51b5;fill-opacity:1;stroke:none;stroke-width:0.19733095"
         id="text4838">
        <path
           d="m 39.217738,280.04022 q -0.07708,-0.15031 -0.111769,-0.37385 -0.404683,0.45093 -1.052175,0.45093 -0.612805,0 -1.017488,-0.35457 -0.400828,-0.35458 -0.400828,-0.89416 0,-0.66291 0.489473,-1.01749 0.493328,-0.35458 1.422171,-0.35843 h 0.512598 v -0.23896 q 0,-0.28906 -0.150311,-0.46249 -0.146457,-0.17344 -0.466349,-0.17344 -0.28135,0 -0.443223,0.1349 -0.158019,0.13489 -0.158019,0.36999 h -1.113841 q 0,-0.36228 0.223539,-0.67061 0.223539,-0.30833 0.632076,-0.48177 0.408536,-0.17729 0.91728,-0.17729 0.770824,0 1.221756,0.38927 0.454786,0.38541 0.454786,1.08686 v 1.80758 q 0.0039,0.59354 0.165728,0.89801 v 0.0655 z m -0.921134,-0.77468 q 0.246663,0 0.454786,-0.10791 0.208122,-0.11177 0.30833,-0.29677 V 278.144 h -0.416245 q -0.836344,0 -0.890302,0.57811 l -0.0039,0.0655 q 0,0.20813 0.146456,0.34302 0.146457,0.13489 0.400829,0.13489 z"
           style="font-style:normal;font-variant:normal;font-weight:bold;font-stretch:normal;font-family:Roboto;-inkscape-font-specification:'Roboto Bold';fill:#3f51b5;fill-opacity:1;stroke-width:0.19733095"
           id="path4744" />
      </g>
      <g
         aria-label="s"
         transform="matrix(-0.55604037,0.74108608,-0.74630473,-0.55215217,10.836198,18.210612)"
         style="font-style:normal;font-variant:normal;font-weight:normal;font-stretch:normal;font-size:7.89323807px;line-height:1.25;font-family:Roboto;-inkscape-font-specification:Roboto;letter-spacing:0px;word-spacing:0px;fill:#3f51b5;fill-opacity:1;stroke:none;stroke-width:0.19733095"
         id="text4842">
        <path
           d="m 205.79838,-208.44915 q 0,-0.20427 -0.20427,-0.31989 -0.20041,-0.11948 -0.64749,-0.21198 -1.48769,-0.31218 -1.48769,-1.26415 0,-0.55499 0.45864,-0.92499 0.4625,-0.37385 1.20634,-0.37385 0.79395,0 1.26801,0.37385 0.47791,0.37385 0.47791,0.97124 h -1.11384 q 0,-0.23896 -0.15417,-0.39312 -0.15416,-0.15802 -0.48176,-0.15802 -0.28135,0 -0.43552,0.12719 -0.15416,0.12718 -0.15416,0.32374 0,0.185 0.17343,0.30062 0.17729,0.11177 0.59354,0.19656 0.41624,0.0809 0.70145,0.185 0.88259,0.32375 0.88259,1.12155 0,0.57041 -0.48947,0.92499 -0.48948,0.35072 -1.26415,0.35072 -0.52416,0 -0.9327,-0.18499 -0.40468,-0.18886 -0.63593,-0.5126 -0.23125,-0.3276 -0.23125,-0.70531 h 1.05603 q 0.0154,0.29677 0.21969,0.45479 0.20426,0.15802 0.54728,0.15802 0.31989,0 0.48177,-0.11948 0.16572,-0.12333 0.16572,-0.31989 z"
           style="font-style:normal;font-variant:normal;font-weight:bold;font-stretch:normal;font-family:Roboto;-inkscape-font-specification:'Roboto Bold';fill:#3f51b5;fill-opacity:1;stroke-width:0.19733095"
           id="path4750" />
      </g>
    </g>
  </g>
</svg>
