<?xml version="1.0" encoding="UTF-8" standalone="no"?>
<svg
   xmlns:dc="http://purl.org/dc/elements/1.1/"
   xmlns:cc="http://creativecommons.org/ns#"
   xmlns:rdf="http://www.w3.org/1999/02/22-rdf-syntax-ns#"
   xmlns:svg="http://www.w3.org/2000/svg"
   xmlns="http://www.w3.org/2000/svg"
   xmlns:xlink="http://www.w3.org/1999/xlink"
   height="300"
   width="300"
   xml:space="preserve"
   viewBox="0 0 300 300"
   y="0px"
   x="0px"
   id="Capa_1"
   version="1.1"><metadata
     id="metadata57"><rdf:RDF><cc:Work
         rdf:about=""><dc:format>image/svg+xml</dc:format><dc:type
           rdf:resource="http://purl.org/dc/dcmitype/StillImage" /><dc:title></dc:title></cc:Work></rdf:RDF></metadata><defs
     id="defs55"><linearGradient
       id="linearGradient924"><stop
         id="stop920"
         offset="0"
         style="stop-color:#000000;stop-opacity:1;" /><stop
         id="stop922"
         offset="1"
         style="stop-color:#eeb34b;stop-opacity:1" /></linearGradient><linearGradient
       gradientUnits="userSpaceOnUse"
       y2="240.49429"
       x2="58.03088"
       y1="261.03751"
       x1="45.867188"
       id="linearGradient926"
       xlink:href="#linearGradient924" /></defs><g
     transform="scale(4.6875)"
     id="Layer_1_24_" /><g
     transform="translate(0,236)"
     id="g22" /><g
     transform="translate(0,236)"
     id="g24" /><g
     transform="translate(0,236)"
     id="g26" /><g
     transform="translate(0,236)"
     id="g28" /><g
     transform="translate(0,236)"
     id="g30" /><g
     transform="translate(0,236)"
     id="g32" /><g
     transform="translate(0,236)"
     id="g34" /><g
     transform="translate(0,236)"
     id="g36" /><g
     transform="translate(0,236)"
     id="g38" /><g
     transform="translate(0,236)"
     id="g40" /><g
     transform="translate(0,236)"
     id="g42" /><g
     transform="translate(0,236)"
     id="g44" /><g
     transform="translate(0,236)"
     id="g46" /><g
     transform="translate(0,236)"
     id="g48" /><g
     transform="translate(0,236)"
     id="g50" /><g
     id="g4532"><g
       id="g4522"><path
         style="fill:#0980fb;fill-opacity:1;fill-rule:evenodd;stroke-width:4.6875"
         id="path2"
         d="m 51.5625,262.5 c -18.09375,0 -32.8125,14.72344 -32.8125,32.8125 0,2.59219 2.1,4.6875 4.6875,4.6875 h 56.25 c 2.5875,0 4.6875,-2.09531 4.6875,-4.6875 C 84.375,277.22344 69.65625,262.5 51.5625,262.5 Z m -22.964063,28.125 c 2.175001,-10.68281 11.648438,-18.75 22.964063,-18.75 11.315625,0 20.789062,8.06719 22.964063,18.75 z" /><path
         style="fill:url(#linearGradient926);fill-opacity:1;fill-rule:evenodd;stroke-width:4.6875"
         id="path4"
         d="m 45.867187,261.0375 c 1.959375,0.97969 4.078125,1.46719 6.1875,1.46719 1.898438,0 3.796876,-0.39375 5.568751,-1.19532 3.703125,-1.65937 6.346875,-4.81406 7.439062,-8.87812 1.74375,-6.45469 -0.904687,-12.98906 -3.4125,-17.9625 -0.271875,-0.52969 -0.867187,-1.45781 -3.360938,-5.2125 -0.585937,-0.87656 -1.073437,-1.61719 -1.270312,-1.91719 -0.454688,-0.7875 -1.139063,-1.45312 -2.015625,-1.875 -2.301562,-1.12031 -5.085937,-0.17812 -6.24375,2.11875 -0.03281,0.0703 -0.06562,0.13594 -0.09844,0.20156 -0.698437,1.44375 -1.589062,2.55938 -2.9625,3.71251 C 41.892187,234.73594 37.5,239.40469 37.5,246.9375 c 0,6.11719 3.20625,11.52187 8.367187,14.1 z m 5.887501,-22.35937 c 0.337499,-0.28125 0.65625,-0.56719 0.965624,-0.85782 0.276563,0.42188 0.482813,0.73594 0.567188,0.88125 1.617188,3.20625 3.65625,7.86563 2.732813,11.2875 -0.450001,1.65938 -1.4625,2.42813 -2.23125,2.77032 -1.157813,0.51562 -2.55,0.47812 -3.73125,-0.10782 C 48.09375,251.66719 46.875,249.48281 46.875,246.9375 c 0,-2.98125 1.36875,-5.29219 4.879688,-8.25937 z" /></g><path
       d="M 299.93906,32.517187 C 299.91094,32.104688 299.83125,31.70625 299.7,31.3125 c -0.0516,-0.15 -0.0891,-0.295313 -0.15938,-0.440625 C 299.31094,30.375 299.025,29.901562 298.62187,29.498438 L 270.49687,1.3734375 C 270.09375,0.9703125 269.61563,0.6796875 269.11875,0.45 268.97812,0.384375 268.84219,0.346875 268.69688,0.3 268.29375,0.1640625 267.89062,0.0796875 267.46406,0.05625 267.37031,0.0515625 267.28594,0 267.1875,0 H 196.875 c -12.92344,0 -23.4375,10.514063 -23.4375,23.4375 v 112.5 c 0,12.92344 10.51406,23.4375 23.4375,23.4375 h 42.1875 v 18.75 c 0,7.75312 6.30938,14.0625 14.0625,14.0625 h 4.6875 c 2.58281,0 4.6875,2.10469 4.6875,4.6875 0,2.58281 -2.10469,4.6875 -4.6875,4.6875 h -28.125 c -7.75312,0 -14.0625,6.30938 -14.0625,14.0625 0,7.75312 6.30938,14.0625 14.0625,14.0625 h 4.6875 c 2.58281,0 4.6875,2.1 4.6875,4.6875 v 18.75 c 0,2.5875 -2.10469,4.6875 -4.6875,4.6875 h -37.5 v -27.36563 l 4.44844,-13.34062 c 0.47812,-1.42969 0.23437,-3 -0.64688,-4.22344 -0.88125,-1.22344 -2.29687,-1.94531 -3.80156,-1.94531 h -32.8125 v -56.25 c 0,-1.24219 -0.49219,-2.4375 -1.37344,-3.31406 L 64.251563,52.935937 C 62.90625,51.590625 60.895312,51.1875 59.142188,51.91875 57.39375,52.645313 56.25,54.35625 56.25,56.25 V 84.375 H 46.875 V 0 H 37.5 v 84.375 c -1.44375,0 -2.807813,0.665625 -3.69375,1.804688 C 32.920313,87.31875 32.601562,88.8 32.953125,90.201562 l 3.295313,13.176558 c -1.96875,0.55782 -3.435938,2.29219 -3.435938,4.43438 v 45.76875 l -20.845312,41.69062 c -1.74375,3.4875 -1.89375,7.41094 -0.618751,10.97813 H 4.6875 C 2.1,206.25 0,208.35 0,210.9375 V 300 H 9.375 V 215.625 H 24.54375 78.576563 93.75 V 300 h 9.375 v -89.0625 c 0,-2.5875 -2.1,-4.6875 -4.6875,-4.6875 h -6.660938 c 1.279688,-3.56719 1.125,-7.49063 -0.614062,-10.97813 l -20.85,-41.69062 V 107.8125 c 0,-2.14219 -1.467188,-3.87656 -3.435938,-4.43438 L 70.171875,90.201562 C 70.523437,88.8 70.204688,87.31875 69.31875,86.179688 68.432812,85.040625 67.06875,84.375 65.625,84.375 V 67.565625 l 89.0625,89.062495 V 210.9375 H 131.25 c -2.5875,0 -4.6875,2.1 -4.6875,4.6875 v 70.3125 c 0,7.75312 6.30937,14.0625 14.0625,14.0625 h 42.1875 c 7.75312,0 14.0625,-6.30938 14.0625,-14.0625 v -18.75 h 37.5 c 7.75312,0 14.0625,-6.30938 14.0625,-14.0625 v -18.75 c 0,-7.75312 -6.30938,-14.0625 -14.0625,-14.0625 h -4.6875 c -2.58281,0 -4.6875,-2.10469 -4.6875,-4.6875 0,-2.58281 2.10469,-4.6875 4.6875,-4.6875 h 28.125 c 7.75312,0 14.0625,-6.30938 14.0625,-14.0625 0,-7.75312 -6.30938,-14.0625 -14.0625,-14.0625 h -4.6875 c -2.58281,0 -4.6875,-2.10469 -4.6875,-4.6875 v -18.75 h 28.125 C 289.48594,159.375 300,148.86094 300,135.9375 V 32.8125 c 0,-0.103125 -0.0516,-0.192188 -0.0609,-0.295313 z M 41.695312,156.78281 C 42.01875,156.13594 42.1875,155.41406 42.1875,154.6875 V 112.5 h 18.75 v 42.1875 c 0,0.72656 0.16875,1.44844 0.492187,2.09531 L 67.415625,168.75 H 35.709375 Z M 57.276562,103.125 H 45.848438 l -2.34375,-9.375 h 16.115625 z m 25.29375,100.89844 c -0.417187,0.67031 -1.63125,2.22656 -3.989062,2.22656 h -54.0375 c -2.357813,0 -3.576563,-1.55625 -3.989063,-2.22656 -0.4125,-0.67032 -1.260937,-2.44688 -0.201562,-4.56094 l 10.66875,-21.3375 h 41.08125 l 10.66875,21.34219 c 1.054688,2.10937 0.210938,3.89062 -0.201563,4.55625 z M 187.5,285.9375 c 0,2.5875 -2.10469,4.6875 -4.6875,4.6875 H 140.625 c -2.58281,0 -4.6875,-2.1 -4.6875,-4.6875 V 281.25 h 9.375 v -9.375 h -9.375 V 262.5 h 9.375 v -9.375 h -9.375 v -9.375 h 9.375 v -9.375 h -9.375 v -14.0625 h 18.75 v 9.375 h 9.375 v -9.375 h 26.31094 l -2.63438,7.89375 c -0.15937,0.47813 -0.23906,0.97969 -0.23906,1.48125 v 28.125 h -5.55 c -1.94063,-5.44219 -7.09688,-9.375 -13.2,-9.375 -7.75312,0 -14.0625,6.30938 -14.0625,14.0625 0,7.75312 6.30938,14.0625 14.0625,14.0625 6.10312,0 11.25937,-3.93281 13.2,-9.375 h 5.55 z M 173.4375,262.5 c 0,2.5875 -2.10469,4.6875 -4.6875,4.6875 -2.58281,0 -4.6875,-2.1 -4.6875,-4.6875 0,-2.5875 2.10469,-4.6875 4.6875,-4.6875 2.58281,0 4.6875,2.1 4.6875,4.6875 z M 283.99687,28.125 H 271.875 V 16.003125 Z M 276.5625,150 H 196.875 c -7.75312,0 -14.0625,-6.30938 -14.0625,-14.0625 v -112.5 c 0,-7.753125 6.30938,-14.0625 14.0625,-14.0625 H 262.5 v 23.4375 c 0,2.5875 2.1,4.6875 4.6875,4.6875 h 23.4375 v 98.4375 c 0,7.75312 -6.30938,14.0625 -14.0625,14.0625 z"
       id="path6"
       style="fill:#04ccff;fill-opacity:1;stroke:none;stroke-width:4.6875" /><g
       id="g4561"
       transform="matrix(0.72112002,0,0,0.64870139,124.88013,-35.2811)"
       style="stroke:#0980fb;stroke-opacity:1"><polyline
         style="clip-rule:evenodd;fill:none;fill-rule:evenodd;stroke:#0980fb;stroke-width:10;stroke-linecap:round;stroke-linejoin:round;stroke-miterlimit:2.61310005;stroke-opacity:1"
         points="    124.218,158.514 94.003,189.829 124.843,221.468   "
         stroke-miterlimit="2.6131"
         id="polyline4555" /><polyline
         style="clip-rule:evenodd;fill:none;fill-rule:evenodd;stroke:#0980fb;stroke-width:10;stroke-linecap:round;stroke-linejoin:round;stroke-miterlimit:2.61310005;stroke-opacity:1"
         points="    185.747,158.514 215.962,189.829 185.122,221.468   "
         stroke-miterlimit="2.6131"
         id="polyline4557" /><line
         style="clip-rule:evenodd;fill:none;fill-rule:evenodd;stroke:#0980fb;stroke-width:10;stroke-linecap:round;stroke-linejoin:round;stroke-miterlimit:2.61310005;stroke-opacity:1"
         stroke-miterlimit="2.6131"
         x1="173.19501"
         x2="139.67"
         y1="144.506"
         y2="235.464"
         id="line4559" /></g></g></svg>