<?xml version="1.0" encoding="UTF-8" standalone="no"?>
<svg
   xmlns:dc="http://purl.org/dc/elements/1.1/"
   xmlns:cc="http://creativecommons.org/ns#"
   xmlns:rdf="http://www.w3.org/1999/02/22-rdf-syntax-ns#"
   xmlns:svg="http://www.w3.org/2000/svg"
   xmlns="http://www.w3.org/2000/svg"
   xml:space="preserve"
   viewBox="0 0 300 300"
   height="300"
   width="300"
   y="0px"
   x="0px"
   id="Capa_1"
   version="1.1"><metadata
     id="metadata43"><rdf:RDF><cc:Work
         rdf:about=""><dc:format>image/svg+xml</dc:format><dc:type
           rdf:resource="http://purl.org/dc/dcmitype/StillImage" /><dc:title></dc:title></cc:Work></rdf:RDF></metadata><defs
     id="defs41" /><g
     transform="translate(0,-655.01001)"
     id="g8" /><g
     transform="translate(0,-655.01001)"
     id="g10" /><g
     transform="translate(0,-655.01001)"
     id="g12" /><g
     transform="translate(0,-655.01001)"
     id="g14" /><g
     transform="translate(0,-655.01001)"
     id="g16" /><g
     transform="translate(0,-655.01001)"
     id="g18" /><g
     transform="translate(0,-655.01001)"
     id="g20" /><g
     transform="translate(0,-655.01001)"
     id="g22" /><g
     transform="translate(0,-655.01001)"
     id="g24" /><g
     transform="translate(0,-655.01001)"
     id="g26" /><g
     transform="translate(0,-655.01001)"
     id="g28" /><g
     transform="translate(0,-655.01001)"
     id="g30" /><g
     transform="translate(0,-655.01001)"
     id="g32" /><g
     transform="translate(0,-655.01001)"
     id="g34" /><g
     transform="translate(0,-655.01001)"
     id="g36" /><g
     id="g4764"><g
       id="g6"
       transform="matrix(0.19008526,0,0,0.18450339,56.524572,123.79761)"
       style="fill:#0980fb;fill-opacity:1"><g
         id="g4"
         style="fill:#0980fb;fill-opacity:1"><path
           d="M 477.504,0 C 349.466,0 245.67,36.48 245.67,81.481 v 649.71 c 0,3.433 -1.762,6.632 -4.671,8.456 -16.395,10.28 -26.165,21.78 -27.578,33.951 -0.118,1.019 -0.199,2.041 -0.199,3.067 V 908.84 h -37.819 c -5.523,0 -10,4.478 -10,10 v 26.169 c 0,5.523 4.477,10 10,10 h 604.203 c 5.521,0 10,-4.477 10,-10 V 918.84 c 0,-5.522 -4.479,-10 -10,-10 h -37.82 V 776.666 c 0,-1.028 -0.08,-2.05 -0.199,-3.067 -1.412,-12.17 -11.182,-23.67 -27.578,-33.951 -2.908,-1.824 -4.67,-5.023 -4.67,-8.456 V 81.481 C 709.339,36.48 605.542,0 477.504,0 Z M 350.221,106.338 c 0,-4.803 3.41,-8.945 8.132,-9.826 29.165,-5.44 61.698,-8.944 96.216,-10.027 5.638,-0.177 10.305,4.361 10.305,10.001 v 46.026 c 0,5.406 -4.302,9.824 -9.705,9.989 -33.307,1.018 -64.777,4.289 -93.168,9.378 -6.139,1.1 -11.778,-3.6 -11.778,-9.837 z m 0,106.878 c 0,-4.803 3.41,-8.945 8.132,-9.826 29.165,-5.439 61.698,-8.944 96.216,-10.027 5.638,-0.177 10.305,4.361 10.305,10.001 v 46.026 c 0,5.406 -4.302,9.824 -9.705,9.989 -33.307,1.017 -64.777,4.289 -93.168,9.378 -6.139,1.101 -11.778,-3.6 -11.778,-9.837 z m 0,106.879 c 0,-4.803 3.41,-8.945 8.132,-9.826 29.165,-5.439 61.698,-8.943 96.216,-10.027 5.638,-0.177 10.305,4.361 10.305,10.001 v 46.026 c 0,5.406 -4.302,9.824 -9.705,9.989 -33.307,1.017 -64.777,4.289 -93.168,9.377 -6.139,1.101 -11.778,-3.6 -11.778,-9.836 z m 0,106.879 c 0,-4.804 3.41,-8.945 8.132,-9.826 29.165,-5.439 61.698,-8.944 96.216,-10.027 5.638,-0.177 10.305,4.361 10.305,10.001 v 46.026 c 0,5.405 -4.302,9.823 -9.705,9.988 -33.307,1.018 -64.777,4.288 -93.168,9.379 -6.139,1.101 -11.778,-3.601 -11.778,-9.838 z m 0,106.879 c 0,-4.804 3.41,-8.945 8.132,-9.826 29.165,-5.439 61.698,-8.944 96.216,-10.027 5.638,-0.177 10.305,4.361 10.305,10.001 v 46.026 c 0,5.406 -4.302,9.824 -9.705,9.989 -33.307,1.018 -64.777,4.288 -93.168,9.378 -6.139,1.101 -11.778,-3.601 -11.778,-9.837 z m -25.262,162.91 c 0,4.487 -2.996,8.405 -7.312,9.631 -13.93,3.955 -26.649,8.417 -37.932,13.304 -6.626,2.871 -14.025,-1.931 -14.025,-9.152 v -44.042 c 0,-3.857 2.228,-7.35 5.701,-9.031 11.791,-5.706 25.455,-10.903 40.673,-15.481 6.421,-1.931 12.896,2.872 12.896,9.577 v 45.194 z m 0,-106.878 c 0,4.487 -2.995,8.405 -7.312,9.63 -13.93,3.956 -26.649,8.418 -37.932,13.305 -6.626,2.87 -14.025,-1.932 -14.025,-9.152 v -44.043 c 0,-3.857 2.228,-7.35 5.701,-9.031 11.791,-5.707 25.455,-10.903 40.673,-15.481 6.421,-1.932 12.896,2.873 12.896,9.577 v 45.195 z m 0,-106.879 c 0,4.487 -2.996,8.405 -7.312,9.631 -13.93,3.956 -26.649,8.416 -37.932,13.305 -6.626,2.87 -14.025,-1.932 -14.025,-9.152 v -44.042 c 0,-3.857 2.228,-7.35 5.701,-9.031 11.791,-5.707 25.455,-10.903 40.673,-15.481 6.421,-1.932 12.896,2.873 12.896,9.577 v 45.193 z m 0,-106.879 c 0,4.487 -2.996,8.405 -7.312,9.63 -13.93,3.956 -26.649,8.417 -37.932,13.305 -6.626,2.869 -14.025,-1.932 -14.025,-9.152 v -44.042 c 0,-3.858 2.228,-7.35 5.701,-9.031 11.791,-5.707 25.455,-10.904 40.673,-15.482 6.421,-1.931 12.896,2.873 12.896,9.577 v 45.195 z m 0,-106.878 c 0,4.487 -2.996,8.405 -7.312,9.631 -13.93,3.956 -26.649,8.416 -37.932,13.304 -6.626,2.87 -14.025,-1.931 -14.025,-9.152 V 238.99 c 0,-3.858 2.228,-7.35 5.701,-9.031 11.791,-5.707 25.455,-10.904 40.673,-15.482 6.421,-1.931 12.896,2.873 12.896,9.577 v 45.195 z m 0,-106.879 c 0,4.487 -2.996,8.405 -7.312,9.63 -13.93,3.956 -26.649,8.417 -37.932,13.304 -6.626,2.871 -14.025,-1.931 -14.025,-9.152 V 132.11 c 0,-3.858 2.228,-7.35 5.701,-9.031 11.791,-5.707 25.455,-10.904 40.673,-15.482 6.421,-1.931 12.896,2.873 12.896,9.577 v 45.196 z m 25.262,524.067 V 640.73 c 0,-4.804 3.41,-8.945 8.132,-9.826 29.165,-5.439 61.698,-8.943 96.216,-10.027 5.638,-0.177 10.305,4.361 10.305,10.001 v 46.026 c 0,5.406 -4.302,9.824 -9.705,9.989 -33.307,1.018 -64.777,4.289 -93.168,9.378 -6.139,1.102 -11.78,-3.598 -11.78,-9.834 z m 178.405,171.551 v 50.853 H 426.383 v -50.853 -55.07 c 0,-4.558 22.888,-8.253 51.121,-8.253 28.233,0 51.122,3.695 51.122,8.253 z m 76.162,-171.551 c 0,6.236 -5.639,10.937 -11.779,9.837 -28.391,-5.091 -59.861,-8.361 -93.168,-9.378 -5.404,-0.165 -9.705,-4.583 -9.705,-9.989 V 630.88 c 0,-5.641 4.668,-10.178 10.307,-10.001 34.516,1.083 67.049,4.587 96.215,10.027 4.721,0.881 8.131,5.021 8.131,9.826 v 45.705 z m 0,-106.878 c 0,6.236 -5.639,10.937 -11.779,9.837 -28.391,-5.091 -59.861,-8.361 -93.168,-9.378 -5.404,-0.165 -9.705,-4.583 -9.705,-9.989 v -46.026 c 0,-5.641 4.668,-10.178 10.307,-10.001 34.516,1.083 67.049,4.587 96.215,10.027 4.721,0.881 8.131,5.021 8.131,9.826 v 45.704 z m 0,-106.88 c 0,6.237 -5.639,10.938 -11.779,9.838 -28.391,-5.091 -59.861,-8.361 -93.168,-9.379 -5.402,-0.164 -9.705,-4.583 -9.705,-9.988 v -46.027 c 0,-5.64 4.668,-10.178 10.307,-10.001 34.516,1.083 67.049,4.588 96.215,10.027 4.721,0.881 8.131,5.021 8.131,9.826 v 45.704 z m 0,-106.879 c 0,6.237 -5.639,10.937 -11.779,9.836 -28.391,-5.089 -59.861,-8.36 -93.168,-9.377 -5.402,-0.165 -9.705,-4.583 -9.705,-9.989 v -46.026 c 0,-5.641 4.668,-10.178 10.307,-10.001 34.516,1.083 67.049,4.587 96.215,10.027 4.721,0.881 8.131,5.022 8.131,9.826 V 365.8 Z m 0,-106.878 c 0,6.237 -5.639,10.938 -11.779,9.837 -28.391,-5.09 -59.861,-8.361 -93.168,-9.378 -5.402,-0.165 -9.705,-4.583 -9.705,-9.989 v -46.026 c 0,-5.641 4.668,-10.178 10.307,-10.001 34.516,1.083 67.049,4.587 96.215,10.027 4.721,0.881 8.131,5.022 8.131,9.826 v 45.704 z m 0,-106.879 c 0,6.237 -5.639,10.937 -11.779,9.837 -28.391,-5.09 -59.861,-8.361 -93.168,-9.378 -5.404,-0.165 -9.705,-4.583 -9.705,-9.989 V 96.487 c 0,-5.64 4.668,-10.178 10.307,-10.001 34.516,1.083 67.049,4.587 96.215,10.027 4.721,0.881 8.131,5.022 8.131,9.826 v 45.704 z m 84.531,558.503 c 0,7.222 -7.4,12.022 -14.025,9.152 -11.283,-4.888 -24.002,-9.35 -37.932,-13.304 -4.316,-1.227 -7.312,-5.145 -7.312,-9.631 v -45.195 c 0,-6.705 6.473,-11.508 12.895,-9.577 15.219,4.578 28.883,9.775 40.674,15.481 3.473,1.682 5.701,5.173 5.701,9.031 v 44.043 z m 0,-106.879 c 0,7.221 -7.4,12.022 -14.025,9.152 -11.283,-4.889 -24.002,-9.35 -37.932,-13.305 -4.316,-1.226 -7.312,-5.144 -7.312,-9.63 v -45.195 c 0,-6.705 6.473,-11.509 12.895,-9.577 15.219,4.578 28.883,9.774 40.674,15.481 3.473,1.682 5.701,5.173 5.701,9.031 v 44.043 z m 0,-106.879 c 0,7.221 -7.4,12.022 -14.025,9.152 -11.283,-4.889 -24.002,-9.349 -37.932,-13.305 -4.316,-1.226 -7.312,-5.144 -7.312,-9.631 V 437.81 c 0,-6.705 6.473,-11.51 12.895,-9.577 15.219,4.578 28.883,9.774 40.674,15.481 3.473,1.682 5.701,5.172 5.701,9.031 v 44.043 z m 0,-106.878 c 0,7.221 -7.4,12.022 -14.025,9.152 -11.283,-4.889 -24.002,-9.35 -37.932,-13.305 -4.316,-1.226 -7.312,-5.144 -7.312,-9.63 v -45.196 c 0,-6.705 6.473,-11.509 12.895,-9.577 15.219,4.578 28.883,9.775 40.674,15.482 3.473,1.681 5.701,5.172 5.701,9.031 v 44.043 z m 0,-106.879 c 0,7.221 -7.4,12.022 -14.025,9.152 -11.283,-4.888 -24.002,-9.348 -37.932,-13.304 -4.316,-1.226 -7.312,-5.144 -7.312,-9.631 v -45.195 c 0,-6.705 6.473,-11.509 12.895,-9.577 15.219,4.578 28.883,9.775 40.674,15.482 3.473,1.681 5.701,5.172 5.701,9.031 v 44.042 z m 0,-106.878 c 0,7.221 -7.4,12.022 -14.025,9.152 -11.283,-4.888 -24.002,-9.349 -37.932,-13.304 -4.316,-1.226 -7.312,-5.144 -7.312,-9.63 v -45.195 c 0,-6.705 6.473,-11.509 12.895,-9.577 15.219,4.578 28.883,9.775 40.674,15.482 3.473,1.681 5.701,5.172 5.701,9.031 v 44.041 z"
           id="path2"
           style="fill:#0980fb;fill-opacity:1" /></g></g><g
       id="g4649"><path
         id="path1100"
         d="m 94.042247,160.41389 a 6.8424357,6.7995536 0 0 1 -6.842435,6.79955 6.8424357,6.7995536 0 0 1 -6.842435,-6.79955 6.8424357,6.7995536 0 0 1 6.842435,-6.79955 6.8424357,6.7995536 0 0 1 6.842435,6.79955 z"
         style="fill:none;fill-opacity:1;stroke:#04ccff;stroke-width:1.95429695;stroke-linecap:round;stroke-linejoin:bevel;stroke-miterlimit:4;stroke-dasharray:none;stroke-dashoffset:0;stroke-opacity:1" /><path
         id="circle1108"
         d="m 75.614065,148.36915 a 9.1232473,9.0660711 0 0 1 -9.123248,9.06607 9.1232473,9.0660711 0 0 1 -9.123247,-9.06607 9.1232473,9.0660711 0 0 1 9.123247,-9.06606 9.1232473,9.0660711 0 0 1 9.123248,9.06606 z"
         style="fill:none;fill-opacity:1;stroke:#04ccff;stroke-width:2.60572934;stroke-linecap:round;stroke-linejoin:bevel;stroke-miterlimit:4;stroke-dasharray:none;stroke-dashoffset:0;stroke-opacity:1" /><path
         id="circle1110"
         d="m 62.222265,125.94407 a 11.40406,11.33259 0 0 1 -11.40406,11.33259 11.40406,11.33259 0 0 1 -11.404059,-11.33259 11.40406,11.33259 0 0 1 11.404059,-11.33259 11.40406,11.33259 0 0 1 11.40406,11.33259 z"
         style="fill:none;fill-opacity:1;stroke:#04ccff;stroke-width:3.25716162;stroke-linecap:round;stroke-linejoin:bevel;stroke-miterlimit:4;stroke-dasharray:none;stroke-dashoffset:0;stroke-opacity:1" /></g><g
       id="g4659"><path
         id="circle1112"
         d="m 198.35759,234.86261 a 6.8424357,6.7995536 0 0 0 6.84244,6.79956 6.8424357,6.7995536 0 0 0 6.84244,-6.79956 6.8424357,6.7995536 0 0 0 -6.84244,-6.79955 6.8424357,6.7995536 0 0 0 -6.84244,6.79955 z"
         style="fill:none;fill-opacity:1;stroke:#04ccff;stroke-width:1.95429695;stroke-linecap:round;stroke-linejoin:bevel;stroke-miterlimit:4;stroke-dasharray:none;stroke-dashoffset:0;stroke-opacity:1" /><path
         id="circle1114"
         d="m 216.78577,222.81787 a 9.1232473,9.0660711 0 0 0 9.12325,9.06608 9.1232473,9.0660711 0 0 0 9.12325,-9.06608 9.1232473,9.0660711 0 0 0 -9.12325,-9.06607 9.1232473,9.0660711 0 0 0 -9.12325,9.06607 z"
         style="fill:none;fill-opacity:1;stroke:#04ccff;stroke-width:2.60572934;stroke-linecap:round;stroke-linejoin:bevel;stroke-miterlimit:4;stroke-dasharray:none;stroke-dashoffset:0;stroke-opacity:1" /><path
         id="circle1116"
         d="m 230.17757,200.39279 a 11.40406,11.33259 0 0 0 11.40406,11.33259 11.40406,11.33259 0 0 0 11.40407,-11.33259 11.40406,11.33259 0 0 0 -11.40407,-11.33259 11.40406,11.33259 0 0 0 -11.40406,11.33259 z"
         style="fill:none;fill-opacity:1;stroke:#04ccff;stroke-width:3.25716162;stroke-linecap:round;stroke-linejoin:bevel;stroke-miterlimit:4;stroke-dasharray:none;stroke-dashoffset:0;stroke-opacity:1" /></g><g
       id="g4654"><path
         id="circle1118"
         d="m 151.92939,112.17953 a 6.8424357,6.7995536 0 0 0 6.84244,6.79956 6.8424357,6.7995536 0 0 0 6.84243,-6.79956 6.8424357,6.7995536 0 0 0 -6.84243,-6.79954 6.8424357,6.7995536 0 0 0 -6.84244,6.79954 z"
         style="fill:none;fill-opacity:1;stroke:#04ccff;stroke-width:1.95429695;stroke-linecap:round;stroke-linejoin:bevel;stroke-miterlimit:4;stroke-dasharray:none;stroke-dashoffset:0;stroke-opacity:1" /><path
         id="circle1120"
         d="m 170.35757,100.1348 a 9.1232473,9.0660711 0 0 0 9.12325,9.06606 9.1232473,9.0660711 0 0 0 9.12324,-9.06606 9.1232473,9.0660711 0 0 0 -9.12324,-9.066079 9.1232473,9.0660711 0 0 0 -9.12325,9.066079 z"
         style="fill:none;fill-opacity:1;stroke:#04ccff;stroke-width:2.60572934;stroke-linecap:round;stroke-linejoin:bevel;stroke-miterlimit:4;stroke-dasharray:none;stroke-dashoffset:0;stroke-opacity:1" /><path
         id="circle1122"
         d="M 183.74937,77.709709 A 11.40406,11.33259 0 0 0 195.15344,89.042298 11.40406,11.33259 0 0 0 206.5575,77.709709 11.40406,11.33259 0 0 0 195.15344,66.37712 11.40406,11.33259 0 0 0 183.74937,77.709709 Z"
         style="fill:none;fill-opacity:1;stroke:#04ccff;stroke-width:3.25716162;stroke-linecap:round;stroke-linejoin:bevel;stroke-miterlimit:4;stroke-dasharray:none;stroke-dashoffset:0;stroke-opacity:1" /></g><g
       id="g4713"><path
         style="fill:#0980fb;fill-opacity:1;fill-rule:nonzero;stroke:none;stroke-width:3.11924362"
         d="M 3.542773e-7,93.003468 C 3.542773e-7,86.109304 3.7784702,80.073241 9.3938062,76.843619 9.7217093,61.670751 22.201565,49.471111 37.548771,49.471111 c 10.117823,0 18.989417,5.302276 23.954457,13.263168 1.829676,-0.53709 3.766789,-0.825352 5.771653,-0.825352 8.713045,0 16.14644,5.444495 19.042993,13.0967 7.959904,2.162803 13.812176,9.401341 13.812176,17.997841 0,10.282862 -8.405819,18.656722 -18.774931,18.656722 H 18.774935 C 8.407727,111.66019 3.542773e-7,103.30729 3.542773e-7,93.003468 Z M 81.269733,80.565652 C 80.491431,73.56943 74.522641,68.127835 67.274881,68.127835 c -3.308194,0 -6.349923,1.133704 -8.753226,3.031475 C 55.803944,62.208453 47.44239,55.690019 37.548771,55.690019 c -12.096942,0 -21.90345,9.745051 -21.90345,21.766178 0,1.168505 0.09266,2.315505 0.271074,3.434137 -5.534822,1.284696 -9.6582662,6.230305 -9.6582662,12.113134 0,6.869216 5.6139172,12.437812 12.5063652,12.437812 h 62.601067 c 6.907074,0 12.506365,-5.582573 12.506365,-12.437812 0,-6.869216 -5.613916,-12.437816 -12.506365,-12.437816 z m 0,0"
         id="Rectangle 1 copy 2" /><g
         style="fill:none;fill-opacity:1;stroke:#04ccff;stroke-opacity:1"
         transform="matrix(0.26399457,0,0,0.2868556,2.4281826,32.830816)"
         id="g4634"><polyline
           id="polyline4628"
           stroke-miterlimit="2.6131"
           points="    124.218,158.514 94.003,189.829 124.843,221.468   "
           style="clip-rule:evenodd;fill:none;fill-opacity:1;fill-rule:evenodd;stroke:#04ccff;stroke-width:10;stroke-linecap:round;stroke-linejoin:round;stroke-miterlimit:2.61310005;stroke-opacity:1" /><polyline
           id="polyline4630"
           stroke-miterlimit="2.6131"
           points="    185.747,158.514 215.962,189.829 185.122,221.468   "
           style="clip-rule:evenodd;fill:none;fill-opacity:1;fill-rule:evenodd;stroke:#04ccff;stroke-width:10;stroke-linecap:round;stroke-linejoin:round;stroke-miterlimit:2.61310005;stroke-opacity:1" /><line
           id="line4632"
           y2="235.464"
           y1="144.506"
           x2="139.67"
           x1="173.19501"
           stroke-miterlimit="2.6131"
           style="clip-rule:evenodd;fill:none;fill-opacity:1;fill-rule:evenodd;stroke:#04ccff;stroke-width:10;stroke-linecap:round;stroke-linejoin:round;stroke-miterlimit:2.61310005;stroke-opacity:1" /></g></g><g
       id="g4720"><path
         id="path1161"
         d="m 147.13674,43.532357 c 0,-6.894164 3.77847,-12.930227 9.39381,-16.159849 C 156.85845,12.19964 169.3383,-5e-7 184.68551,-5e-7 c 10.11782,0 18.98942,5.3022769 23.95446,13.2631685 1.82967,-0.53709 3.76679,-0.825352 5.77165,-0.825352 8.71305,0 16.14644,5.444495 19.04299,13.0967 7.95991,2.162803 13.81218,9.401341 13.81218,17.997841 0,10.282859 -8.40582,18.656725 -18.77493,18.656725 h -62.58019 c -10.3672,0 -18.77493,-8.352902 -18.77493,-18.656725 z M 228.40647,31.09454 c -0.7783,-6.996221 -6.74709,-12.437816 -13.99485,-12.437816 -3.30819,0 -6.34992,1.133704 -8.75323,3.031475 -2.71771,-8.950857 -11.07926,-15.4692913 -20.97288,-15.4692913 -12.09694,0 -21.90345,9.7450513 -21.90345,21.7661783 0,1.168505 0.0927,2.315505 0.27107,3.434137 -5.53482,1.284696 -9.65826,6.230305 -9.65826,12.113134 0,6.869216 5.61392,12.437816 12.50636,12.437816 h 62.60107 c 6.90707,0 12.50637,-5.582577 12.50637,-12.437816 0,-6.869216 -5.61392,-12.437817 -12.50637,-12.437817 z m 0,0"
         style="fill:#0980fb;fill-opacity:1;fill-rule:nonzero;stroke:none;stroke-width:3.11924362" /><g
         id="g4698"
         transform="matrix(0.26399457,0,0,0.2868556,152.42818,-16.669184)"
         style="fill:none;fill-opacity:1;stroke:#04ccff;stroke-opacity:1"><polyline
           style="clip-rule:evenodd;fill:none;fill-opacity:1;fill-rule:evenodd;stroke:#04ccff;stroke-width:10;stroke-linecap:round;stroke-linejoin:round;stroke-miterlimit:2.61310005;stroke-opacity:1"
           points="    124.218,158.514 94.003,189.829 124.843,221.468   "
           stroke-miterlimit="2.6131"
           id="polyline4692" /><polyline
           style="clip-rule:evenodd;fill:none;fill-opacity:1;fill-rule:evenodd;stroke:#04ccff;stroke-width:10;stroke-linecap:round;stroke-linejoin:round;stroke-miterlimit:2.61310005;stroke-opacity:1"
           points="    185.747,158.514 215.962,189.829 185.122,221.468   "
           stroke-miterlimit="2.6131"
           id="polyline4694" /><line
           style="clip-rule:evenodd;fill:none;fill-opacity:1;fill-rule:evenodd;stroke:#04ccff;stroke-width:10;stroke-linecap:round;stroke-linejoin:round;stroke-miterlimit:2.61310005;stroke-opacity:1"
           stroke-miterlimit="2.6131"
           x1="173.19501"
           x2="139.67"
           y1="144.506"
           y2="235.464"
           id="line4696" /></g></g><g
       id="g4728"><g
         transform="matrix(3.1290642,0,0,3.1094541,199.86995,107.58083)"
         id="g1181"
         style="fill:#0980fb;fill-opacity:1;fill-rule:nonzero;stroke:none;stroke-width:1"><path
           id="path1179"
           d="M 0,19 C 0,16.782838 1.2075399,14.841641 3.0021135,13.802995 3.1069062,8.9234028 7.0952729,5 12,5 15.233498,5 18.068721,6.7052115 19.65547,9.265433 20.240206,9.092705 20.859277,9 21.5,9 c 2.784553,0 5.16015,1.750949 6.085843,4.211897 C 30.129704,13.907454 32,16.235367 32,19 c 0,3.306966 -2.68637,6 -6.000176,6 H 6.0001757 C 2.686978,25 0,22.313708 0,19 Z M 25.972536,15 C 25.723803,12.750016 23.816271,11 21.5,11 20.442753,11 19.470664,11.364599 18.702606,11.974922 17.834068,9.0963276 15.161846,7 12,7 8.1340066,7 5,10.134007 5,14 5,14.375791 5.029612,14.744666 5.086631,15.104418 3.3177882,15.517576 2,17.108083 2,19 c 0,2.209139 1.7941203,4 3.9968389,4 H 26.003161 C 28.210554,23 30,21.204644 30,19 30,16.790861 28.20588,15 26.003161,15 Z m 0,0"
           style="fill:#0980fb;fill-opacity:1;fill-rule:nonzero" /></g><g
         style="fill:none;fill-opacity:1;stroke:#04ccff;stroke-opacity:1"
         transform="matrix(0.26399457,0,0,0.2868556,205.92818,104.83082)"
         id="g4706"><polyline
           id="polyline4700"
           stroke-miterlimit="2.6131"
           points="    124.218,158.514 94.003,189.829 124.843,221.468   "
           style="clip-rule:evenodd;fill:none;fill-opacity:1;fill-rule:evenodd;stroke:#04ccff;stroke-width:10;stroke-linecap:round;stroke-linejoin:round;stroke-miterlimit:2.61310005;stroke-opacity:1" /><polyline
           id="polyline4702"
           stroke-miterlimit="2.6131"
           points="    185.747,158.514 215.962,189.829 185.122,221.468   "
           style="clip-rule:evenodd;fill:none;fill-opacity:1;fill-rule:evenodd;stroke:#04ccff;stroke-width:10;stroke-linecap:round;stroke-linejoin:round;stroke-miterlimit:2.61310005;stroke-opacity:1" /><line
           id="line4704"
           y2="235.464"
           y1="144.506"
           x2="139.67"
           x1="173.19501"
           stroke-miterlimit="2.6131"
           style="clip-rule:evenodd;fill:none;fill-opacity:1;fill-rule:evenodd;stroke:#04ccff;stroke-width:10;stroke-linecap:round;stroke-linejoin:round;stroke-miterlimit:2.61310005;stroke-opacity:1" /></g></g></g></svg>