<?xml version="1.0" encoding="UTF-8" standalone="no"?>
<svg
   xmlns:dc="http://purl.org/dc/elements/1.1/"
   xmlns:cc="http://creativecommons.org/ns#"
   xmlns:rdf="http://www.w3.org/1999/02/22-rdf-syntax-ns#"
   xmlns:svg="http://www.w3.org/2000/svg"
   xmlns="http://www.w3.org/2000/svg"
   height="300"
   width="300"
   xml:space="preserve"
   viewBox="0 0 300 300"
   y="0px"
   x="0px"
   id="Capa_1"
   version="1.1"><metadata
     id="metadata49"><rdf:RDF><cc:Work
         rdf:about=""><dc:format>image/svg+xml</dc:format><dc:type
           rdf:resource="http://purl.org/dc/dcmitype/StillImage" /><dc:title></dc:title></cc:Work></rdf:RDF></metadata><defs
     id="defs47" /><g
     transform="translate(0,-177.065)"
     id="g14" /><g
     transform="translate(0,-177.065)"
     id="g16" /><g
     transform="translate(0,-177.065)"
     id="g18" /><g
     transform="translate(0,-177.065)"
     id="g20" /><g
     transform="translate(0,-177.065)"
     id="g22" /><g
     transform="translate(0,-177.065)"
     id="g24" /><g
     transform="translate(0,-177.065)"
     id="g26" /><g
     transform="translate(0,-177.065)"
     id="g28" /><g
     transform="translate(0,-177.065)"
     id="g30" /><g
     transform="translate(0,-177.065)"
     id="g32" /><g
     transform="translate(0,-177.065)"
     id="g34" /><g
     transform="translate(0,-177.065)"
     id="g36" /><g
     transform="translate(0,-177.065)"
     id="g38" /><g
     transform="translate(0,-177.065)"
     id="g40" /><g
     transform="translate(0,-177.065)"
     id="g42" /><g
     id="g4622"><path
       id="path2"
       d="m 179.50233,58.142035 5.15717,-11.608 c 4.25729,-9.590655 11.30792,-17.12617 19.98977,-21.622507 h -37.79304 c 3.17379,6.168121 2.82163,13.012515 -2.58833,19.783342 7.68639,0 13.87738,5.884653 15.23443,13.447165 z"
       style="fill:#0980fb;fill-opacity:1;stroke-width:0.65147746" /><path
       id="path4"
       d="m 283.99523,24.911528 h -35.69396 c 13.46675,11.492588 11.95312,27.046863 1.14325,31.883361 l -5.34205,2.389902 c 27.51895,0 27.33407,-2.725339 27.33407,15.538076 3.66177,8.154419 3.38885,17.492653 0,25.443923 v 97.29082 c 0,4.1501 -3.13543,7.51526 -7.00221,7.51526 H 35.566926 c -3.866777,0 -7.002205,-3.36449 -7.002205,-7.51526 V 91.975247 c -3.954816,-6.236288 -2.656248,-12.16886 -2.656248,-30.6523 0,-9.118884 6.875178,-16.628077 15.517415,-16.628077 C 36.708911,39.637672 35.322933,31.803167 38.857679,24.911528 H 16.0054 C 7.1682206,24.911528 0,32.6043 0,42.089667 V 223.79107 c 0,9.48537 7.1682206,17.17882 16.006028,17.17882 H 122.08991 l -14.28676,36.89399 h -6.55321 c -5.69295,0 -10.311827,4.95731 -10.311827,11.06873 0,6.11008 4.618877,11.06739 10.311827,11.06739 h 97.50012 c 5.69421,0 10.31308,-4.95731 10.31308,-11.06739 0,-6.11142 -4.61887,-11.06873 -10.31308,-11.06873 h -6.55195 l -14.28676,-36.89399 h 106.08388 c 8.83718,0 16.00477,-7.69345 16.00477,-17.17882 V 42.089667 c 6.3e-4,-9.485367 -7.16759,-17.178139 -16.00477,-17.178139 z m -51.7679,204.943732 c -4.14095,0 -7.50025,-3.60612 -7.50025,-8.04981 0,-4.44437 3.3593,-8.04981 7.50025,-8.04981 4.14095,0 7.50025,3.60544 7.50025,8.04981 0,4.44369 -3.3593,8.04981 -7.50025,8.04981 z m 24.37472,0 c -4.14096,0 -7.50025,-3.60612 -7.50025,-8.04981 0,-4.44437 3.35929,-8.04981 7.50025,-8.04981 4.14095,0 7.50025,3.60544 7.50025,8.04981 0,4.44369 -3.35867,8.04981 -7.50025,8.04981 z"
       style="fill:#0980fb;fill-opacity:1;stroke-width:0.65147746" /><path
       id="path6"
       d="m 56.46538,45.648536 c -1.533128,3.102621 -2.812202,6.367223 -3.7888,9.778959 -7.383286,0 -16.766933,-1.829042 -16.766933,5.895452 0,29.829569 -2.831695,27.245964 16.756871,27.245964 0.987289,3.411736 2.265734,6.682412 3.798862,9.783683 C 44.81537,110.85217 43.291047,109.694 53.204182,120.32674 59.405237,113.12598 65.22521,111.847 83.457355,103.69326 73.848582,96.896111 67.481511,85.246266 67.481511,72.002927 c 0,-20.93611 15.86894,-37.96779 35.370729,-37.96779 21.98195,0 39.1023,21.544215 34.67773,45.472259 l 32.27492,-14.443351 c 0,-11.198997 -2.80277,-9.637225 -16.76819,-9.637225 -0.97597,-3.411736 -2.26511,-6.681737 -3.79823,-9.784358 5.21502,-5.601861 13.07623,-11.450743 7.98823,-16.911545 -19.7659,-21.2189022 -15.95698,-21.3923574 -29.8243,-6.514356 -2.8908,-1.645462 -5.92813,-3.023655 -9.12079,-4.066411 0,-7.908072 1.69915,-17.99614525 -5.47914,-17.99614525 -27.793122,0 -25.380867,-3.04997685 -25.380867,17.99614525 -3.18322,1.042756 -6.229981,2.420949 -9.120789,4.066411 C 73.085791,16.614701 67.646898,8.193012 62.54884,13.643015 42.911223,34.71141 42.579192,30.754336 56.46538,45.648536 Z"
       style="fill:#04ccff;fill-opacity:1;stroke-width:0.65147746" /><path
       id="path8"
       d="m 102.85224,44.767762 c -13.993723,0 -25.370812,12.21543 -25.370812,27.235165 0,12.440855 7.851147,22.848167 18.486198,26.093197 l 28.984794,-12.96527 c 9.65782,-18.682542 -3.29139,-40.363092 -22.10018,-40.363092 z"
       style="fill:#0980fb;fill-opacity:1;stroke-width:0.65147746" /><path
       id="path10"
       d="M 185.45939,69.691991 67.051381,122.65927 c -22.832157,10.21361 -8.74977,47.82504 14.540816,37.42853 L 200.01027,107.12592 c 30.86001,11.60327 32.12902,13.05436 55.40137,-2.78271 12.78319,-8.704481 9.85277,-30.478845 2.01105,-26.999617 l -20.74187,9.270741 c -3.62278,1.623865 -7.81216,-0.210576 -9.33585,-4.135253 -10.50803,-27.041462 -12.09901,-22.015986 18.25226,-35.588687 7.60779,-3.400936 -4.37488,-21.161534 -19.28734,-17.467006 l -10.29296,2.520838 c -18.32082,4.490937 -22.45171,19.463428 -30.55754,37.747765 z"
       style="fill:#04ccff;fill-opacity:1;stroke-width:0.65147746" /><g
       id="g4555"
       transform="matrix(0.70450788,0,0,0.69263978,99.782077,32.844253)"
       style="stroke:#0980fb;stroke-opacity:1"><polyline
         style="clip-rule:evenodd;fill:none;fill-rule:evenodd;stroke:#0980fb;stroke-width:10;stroke-linecap:round;stroke-linejoin:round;stroke-miterlimit:2.61310005;stroke-opacity:1"
         points="    124.218,158.514 94.003,189.829 124.843,221.468   "
         stroke-miterlimit="2.6131"
         id="polyline4549" /><polyline
         style="clip-rule:evenodd;fill:none;fill-rule:evenodd;stroke:#0980fb;stroke-width:10;stroke-linecap:round;stroke-linejoin:round;stroke-miterlimit:2.61310005;stroke-opacity:1"
         points="    185.747,158.514 215.962,189.829 185.122,221.468   "
         stroke-miterlimit="2.6131"
         id="polyline4551" /><line
         style="clip-rule:evenodd;fill:none;fill-rule:evenodd;stroke:#0980fb;stroke-width:10;stroke-linecap:round;stroke-linejoin:round;stroke-miterlimit:2.61310005;stroke-opacity:1"
         stroke-miterlimit="2.6131"
         x1="173.19501"
         x2="139.67"
         y1="144.506"
         y2="235.464"
         id="line4553" /></g></g></svg>