<?xml version="1.0" encoding="UTF-8" standalone="no"?>
<svg
   xmlns:dc="http://purl.org/dc/elements/1.1/"
   xmlns:cc="http://creativecommons.org/ns#"
   xmlns:rdf="http://www.w3.org/1999/02/22-rdf-syntax-ns#"
   xmlns:svg="http://www.w3.org/2000/svg"
   xmlns="http://www.w3.org/2000/svg"
   height="300"
   width="300"
   xml:space="preserve"
   viewBox="0 0 299.99999 299.99999"
   y="0px"
   x="0px"
   id="Capa_1"
   version="1.1"><metadata
     id="metadata47"><rdf:RDF><cc:Work
         rdf:about=""><dc:format>image/svg+xml</dc:format><dc:type
           rdf:resource="http://purl.org/dc/dcmitype/StillImage" /><dc:title></dc:title></cc:Work></rdf:RDF></metadata><defs
     id="defs45" /><g
     id="g4511"><ellipse
       style="fill:#04ccff;stroke-width:5.10188246;stroke:none;fill-opacity:1"
       cx="238.21771"
       cy="25.325541"
       id="circle2"
       rx="21.408854"
       ry="25.325541" /><path
       style="fill:#0980fb;stroke-width:5.10188246;stroke:none;stroke-opacity:1;fill-opacity:1"
       d="M 299.28266,130.4232 C 292.18547,106.86779 280.07849,75.643684 271.62565,63.358244 267.30542,56.444217 250.21211,56.533 249.15668,56.177866 l -11.41743,28.893533 2.92237,-24.787289 h 0.44094 v -4.106244 h -8.63109 v 4.106244 h 0.41748 l 2.47675,24.759544 -11.40805,-27.744895 c 0,0 -13.18587,-3.878736 -19.36366,2.180749 -3.40553,3.007547 -6.49677,6.381326 -9.80848,9.172462 1.44946,-6.225954 3.86522,-12.107872 7.28951,-16.963228 4.6486,-6.63103 2.96929,-14.73254 -1.05543,-19.499113 l 9.91168,2.352767 V 8.3734115 l -28.41692,5.0495705 v 6.475659 H 117.47159 V 13.422982 L 89.054664,8.3734115 V 34.542396 l 9.91168,-2.352767 c -4.015333,4.766573 -5.704024,12.868083 -1.050741,19.499113 3.419597,4.855356 5.835367,10.737274 7.284827,16.963228 -3.31171,-2.791136 -6.402955,-6.164915 -9.803792,-9.172462 -6.177796,-6.059485 -19.35897,-2.180749 -19.35897,-2.180749 L 64.62962,85.043654 67.106367,60.28411 h 0.417482 V 56.177866 H 58.89276 v 4.106244 h 0.445627 L 62.260761,85.071399 50.843331,56.177866 C 49.79259,56.533 32.69459,56.444217 28.374355,63.358244 19.916826,75.649233 7.8098468,106.87334 0.71734316,130.4232 -4.2173882,146.79824 17.749672,153.78996 22.642186,137.57029 c 2.988045,-9.90493 6.323211,-19.58235 10.099312,-28.99896 l -0.164178,79.60565 -5.689952,97.33464 c 0,8.00163 4.958186,14.48838 11.905274,14.48838 6.965852,0 12.599514,-6.48675 12.599514,-14.48838 l 5.68057,-101.41314 c 0,0 0.40341,-5.14391 4.831534,-5.19385 4.432814,-0.061 4.310853,4.94969 4.310853,4.94969 l 2.842631,101.37985 c 0,7.99053 5.638353,14.48838 12.594823,14.48838 6.951779,0 12.594823,-6.49785 12.594823,-14.48838 L 91.81286,180.61372 c 0,-0.99327 0.02814,-90.953315 0.02814,-90.953315 7.749217,6.558893 15.13724,11.292175 26.24507,11.680605 6.57184,0.23305 10.84984,-6.32584 11.35645,-13.439632 1.39786,-19.881991 -4.81746,-40.10802 -15.45152,-55.21789 -1.04136,-1.498224 -2.17185,-2.508138 -3.33048,-3.246152 l 6.82044,-1.614753 v -4.555712 h 65.03338 v 4.555712 l 6.81574,1.614753 c -1.15863,0.738014 -2.28442,1.753477 -3.33047,3.246152 -10.63406,15.10987 -16.84469,35.335899 -15.44684,55.21789 0.50192,7.119341 4.78932,13.672682 11.35645,13.439632 11.10784,-0.38843 18.49117,-5.127261 26.24508,-11.680605 0,0 0.0281,89.960045 0.0281,90.953315 l -2.43453,104.62045 c 0,7.99053 5.63835,14.48838 12.59482,14.48838 6.95647,0 12.59951,-6.49785 12.59951,-14.48838 l 2.84264,-101.37985 c 0,0 -0.11727,-5.00518 4.31085,-4.94969 4.42343,0.0499 4.82684,5.19385 4.82684,5.19385 l 5.68526,101.41314 c 0,8.00163 5.62898,14.48838 12.59952,14.48838 6.94709,0 11.90058,-6.48675 11.90058,-14.48838 l -5.68526,-97.33464 -0.16418,-79.60565 c 3.7761,9.41661 7.11127,19.09403 10.09462,28.99896 4.89721,16.22521 26.86427,9.22795 21.92953,-7.14709 z m -235.900795,-9.24459 -4.512559,-9.59974 4.498486,-21.274784 4.57823,20.975144 z m 173.226895,0 -4.56416,-9.89938 4.58292,-20.975144 4.49849,21.274784 z"
       id="path4" /><ellipse
       style="fill:#04ccff;stroke-width:5.10188246;stroke:none;fill-opacity:1"
       cx="61.777607"
       cy="25.325541"
       id="circle6"
       rx="21.408854"
       ry="25.325541" /></g><g
     transform="translate(-7.4755761e-5,240.991)"
     id="g12" /><g
     transform="translate(-7.4755761e-5,240.991)"
     id="g14" /><g
     transform="translate(-7.4755761e-5,240.991)"
     id="g16" /><g
     transform="translate(-7.4755761e-5,240.991)"
     id="g18" /><g
     transform="translate(-7.4755761e-5,240.991)"
     id="g20" /><g
     transform="translate(-7.4755761e-5,240.991)"
     id="g22" /><g
     transform="translate(-7.4755761e-5,240.991)"
     id="g24" /><g
     transform="translate(-7.4755761e-5,240.991)"
     id="g26" /><g
     transform="translate(-7.4755761e-5,240.991)"
     id="g28" /><g
     transform="translate(-7.4755761e-5,240.991)"
     id="g30" /><g
     transform="translate(-7.4755761e-5,240.991)"
     id="g32" /><g
     transform="translate(-7.4755761e-5,240.991)"
     id="g34" /><g
     transform="translate(-7.4755761e-5,240.991)"
     id="g36" /><g
     transform="translate(-7.4755761e-5,240.991)"
     id="g38" /><g
     transform="translate(-7.4755761e-5,240.991)"
     id="g40" /></svg>