<?xml version="1.0" encoding="UTF-8" standalone="no"?>
<!-- Created with Inkscape (http://www.inkscape.org/) -->

<svg
   xmlns:dc="http://purl.org/dc/elements/1.1/"
   xmlns:cc="http://creativecommons.org/ns#"
   xmlns:rdf="http://www.w3.org/1999/02/22-rdf-syntax-ns#"
   xmlns:svg="http://www.w3.org/2000/svg"
   xmlns="http://www.w3.org/2000/svg"
   xmlns:sodipodi="http://sodipodi.sourceforge.net/DTD/sodipodi-0.dtd"
   xmlns:inkscape="http://www.inkscape.org/namespaces/inkscape"
   width="65.651787"
   height="55.874699"
   viewBox="0 0 17.370368 14.783512"
   version="1.1"
   id="svg2335"
   inkscape:version="0.92.2 2405546, 2018-03-11"
   sodipodi:docname="techasoft-symbol-V-4.0.0.svg">
  <defs
     id="defs2329" />
  <sodipodi:namedview
     id="base"
     pagecolor="#ffffff"
     bordercolor="#666666"
     borderopacity="1.0"
     inkscape:pageopacity="0.0"
     inkscape:pageshadow="2"
     inkscape:zoom="2.8"
     inkscape:cx="-49.013036"
     inkscape:cy="22.247307"
     inkscape:document-units="px"
     inkscape:current-layer="layer1"
     showgrid="false"
     units="px"
     inkscape:pagecheckerboard="true"
     inkscape:showpageshadow="false"
     showborder="false"
     inkscape:window-width="1865"
     inkscape:window-height="1016"
     inkscape:window-x="55"
     inkscape:window-y="30"
     inkscape:window-maximized="1" />
  <metadata
     id="metadata2332">
    <rdf:RDF>
      <cc:Work
         rdf:about="">
        <dc:format>image/svg+xml</dc:format>
        <dc:type
           rdf:resource="http://purl.org/dc/dcmitype/StillImage" />
        <dc:title></dc:title>
      </cc:Work>
    </rdf:RDF>
  </metadata>
  <g
     inkscape:label="Layer 1"
     inkscape:groupmode="layer"
     id="layer1"
     transform="translate(-37.677813,-273.08877)">
    <g
       id="g1073">
      <g
         id="text4834"
         style="font-style:normal;font-variant:normal;font-weight:normal;font-stretch:normal;font-size:7.89323807px;line-height:1.25;font-family:Roboto;-inkscape-font-specification:Roboto;letter-spacing:0px;word-spacing:0px;fill:#3f51b5;fill-opacity:1;stroke:none;stroke-width:0.19733095"
         transform="matrix(-0.4295116,-0.81986058,0.82563396,-0.42650818,10.836198,18.210612)"
         aria-label="t">
        <path
           inkscape:connector-curvature="0"
           id="path4747"
           style="font-style:normal;font-variant:normal;font-weight:bold;font-stretch:normal;font-family:Roboto;-inkscape-font-specification:'Roboto Bold';fill:#3f51b5;fill-opacity:1;stroke-width:0.19733095"
           d="m -271.23146,-108.58982 v 1.02519 h 0.71301 v 0.81708 h -0.71301 v 2.08122 q 0,0.23125 0.0886,0.33145 0.0886,0.10021 0.33916,0.10021 0.185,0 0.3276,-0.027 v 0.84406 q -0.3276,0.1002 -0.67447,0.1002 -1.17165,0 -1.19478,-1.18321 v -2.24695 h -0.60895 v -0.81708 h 0.60895 v -1.02519 z" />
      </g>
      <g
         id="text4838"
         style="font-style:normal;font-variant:normal;font-weight:normal;font-stretch:normal;font-size:7.89323807px;line-height:1.25;font-family:Roboto;-inkscape-font-specification:Roboto;letter-spacing:0px;word-spacing:0px;fill:#3f51b5;fill-opacity:1;stroke:none;stroke-width:0.19733095"
         transform="matrix(0.93067271,0,0,0.92416479,10.836198,18.210612)"
         aria-label="a">
        <path
           inkscape:connector-curvature="0"
           id="path4744"
           style="font-style:normal;font-variant:normal;font-weight:bold;font-stretch:normal;font-family:Roboto;-inkscape-font-specification:'Roboto Bold';fill:#3f51b5;fill-opacity:1;stroke-width:0.19733095"
           d="m 39.217738,280.04022 q -0.07708,-0.15031 -0.111769,-0.37385 -0.404683,0.45093 -1.052175,0.45093 -0.612805,0 -1.017488,-0.35457 -0.400828,-0.35458 -0.400828,-0.89416 0,-0.66291 0.489473,-1.01749 0.493328,-0.35458 1.422171,-0.35843 h 0.512598 v -0.23896 q 0,-0.28906 -0.150311,-0.46249 -0.146457,-0.17344 -0.466349,-0.17344 -0.28135,0 -0.443223,0.1349 -0.158019,0.13489 -0.158019,0.36999 h -1.113841 q 0,-0.36228 0.223539,-0.67061 0.223539,-0.30833 0.632076,-0.48177 0.408536,-0.17729 0.91728,-0.17729 0.770824,0 1.221756,0.38927 0.454786,0.38541 0.454786,1.08686 v 1.80758 q 0.0039,0.59354 0.165728,0.89801 v 0.0655 z m -0.921134,-0.77468 q 0.246663,0 0.454786,-0.10791 0.208122,-0.11177 0.30833,-0.29677 V 278.144 h -0.416245 q -0.836344,0 -0.890302,0.57811 l -0.0039,0.0655 q 0,0.20813 0.146456,0.34302 0.146457,0.13489 0.400829,0.13489 z" />
      </g>
      <g
         id="text4842"
         style="font-style:normal;font-variant:normal;font-weight:normal;font-stretch:normal;font-size:7.89323807px;line-height:1.25;font-family:Roboto;-inkscape-font-specification:Roboto;letter-spacing:0px;word-spacing:0px;fill:#3f51b5;fill-opacity:1;stroke:none;stroke-width:0.19733095"
         transform="matrix(-0.55604037,0.74108608,-0.74630473,-0.55215217,10.836198,18.210612)"
         aria-label="s">
        <path
           inkscape:connector-curvature="0"
           id="path4750"
           style="font-style:normal;font-variant:normal;font-weight:bold;font-stretch:normal;font-family:Roboto;-inkscape-font-specification:'Roboto Bold';fill:#3f51b5;fill-opacity:1;stroke-width:0.19733095"
           d="m 205.79838,-208.44915 q 0,-0.20427 -0.20427,-0.31989 -0.20041,-0.11948 -0.64749,-0.21198 -1.48769,-0.31218 -1.48769,-1.26415 0,-0.55499 0.45864,-0.92499 0.4625,-0.37385 1.20634,-0.37385 0.79395,0 1.26801,0.37385 0.47791,0.37385 0.47791,0.97124 h -1.11384 q 0,-0.23896 -0.15417,-0.39312 -0.15416,-0.15802 -0.48176,-0.15802 -0.28135,0 -0.43552,0.12719 -0.15416,0.12718 -0.15416,0.32374 0,0.185 0.17343,0.30062 0.17729,0.11177 0.59354,0.19656 0.41624,0.0809 0.70145,0.185 0.88259,0.32375 0.88259,1.12155 0,0.57041 -0.48947,0.92499 -0.48948,0.35072 -1.26415,0.35072 -0.52416,0 -0.9327,-0.18499 -0.40468,-0.18886 -0.63593,-0.5126 -0.23125,-0.3276 -0.23125,-0.70531 h 1.05603 q 0.0154,0.29677 0.21969,0.45479 0.20426,0.15802 0.54728,0.15802 0.31989,0 0.48177,-0.11948 0.16572,-0.12333 0.16572,-0.31989 z" />
      </g>
      <g
         id="g1061">
        <path
           style="color:#000000;font-style:normal;font-variant:normal;font-weight:normal;font-stretch:normal;font-size:medium;line-height:normal;font-family:sans-serif;font-variant-ligatures:normal;font-variant-position:normal;font-variant-caps:normal;font-variant-numeric:normal;font-variant-alternates:normal;font-feature-settings:normal;text-indent:0;text-align:start;text-decoration:none;text-decoration-line:none;text-decoration-style:solid;text-decoration-color:#000000;letter-spacing:normal;word-spacing:normal;text-transform:none;writing-mode:lr-tb;direction:ltr;text-orientation:mixed;dominant-baseline:auto;baseline-shift:baseline;text-anchor:start;white-space:normal;shape-padding:0;clip-rule:nonzero;display:inline;overflow:visible;visibility:visible;opacity:1;isolation:auto;mix-blend-mode:normal;color-interpolation:sRGB;color-interpolation-filters:linearRGB;solid-color:#000000;solid-opacity:1;vector-effect:none;fill:#990099;fill-opacity:1;fill-rule:nonzero;stroke:none;stroke-width:0.7320292;stroke-linecap:round;stroke-linejoin:bevel;stroke-miterlimit:10;stroke-dasharray:5.85623347, 5.85623347;stroke-dashoffset:0;stroke-opacity:1;color-rendering:auto;image-rendering:auto;shape-rendering:auto;text-rendering:auto;enable-background:accumulate"
           d="m 49.825494,284.8545 -0.471099,-0.23893 -0.0332,-0.0168 -0.52598,-0.20288 -0.0361,-0.0117 -0.534601,-0.14927 -0.0364,-0.007 -0.54151,-0.0947 -0.0357,-0.005 -0.54576,-0.0408 -0.0359,-3.6e-4 -0.54197,0.0109 -0.0352,0.002 -0.53648,0.0636 -0.0355,0.007 -0.52735,0.11387 -0.0338,0.008 -0.51553,0.16346 -0.0324,0.0129 -0.49737,0.2099 -0.0317,0.0156 -0.36786,0.20094 0.35039,0.64032 0.35055,-0.19062 0.483,-0.20464 0.47877,-0.15078 0.003,-7.1e-4 0.45971,-0.0987 0.52141,-0.061 0.48685,-0.0133 0.0131,7.7e-4 0.51783,0.0383 0.50852,0.0893 0.50694,0.14241 0.006,10e-4 0.47435,0.18676 0.45586,0.23017 z"
           id="path4818-3"
           inkscape:connector-curvature="0"
           sodipodi:nodetypes="cccccccccccccccccccccccccccccccccccccc" />
        <path
           style="color:#000000;font-style:normal;font-variant:normal;font-weight:normal;font-stretch:normal;font-size:medium;line-height:normal;font-family:sans-serif;font-variant-ligatures:normal;font-variant-position:normal;font-variant-caps:normal;font-variant-numeric:normal;font-variant-alternates:normal;font-feature-settings:normal;text-indent:0;text-align:start;text-decoration:none;text-decoration-line:none;text-decoration-style:solid;text-decoration-color:#000000;letter-spacing:normal;word-spacing:normal;text-transform:none;writing-mode:lr-tb;direction:ltr;text-orientation:mixed;dominant-baseline:auto;baseline-shift:baseline;text-anchor:start;white-space:normal;shape-padding:0;clip-rule:nonzero;display:inline;overflow:visible;visibility:visible;opacity:1;isolation:auto;mix-blend-mode:normal;color-interpolation:sRGB;color-interpolation-filters:linearRGB;solid-color:#000000;solid-opacity:1;vector-effect:none;fill:#990099;fill-opacity:1;fill-rule:nonzero;stroke:none;stroke-width:0.7320292;stroke-linecap:round;stroke-linejoin:bevel;stroke-miterlimit:10;stroke-dasharray:5.8562335, 5.8562335;stroke-dashoffset:0;stroke-opacity:1;color-rendering:auto;image-rendering:auto;shape-rendering:auto;text-rendering:auto;enable-background:accumulate"
           d="m 42.884672,283.17143 0.445622,-0.28363 0.03137,-0.02 0.442565,-0.3492 0.02847,-0.0251 0.400829,-0.38394 0.02457,-0.0277 0.357393,-0.4177 0.02249,-0.0282 0.313182,-0.44882 0.01861,-0.0307 0.266764,-0.47189 0.01622,-0.0313 0.218619,-0.49401 0.01207,-0.0341 0.170713,-0.51178 0.01039,-0.0332 0.12202,-0.52689 0.0053,-0.0345 0.0728,-0.53492 0.0027,-0.0352 0.01457,-0.4189 -0.729509,-0.0244 -0.01459,0.39875 -0.07001,0.51987 -0.1142,0.48879 -9.18e-4,0.003 -0.149303,0.44586 -0.213179,0.47973 -0.236615,0.4257 -0.0074,0.0109 -0.296799,0.42605 -0.335938,0.39206 -0.380832,0.36364 -0.0039,0.005 -0.402388,0.313 -0.430321,0.27497 z"
           id="path4818-3-6"
           inkscape:connector-curvature="0"
           sodipodi:nodetypes="cccccccccccccccccccccccccccccccccccccc" />
        <path
           style="color:#000000;font-style:normal;font-variant:normal;font-weight:normal;font-stretch:normal;font-size:medium;line-height:normal;font-family:sans-serif;font-variant-ligatures:normal;font-variant-position:normal;font-variant-caps:normal;font-variant-numeric:normal;font-variant-alternates:normal;font-feature-settings:normal;text-indent:0;text-align:start;text-decoration:none;text-decoration-line:none;text-decoration-style:solid;text-decoration-color:#000000;letter-spacing:normal;word-spacing:normal;text-transform:none;writing-mode:lr-tb;direction:ltr;text-orientation:mixed;dominant-baseline:auto;baseline-shift:baseline;text-anchor:start;white-space:normal;shape-padding:0;clip-rule:nonzero;display:inline;overflow:visible;visibility:visible;opacity:1;isolation:auto;mix-blend-mode:normal;color-interpolation:sRGB;color-interpolation-filters:linearRGB;solid-color:#000000;solid-opacity:1;vector-effect:none;fill:#990099;fill-opacity:1;fill-rule:nonzero;stroke:none;stroke-width:0.7320292;stroke-linecap:round;stroke-linejoin:bevel;stroke-miterlimit:10;stroke-dasharray:5.85623353, 5.85623353;stroke-dashoffset:0;stroke-opacity:1;color-rendering:auto;image-rendering:auto;shape-rendering:auto;text-rendering:auto;enable-background:accumulate"
           d="m 50.513201,283.13278 -0.445622,-0.28363 -0.03137,-0.02 -0.442565,-0.3492 -0.02847,-0.0251 -0.400829,-0.38394 -0.02457,-0.0277 -0.357393,-0.4177 -0.02249,-0.0282 -0.313182,-0.44882 -0.01861,-0.0307 -0.266764,-0.47189 -0.01622,-0.0313 -0.218619,-0.49401 -0.01207,-0.0341 -0.170713,-0.51178 -0.01039,-0.0332 -0.12202,-0.52689 -0.0053,-0.0345 -0.0728,-0.53492 -0.0027,-0.0352 -0.01457,-0.4189 0.729507,-0.0244 0.01459,0.39875 0.07001,0.51987 0.1142,0.48879 9.18e-4,0.003 0.149303,0.44586 0.213179,0.47973 0.236615,0.4257 0.0074,0.0109 0.296799,0.42605 0.335938,0.39206 0.380832,0.36364 0.0039,0.005 0.402388,0.313 0.430321,0.27497 z"
           id="path4818-3-6-7"
           inkscape:connector-curvature="0"
           sodipodi:nodetypes="cccccccccccccccccccccccccccccccccccccc" />
      </g>
    </g>
  </g>
</svg>
