<?xml version="1.0" encoding="UTF-8" standalone="no"?>
<!-- Created with Inkscape (http://www.inkscape.org/) -->

<svg
   xmlns:dc="http://purl.org/dc/elements/1.1/"
   xmlns:cc="http://creativecommons.org/ns#"
   xmlns:rdf="http://www.w3.org/1999/02/22-rdf-syntax-ns#"
   xmlns:svg="http://www.w3.org/2000/svg"
   xmlns="http://www.w3.org/2000/svg"
   xmlns:sodipodi="http://sodipodi.sourceforge.net/DTD/sodipodi-0.dtd"
   xmlns:inkscape="http://www.inkscape.org/namespaces/inkscape"
   width="210mm"
   height="297mm"
   viewBox="0 0 210 297"
   version="1.1"
   id="svg8"
   inkscape:version="0.92.1 r15371"
   sodipodi:docname="authentication-service.svg">
  <defs
     id="defs2">
    <marker
       inkscape:isstock="true"
       style="overflow:visible;"
       id="marker5560"
       refX="0.0"
       refY="0.0"
       orient="auto"
       inkscape:stockid="Arrow2Mend">
      <path
         transform="scale(0.6) rotate(180) translate(0,0)"
         d="M 8.7185878,4.0337352 L -2.2072895,0.016013256 L 8.7185884,-4.0017078 C 6.9730900,-1.6296469 6.9831476,1.6157441 8.7185878,4.0337352 z "
         style="fill-rule:evenodd;stroke-width:0.625;stroke-linejoin:round;stroke:#000000;stroke-opacity:1;fill:#000000;fill-opacity:1"
         id="path5558" />
    </marker>
    <marker
       inkscape:isstock="true"
       style="overflow:visible;"
       id="marker3134"
       refX="0.0"
       refY="0.0"
       orient="auto"
       inkscape:stockid="Arrow2Mend"
       inkscape:collect="always">
      <path
         transform="scale(0.6) rotate(180) translate(0,0)"
         d="M 8.7185878,4.0337352 L -2.2072895,0.016013256 L 8.7185884,-4.0017078 C 6.9730900,-1.6296469 6.9831476,1.6157441 8.7185878,4.0337352 z "
         style="fill-rule:evenodd;stroke-width:0.625;stroke-linejoin:round;stroke:#000000;stroke-opacity:1;fill:#000000;fill-opacity:1"
         id="path3132" />
    </marker>
    <marker
       inkscape:stockid="Arrow2Mend"
       orient="auto"
       refY="0.0"
       refX="0.0"
       id="Arrow2Mend"
       style="overflow:visible;"
       inkscape:isstock="true"
       inkscape:collect="always">
      <path
         id="path1500"
         style="fill-rule:evenodd;stroke-width:0.625;stroke-linejoin:round;stroke:#000000;stroke-opacity:1;fill:#000000;fill-opacity:1"
         d="M 8.7185878,4.0337352 L -2.2072895,0.016013256 L 8.7185884,-4.0017078 C 6.9730900,-1.6296469 6.9831476,1.6157441 8.7185878,4.0337352 z "
         transform="scale(0.6) rotate(180) translate(0,0)" />
    </marker>
    <marker
       inkscape:stockid="Arrow2Mend"
       orient="auto"
       refY="0"
       refX="0"
       id="Arrow2Mend-2"
       style="overflow:visible"
       inkscape:isstock="true">
      <path
         inkscape:connector-curvature="0"
         id="path1500-6"
         style="fill:#000000;fill-opacity:1;fill-rule:evenodd;stroke:#000000;stroke-width:0.625;stroke-linejoin:round;stroke-opacity:1"
         d="M 8.7185878,4.0337352 -2.2072895,0.01601326 8.7185884,-4.0017078 c -1.7454984,2.3720609 -1.7354408,5.6174519 -6e-7,8.035443 z"
         transform="scale(-0.6)" />
    </marker>
    <marker
       inkscape:stockid="Arrow2Mend"
       orient="auto"
       refY="0"
       refX="0"
       id="Arrow2Mend-2-4"
       style="overflow:visible"
       inkscape:isstock="true">
      <path
         inkscape:connector-curvature="0"
         id="path1500-6-4"
         style="fill:#000000;fill-opacity:1;fill-rule:evenodd;stroke:#000000;stroke-width:0.625;stroke-linejoin:round;stroke-opacity:1"
         d="M 8.7185878,4.0337352 -2.2072895,0.01601326 8.7185884,-4.0017078 c -1.7454984,2.3720609 -1.7354408,5.6174519 -6e-7,8.035443 z"
         transform="scale(-0.6)" />
    </marker>
    <marker
       inkscape:stockid="Arrow2Mend"
       orient="auto"
       refY="0"
       refX="0"
       id="Arrow2Mend-4"
       style="overflow:visible"
       inkscape:isstock="true"
       inkscape:collect="always">
      <path
         inkscape:connector-curvature="0"
         id="path1500-9"
         style="fill:#000000;fill-opacity:1;fill-rule:evenodd;stroke:#000000;stroke-width:0.625;stroke-linejoin:round;stroke-opacity:1"
         d="M 8.7185878,4.0337352 -2.2072895,0.01601326 8.7185884,-4.0017078 c -1.7454984,2.3720609 -1.7354408,5.6174519 -6e-7,8.035443 z"
         transform="scale(-0.6)" />
    </marker>
    <marker
       inkscape:isstock="true"
       style="overflow:visible"
       id="marker3134-2"
       refX="0"
       refY="0"
       orient="auto"
       inkscape:stockid="Arrow2Mend">
      <path
         inkscape:connector-curvature="0"
         transform="scale(-0.6)"
         d="M 8.7185878,4.0337352 -2.2072895,0.01601326 8.7185884,-4.0017078 c -1.7454984,2.3720609 -1.7354408,5.6174519 -6e-7,8.035443 z"
         style="fill:#000000;fill-opacity:1;fill-rule:evenodd;stroke:#000000;stroke-width:0.625;stroke-linejoin:round;stroke-opacity:1"
         id="path3132-3" />
    </marker>
    <marker
       inkscape:stockid="Arrow2Mend"
       orient="auto"
       refY="0"
       refX="0"
       id="marker4959-5"
       style="overflow:visible"
       inkscape:isstock="true">
      <path
         inkscape:connector-curvature="0"
         id="path4957-1"
         style="fill:#000000;fill-opacity:1;fill-rule:evenodd;stroke:#000000;stroke-width:0.625;stroke-linejoin:round;stroke-opacity:1"
         d="M 8.7185878,4.0337352 -2.2072895,0.01601326 8.7185884,-4.0017078 c -1.7454984,2.3720609 -1.7354408,5.6174519 -6e-7,8.035443 z"
         transform="scale(-0.6)" />
    </marker>
    <marker
       inkscape:isstock="true"
       style="overflow:visible"
       id="marker5560-4"
       refX="0"
       refY="0"
       orient="auto"
       inkscape:stockid="Arrow2Mend">
      <path
         inkscape:connector-curvature="0"
         transform="scale(-0.6)"
         d="M 8.7185878,4.0337352 -2.2072895,0.01601326 8.7185884,-4.0017078 c -1.7454984,2.3720609 -1.7354408,5.6174519 -6e-7,8.035443 z"
         style="fill:#000000;fill-opacity:1;fill-rule:evenodd;stroke:#000000;stroke-width:0.625;stroke-linejoin:round;stroke-opacity:1"
         id="path5558-6" />
    </marker>
  </defs>
  <sodipodi:namedview
     id="base"
     pagecolor="#ffffff"
     bordercolor="#666666"
     borderopacity="1.0"
     inkscape:pageopacity="0.0"
     inkscape:pageshadow="2"
     inkscape:zoom="1.4"
     inkscape:cx="315.31436"
     inkscape:cy="653.86402"
     inkscape:document-units="mm"
     inkscape:current-layer="g82"
     showgrid="false"
     inkscape:snap-others="false"
     inkscape:snap-nodes="false"
     inkscape:window-width="1280"
     inkscape:window-height="962"
     inkscape:window-x="-8"
     inkscape:window-y="-8"
     inkscape:window-maximized="1" />
  <metadata
     id="metadata5">
    <rdf:RDF>
      <cc:Work
         rdf:about="">
        <dc:format>image/svg+xml</dc:format>
        <dc:type
           rdf:resource="http://purl.org/dc/dcmitype/StillImage" />
        <dc:title></dc:title>
      </cc:Work>
    </rdf:RDF>
  </metadata>
  <g
     inkscape:label="Layer 1"
     inkscape:groupmode="layer"
     id="layer1">
    <g
       id="g82"
       transform="matrix(0.26458333,0,0,0.26458333,-27.8044,15.95142)">
      <g
         id="g23">
</g>
      <g
         id="g25">
</g>
      <g
         id="g27">
</g>
      <g
         id="g29">
</g>
      <g
         id="g31">
</g>
      <g
         id="g33">
</g>
      <g
         id="g35">
</g>
      <g
         id="g37">
</g>
      <g
         id="g39">
</g>
      <g
         id="g41">
</g>
      <g
         id="g43">
</g>
      <g
         id="g45">
</g>
      <g
         id="g47">
</g>
      <g
         id="g49">
</g>
      <g
         id="g51">
</g>
      <g
         id="g6267"
         transform="matrix(0.27496991,0,0,0.27496991,406.74416,136.22863)">
        <g
           transform="translate(267.04689,611.9063)"
           id="g211">
          <path
             inkscape:connector-curvature="0"
             d="m 113.595,133.642 -5.932,-13.169 c 5.655,-4.151 10.512,-9.315 14.307,-15.209 l 13.507,5.118 c 2.583,0.979 5.469,-0.322 6.447,-2.904 l 4.964,-13.103 c 0.47,-1.24 0.428,-2.616 -0.117,-3.825 -0.545,-1.209 -1.547,-2.152 -2.788,-2.622 L 130.476,82.81 c 1.064,-6.93 0.848,-14.014 -0.637,-20.871 l 13.169,-5.932 c 1.209,-0.545 2.152,-1.547 2.622,-2.788 0.47,-1.24 0.428,-2.616 -0.117,-3.825 l -5.755,-12.775 c -1.134,-2.518 -4.096,-3.638 -6.612,-2.505 l -13.169,5.932 c -4.151,-5.655 -9.315,-10.512 -15.209,-14.307 l 5.118,-13.507 C 110.864,9.65 109.564,6.763 106.982,5.785 L 93.88,0.82 C 92.641,0.351 91.265,0.392 90.055,0.937 88.846,1.482 87.903,2.484 87.433,3.725 L 82.316,17.231 C 75.379,16.161 68.283,16.382 61.444,17.867 L 55.513,4.699 C 54.968,3.49 53.966,2.547 52.725,2.077 51.486,1.608 50.109,1.649 48.9,2.194 L 36.124,7.949 c -2.518,1.134 -3.639,4.094 -2.505,6.612 L 39.551,27.73 C 33.896,31.881 29.039,37.045 25.244,42.939 L 11.737,37.821 C 10.498,37.352 9.122,37.394 7.912,37.938 6.703,38.483 5.76,39.485 5.29,40.726 L 0.326,53.828 c -0.978,2.582 0.322,5.469 2.904,6.447 l 13.507,5.118 c -1.064,6.929 -0.848,14.015 0.637,20.871 l -13.17,5.932 c -1.209,0.545 -2.152,1.547 -2.622,2.788 -0.47,1.24 -0.428,2.616 0.117,3.825 l 5.755,12.775 c 0.544,1.209 1.547,2.152 2.787,2.622 1.241,0.47 2.616,0.429 3.825,-0.117 l 13.169,-5.932 c 4.151,5.656 9.314,10.512 15.209,14.307 l -5.118,13.507 c -0.978,2.582 0.322,5.469 2.904,6.447 l 13.103,4.964 c 0.571,0.216 1.172,0.324 1.771,0.324 0.701,0 1.402,-0.147 2.054,-0.441 1.209,-0.545 2.152,-1.547 2.622,-2.788 l 5.117,-13.506 c 6.937,1.069 14.034,0.849 20.872,-0.636 l 5.931,13.168 c 0.545,1.209 1.547,2.152 2.788,2.622 1.24,0.47 2.617,0.429 3.825,-0.117 l 12.775,-5.754 c 2.519,-1.134 3.641,-4.094 2.507,-6.612 z m -8.286,-47.529 c -4.963,13.1 -17.706,21.901 -31.709,21.901 -4.096,0 -8.135,-0.744 -12.005,-2.21 -8.468,-3.208 -15.18,-9.522 -18.899,-17.779 -3.719,-8.256 -4,-17.467 -0.792,-25.935 4.963,-13.1 17.706,-21.901 31.709,-21.901 4.096,0 8.135,0.744 12.005,2.21 8.468,3.208 15.18,9.522 18.899,17.778 3.72,8.257 4.001,17.468 0.792,25.936 z m 111.169,68.276 c -0.896,-0.977 -2.145,-1.558 -3.469,-1.615 l -9.418,-0.404 c -0.867,-4.445 -2.433,-8.736 -4.633,-12.697 l 6.945,-6.374 c 2.035,-1.867 2.17,-5.03 0.303,-7.064 l -6.896,-7.514 c -0.896,-0.977 -2.145,-1.558 -3.47,-1.615 -1.322,-0.049 -2.618,0.416 -3.595,1.312 l -6.944,6.374 c -3.759,-2.531 -7.9,-4.458 -12.254,-5.702 l 0.404,-9.418 c 0.118,-2.759 -2.023,-5.091 -4.782,-5.209 l -10.189,-0.437 c -2.745,-0.104 -5.091,2.023 -5.209,4.781 l -0.404,9.418 c -4.444,0.867 -8.735,2.433 -12.697,4.632 l -6.374,-6.945 c -0.896,-0.977 -2.145,-1.558 -3.469,-1.615 -1.324,-0.054 -2.618,0.416 -3.595,1.312 l -7.514,6.896 c -2.035,1.867 -2.17,5.03 -0.303,7.064 l 6.374,6.945 c -2.531,3.759 -4.458,7.899 -5.702,12.254 l -9.417,-0.404 c -2.747,-0.111 -5.092,2.022 -5.21,4.781 l -0.437,10.189 c -0.057,1.325 0.415,2.618 1.312,3.595 0.896,0.977 2.145,1.558 3.47,1.615 l 9.417,0.403 c 0.867,4.445 2.433,8.736 4.632,12.698 l -6.944,6.374 c -0.977,0.896 -1.558,2.145 -1.615,3.469 -0.057,1.325 0.415,2.618 1.312,3.595 l 6.896,7.514 c 0.896,0.977 2.145,1.558 3.47,1.615 1.319,0.053 2.618,-0.416 3.595,-1.312 l 6.944,-6.374 c 3.759,2.531 7.9,4.458 12.254,5.702 l -0.404,9.418 c -0.118,2.759 2.022,5.091 4.781,5.209 l 10.189,0.437 c 0.072,0.003 0.143,0.004 0.214,0.004 1.25,0 2.457,-0.468 3.381,-1.316 0.977,-0.896 1.558,-2.145 1.615,-3.469 l 0.404,-9.418 c 4.444,-0.867 8.735,-2.433 12.697,-4.632 l 6.374,6.945 c 0.896,0.977 2.145,1.558 3.469,1.615 1.33,0.058 2.619,-0.416 3.595,-1.312 l 7.514,-6.896 c 2.035,-1.867 2.17,-5.03 0.303,-7.064 l -6.374,-6.945 c 2.531,-3.759 4.458,-7.899 5.702,-12.254 l 9.417,0.404 c 2.756,0.106 5.091,-2.022 5.21,-4.781 l 0.437,-10.189 c 0.057,-1.325 -0.415,-2.618 -1.312,-3.595 z m -56.321,29.564 c -12.844,-0.55 -22.846,-11.448 -22.295,-24.292 0.536,-12.514 10.759,-22.317 23.273,-22.317 0.338,0 0.678,0.007 1.019,0.022 12.844,0.551 22.846,11.448 22.295,24.292 -0.551,12.853 -11.343,22.839 -24.292,22.295 z"
             id="path156" />
          <g
             id="g158">
</g>
          <g
             id="g160">
</g>
          <g
             id="g162">
</g>
          <g
             id="g164">
</g>
          <g
             id="g166">
</g>
          <g
             id="g168">
</g>
          <g
             id="g170">
</g>
          <g
             id="g172">
</g>
          <g
             id="g174">
</g>
          <g
             id="g176">
</g>
          <g
             id="g178">
</g>
          <g
             id="g180">
</g>
          <g
             id="g182">
</g>
          <g
             id="g184">
</g>
          <g
             id="g186">
</g>
        </g>
        <g
           transform="matrix(6.496083,0,0,6.496083,-1015.2207,546.8871)"
           id="g277">
          <g
             id="g219">
	<g
   id="g217">
		<circle
   style="fill:#010002"
   cx="26.686001"
   cy="4.507"
   r="4.507"
   id="circle213" />

		<path
   inkscape:connector-curvature="0"
   style="fill:#010002"
   d="m 28.256,11.163 c -1.123,-0.228 -2.344,-0.218 -3.447,0.042 -7.493,0.878 -9.926,9.551 -9.239,16.164 0.298,2.859 4.805,2.889 4.504,0 -0.25,-2.41 -0.143,-6.047 1.138,-8.632 0,3.142 0,6.284 0,9.425 0,0.111 0.011,0.215 0.016,0.322 -0.003,0.051 -0.015,0.094 -0.015,0.146 0,7.479 -0.013,14.955 -0.322,22.428 -0.137,3.322 5.014,3.309 5.15,0 0.242,-5.857 0.303,-11.717 0.317,-17.578 0.244,0.016 0.488,0.016 0.732,0.002 0.015,5.861 0.074,11.721 0.314,17.576 0.137,3.309 5.288,3.322 5.15,0 -0.309,-7.473 -0.32,-14.949 -0.32,-22.428 0,-0.232 -0.031,-0.443 -0.078,-0.646 -0.007,-3.247 -0.131,-6.497 -0.093,-9.742 1.534,2.597 1.674,6.558 1.408,9.125 -0.302,2.887 4.206,2.858 4.504,0 0.703,-6.75 -1.847,-15.648 -9.719,-16.204 z"
   id="path215" />

	</g>

</g>
          <g
             id="g221">
</g>
          <g
             id="g223">
</g>
          <g
             id="g225">
</g>
          <g
             id="g227">
</g>
          <g
             id="g229">
</g>
          <g
             id="g231">
</g>
          <g
             id="g233">
</g>
          <g
             id="g235">
</g>
          <g
             id="g237">
</g>
          <g
             id="g239">
</g>
          <g
             id="g241">
</g>
          <g
             id="g243">
</g>
          <g
             id="g245">
</g>
          <g
             id="g247">
</g>
          <g
             id="g249">
</g>
        </g>
        <g
           transform="matrix(0.3984689,0,0,0.3984689,-328.3783,624.09168)"
           id="g337">
          <g
             id="g281">
	<path
   inkscape:connector-curvature="0"
   style="fill:#010002"
   d="M 0,81.824 V 403.587 H 485.411 V 81.824 Z M 242.708,280.526 43.612,105.691 H 441.799 Z M 163.397,242.649 23.867,365.178 V 120.119 Z m 18.085,15.884 61.22,53.762 61.22,-53.762 138.002,121.187 H 43.487 Z M 322.008,242.655 461.543,120.119 v 245.059 z"
   id="path279" />

</g>
          <g
             id="g283">
</g>
          <g
             id="g285">
</g>
          <g
             id="g287">
</g>
          <g
             id="g289">
</g>
          <g
             id="g291">
</g>
          <g
             id="g293">
</g>
          <g
             id="g295">
</g>
          <g
             id="g297">
</g>
          <g
             id="g299">
</g>
          <g
             id="g301">
</g>
          <g
             id="g303">
</g>
          <g
             id="g305">
</g>
          <g
             id="g307">
</g>
          <g
             id="g309">
</g>
          <g
             id="g311">
</g>
        </g>
        <g
           transform="matrix(0.36854969,0,0,0.36854969,-326.01643,342.50934)"
           id="g520">
          <path
             inkscape:connector-curvature="0"
             style="fill:#ffffff"
             d="M 4,462.4 V 113.6 h 504 v 303.856 c -0.016,24.808 -20.112,44.92 -44.92,44.944 H 4 Z"
             id="path339" />
          <path
             inkscape:connector-curvature="0"
             style="fill:#aac1ce"
             d="m 504,117.6 v 299.856 c -0.016,22.6 -18.32,40.92 -40.92,40.944 H 8 V 117.6 h 496 m 8,-8 H 0 v 356.8 h 463.08 c 27.016,0 48.92,-21.904 48.92,-48.92 0,-0.008 0,-0.016 0,-0.024 z"
             id="path341" />
          <path
             inkscape:connector-curvature="0"
             style="fill:#25b6d2"
             d="m 31.92,45.6 h 448.16 c 17.632,0 31.92,14.288 31.92,31.92 0,0.008 0,0.016 0,0.024 v 32.184 H 0 V 77.544 C -0.016,59.912 14.264,45.616 31.896,45.6 c 0.008,0 0.016,0 0.024,0 z"
             id="path343" />
          <g
             style="opacity:0.7"
             id="g347">
	<circle
   style="fill:#ffffff"
   cx="44.192001"
   cy="77.68"
   r="8.9280005"
   id="circle345" />

</g>
          <g
             style="opacity:0.7"
             id="g351">
	<circle
   style="fill:#ffffff"
   cx="70.968002"
   cy="77.68"
   r="8.9280005"
   id="circle349" />

</g>
          <g
             style="opacity:0.7"
             id="g355">
	<circle
   style="fill:#ffffff"
   cx="97.736"
   cy="77.68"
   r="8.9280005"
   id="circle353" />

</g>
          <polygon
             style="fill:#ffffff"
             points="159.088,62.008 460.928,62.008 460.928,93.36 143.088,93.36 "
             id="polygon357" />
          <g
             id="g373">
	<path
   inkscape:connector-curvature="0"
   style="fill:#415e72"
   d="m 171.92,71.408 1.312,5.696 c 0.28,1.336 0.56,2.704 0.8,4.072 h 0.048 c 0.256,-1.368 0.672,-2.76 1.032,-4.048 l 1.6,-5.72 h 2.576 l 1.6,5.6 c 0.384,1.464 0.72,2.832 1,4.192 h 0.056 c 0.2,-1.368 0.496,-2.736 0.8,-4.192 l 1.392,-5.6 h 3.112 l -3.936,12.544 h -2.936 l -1.496,-5.104 c -0.384,-1.312 -0.704,-2.648 -0.952,-4 h -0.056 c -0.232,1.352 -0.552,2.688 -0.952,4 l -1.6,5.104 h -2.96 l -3.712,-12.544 z"
   id="path359" />

	<path
   inkscape:connector-curvature="0"
   style="fill:#415e72"
   d="m 192.272,71.408 1.312,5.696 c 0.28,1.336 0.56,2.704 0.8,4.072 h 0.016 c 0.248,-1.368 0.664,-2.76 1.024,-4.048 l 1.6,-5.72 h 2.576 l 1.6,5.6 c 0.384,1.464 0.72,2.832 1,4.192 h 0.056 c 0.2,-1.368 0.496,-2.736 0.8,-4.192 l 1.392,-5.6 h 3.12 l -3.944,12.544 h -2.936 l -1.496,-5.104 c -0.384,-1.312 -0.704,-2.648 -0.952,-4 v 0 c -0.232,1.352 -0.552,2.688 -0.952,4 l -1.6,5.104 h -2.96 l -3.712,-12.544 z"
   id="path361" />

	<path
   inkscape:connector-curvature="0"
   style="fill:#415e72"
   d="m 212.624,71.408 1.312,5.696 c 0.28,1.336 0.56,2.704 0.8,4.072 h 0.048 c 0.256,-1.368 0.672,-2.76 1.032,-4.048 l 1.6,-5.72 H 220 l 1.6,5.6 c 0.384,1.464 0.72,2.832 1,4.192 h 0.056 c 0.2,-1.368 0.496,-2.736 0.8,-4.192 l 1.392,-5.6 H 228 l -4,12.544 h -2.936 l -1.496,-5.104 c -0.384,-1.312 -0.704,-2.648 -0.952,-4 h -0.056 c -0.232,1.352 -0.552,2.688 -0.952,4 l -1.6,5.104 h -2.96 l -3.712,-12.544 z"
   id="path363" />

	<path
   inkscape:connector-curvature="0"
   style="fill:#415e72"
   d="m 229.136,82.208 c -0.056,-1.064 0.76,-1.976 1.832,-2.04 0.04,0 0.088,0 0.128,0 1.128,0.072 1.976,1.04 1.912,2.16 -0.064,1.024 -0.88,1.84 -1.912,1.912 -1.064,0.016 -1.944,-0.832 -1.96,-1.896 0,-0.04 0,-0.088 0,-0.136 z"
   id="path365" />

	<rect
   x="422.82401"
   y="75.671997"
   style="fill:#415e72"
   width="21.559999"
   height="4"
   id="rect367" />

	<polygon
   style="fill:#415e72"
   points="438.24,88.6 435.416,85.768 443.496,77.672 435.416,69.592 438.24,66.76 449.16,77.672 "
   id="polygon369" />

	<rect
   x="105.416"
   y="206.44"
   style="fill:#415e72"
   width="301.168"
   height="197.864"
   id="rect371" />

</g>
          <rect
             x="105.416"
             y="171.696"
             style="fill:#e04f5f"
             width="301.168"
             height="34.751999"
             id="rect375" />
          <rect
             x="206.104"
             y="337.92001"
             style="fill:#25b6d2"
             width="99.792"
             height="34.751999"
             id="rect377" />
          <g
             id="g383">
	<rect
   x="159.312"
   y="281.76001"
   style="fill:#ffffff"
   width="193.36"
   height="34.751999"
   id="rect379" />

	<rect
   x="159.312"
   y="235.98399"
   style="fill:#ffffff"
   width="193.36"
   height="34.751999"
   id="rect381" />

</g>
          <g
             id="g397">
	<circle
   style="fill:#aec4ce"
   cx="179.48801"
   cy="299.12"
   r="4.632"
   id="circle385" />

	<circle
   style="fill:#aec4ce"
   cx="196.28"
   cy="299.12"
   r="4.632"
   id="circle387" />

	<circle
   style="fill:#aec4ce"
   cx="213.08"
   cy="299.12"
   r="4.632"
   id="circle389" />

	<circle
   style="fill:#aec4ce"
   cx="229.87199"
   cy="299.12"
   r="4.632"
   id="circle391" />

	<circle
   style="fill:#aec4ce"
   cx="246.672"
   cy="299.12"
   r="4.632"
   id="circle393" />

	<circle
   style="fill:#aec4ce"
   cx="263.46399"
   cy="299.12"
   r="4.632"
   id="circle395" />

</g>
          <g
             id="g411">
	<path
   inkscape:connector-curvature="0"
   style="fill:#ffffff"
   d="m 227.832,359.744 c 0.92,0.552 1.976,0.848 3.048,0.856 1.736,0 2.752,-0.912 2.752,-2.24 0,-1.328 -0.704,-1.936 -2.48,-2.624 -2.152,-0.76 -3.48,-1.872 -3.48,-3.728 0.104,-2.088 1.88,-3.696 3.968,-3.592 0.096,0.008 0.192,0.016 0.288,0.024 1.008,-0.032 2.008,0.184 2.912,0.64 l -0.472,1.392 c -0.768,-0.408 -1.624,-0.624 -2.496,-0.624 -1.8,0 -2.488,1.072 -2.488,1.968 0,1.232 0.8,1.832 2.616,2.536 2.224,0.856 3.36,1.928 3.36,3.864 0,1.936 -1.504,3.792 -4.608,3.792 -1.168,0.024 -2.328,-0.248 -3.36,-0.8 z"
   id="path399" />

	<path
   inkscape:connector-curvature="0"
   style="fill:#ffffff"
   d="m 245.544,359.2 c 0,0.976 0,1.832 0.08,2.576 h -1.52 L 244,360.232 v 0 c -0.648,1.112 -1.84,1.784 -3.128,1.768 -1.488,0 -3.264,-0.8 -3.264,-4.144 v -5.528 h 1.72 v 5.272 c 0,1.8 0.544,3.008 2.112,3.008 1.008,-0.024 1.904,-0.656 2.264,-1.6 0.104,-0.28 0.16,-0.576 0.16,-0.88 v -5.8 h 1.72 z"
   id="path401" />

	<path
   inkscape:connector-curvature="0"
   style="fill:#ffffff"
   d="m 248.328,361.816 c 0,-0.64 0.08,-1.6 0.08,-2.4 v -11.472 h 1.696 v 5.936 0 c 0.664,-1.128 1.896,-1.8 3.2,-1.744 2.336,0.112 4.144,2.096 4.032,4.44 -0.008,0.12 -0.016,0.24 -0.032,0.36 0.32,2.464 -1.424,4.72 -3.888,5.032 -0.112,0.016 -0.232,0.024 -0.344,0.032 -1.328,0.088 -2.576,-0.608 -3.2,-1.784 h -0.056 l -0.08,1.6 z m 1.776,-3.792 c 0.008,0.208 0.032,0.416 0.08,0.624 0.296,1.184 1.36,2.008 2.576,2.008 1.8,0 2.864,-1.464 2.864,-3.624 0,-1.896 -0.968,-3.512 -2.816,-3.512 -1.248,0.016 -2.328,0.888 -2.608,2.112 -0.064,0.232 -0.096,0.464 -0.104,0.704 z"
   id="path403" />

	<path
   inkscape:connector-curvature="0"
   style="fill:#ffffff"
   d="m 259.512,354.928 c 0,-0.984 0,-1.784 -0.08,-2.56 h 1.504 l 0.08,1.52 h 0.056 c 0.576,-1.096 1.728,-1.776 2.968,-1.744 1.208,-0.016 2.296,0.752 2.68,1.896 v 0 c 0.264,-0.48 0.624,-0.896 1.056,-1.224 0.6,-0.464 1.336,-0.704 2.096,-0.672 1.248,0 3.104,0.8 3.104,4.112 v 5.6 h -1.68 v -5.352 c 0,-1.824 -0.664,-2.912 -2.048,-2.912 -0.952,0.04 -1.768,0.688 -2.032,1.6 -0.088,0.28 -0.144,0.568 -0.144,0.856 v 5.84 h -1.68 v -5.664 c 0,-1.504 -0.664,-2.6 -1.968,-2.6 -1.008,0.056 -1.864,0.744 -2.136,1.72 -0.096,0.272 -0.144,0.552 -0.136,0.84 v 5.704 h -1.688 z"
   id="path405" />

	<path
   inkscape:connector-curvature="0"
   style="fill:#ffffff"
   d="m 277.728,349.704 c 0.032,0.552 -0.4,1.032 -0.952,1.056 -0.048,0 -0.096,0 -0.144,0 -0.568,0.008 -1.024,-0.448 -1.032,-1.016 0,-0.016 0,-0.024 0,-0.04 -0.016,-0.576 0.44,-1.064 1.016,-1.08 0.024,0 0.04,0 0.064,0 0.56,-0.016 1.032,0.424 1.048,0.984 0,0.032 0,0.064 0,0.096 z m -1.904,12.112 v -9.456 h 1.72 v 9.456 z"
   id="path407" />

	<path
   inkscape:connector-curvature="0"
   style="fill:#ffffff"
   d="m 282.464,349.64 v 2.72 h 2.456 v 1.312 h -2.456 v 5.096 c 0,1.168 0.328,1.832 1.28,1.832 0.336,0.008 0.672,-0.032 1,-0.12 l 0.08,1.288 c -0.488,0.168 -1,0.248 -1.52,0.232 -0.696,0.032 -1.368,-0.232 -1.848,-0.728 -0.528,-0.704 -0.768,-1.584 -0.672,-2.456 v -5.16 h -1.464 v -1.312 h 1.48 v -2.264 z"
   id="path409" />

</g>
          <g
             id="g421">
	<path
   inkscape:connector-curvature="0"
   style="fill:#aec4ce"
   d="M 175.008,260.168 V 247 h 1.856 l 4.216,6.664 c 0.88,1.368 1.672,2.8 2.36,4.272 v 0 c -0.16,-1.752 -0.192,-3.36 -0.192,-5.408 v -5.504 h 1.6 v 13.168 H 183.2 l -4.176,-6.68 c -0.912,-1.416 -1.736,-2.888 -2.464,-4.4 h -0.056 c 0.096,1.664 0.136,3.24 0.136,5.432 v 5.6 z"
   id="path413" />

	<path
   inkscape:connector-curvature="0"
   style="fill:#aec4ce"
   d="m 193.04,260.168 -0.136,-1.184 h -0.064 c -0.68,0.904 -1.752,1.432 -2.888,1.408 -1.488,0.104 -2.776,-1.008 -2.88,-2.496 -0.008,-0.072 -0.008,-0.152 -0.008,-0.224 0,-2.28 2.032,-3.528 5.688,-3.512 v -0.192 c 0.136,-1.072 -0.624,-2.048 -1.696,-2.184 -0.152,-0.016 -0.304,-0.024 -0.456,0 -0.872,0 -1.72,0.248 -2.464,0.704 l -0.392,-1.136 c 0.936,-0.56 2.008,-0.856 3.104,-0.84 2.888,0 3.592,1.976 3.592,3.872 v 3.528 c -0.008,0.76 0.04,1.512 0.16,2.264 z m -0.248,-4.8 c -1.872,0 -4,0.296 -4,2.136 -0.064,0.84 0.552,1.568 1.392,1.64 0.072,0.008 0.136,0.008 0.208,0 1.032,0.024 1.952,-0.624 2.28,-1.6 0.064,-0.176 0.104,-0.36 0.104,-0.544 z"
   id="path415" />

	<path
   inkscape:connector-curvature="0"
   style="fill:#aec4ce"
   d="m 197.224,253.28 c 0,-0.984 0,-1.784 -0.08,-2.56 h 1.504 l 0.08,1.52 h 0.064 c 0.576,-1.096 1.728,-1.776 2.968,-1.744 1.208,-0.016 2.288,0.752 2.672,1.896 v 0 c 0.264,-0.48 0.624,-0.896 1.056,-1.224 0.6,-0.464 1.336,-0.704 2.096,-0.672 1.248,0 3.104,0.8 3.104,4.112 v 5.6 h -1.68 v -5.352 c 0,-1.824 -0.664,-2.912 -2.048,-2.912 -0.952,0.048 -1.768,0.688 -2.032,1.6 -0.088,0.28 -0.144,0.568 -0.144,0.856 v 5.84 h -1.68 v -5.664 c 0,-1.504 -0.664,-2.6 -1.968,-2.6 -1.008,0.056 -1.864,0.744 -2.136,1.72 -0.096,0.272 -0.136,0.552 -0.136,0.84 v 5.704 h -1.68 z"
   id="path417" />

	<path
   inkscape:connector-curvature="0"
   style="fill:#aec4ce"
   d="m 214.472,255.752 c -0.136,1.672 1.112,3.144 2.784,3.28 0.152,0.016 0.312,0.016 0.464,0 0.896,0.032 1.784,-0.136 2.608,-0.496 l 0.296,1.232 c -0.992,0.416 -2.064,0.616 -3.144,0.584 -2.424,0.16 -4.512,-1.68 -4.664,-4.096 -0.016,-0.232 -0.008,-0.472 0.008,-0.704 -0.28,-2.528 1.544,-4.8 4.064,-5.08 0.128,-0.016 0.248,-0.024 0.376,-0.024 2.208,0.04 3.968,1.864 3.928,4.072 0,0.128 -0.008,0.256 -0.024,0.384 0,0.264 -0.024,0.536 -0.064,0.8 z m 5.048,-1.224 c 0.192,-1.344 -0.744,-2.584 -2.088,-2.776 -0.104,-0.016 -0.208,-0.024 -0.312,-0.024 -1.472,0.112 -2.608,1.328 -2.632,2.8 z"
   id="path419" />

</g>
          <polygon
             style="fill:#25b6d2"
             points="206.104,359.904 206.104,337.912 228.096,337.912 "
             id="polygon423" />
          <g
             id="g425">
</g>
          <g
             id="g427">
</g>
          <g
             id="g429">
</g>
          <g
             id="g431">
</g>
          <g
             id="g433">
</g>
          <g
             id="g435">
</g>
          <g
             id="g437">
</g>
          <g
             id="g439">
</g>
          <g
             id="g441">
</g>
          <g
             id="g443">
</g>
          <g
             id="g445">
</g>
          <g
             id="g447">
</g>
          <g
             id="g449">
</g>
          <g
             id="g451">
</g>
          <g
             id="g453">
</g>
        </g>
        <g
           transform="matrix(6.1092178,0,0,6.1092178,-334.37719,904.65842)"
           id="g607">
          <g
             id="g542">
	<g
   id="g532">
		<g
   id="g530">
			<g
   id="g528">
				<path
   inkscape:connector-curvature="0"
   d="M 27.577,33.293 H 5.716 c -1.378,0 -2.5,-1.121 -2.5,-2.5 V 2.5 C 3.216,1.121 4.338,0 5.716,0 h 15.875 c 0.276,0 0.5,0.224 0.5,0.5 0,0.276 -0.224,0.5 -0.5,0.5 H 5.716 c -0.827,0 -1.5,0.673 -1.5,1.5 v 28.293 c 0,0.827 0.673,1.5 1.5,1.5 h 21.861 c 0.827,0 1.5,-0.673 1.5,-1.5 V 8.704 c 0,-0.276 0.224,-0.5 0.5,-0.5 0.276,0 0.5,0.224 0.5,0.5 v 22.09 c 0,1.378 -1.121,2.499 -2.5,2.499 z"
   id="path522" />

				<path
   inkscape:connector-curvature="0"
   d="m 29.577,9.204 h -7.986 c -0.276,0 -0.5,-0.224 -0.5,-0.5 V 0.717 c 0,-0.276 0.224,-0.5 0.5,-0.5 0.276,0 0.5,0.224 0.5,0.5 v 7.486 h 7.486 c 0.276,0 0.5,0.224 0.5,0.5 0,0.276 -0.223,0.501 -0.5,0.501 z"
   id="path524" />

				<path
   inkscape:connector-curvature="0"
   d="m 29.577,9.204 c -0.13,0 -0.26,-0.051 -0.358,-0.151 L 21.233,0.85 c -0.192,-0.197 -0.188,-0.515 0.01,-0.707 0.197,-0.193 0.513,-0.188 0.707,0.01 l 7.986,8.203 c 0.192,0.197 0.188,0.515 -0.01,0.707 -0.097,0.094 -0.223,0.141 -0.349,0.141 z"
   id="path526" />

			</g>

		</g>

	</g>

	<g
   id="g540">
		<path
   inkscape:connector-curvature="0"
   d="m 12.3,26.896 c -0.7,0 -1.358,-0.272 -1.853,-0.768 -1.021,-1.021 -1.021,-2.684 0,-3.705 l 2.305,-2.304 c 0.494,-0.495 1.15,-0.768 1.85,-0.768 10e-4,0 0.003,0 0.005,0 0.276,0.001 0.5,0.225 0.499,0.501 0,0.275 -0.224,0.499 -0.5,0.499 -10e-4,0 -0.003,0 -0.004,0 -0.432,0 -0.837,0.168 -1.142,0.475 l -2.305,2.304 c -0.631,0.632 -0.631,1.659 0,2.291 0.612,0.61 1.677,0.611 2.291,0 l 2.305,-2.305 c 0.306,-0.306 0.474,-0.713 0.474,-1.146 0,-0.276 0.224,-0.5 0.5,-0.5 0.276,0 0.5,0.224 0.5,0.5 0,0.7 -0.272,1.358 -0.767,1.853 l -2.305,2.305 c -0.496,0.495 -1.154,0.768 -1.853,0.768 z"
   id="path534" />

		<path
   inkscape:connector-curvature="0"
   d="m 18.688,20.505 c -0.276,0 -0.5,-0.224 -0.5,-0.5 0,-0.276 0.224,-0.5 0.5,-0.5 0.434,0 0.841,-0.168 1.146,-0.475 l 2.305,-2.305 c 0.306,-0.306 0.474,-0.712 0.474,-1.145 0,-0.433 -0.168,-0.84 -0.474,-1.146 -0.613,-0.611 -1.679,-0.611 -2.291,0 l -2.305,2.305 c -0.306,0.306 -0.474,0.713 -0.474,1.146 0,0.276 -0.224,0.5 -0.5,0.5 -0.276,0 -0.5,-0.224 -0.5,-0.5 0,-0.699 0.272,-1.357 0.767,-1.853 l 2.305,-2.305 c 0.99,-0.99 2.716,-0.99 3.705,0 0.495,0.495 0.767,1.153 0.767,1.853 0,0.7 -0.272,1.357 -0.767,1.852 l -2.305,2.305 c -0.493,0.496 -1.151,0.768 -1.853,0.768 z"
   id="path536" />

		<path
   inkscape:connector-curvature="0"
   d="m 13.45,23.625 c -0.128,0 -0.256,-0.049 -0.354,-0.146 -0.195,-0.195 -0.195,-0.512 0,-0.707 l 6.393,-6.394 c 0.195,-0.195 0.512,-0.195 0.707,0 0.195,0.195 0.195,0.512 0,0.707 l -6.393,6.394 c -0.097,0.098 -0.225,0.146 -0.353,0.146 z"
   id="path538" />

	</g>

</g>
          <g
             id="g544">
</g>
          <g
             id="g546">
</g>
          <g
             id="g548">
</g>
          <g
             id="g550">
</g>
          <g
             id="g552">
</g>
          <g
             id="g554">
</g>
          <g
             id="g556">
</g>
          <g
             id="g558">
</g>
          <g
             id="g560">
</g>
          <g
             id="g562">
</g>
          <g
             id="g564">
</g>
          <g
             id="g566">
</g>
          <g
             id="g568">
</g>
          <g
             id="g570">
</g>
          <g
             id="g572">
</g>
        </g>
        <g
           transform="matrix(3.6493507,0,0,3.6493507,884.21089,620.44513)"
           id="g664">
          <path
             inkscape:connector-curvature="0"
             d="M 52.354,8.51 C 51.196,4.22 42.577,0 27.5,0 12.423,0 3.803,4.22 2.646,8.51 2.562,8.657 2.5,8.818 2.5,9 V 9.5 21 21.5 22 33 33.5 34 46 c 0,0.162 0.043,0.315 0.117,0.451 C 3.798,51.346 14.364,55 27.5,55 40.606,55 51.155,51.361 52.375,46.484 52.455,46.341 52.5,46.176 52.5,46 V 34 33.5 33 22 21.5 21 9.5 9 c 0,-0.182 -0.062,-0.343 -0.146,-0.49 z m -1.933,25.475 c -0.028,0.121 -0.067,0.241 -0.116,0.363 -0.04,0.099 -0.089,0.198 -0.143,0.297 -0.067,0.123 -0.142,0.246 -0.231,0.369 -0.066,0.093 -0.141,0.185 -0.219,0.277 -0.111,0.131 -0.229,0.262 -0.363,0.392 -0.081,0.079 -0.17,0.157 -0.26,0.236 -0.164,0.143 -0.335,0.285 -0.526,0.426 -0.082,0.061 -0.17,0.12 -0.257,0.18 -0.226,0.156 -0.462,0.311 -0.721,0.463 -0.068,0.041 -0.141,0.08 -0.212,0.12 -0.298,0.168 -0.609,0.335 -0.945,0.497 -0.043,0.021 -0.088,0.041 -0.132,0.061 -0.375,0.177 -0.767,0.351 -1.186,0.519 -0.012,0.005 -0.024,0.009 -0.036,0.014 -2.271,0.907 -5.176,1.67 -8.561,2.17 -0.017,0.002 -0.034,0.004 -0.051,0.007 -0.658,0.097 -1.333,0.183 -2.026,0.259 -0.113,0.012 -0.232,0.02 -0.346,0.032 -0.605,0.063 -1.217,0.121 -1.847,0.167 -0.288,0.021 -0.59,0.031 -0.883,0.049 -0.474,0.028 -0.943,0.059 -1.429,0.076 C 29.137,40.984 28.327,41 27.5,41 26.673,41 25.863,40.984 25.068,40.956 24.582,40.939 24.113,40.907 23.639,40.88 23.346,40.863 23.044,40.852 22.756,40.831 22.126,40.785 21.514,40.727 20.909,40.664 20.795,40.652 20.676,40.644 20.563,40.632 19.87,40.556 19.195,40.469 18.537,40.373 18.52,40.371 18.503,40.369 18.486,40.366 15.101,39.866 12.196,39.103 9.925,38.196 9.913,38.192 9.901,38.187 9.889,38.182 9.47,38.014 9.077,37.84 8.703,37.663 8.66,37.642 8.614,37.622 8.571,37.602 8.235,37.44 7.924,37.274 7.626,37.105 7.556,37.065 7.482,37.026 7.414,36.985 7.155,36.833 6.919,36.678 6.693,36.522 6.607,36.462 6.518,36.403 6.436,36.342 6.245,36.201 6.074,36.059 5.91,35.916 5.821,35.838 5.731,35.76 5.65,35.68 5.516,35.55 5.398,35.42 5.287,35.288 5.209,35.196 5.134,35.104 5.068,35.011 4.98,34.888 4.905,34.765 4.837,34.642 4.783,34.543 4.735,34.444 4.694,34.345 4.645,34.224 4.606,34.103 4.578,33.982 4.541,33.823 4.5,33.661 4.5,33.5 4.5,33.387 4.513,33.274 4.531,33.162 4.556,33.011 4.542,32.86 4.5,32.717 v -7.424 c 0.028,0.026 0.063,0.051 0.092,0.077 0.218,0.192 0.44,0.383 0.69,0.567 C 9.049,28.786 16.582,31 27.5,31 c 10.872,0 18.386,-2.196 22.169,-5.028 0.302,-0.22 0.574,-0.447 0.83,-0.678 L 50.5,25.293 v 7.424 c -0.042,0.143 -0.056,0.294 -0.031,0.445 0.019,0.112 0.031,0.225 0.031,0.338 0,0.161 -0.041,0.323 -0.079,0.485 z M 50.5,13.293 v 7.424 c -0.042,0.143 -0.056,0.294 -0.031,0.445 0.019,0.112 0.031,0.225 0.031,0.338 0,0.161 -0.041,0.323 -0.079,0.485 -0.028,0.121 -0.067,0.241 -0.116,0.363 -0.04,0.099 -0.089,0.198 -0.143,0.297 -0.067,0.123 -0.142,0.246 -0.231,0.369 -0.066,0.093 -0.141,0.185 -0.219,0.277 -0.111,0.131 -0.229,0.262 -0.363,0.392 -0.081,0.079 -0.17,0.157 -0.26,0.236 -0.164,0.143 -0.335,0.285 -0.526,0.426 -0.082,0.061 -0.17,0.12 -0.257,0.18 -0.226,0.156 -0.462,0.311 -0.721,0.463 -0.068,0.041 -0.141,0.08 -0.212,0.12 -0.298,0.168 -0.609,0.335 -0.945,0.497 -0.043,0.021 -0.088,0.041 -0.132,0.061 -0.375,0.177 -0.767,0.351 -1.186,0.519 -0.012,0.005 -0.024,0.009 -0.036,0.014 -2.271,0.907 -5.176,1.67 -8.561,2.17 -0.017,0.002 -0.034,0.004 -0.051,0.007 -0.658,0.097 -1.333,0.183 -2.026,0.259 -0.113,0.012 -0.232,0.02 -0.346,0.032 -0.605,0.063 -1.217,0.121 -1.847,0.167 -0.288,0.021 -0.59,0.031 -0.883,0.049 -0.474,0.028 -0.943,0.059 -1.429,0.076 C 29.137,28.984 28.327,29 27.5,29 26.673,29 25.863,28.984 25.068,28.956 24.582,28.939 24.113,28.907 23.639,28.88 23.346,28.863 23.044,28.852 22.756,28.831 22.126,28.785 21.514,28.727 20.909,28.664 20.795,28.652 20.676,28.644 20.563,28.632 19.87,28.556 19.195,28.469 18.537,28.373 18.52,28.371 18.503,28.369 18.486,28.366 15.101,27.866 12.196,27.103 9.925,26.196 9.913,26.192 9.901,26.187 9.889,26.182 9.47,26.014 9.077,25.84 8.703,25.663 8.66,25.642 8.614,25.622 8.571,25.602 8.235,25.44 7.924,25.274 7.626,25.105 7.556,25.065 7.482,25.026 7.414,24.985 7.155,24.833 6.919,24.678 6.693,24.522 6.607,24.462 6.518,24.403 6.436,24.342 6.245,24.201 6.074,24.059 5.91,23.916 5.821,23.838 5.731,23.76 5.65,23.68 5.516,23.55 5.398,23.42 5.287,23.288 5.209,23.196 5.134,23.104 5.068,23.011 4.98,22.888 4.905,22.765 4.837,22.642 4.783,22.543 4.735,22.444 4.694,22.345 4.645,22.224 4.606,22.103 4.578,21.982 4.541,21.823 4.5,21.661 4.5,21.5 4.5,21.387 4.513,21.274 4.531,21.162 4.556,21.011 4.542,20.86 4.5,20.717 v -7.424 c 0.12,0.109 0.257,0.216 0.387,0.324 0.072,0.06 0.139,0.12 0.215,0.18 0.3,0.236 0.624,0.469 0.975,0.696 0.073,0.047 0.155,0.093 0.231,0.14 0.294,0.183 0.605,0.362 0.932,0.538 0.121,0.065 0.242,0.129 0.367,0.193 0.365,0.186 0.748,0.367 1.151,0.542 0.066,0.029 0.126,0.059 0.193,0.087 0.469,0.199 0.967,0.389 1.485,0.573 0.143,0.051 0.293,0.099 0.44,0.149 0.412,0.139 0.838,0.272 1.279,0.401 0.159,0.046 0.315,0.094 0.478,0.138 0.585,0.162 1.189,0.316 1.823,0.458 0.087,0.02 0.181,0.036 0.269,0.055 0.559,0.122 1.139,0.235 1.735,0.341 0.202,0.036 0.407,0.07 0.613,0.104 0.567,0.093 1.151,0.178 1.75,0.256 0.154,0.02 0.301,0.043 0.457,0.062 0.744,0.09 1.514,0.167 2.305,0.233 0.195,0.016 0.398,0.028 0.596,0.042 0.633,0.046 1.28,0.084 1.942,0.114 0.241,0.011 0.481,0.022 0.727,0.031 0.862,0.029 1.74,0.05 2.65,0.05 0.91,0 1.788,-0.021 2.65,-0.05 0.245,-0.009 0.485,-0.02 0.727,-0.031 0.662,-0.03 1.309,-0.068 1.942,-0.114 0.198,-0.015 0.4,-0.026 0.596,-0.042 0.791,-0.065 1.561,-0.143 2.305,-0.233 0.156,-0.019 0.303,-0.042 0.457,-0.062 0.599,-0.078 1.182,-0.163 1.75,-0.256 0.206,-0.034 0.411,-0.068 0.613,-0.104 0.596,-0.106 1.176,-0.219 1.735,-0.341 0.088,-0.019 0.182,-0.036 0.269,-0.055 0.634,-0.142 1.238,-0.297 1.823,-0.458 0.163,-0.045 0.319,-0.092 0.478,-0.138 0.441,-0.129 0.867,-0.262 1.279,-0.401 0.147,-0.05 0.297,-0.098 0.44,-0.149 0.518,-0.184 1.017,-0.374 1.485,-0.573 0.067,-0.028 0.127,-0.058 0.193,-0.087 0.403,-0.176 0.786,-0.356 1.151,-0.542 0.125,-0.064 0.247,-0.128 0.367,-0.193 0.327,-0.175 0.638,-0.354 0.932,-0.538 0.076,-0.047 0.158,-0.093 0.231,-0.14 0.351,-0.227 0.675,-0.459 0.975,-0.696 0.075,-0.06 0.142,-0.12 0.215,-0.18 0.13,-0.108 0.267,-0.215 0.387,-0.324 z M 27.5,2 c 13.555,0 23,3.952 23,7.5 0,3.548 -9.445,7.5 -23,7.5 C 13.945,17 4.5,13.048 4.5,9.5 4.5,5.952 13.945,2 27.5,2 Z m 23,43.703 c -0.014,0.044 -0.024,0.089 -0.032,0.135 C 49.901,49.297 40.536,53 27.5,53 14.464,53 5.099,49.297 4.532,45.838 4.524,45.793 4.513,45.749 4.5,45.707 v -8.414 c 0.028,0.026 0.063,0.051 0.092,0.077 0.218,0.192 0.44,0.383 0.69,0.567 C 9.049,40.786 16.582,43 27.5,43 c 10.872,0 18.386,-2.196 22.169,-5.028 0.302,-0.22 0.574,-0.447 0.83,-0.678 L 50.5,37.293 Z"
             id="path609" />
          <g
             id="g611">
</g>
          <g
             id="g613">
</g>
          <g
             id="g615">
</g>
          <g
             id="g617">
</g>
          <g
             id="g619">
</g>
          <g
             id="g621">
</g>
          <g
             id="g623">
</g>
          <g
             id="g625">
</g>
          <g
             id="g627">
</g>
          <g
             id="g629">
</g>
          <g
             id="g631">
</g>
          <g
             id="g633">
</g>
          <g
             id="g635">
</g>
          <g
             id="g637">
</g>
          <g
             id="g639">
</g>
        </g>
        <path
           inkscape:connector-curvature="0"
           id="path666"
           d="m -717.76964,653.65943 c 0,0 130.51075,-180.33305 342.85714,-231.42857"
           style="fill:none;stroke:#000000;stroke-width:3.77952766;stroke-linecap:butt;stroke-linejoin:miter;stroke-miterlimit:4;stroke-dasharray:none;stroke-opacity:1;marker-end:url(#Arrow2Mend)" />
        <path
           inkscape:connector-curvature="0"
           id="path666-8"
           d="m -728.35895,802.58217 c 0,0 130.51075,180.33306 342.85714,231.42863"
           style="fill:none;stroke:#000000;stroke-width:3.77952766;stroke-linecap:butt;stroke-linejoin:miter;stroke-miterlimit:4;stroke-dasharray:none;stroke-opacity:1;marker-end:url(#Arrow2Mend-2)" />
        <path
           inkscape:connector-curvature="0"
           id="path3124"
           d="M -366.34133,724.48629 H -712.05561"
           style="fill:none;stroke:#000000;stroke-width:3.77952766;stroke-linecap:butt;stroke-linejoin:miter;stroke-miterlimit:4;stroke-dasharray:none;stroke-opacity:1;marker-end:url(#marker3134)" />
        <path
           inkscape:connector-curvature="0"
           id="path666-5"
           d="m -68.909601,382.94956 c 0,0 221.428391,22.8591 371.851591,181.2087"
           style="fill:none;stroke:#000000;stroke-width:3.77952766;stroke-linecap:butt;stroke-linejoin:miter;stroke-miterlimit:4;stroke-dasharray:none;stroke-opacity:1;marker-end:url(#Arrow2Mend-4)" />
        <path
           inkscape:connector-curvature="0"
           id="path666-8-2"
           d="m -68.9096,1036.1109 c 0,0 221.42841,-22.8592 371.85164,-181.20874"
           style="fill:none;stroke:#000000;stroke-width:3.77952766;stroke-linecap:butt;stroke-linejoin:miter;stroke-miterlimit:4;stroke-dasharray:none;stroke-opacity:1;marker-end:url(#Arrow2Mend-2-4)" />
        <path
           inkscape:connector-curvature="0"
           id="path3124-4"
           d="M 250.13518,724.48629 H -95.579105"
           style="fill:none;stroke:#000000;stroke-width:3.77952766;stroke-linecap:butt;stroke-linejoin:miter;stroke-miterlimit:4;stroke-dasharray:none;stroke-opacity:1;marker-end:url(#marker3134-2)" />
        <path
           inkscape:connector-curvature="0"
           id="path5550"
           d="m 463.0862,618.23086 c 0,0 205.71429,-222.85715 425.71429,0"
           style="fill:none;stroke:#000000;stroke-width:3.77952766;stroke-linecap:butt;stroke-linejoin:miter;stroke-miterlimit:4;stroke-dasharray:none;stroke-opacity:1;marker-end:url(#marker5560)" />
        <path
           inkscape:connector-curvature="0"
           id="path5550-7"
           d="m 463.11204,821.33852 c 0,0 205.71429,222.85718 425.71429,0"
           style="fill:none;stroke:#000000;stroke-width:3.77952766;stroke-linecap:butt;stroke-linejoin:miter;stroke-miterlimit:4;stroke-dasharray:none;stroke-opacity:1;marker-end:url(#marker5560-4)" />
      </g>
    </g>
  </g>
</svg>
